<?xml version="1.0" encoding="UTF-8" standalone="no"?>
<svg width="1149px" height="452px" viewBox="0 0 1149 452" version="1.1" xmlns="http://www.w3.org/2000/svg" xmlns:xlink="http://www.w3.org/1999/xlink" xmlns:sketch="http://www.bohemiancoding.com/sketch/ns">
    <!-- Generator: Sketch 3.4 (15575) - http://www.bohemiancoding.com/sketch -->
    <title>graph</title>
    <desc>Created with Sketch.</desc>
    <defs></defs>
    <g id="Page-2" stroke="none" stroke-width="1" fill="none" fill-rule="evenodd" sketch:type="MSPage">
        <g id="Path-212-Copy-+-Path-212-Copy-2-+-Path-212-Copy-3" sketch:type="MSLayerGroup" transform="translate(-1.000000, 17.000000)" stroke-width="12">
            <path d="M0.879311068,416.984589 L115.086699,306.052979 L228.857173,343.228363 L342.568774,312.848343 L453.668802,334.139038 L570.078612,312.848343 L682.64401,284.196243 L791.838849,258.537399 L918.239135,191.042587 L1025.87129,222.444077 L1138.53715,117.302734 L1107.54496,119.916016 L1133.80273,147.541016 L1138.53715,117.628906" id="Path-212-Copy" stroke="#DBD2BC" sketch:type="MSShapeGroup"></path>
            <path d="M0.879311068,416.984589 L113.545428,346.643353 L225.945884,367.020779 L343.114661,322.898541 L454.145108,352.863049 L567.13425,296.980954 L680.91545,266.293629 L795.279893,280.19624 L912.625336,173.413607 L1020.98527,196.682306 L1129.39262,0.880859375 L1102.4375,10.2285156 L1134.32812,27.5761719 L1129.39262,0.880859375" id="Path-212-Copy-2" stroke="#C8C0AC" sketch:type="MSShapeGroup"></path>
            <path d="M0.879311068,416.984589 L114.86728,367.020782 L230.955027,387.792084 L343.890645,296.980957 L453.433309,382.355774 L570.078612,323.958954 L681.220486,239.492294 L802.253145,317.163605 L910.907418,153.031853 L1015.55872,169.46624 L1139.27789,62 L1114.37067,61.888331 L1136.62656,86.7454986 L1139.27787,61.888331" id="Path-212-Copy-3" stroke="#A69D86" sketch:type="MSShapeGroup"></path>
        </g>
    </g>
</svg>