<?xml version="1.0" encoding="UTF-8" standalone="no"?>
<svg width="441px" height="240px" viewBox="0 0 441 240" version="1.1" xmlns="http://www.w3.org/2000/svg" xmlns:xlink="http://www.w3.org/1999/xlink" xmlns:sketch="http://www.bohemiancoding.com/sketch/ns">
    <!-- Generator: Sketch 3.4.2 (15855) - http://www.bohemiancoding.com/sketch -->
    <title>Page 1</title>
    <desc>Created with Sketch.</desc>
    <defs></defs>
    <g id="Page-2" stroke="none" stroke-width="1" fill="none" fill-rule="evenodd" sketch:type="MSPage">
        <g id="Page-1" sketch:type="MSLayerGroup" transform="translate(-39.316123, -33.000000)" fill-opacity="0.45" fill="#FFFFFF">
            <path d="M261.659652,130.116009 C262.123262,131.06331 261.985513,131.995696 261.320017,132.873111 C259.621407,131.737031 259.460414,130.505071 261.659652,130.116009 M287.732831,166.58902 C286.999321,167.376094 286.21803,167.497543 285.662732,166.520838 C286.634719,166.284759 287.374685,166.066577 288.460745,165.694134 C288.013924,165.876946 287.697103,166.186321 287.732831,166.58902 M278.456772,166.239588 C278.104652,166.816151 277.337136,166.951662 276.567036,166.793565 C276.345348,166.482912 275.686738,166.265156 275.107334,166.269418 L275.331606,165.642997 C276.074156,165.907628 277.320778,166.293281 277.797732,166.414304 L278.456772,166.239588 M265.206672,163.529361 L264.952699,164.292145 C261.18399,162.265014 261.480579,162.742713 265.460646,161.880213 C265.109818,162.394134 264.997036,162.979219 265.206672,163.529361 M257.041209,155.598963 C257.204354,155.059048 257.55346,154.65081 258.065281,154.380213 C258.334321,155.280213 258.269321,156.154645 257.867268,157.000952 C257.303361,156.735043 257.037765,156.242855 257.041209,155.598963 M257.247401,157.763736 L257.846175,157.269418 C258.598626,158.193707 258.76995,159.26544 258.401474,160.435611 C257.977897,160.633764 257.725215,160.188452 257.364056,160.848963 C256.942632,159.96473 256.66154,158.79456 256.584917,157.68277 L257.247401,157.763736 M474.976308,106.84044 C470.691904,106.243423 475.219089,111.727798 470.430182,109.422827 C469.097467,108.781491 468.949818,107.524389 467.93995,107.138736 C466.484123,106.582628 464.896573,107.706776 465.56207,105.178509 C463.676639,105.882486 464.786805,110.70294 460.852368,109.486747 C461.989222,110.712741 461.97846,112.29456 462.938394,113.524389 C465.022268,116.195412 461.417566,114.810895 460.796407,115.077656 C457.975149,116.290014 453.38856,118.595838 452.308096,121.618849 C450.299123,117.910185 448.214387,123.291861 446.884255,120.954077 C446.306573,121.737315 445.82144,121.992571 444.914884,121.810611 C443.260182,121.478651 444.478394,122.299815 443.719917,123.195554 C442.85856,124.213594 442.402268,125.098253 442.317036,126.331918 C442.291639,126.695838 443.712169,126.397969 443.664387,127.327372 C443.622202,128.144702 443.746175,129.217713 443.526209,130.009474 C443.336374,130.693849 441.175877,130.704503 442.394089,132.753793 C439.900844,133.258338 440.767368,135.864588 439.400646,136.233196 C437.248758,136.814446 438.005083,139.015866 435.967699,140.360327 C434.591507,136.581349 433.13654,129.608906 435.997401,126.348963 C436.692169,125.557202 437.823858,125.913878 438.63356,124.829361 C439.424752,123.769134 440.21293,122.743423 441.070414,121.736037 C443.223162,119.20777 444.350116,118.307344 445.248063,115.000952 C443.700977,114.988594 441.418659,118.766293 439.996838,120.025099 C439.216838,117.628082 438.837599,115.900099 435.889785,117.834759 C434.171805,118.962741 432.27346,121.756918 433.867036,123.348963 C432.369023,123.72652 430.849487,124.053366 429.308427,124.192713 C430.105646,121.440724 422.163162,122.931349 419.762897,123.348963 C416.328659,123.946406 412.185017,130.459474 409.82995,133.013736 C411.92846,132.739304 411.50101,134.236747 412.91207,134.77581 C414.424719,135.354077 414.672235,132.948537 416.465116,135.223253 C418.192136,137.41402 416.381175,141.891435 415.872368,144.630213 C415.416076,147.087315 412.117434,151.059332 410.294851,152.765156 C408.214851,154.711747 405.528328,153.593139 404.578295,155.650099 C404.488758,155.275952 404.321738,155.003651 404.402235,154.567713 C404.290745,155.037741 404.48144,155.272543 404.57356,155.662884 C403.807765,155.875952 400.919354,159.354077 400.475546,160.384474 C402.1225,161.390156 403.839619,164.242713 402.76346,166.150099 C402.433295,166.736037 400.649454,167.413594 399.935745,167.49456 C399.010679,167.599815 399.268526,165.040866 398.947831,164.138736 L399.843195,163.887315 C399.442434,162.738878 398.810083,162.175526 397.931507,162.728224 C397.194553,161.844418 398.541904,160.367003 397.983162,159.864588 C396.466209,158.500526 394.324652,160.276662 392.843858,160.874531 C395.862268,156.444418 390.808195,158.537599 388.898659,160.759474 C387.239222,162.689872 394.271275,163.142855 394.608758,163.836179 C393.515811,163.984901 390.64505,165.419702 390.540447,166.802088 C390.512897,167.168565 393.536904,170.446832 393.868361,171.383054 C394.184752,172.278793 393.063394,172.605213 393.088791,172.797827 C393.126672,173.079077 394.058626,174.086463 394.087897,173.961179 C393.630745,175.92652 393.112897,176.094844 392.038891,177.719702 C389.887864,180.973679 388.109619,182.63902 384.505778,184.039304 C384.132997,184.18419 382.075381,184.845128 381.077136,184.998111 C379.899818,185.178793 379.270911,187.938878 379.322997,185.096122 C375.110911,183.114162 373.261639,188.867429 376.85644,191.375241 C381.66601,194.730639 376.683825,198.876946 373.649056,200.854645 C373.695116,199.358906 370.368924,195.753793 368.427533,195.992429 L368.604023,195.033622 C367.576507,195.201094 365.755646,200.051804 366.878295,200.106776 C367.199421,200.122543 369.663825,203.955639 369.71505,204.066861 C370.61644,203.904929 373.222897,208.703651 372.530281,209.564872 C370.702964,211.837457 367.639354,204.221122 367.739222,203.202656 C368.065944,203.376094 368.393526,203.549531 368.720679,203.722543 C367.380215,203.504787 366.504652,202.332486 365.617036,201.118849 L365.419023,201.822401 C365.124156,197.792003 365.967003,194.766435 364.002798,190.708338 C360.452765,194.621548 360.478162,189.576094 359.775646,187.205497 C357.497202,186.489588 358.363295,183.275241 355.953129,183.280781 C355.844652,184.488026 354.640646,184.72581 353.602798,184.704077 C351.79399,184.666577 349.341639,187.866435 347.586639,189.389446 C346.254785,190.545554 343.156738,191.910895 343.439123,193.718991 C343.825679,196.191435 342.718526,198.615298 342.307434,200.113168 C339.350579,203.013026 338.827566,199.022259 337.406606,196.435611 C335.534089,193.027372 334.92197,188.96544 334.391209,185.138736 C332.858328,186.349389 331.160579,185.84527 330.206672,184.201236 C330.644454,183.544134 328.012599,180.318707 326.836142,179.87169 C325.889553,179.512031 322.884917,180.114588 321.801871,180.233906 C320.065811,180.425668 318.398626,179.761747 316.685811,179.541435 C315.383228,179.373963 316.22995,178.017145 315.489553,177.830497 C315.058659,177.722259 314.258858,177.941719 313.98293,177.830497 C313.646308,177.694986 312.724685,178.460753 312.030778,178.254503 C311.008427,177.950668 310.488427,177.144418 309.493195,176.816293 C306.784719,175.922685 307.991738,172.526378 304.632831,173.760895 C305.172202,176.440866 306.892765,178.375099 308.055017,180.749531 C308.121308,179.923679 307.838493,179.462599 308.627533,178.959759 C308.749354,179.57723 309.187566,181.111321 309.196175,181.350384 L309.243526,181.708338 C311.825877,181.742429 312.632997,180.831349 314.404354,179.040724 L314.63293,179.488168 C314.663063,179.067145 314.218825,178.993423 314.757765,178.584759 C314.739685,179.116151 314.784023,179.857628 314.796076,180.52794 L314.793063,180.52794 C316.568295,183.811747 320.264685,181.983196 317.319023,186.314872 C316.402136,187.663168 314.699652,189.703509 312.85899,190.678509 C310.271474,192.049815 306.765778,192.728224 304.236805,194.560611 C303.676772,194.966719 300.930844,195.979645 300.431507,195.877372 C298.529288,195.489588 299.081573,194.729361 298.15048,192.826236 C299.270116,190.211037 295.180281,187.418139 293.966374,185.219702 C292.705977,182.937741 291.40899,177.429503 288.529619,176.364588 C288.707831,175.728366 288.829222,175.046974 288.877864,174.408622 C288.712136,175.250668 288.125414,176.219702 287.668692,176.918565 C286.81293,176.090156 286.196507,175.081918 285.860745,173.931349 C286.072533,176.30152 288.012202,179.433622 289.526573,181.456491 C290.770613,183.117997 291.071076,185.564872 291.747334,187.853224 C292.393891,190.042713 299.71048,195.981349 298.283493,197.074815 C300.362202,199.698111 305.631937,197.918991 308.416606,196.721122 C308.394652,201.744844 304.478295,206.88277 300.383725,209.545696 C298.181043,210.978366 293.22856,215.572969 293.522997,218.46473 C293.792036,221.109332 296.905149,225.259048 295.942202,228.732486 C294.651242,233.389304 287.203791,232.435185 289.437467,238.064872 L289.648825,238.000952 C289.91399,241.338026 285.411772,241.843849 286.339421,244.073395 L286.347169,244.073395 C286.118162,247.111747 281.522103,253.191435 278.303957,253.569844 C276.374619,253.796548 270.298626,256.055071 268.960745,254.075241 L268.904354,254.275099 C268.488957,253.072543 268.761871,252.274389 268.734752,251.30706 C268.695579,249.90848 267.091672,247.866009 266.457599,246.533054 L266.455447,246.536463 C264.16495,244.410469 264.905348,241.366577 264.091772,238.729645 C263.37548,236.407628 261.459917,234.298253 260.890844,231.974957 L260.889553,231.975384 C260.471142,228.523679 264.052599,226.141151 262.72548,223.128793 C262.087533,221.680781 262.937268,220.413452 261.789222,218.976094 C260.804752,217.744134 265.945348,218.087173 266.433924,218.087599 C264.729719,218.081634 260.246871,219.130355 261.595513,216.575241 L261.109089,217.086179 C259.101407,214.31331 257.126871,213.706065 258.06356,210.342571 C258.642533,208.261747 258.308924,206.943281 256.989123,205.431349 C253.021109,206.926662 252.499387,202.880071 248.010083,204.050668 C245.844851,204.615298 244.869851,205.053793 242.732169,205.179929 C241.21048,205.269844 238.484354,206.144276 237.101705,205.925668 C233.669189,205.383196 231.300778,201.35152 229.431275,199.154361 C228.806242,198.419276 227.497202,197.699957 227.037467,196.985327 C226.263924,195.78277 226.729255,194.460043 225.453791,193.423253 C228.666341,191.458764 226.29793,186.361747 226.70644,184.111747 C226.955248,182.740014 228.142897,180.703082 228.863063,179.59044 C230.350315,177.292287 232.71399,176.894276 234.174553,174.958338 C235.244255,173.541009 235.033328,172.293707 235.422897,170.52652 C235.751772,169.034616 237.400017,168.868423 238.384917,167.956918 C239.196772,167.205639 239.252732,164.538026 240.823493,165.881634 C241.513526,166.471832 243.880646,166.584759 244.689056,166.028651 C246.811672,164.568281 258.627467,162.230497 259.016606,164.142997 L260.041109,163.593281 C259.186639,165.651094 258.757897,168.05152 260.596407,169.346122 C261.380712,169.897969 262.208924,169.638878 263.024652,169.831918 C264.627699,170.211605 264.706474,171.305923 265.693096,171.821974 C266.905281,172.455639 269.735579,173.683764 270.643858,172.685327 C271.613262,171.618707 270.280977,170.236321 272.731606,169.763736 C273.549917,169.605639 275.824917,170.793281 276.807666,171.093281 C277.852401,171.412457 280.250944,172.498679 281.624983,172.525099 C283.125579,172.554077 284.050215,170.461747 285.305447,172.439872 C289.862765,171.716719 289.102997,168.068139 290.371573,164.249531 C288.673394,163.979787 288.110778,164.860185 286.434983,165.011889 C285.551672,165.092003 285.267997,164.273395 284.332169,164.236747 C283.422599,164.200952 283.514288,165.186605 282.567268,164.999531 C281.214321,164.732344 277.989288,162.925952 278.779619,161.326236 C279.31856,160.234048 277.923427,160.424105 278.653063,159.616577 C279.920778,158.212457 279.951341,159.072401 281.504454,158.454077 C282.916374,157.892003 281.298692,157.192287 283.714454,157.411321 C284.766937,157.506776 285.459123,156.531349 286.465116,156.208338 C288.874851,155.435327 290.378891,156.755923 292.561772,157.525099 C296.819487,159.024673 297.506076,155.505213 295.097632,153.495128 C295.018858,153.46956 294.968924,153.533054 294.947831,153.685611 C293.801076,152.376946 292.237632,151.839588 290.991871,150.672827 C292.387864,150.236889 293.038725,149.417003 292.196738,148.290724 C293.012036,148.174389 293.738228,147.780639 293.944851,147.195554 C291.98452,147.621264 289.934222,148.107912 288.357434,149.360327 C288.965679,150.224531 289.796474,150.549247 290.819255,150.293565 C288.729354,152.280639 287.408262,152.119986 285.899487,150.536463 C286.557235,150.175526 287.176672,149.60706 287.302368,149.168565 C286.083725,149.105497 284.776407,147.971548 283.84144,148.384474 C282.568129,148.946974 282.974487,150.961321 281.534586,151.235327 C281.409752,153.351094 278.822666,155.930071 281.719685,157.128793 C280.774818,157.367855 279.320281,157.929929 278.542864,158.935611 C278.087864,158.153224 278.23293,157.438168 278.839023,156.712031 C278.184719,158.311321 276.96995,157.727088 275.348825,158.096122 L276.183493,158.973963 C275.366474,159.45081 274.704421,159.26544 274.263626,158.424247 C274.410844,159.192145 274.497798,160.292855 274.45346,160.755213 C275.254983,161.243139 275.711275,161.89598 275.740546,162.749531 C275.454288,162.345128 275.081076,162.196406 274.620911,162.348963 L274.978195,163.116009 C274.650182,163.248111 274.380712,163.16544 274.152136,162.90294 L274.668692,164.586179 C274.557202,164.431065 274.247699,164.494134 274.224884,164.053509 C273.839619,164.038594 273.924851,164.273821 273.867599,164.607486 C273.805182,164.219276 273.586937,163.868565 273.200811,163.721122 C272.684255,163.891151 271.720447,161.712741 273.919255,161.752372 C272.088493,162.074531 270.617169,160.576236 271.606374,159.001662 C271.420414,159.250952 271.234454,159.500241 271.048493,159.749531 C269.722235,158.696122 270.580579,157.178224 269.856109,156.084759 C268.732169,154.387884 266.281109,154.06402 265.043096,152.356065 L265.288891,152.228224 C264.875646,151.070412 264.362103,150.360043 263.567036,151.422827 C263.127103,150.945128 263.057368,150.446974 263.549818,150.08902 C258.236606,148.49527 265.893262,157.505071 265.908758,156.753793 C267.207467,157.343139 269.008526,158.029645 268.809652,159.472543 C266.818328,156.904645 267.407202,161.25081 265.659089,162.378793 C266.474387,160.523821 264.902765,157.51402 262.734089,157.265156 C259.726871,156.920412 258.852599,149.70848 255.706772,153.272259 C255.725281,153.18277 255.823858,152.628366 255.834619,152.553366 C255.048593,155.440866 250.722003,152.477514 250.399156,154.761605 C250.235579,155.918565 245.330447,154.884759 244.67399,154.020128 C243.651639,152.674389 245.933096,149.433196 243.595679,147.095412 C242.785116,146.285327 241.353394,146.511605 241.243195,145.314162 C241.102003,143.78348 243.799288,144.33277 244.776871,144.732486 L244.394189,142.669986 C246.956308,144.791293 248.12803,140.860611 249.761639,140.100384 L249.763791,140.108054 C252.71505,139.378935 252.792964,133.759901 256.528526,135.46402 C257.950778,133.942287 256.533692,131.716151 256.503129,129.761037 C256.473427,127.829787 258.19399,127.651662 259.498725,126.579077 C258.966242,127.806776 259.339884,129.380923 259.602467,130.179929 L259.245182,129.945554 C257.688195,131.729361 258.982169,133.413878 259.933493,134.49669 C261.195613,133.578793 262.426738,133.483764 263.484818,134.68206 C263.936805,135.193849 266.470944,133.468423 267.238891,133.116009 C268.940083,132.335753 268.965911,133.893281 270.454454,133.644418 C271.4075,133.485043 271.60293,131.546974 273.661407,132.429929 C271.124685,131.827372 271.79793,127.573679 273.915381,126.52794 C275.230877,129.687315 276.352666,127.373395 276.214056,125.108906 C272.748394,124.545554 277.978526,121.513168 280.680977,122.988452 C280.918162,122.68973 281.04644,121.714304 281.874652,121.269418 C279.726209,118.020554 276.765911,122.508196 274.3325,121.708338 C271.924917,120.916577 271.863361,114.654077 273.005811,112.899673 C273.969619,111.420128 278.619487,107.97652 276.820149,106.505923 C273.081142,103.450099 272.543063,110.002372 270.900844,111.872259 C268.943096,114.101378 266.444685,116.170696 268.02707,119.358196 C269.872467,123.07581 267.19197,123.104361 266.742566,126.778509 C266.600944,127.938026 266.569089,130.228935 265.164056,130.028651 C264.568295,129.943849 262.61356,133.093423 262.249387,131.185185 C261.740579,128.516719 260.784089,124.854503 259.236573,122.598963 C257.723924,124.293707 255.819553,127.199531 253.571672,124.644418 C252.721076,123.67794 252.413725,117.470838 252.757666,116.49669 C253.559619,114.226236 256.407136,113.397827 257.893526,111.647259 C259.478493,109.781207 260.68207,107.814588 261.772003,105.612741 C263.937235,101.236747 266.791639,95.161321 271.213791,92.6053551 C272.144023,92.0679972 273.984685,92.3995313 274.522334,92.0279403 C275.550712,91.3171449 275.476672,88.9844744 276.930778,89.0914347 C277.958295,89.1668608 279.993957,88.2898722 280.725315,88.4697017 C281.945679,88.7697017 283.460911,90.3966903 284.50048,91.1287926 C282.613328,91.7287926 282.882368,93.0106108 284.266308,94.2536506 C284.265877,94.2540767 285.511209,93.0557813 285.51207,93.054929 C287.900712,96.4277983 295.204818,96.2807813 296.286142,101.108906 C297.957202,108.568423 288.813295,102.711179 286.781507,103.635895 C290.155911,106.190156 287.537831,109.552372 291.400811,111.574815 C290.89803,105.400099 292.640977,111.336605 295.528957,109.056349 C295.749354,108.88206 294.559983,107.287457 294.715381,106.976804 C295.029189,106.35081 296.062301,105.60081 296.536242,105.115866 C297.698493,103.928651 298.621407,103.822543 299.769023,105.310611 C300.669553,103.954645 300.184421,98.8785085 299.166374,97.5591903 C301.022533,98.1310653 302.950579,98.1289347 303.22952,100.380213 C301.308361,100.417287 301.030712,103.341009 302.661738,103.529361 C305.139056,103.816151 303.904487,101.748963 304.822666,100.908622 C306.31293,99.5445597 310.663626,96.5125994 312.467699,96.7836222 L311.279619,98.7608949 C312.690248,99.1358949 316.488228,97.9380256 317.693526,96.5449858 C318.119255,97.1539347 318.830811,97.8199858 319.07101,98.5137358 C321.718361,96.0272301 317.077964,92.4634517 322.11654,93.933196 C325.035083,94.7846165 327.164156,97.1803551 329.414619,99.1103267 C330.924685,97.3627415 329.264387,94.9316335 327.508096,94.6188494 C328.114619,92.8687074 327.046209,91.8493892 327.258427,90.2211222 C327.506805,88.3103267 328.706076,87.445696 329.449056,85.648679 C329.963891,84.4043608 329.556242,81.8650142 331.136474,81.2594744 C333.365844,80.4059233 334.527666,83.0496733 334.580182,84.5364631 C334.605579,85.2557813 333.861308,86.4843324 333.614222,87.1542188 C333.267268,88.0959801 334.163063,88.0026563 334.184156,88.8233949 C334.238825,90.9067756 334.491937,92.7225426 334.367964,94.8489631 C334.249156,96.889304 335.756209,97.5536506 335.243957,99.6689915 C334.828129,101.388452 333.590116,103.017997 332.746838,104.569134 C337.126805,106.591151 336.278791,97.8996733 337.162964,96.1785085 C333.6775,96.0762358 337.097103,91.6026563 336.272765,90.0259517 C334.272401,86.2009517 337.99505,86.048821 336.831937,82.1032244 L337.434586,82.0094744 C338.469421,84.1985369 336.522864,87.7435653 338.880944,88.5932813 C336.757467,84.1606108 342.813659,82.8975426 345.083924,86.351804 C344.588891,84.8530824 342.802467,80.2448438 343.89154,78.7239631 C345.074884,77.0714063 349.664487,78.1077699 351.510315,77.4881676 C348.643858,73.8608949 353.301474,72.089446 355.294089,70.0951278 C356.359487,69.0285085 358.582401,69.9570597 359.047732,68.4135938 C359.562997,66.7064915 362.50952,67.1513778 363.404023,68.3944176 C364.2925,67.5221165 365.13707,66.5096165 366.111639,65.7353267 C366.527897,65.405071 367.958328,66.183196 368.328957,65.820554 C368.768891,65.389304 368.272566,64.0819176 368.659983,63.5875994 C370.160149,61.6759517 372.25048,56.8525142 374.734255,60.8475426 L373.089454,62.1813494 C375.206043,62.2789347 376.555546,63.3472585 376.15048,65.5691335 C378.280844,61.6695597 382.972467,65.858054 384.220381,68.2461222 C386.049421,71.7476847 380.219222,74.079929 378.754785,76.4356108 C380.352235,77.0125994 381.730579,78.7503835 383.12399,77.3177131 L383.739553,80.0407244 C384.653427,77.4958381 387.654189,78.5454119 389.668758,78.9110369 C390.733295,79.1040767 389.696308,80.855071 390.73803,80.9807813 C392.295447,81.1691335 393.852434,81.3570597 395.409421,81.5449858 L395.478295,78.3617472 C397.794619,79.339304 401.311507,78.4601847 402.004553,81.6745313 C402.710944,84.9464063 401.29644,87.8181392 405.172334,89.9441335 L406.338891,86.0322017 C408.286308,88.9009517 408.981507,86.051804 410.939685,87.0229688 C413.193593,88.1411506 413.394189,86.061179 415.537897,87.3574858 C413.993394,80.9982528 417.246407,82.2770881 422.338361,83.4834801 C424.984421,84.1103267 426.807864,83.8452699 427.922334,86.3147301 C428.697169,88.0307813 430.751341,89.8243892 432.612235,89.5606108 C434.190745,89.3368892 437.748096,88.3482528 438.883659,90.0366051 C440.053659,91.776946 438.647765,93.8100426 440.965381,94.6827699 C441.69803,94.9589063 445.603195,94.2885938 446.996175,94.5634517 C449.885877,95.1344744 449.311639,94.2259517 451.382599,97.1628835 C454.229255,96.0958381 450.141573,91.8216903 453.793195,92.7464063 C456.816341,93.5121733 459.017301,93.2731108 461.908295,94.636321 C463.69644,95.4796449 465.759652,97.6286506 467.147897,99.0008097 C468.035083,99.8782244 469.441407,100.831918 470.077632,101.897259 C470.688891,102.92169 469.772864,103.467145 470.787467,104.530781 L470.508096,102.336179 C472.325944,102.589304 478.382997,104.402514 474.976308,106.84044 M464.080844,230.969702 C463.534586,231.159759 463.010281,231.438026 462.445083,231.604645 L462.290116,231.140156 C462.950877,230.89598 463.574619,230.604503 464.231937,230.373537 L464.080844,230.969702 M462.238891,233.015156 C459.633295,232.922685 461.767964,231.249247 462.238891,233.015156 M461.898825,260.854645 C460.138228,261.887173 460.361639,264.305071 458.235149,265.691293 C457.905414,265.078509 456.853361,261.537315 456.997566,261.449105 C459.381043,259.996832 455.70144,256.244702 455.092765,254.855071 C456.86154,255.22027 457.596341,257.053082 458.351805,258.783622 L458.377202,257.769844 C459.040546,259.569418 460.486904,260.188168 462.19154,259.512315 L461.898825,260.854645 M457.038891,265.823395 C456.335944,267.143139 455.046705,267.881634 455.630844,269.206918 C452.971871,269.002372 453.72346,271.801662 452.187566,273.046406 C451.129487,273.903793 448.052964,274.211037 447.701705,272.564872 C447.342699,270.882486 451.00293,269.142145 452.032599,268.288594 C453.57452,267.010611 454.014023,265.155639 455.295083,263.80777 C455.466407,264.250526 455.64548,264.68902 455.833162,265.124531 L456.689785,264.485327 C456.985944,264.887173 457.10303,265.333338 457.038891,265.823395 M449.31207,230.923253 C448.742566,231.114162 448.510977,230.803082 448.554454,230.211605 L449.31207,230.923253 M448.295745,229.87027 C447.81793,229.767145 447.723228,229.256634 447.848063,228.655781 C448.406374,228.92169 448.65303,229.392997 448.618593,230.023679 L448.295745,229.87027 M446.449056,237.476804 C445.712964,236.958622 445.099553,236.257202 444.705679,235.473963 C446.17399,235.95294 447.252301,237.026378 448.433924,238.09044 C447.751639,238.412599 447.040083,238.130071 446.449056,237.476804 M441.890447,224.019418 L441.430281,223.27794 C441.969222,223.381065 442.408295,223.62652 442.734156,224.02794 L441.890447,224.019418 M440.543526,221.010895 C441.15995,221.329645 441.675646,222.131207 441.68856,222.770838 C441.137136,222.292713 440.746275,221.697827 440.543526,221.010895 M440.401043,222.90294 C439.74803,222.951946 439.355017,222.736321 439.484586,222.115014 C440.081639,222.131634 440.572798,222.390724 440.870248,222.877372 L440.401043,222.90294 M438.13293,220.337599 L437.680513,219.937031 C438.490215,219.951094 439.341242,220.48419 439.742434,221.275099 C439.184123,220.999389 438.647334,220.686605 438.13293,220.337599 M436.630613,219.915724 C436.120944,219.75081 435.739983,219.387741 435.665944,218.952656 C436.084354,219.229219 436.486407,219.527514 436.871242,219.847543 L436.630613,219.915724 M434.870017,219.212599 C433.872202,218.992287 433.298394,218.115724 433.388791,217.090866 C433.978957,217.710043 434.651341,218.685043 434.870017,219.212599 M401.986474,210.792145 C400.996838,210.758054 401.067003,211.284759 401.67697,212.023679 C400.464785,211.588594 400.195745,209.695696 401.134586,208.516577 C401.79707,209.049673 402.07644,209.679929 401.986474,210.792145 M404.203791,214.77652 L404.642434,215.68419 C403.581341,215.105923 402.302864,214.975952 401.100149,215.130213 C401.830646,214.208054 402.970083,214.233622 404.203791,214.77652 M415.559421,158.292145 C418.255414,153.908054 417.164619,163.041009 416.424222,164.705497 C415.632599,166.485895 415.531871,167.110611 412.89399,167.222259 C411.331838,167.287884 410.0525,170.368423 409.765381,167.258054 C407.969487,167.335611 406.591573,168.260327 404.823228,168.280781 C406.181341,168.994986 406.260546,172.129219 404.461639,172.303509 C404.231341,172.325668 403.537003,169.665298 402.920579,169.12027 C404.278692,168.386037 405.424586,166.627372 406.794752,166.043565 C409.334917,164.961605 411.019321,166.891151 411.749818,163.27794 C413.76697,165.258196 416.117732,160.183764 415.559421,158.292145 M406.484818,169.55919 C406.86707,167.795412 410.125679,166.815298 408.70644,169.256634 C407.964752,168.625099 407.500281,169.004787 407.272997,169.96402 L406.484818,169.55919 M409.343096,217.921406 C409.378825,218.47027 409.154123,218.940298 408.71505,219.306349 C408.514884,218.665866 408.634123,218.081207 409.067599,217.571974 L409.343096,217.921406 M413.781606,218.513736 C411.90995,215.060753 407.470149,217.072969 406.028957,214.456918 C406.712533,214.127088 407.439156,213.988594 408.189454,214.052088 C406.933791,213.827088 405.39101,213.221122 404.255447,212.219702 C405.936838,211.517429 407.295811,211.536179 408.633262,212.466861 C409.297036,212.928366 408.587202,214.171406 409.592765,214.74456 C410.685281,215.367145 411.301705,213.458906 412.610745,213.123111 C418.113791,211.711321 416.932169,218.750241 416.949818,221.969702 C415.728162,220.566861 414.436772,220.794844 412.821242,221.122116 C413.751474,220.349105 414.109189,219.609759 413.781606,218.513736 M428.567599,214.354645 C429.818096,214.189304 431.732368,215.418707 431.180944,216.762315 C430.828394,215.538878 429.818526,214.704077 428.567599,214.354645 M428.740215,217.597543 C429.409586,217.225952 429.75697,216.762315 429.622235,216.059616 C432.253228,216.924673 427.051076,220.156491 425.842765,217.571974 C427.121672,217.364872 427.027401,217.515298 427.935248,217.052088 C427.884023,217.988736 428.276606,217.37169 428.740215,217.597543 M424.383924,219.894418 C425.347732,220.730071 425.980513,221.500526 426.936142,221.914304 C426.805712,222.518565 427.200017,222.699673 427.823328,222.65152 L427.461738,222.877372 C427.889189,223.046548 428.316639,223.215298 428.744089,223.384474 C425.366672,225.221122 423.300447,218.969702 420.038394,220.727514 C419.721573,220.897969 418.51197,223.497827 416.954123,221.974389 C416.276142,221.311321 416.916672,215.233764 416.910646,214.192713 C420.197235,215.587031 422.977169,216.615298 425.227202,218.978224 L424.116606,219.106065 L424.383924,219.894418 M417.715613,151.478224 L418.072897,150.161463 C418.980745,151.689588 420.562699,153.377514 422.12399,152.12169 C423.073162,154.197401 419.306175,156.67794 417.642434,154.925668 C417.493493,156.964304 415.12207,157.546406 415.472897,155.113168 C415.774222,153.025952 418.144785,154.370412 417.715613,151.478224 M418.366043,134.053509 L418.904123,133.767997 C419.759023,137.367997 420.009553,140.611321 421.318593,144.140156 C420.84207,143.815866 420.085315,143.725526 419.532599,143.539304 C418.162434,146.147685 420.179156,146.79456 419.93293,149.155781 L419.016043,148.116009 L418.22399,149.449815 C417.127169,144.483196 418.557169,138.060043 418.366043,134.053509 M432.020348,247.111747 C430.809454,250.507202 428.985579,253.60777 428.023063,257.070554 C427.259421,259.818281 427.579685,258.666435 425.173394,260.000241 C423.861772,260.727656 421.785215,262.389588 421.783493,259.823395 C417.903725,264.259901 416.181871,256.514446 413.445414,256.431349 C413.875877,255.877372 413.89697,255.277372 413.549156,254.650099 C413.286142,255.454645 412.732566,255.880355 411.882831,255.919986 C412.686076,254.911747 413.140646,253.786321 413.066606,252.532628 C412.112699,253.376378 411.404586,254.289162 410.871672,255.383054 C409.977599,254.47027 409.322864,252.997543 408.805017,252.127372 C404.749189,249.827088 401.325281,251.157912 397.193262,252.453366 C396.213526,252.760611 395.551904,253.661889 394.208427,254.104645 C392.692765,254.604077 391.557202,253.971264 390.06952,254.973963 C388.82505,255.812599 387.360182,255.959616 386.214719,254.658622 C385.248328,253.561321 386.198361,253.56473 386.425646,252.042145 C386.820811,249.394134 384.59144,245.552514 383.528195,243.255213 L384.058096,243.830923 L383.649156,242.603224 C384.065844,242.800099 384.385248,243.097969 384.604354,243.498111 C383.793791,241.010327 383.740844,240.06473 384.496738,237.579077 L384.587136,238.554929 C385.95601,236.641151 388.330877,236.096122 390.32995,235.40152 C393.295414,234.371122 393.840811,233.59044 395.185149,230.850384 C395.293195,231.555639 395.564818,232.036747 396.205778,231.672827 C395.71505,230.901094 395.781772,230.497116 396.687897,230.752372 C397.00601,229.712173 397.670215,228.738878 398.409752,228.169986 L398.938791,228.314872 C400.219421,226.996832 401.417831,229.033764 403.157765,229.081918 C403.173692,227.910043 403.649354,226.996832 404.358758,226.112173 C405.100877,225.187031 408.13952,226.124531 405.81803,224.577656 C407.622533,224.551662 413.639553,225.391577 410.815281,227.074815 C409.062434,230.212457 416.434983,232.952088 416.870182,231.722259 C417.836142,228.993281 417.176242,226.203793 418.731937,223.853224 C419.390546,225.43206 419.979421,226.818281 420.436573,228.55777 C422.450281,227.809474 422.32846,231.03277 423.144189,232.533622 C424.322368,234.701804 426.512997,235.63419 427.388129,238.324815 C427.905116,238.197827 428.282632,238.24598 428.657997,238.405781 C428.730315,240.480213 430.807301,240.832628 431.393593,242.660753 C431.837831,244.045696 431.896805,245.706349 432.020348,247.111747 M425.382599,266.846122 L425.257765,268.150099 L424.83548,267.702656 C423.02495,271.095554 421.723228,265.530213 421.430513,264.127372 C423.105877,265.027372 427.568493,263.443423 425.382599,266.846122 M390.39452,199.162884 C389.808659,199.981918 389.050613,200.64456 388.151805,201.131634 C389.12293,199.91544 390.342434,198.98348 390.975215,197.513736 C391.334222,198.251804 391.1375,198.800241 390.39452,199.162884 M391.474553,221.594702 C392.430613,220.908196 393.585977,221.422116 395.069354,220.738168 C394.437864,221.936037 392.865381,221.835043 391.474553,221.594702 M389.116043,221.718281 C388.629189,221.851662 388.133725,221.903224 387.630944,221.87169 C388.44452,220.760327 389.543063,220.609048 390.510315,221.47581 L389.116043,221.718281 M391.440116,222.259474 C391.962699,222.691577 392.404354,222.631065 392.425877,223.320554 C391.642864,223.284332 390.997599,222.939162 390.317036,222.498111 L391.440116,222.259474 M391.608427,210.43419 C393.390546,208.861321 395.670281,211.029929 397.677533,209.155781 C397.43346,212.008338 394.575182,209.820128 392.839123,210.65152 C389.81856,212.098679 393.6725,212.578935 395.59452,211.836605 L395.495083,212.381634 C394.836043,212.465582 394.093924,212.825241 393.381937,213.366009 C394.215745,214.467571 394.843361,215.459616 395.387467,216.668565 C395.644884,217.240866 394.282467,218.772827 394.845083,216.408622 C393.176606,217.256207 392.815017,215.715298 392.736242,214.222543 C391.372533,215.335185 391.772864,220.296264 391.050977,215.831207 C390.763427,214.053366 390.305844,213.024247 391.608427,210.43419 M393.407765,195.451236 L393.088791,196.503793 C392.661341,196.029503 392.283394,195.517713 391.956672,194.969702 C392.550712,194.843139 393.053063,194.990582 393.407765,195.451236 M395.306109,197.765156 C394.937632,198.164872 394.495546,198.455923 393.980281,198.638736 C394.031937,198.033622 393.986738,197.460043 393.838228,196.883054 C394.613493,197.002372 395.161043,197.239304 395.306109,197.765156 M396.485579,197.684616 C396.397765,198.723111 395.968593,199.614588 395.17697,200.351804 C394.393957,199.343565 394.660414,198.516861 395.783493,198.037884 L395.590215,198.851804 L396.485579,197.684616 M399.860414,215.603224 C399.313725,215.607912 398.938791,215.37652 398.78856,214.874531 C399.776043,214.711321 400.564652,214.750526 399.860414,215.603224 M397.699056,222.306349 C397.037434,222.986037 396.686606,223.517429 395.736573,223.320554 C396.250116,222.123963 396.95995,221.500099 397.699056,222.306349 M397.681838,221.935611 C398.119619,221.202656 399.261209,220.883906 400.415712,221.105071 C399.589652,221.634332 398.662864,222.042571 397.703791,222.302088 L397.681838,221.935611 M397.122235,200.956918 C397.548394,200.73277 397.280646,200.163026 398.172997,200.385895 L398.099818,199.457344 C399.569851,200.285753 399.663262,202.122827 399.042103,203.641577 L398.60346,202.422827 C398.581937,202.977656 398.100679,203.77581 398.082599,204.46402 C395.766705,203.905355 396.804553,200.299815 394.083593,202.891577 C394.143858,201.042997 395.741738,200.794986 397.122235,200.956918 M397.639222,197.99527 C398.021474,198.497259 397.986175,198.858196 397.363295,199.009474 C397.245778,198.263736 397.14548,198.009332 396.761076,197.365014 L397.470911,197.462599 C397.445513,196.917571 397.165712,196.431776 396.717599,196.073395 C397.977566,195.922116 398.556109,196.598821 398.542765,197.910043 L397.612964,197.59044 L397.639222,197.99527 M391.689785,182.30919 C393.239884,178.006918 393.910546,181.494844 392.464619,184.354645 C391.988957,183.751662 391.728096,183.067713 391.689785,182.30919 M391.909321,191.824815 C391.643725,189.710753 392.457732,188.342855 394.272566,188.77794 C394.873493,190.722827 393.051341,191.768565 393.512798,193.429219 C393.890745,194.787741 396.777434,193.767997 396.485579,196.107486 C395.889387,195.840298 395.422765,195.426946 395.099056,194.87169 L394.789553,195.319134 C393.622997,194.999531 392.070315,194.868281 392.757765,193.678509 L392.396175,193.392997 L392.241209,193.836179 C391.558493,193.188452 391.284288,192.358764 391.422897,191.415724 L391.909321,191.824815 M378.862401,189.123111 C374.462202,186.723537 384.742533,186.356634 378.862401,189.123111 M379.090546,208.721122 C381.178725,209.827372 383.95005,205.834901 386.072666,204.626378 C386.135944,205.574105 385.832036,206.06331 385.121341,206.343281 C385.88154,205.516151 386.471275,204.622116 387.310248,203.332628 C388.009752,202.25706 389.379917,204.424389 390.579189,204.677088 C390.549917,205.362315 390.212864,205.061463 389.683825,205.205497 C388.401474,206.847401 388.396738,208.332486 390.351474,210.029361 C388.153526,209.878935 387.102765,213.896548 386.915944,215.867429 C385.494553,215.898111 382.960844,214.544276 381.156772,214.689162 C379.269619,214.840866 377.281308,210.412031 379.090546,208.721122 M381.333262,220.989588 C378.724652,220.324815 376.183626,219.912741 373.898725,219.24669 C375.073891,216.867997 384.371043,219.85777 386.382169,221.070554 C384.689156,221.727656 383.152401,220.883054 381.333262,220.989588 M372.095513,217.086179 C369.6875,215.880213 368.04399,212.968849 366.542103,210.885895 C365.249851,209.093139 362.476374,206.62027 361.751474,204.596122 C364.19048,204.344702 364.994156,205.799531 366.734089,207.08902 C368.43399,208.349105 370.732235,209.176662 372.069255,210.979645 C372.266838,211.24598 372.225083,211.810611 372.71495,212.390156 C372.852268,212.552088 374.3025,214.125384 374.230613,213.988168 C375.11952,215.680781 374.528924,220.152656 372.095513,217.086179 M345.260414,203.390156 C342.570017,205.198679 342.748228,201.04598 343.465381,199.384474 C344.793791,200.360327 345.610811,201.749957 345.260414,203.390156 M331.554023,279.404361 C331.006043,279.582486 330.279421,279.486179 329.699156,279.523679 C329.636308,278.856776 329.660844,278.05777 329.931606,277.427088 C331.211805,277.693423 332.043891,278.191577 331.554023,279.404361 M307.530281,229.981491 L307.318924,230.347543 L306.905679,229.623111 C306.761474,232.837884 305.101606,236.343281 304.235944,239.717429 C303.02548,244.436037 299.421209,241.988736 298.989884,238.420696 C298.80952,236.92794 300.140944,236.508622 300.338957,235.030781 C300.521474,233.671832 299.502997,232.85919 300.212401,231.400099 C301.030712,229.716435 304.388328,230.099531 304.503692,227.475384 C305.390017,227.310469 305.897964,226.537031 306.105447,225.498111 C307.18548,226.727514 307.499719,228.487457 307.530281,229.981491 M224.209752,112.520838 C222.555911,112.111321 220.905944,111.688168 219.254685,111.267997 L220.443195,110.05777 L217.816937,108.694134 C220.899056,108.369844 220.075579,106.554503 217.369255,106.640156 C217.957699,102.038736 220.524553,106.086179 221.893427,106.290724 C222.346275,105.896548 222.799123,105.50152 223.25197,105.106918 C224.367301,104.135327 224.239023,105.819844 225.246738,105.52794 C227.063295,105.002088 226.941043,103.390014 229.216043,104.160043 C228.327566,106.505071 230.911209,107.197116 229.517368,109.096832 C228.250083,110.823537 226.142964,111.617429 224.209752,112.520838 M213.237235,97.883054 C209.667831,99.0076278 207.822434,98.8912926 206.040745,102.342145 C204.620646,105.093707 201.842003,105.844986 199.1275,106.90777 C197.025116,107.730639 197.629056,111.899957 196.031606,113.609616 C194.71654,115.016719 196.109089,120.960043 193.523725,121.179929 C191.848791,121.322685 191.822103,119.284474 190.265546,119.275952 C188.561772,119.267003 187.668129,119.024105 187.097334,117.270554 C186.0625,114.094134 183.900712,111.984332 183.67644,108.539446 C183.491341,105.70223 181.060513,103.569844 182.008825,100.638026 C183.036772,97.4620312 185.280778,96.6660085 185.330281,92.9782244 C180.032997,98.5836222 178.574156,87.3796449 184.701805,90.711179 C183.921805,89.8606108 182.0325,86.9010938 180.94601,87.3787926 C178.317599,88.5349006 180.24952,84.2594744 180.545248,83.464304 C180.990348,82.2681392 177.992599,74.5819176 177.144586,73.6013778 C175.762798,72.0033665 176.432599,70.6755256 174.878195,69.3084801 C173.157632,67.7952699 172.145182,66.9792187 169.712632,67.130071 C168.589983,67.1999574 165.014983,68.0658665 164.048162,67.6657244 C162.647434,67.086179 161.280281,63.9434233 160.548063,62.8035085 C162.392169,61.8191335 163.963791,60.748679 166.148825,60.8219744 C161.574719,59.5542187 154.708825,57.1819176 161.200215,53.0211222 C163.225116,51.7231108 165.194487,50.3526562 167.173328,48.9868892 C170.477566,46.7066335 164.295679,44.8576278 164.793295,43.5178551 C165.804454,40.7939915 167.380381,38.9922869 169.206407,36.6971165 C169.608891,36.1904403 171.514553,35.3100426 171.615281,35.0322017 C171.982467,34.0192756 170.702268,32.3726847 171.111639,31.3802131 C171.859354,29.5687074 175.70899,28.5063494 177.294818,27.9216903 C180.04548,26.9074858 181.928758,27.6630256 182.708758,30.3873153 L185.910977,25.5634517 C188.201904,28.2003835 190.656407,29.7451278 192.992103,32.2878835 C189.091242,26.0526562 190.09293,24.0992472 194.200414,18.2241051 C194.617533,17.6275142 197.414685,18.3562074 198.134851,18.4337642 C199.09995,18.5377415 199.624255,15.8777983 199.952268,15.0638778 C200.669421,13.2834801 205.234056,13.7552131 206.877997,13.9840483 C208.874056,14.2618892 213.059023,13.9695597 214.501507,15.483196 C216.815248,17.9108949 219.129421,20.3390199 221.443593,22.7667187 C221.794851,23.1353267 219.870679,25.5966903 219.572798,26.0692756 C219.034719,26.9228267 216.858725,26.6500994 215.919884,26.7306392 C213.345281,26.9513778 210.787036,27.3574858 208.226209,27.6983949 C208.586507,31.1688494 211.805083,27.2390199 213.377136,28.5131676 C216.540182,31.076804 216.299123,31.7313494 219.087235,28.6316335 C220.140149,31.8310653 219.691606,33.083054 218.764387,36.3532244 C221.011838,34.1935653 230.225911,26.2197017 231.554321,33.0242472 C232.422136,37.4692756 226.358195,42.3340483 222.534818,43.5421449 L225.328957,43.8787926 C223.424586,50.4928551 221.741474,56.3322017 224.433593,62.9270881 C216.143725,62.4630256 227.059421,70.7411506 221.781507,72.0165767 C222.302368,73.3162926 222.823228,74.6160085 223.344089,75.9157244 L220.667036,76.2353267 C223.664785,78.4448437 220.941242,80.4072017 218.286142,80.1515199 C219.22197,81.4857528 220.073427,83.0083381 219.814719,84.6728267 L217.425215,83.0407244 C216.299123,84.7329119 219.747997,85.6670028 220.088063,87.8756676 C220.887434,93.0647301 217.674884,90.0319176 215.89707,87.5535085 C216.614222,89.1655824 216.275877,90.804929 214.911308,91.9341903 C216.525977,91.9721165 218.15399,92.0522301 219.754023,92.2750994 C217.632268,94.2387358 215.500613,96.0804972 213.237235,97.883054 M156.967036,188.539304 C157.790513,188.83206 158.68803,188.844844 159.424553,188.535043 C159.109884,187.864304 158.775414,187.516577 158.120679,187.316293 C159.76548,186.830923 161.657368,187.086605 163.178626,187.725384 C163.371474,187.872401 163.717136,188.378224 164.272003,188.607486 C162.911738,189.270128 161.450745,188.429361 160.552798,189.873111 C159.41207,188.616861 157.729818,189.69456 156.967036,188.539304 M151.487235,178.554929 C151.889719,178.312457 151.921142,177.511321 152.804454,178.341861 C152.365381,178.412599 151.926308,178.483764 151.487235,178.554929 M153.139785,181.286463 C152.894851,181.722827 153.500083,181.949957 152.851374,182.108906 C152.314156,181.139446 152.375281,181.124957 152.356772,180.148679 C153.047235,180.348537 152.748493,180.739304 153.139785,181.286463 M152.842765,177.881634 L152.838891,177.728224 C153.677003,177.985185 153.953791,178.488878 153.587467,179.270838 C153.48803,178.765014 153.260315,178.321406 152.842765,177.881634 M154.758758,189.515156 C153.743725,189.727798 153.043361,189.755497 152.179851,189.08902 C153.113526,188.463452 153.884917,188.870838 154.758758,189.515156 M154.608096,186.919986 L152.881937,187.043565 L153.691209,186.336179 C151.554818,185.278082 150.125248,184.479503 147.552368,183.817713 L148.004785,183.498111 C146.468891,183.509616 145.576109,184.302656 144.169354,184.448395 C147.304421,180.87098 152.948228,184.017571 155.395844,185.931349 C156.10654,186.057486 156.584785,186.01402 157.199487,186.502372 C156.493096,187.038878 155.586109,187.08831 154.608096,186.919986 M167.56505,189.08902 C166.988659,189.253082 166.389884,189.54669 165.640447,189.438452 C165.900447,188.208196 166.593493,188.855071 167.56505,189.08902 M172.2825,198.255213 C172.57952,198.304645 172.902368,198.094986 173.22952,198.140156 C173.359089,199.405781 172.772798,198.896974 171.955348,199.064872 C172.271738,198.87652 172.381076,198.607202 172.2825,198.255213 M171.886474,148.623111 C170.87144,149.965866 168.627003,149.07652 169.467699,147.596122 C169.898162,148.59669 170.766407,148.911179 171.886474,148.623111 M171.542103,143.939872 C170.521904,143.685895 169.625248,143.205639 168.85644,142.499531 C169.86803,142.400241 172.900646,143.12169 171.542103,143.939872 M178.963725,141.983906 L179.772997,142.380213 L179.351142,143.023679 C180.83452,143.304503 182.442732,142.900099 181.809089,144.966861 L182.652798,144.660043 C183.983361,147.972827 180.744983,149.47581 181.258096,146.334759 C180.697632,147.446548 179.985215,147.494276 179.140215,147.800668 L179.992103,146.978224 C178.648626,146.575526 173.755977,147.30081 175.765381,145.448395 C175.485149,144.172969 177.560844,139.381491 179.854785,139.269418 C179.297334,140.382912 178.709321,141.484048 178.175977,142.610327 L178.963725,141.983906 M204.330513,221.824815 C203.191937,223.279219 200.655646,225.206634 200.052136,226.738168 C199.335414,228.556918 199.86144,230.717855 199.333262,232.665724 C197.991507,237.615298 196.080679,239.055213 191.313725,240.393707 C187.413725,241.488878 187.749917,247.542997 185.009586,250.386605 C182.235679,253.265156 180.404487,257.439162 176.212202,253.959759 C176.630613,255.227088 178.52207,256.840014 178.193195,258.319134 C177.562136,261.154219 173.847666,261.568849 171.499487,261.225384 C172.233858,264.166577 171.119387,263.414872 169.773328,264.860327 C169.220182,265.454361 167.977864,263.114446 168.230116,265.489304 C168.367434,266.785611 168.877964,266.780071 169.790546,266.258054 C169.960579,267.157202 168.247765,269.16473 167.754454,270.726094 C167.507798,271.506349 166.646871,271.018849 165.998162,271.615014 C164.286209,273.185753 166.271076,273.279929 166.368361,274.601804 C166.410546,275.17794 167.406639,274.836179 167.108758,276.544986 C167.093692,276.628509 165.124321,279.293991 164.90048,279.702656 C163.894056,281.539304 162.461474,282.023395 164.500149,284.411463 C163.947864,284.305781 163.401606,284.171974 162.863526,284.010043 L163.970679,284.30919 C162.254421,284.248253 161.254454,285.238594 161.084851,286.871974 C160.901043,288.642571 157.925679,285.470412 157.391043,285.071548 C154.989056,283.279219 154.50005,276.541577 157.263626,274.444134 L155.430281,273.937031 C156.638593,272.823111 156.961871,271.201662 156.988129,269.62027 L158.331175,270.204077 C158.624752,268.618423 159.457699,267.297401 158.150811,266.38206 L157.772003,268.406207 C156.581341,267.68902 157.737136,262.02652 158.008328,260.40294 C158.417699,257.956918 160.829156,254.261037 160.432699,251.299389 C159.995348,248.031349 161.088725,244.647401 161.560083,241.344418 C161.893692,239.004503 161.386175,234.461037 162.41197,232.947401 C154.002864,232.841719 154.865944,221.235469 148.662964,218.398679 C148.264785,216.390724 150.266871,215.483054 150.187235,213.736747 C147.622103,215.060753 150.719288,209.67652 151.388228,209.091861 C152.110546,208.210611 152.95899,207.114162 153.191871,206.24527 C153.73856,204.203651 152.507434,202.771406 152.365381,201.191293 C151.201838,199.970838 149.442103,200.66544 150.165712,202.116009 C149.527334,202.649531 149.057268,202.646974 148.89154,201.792145 C148.392202,201.541577 147.327235,201.36473 146.730613,201.485327 C146.018626,200.597259 145.157699,199.818281 144.16505,199.064872 C144.321308,199.329077 144.266639,199.542145 144.001043,199.704077 C143.35707,199.205923 143.048427,198.667713 143.002798,198.08902 L143.278295,197.858906 C142.486242,197.079929 141.494454,196.173537 141.048493,195.459759 C141.04505,195.478509 139.0675,195.00848 137.677533,194.530781 C135.990546,193.95081 133.835215,191.42169 132.10303,191.65223 C128.494884,192.132912 120.899354,190.092145 119.115944,186.310611 C119.970414,185.442997 119.452997,184.511037 118.754785,183.323395 C118.226606,182.425952 114.864685,178.547685 114.512566,178.36956 C111.745546,176.971406 111.142897,171.626804 108.199387,171.233906 C107.552831,173.967997 111.792897,178.21956 113.106672,180.655781 C113.641738,181.647401 115.715712,183.53348 113.60644,182.471122 C111.520414,181.421122 111.580248,178.462031 109.620348,178.265156 C108.978957,177.941293 108.378891,177.338736 107.864056,176.816293 C110.067169,176.245696 106.671242,173.045412 105.849487,171.459759 C105.102202,170.018991 105.078526,169.523395 103.813394,168.515156 C103.265844,168.079219 101.206937,167.58831 101.075646,166.872401 C100.437699,163.398111 97.2285927,161.002798 96.852798,157.410043 C96.4313742,153.387315 96.912202,149.284901 96.3792881,145.243849 C97.7658113,145.396832 98.5625993,146.152372 98.7640563,147.515156 C99.1075662,146.43277 98.9168709,145.254929 98.4584272,144.118849 C109.56654,144.118849 120.827897,144.438878 131.866705,144.080923 L105.505116,144.080923 L99.0322351,144.080923 C97.1816722,144.080923 96.2135596,141.850952 94.5678974,141.267145 C93.1077649,140.749389 93.000149,140.823537 92.4508775,139.442855 C91.8998841,138.057912 91.5834934,138.17723 90.9033609,136.981065 C90.2012748,135.746974 88.7131623,133.48419 89.6765397,132.152514 L89.1776325,132.868849 C87.3533278,131.718707 85.7106788,128.299815 85.075745,126.242855 C84.6633609,124.906918 82.8429305,125.95777 81.8296192,125.49669 C80.1688907,124.741577 79.4005132,123.393281 77.9162748,122.437031 C75.2013411,120.687741 72.2668709,121.438168 69.5497848,119.475384 C69.4744536,119.420838 65.4651159,122.576804 63.6253146,123.331918 C63.1586921,121.173963 64.4509437,119.391435 64.9468377,118.218281 C63.8091225,118.974247 61.3782947,121.704077 60.848394,122.880213 C60.6116391,123.406065 61.4153146,124.246832 60.5901159,125.650099 C59.9960762,126.661321 58.2875662,126.603793 57.9363079,127.757344 C57.1881623,130.216577 50.5172682,133.304787 47.8531291,133.699815 C48.4290894,131.991861 52.0721026,130.586889 53.5438576,129.472543 C56.0013742,127.612031 55.7887252,126.415014 57.202798,123.898679 C56.623394,124.452656 55.9695199,124.698963 55.424553,124.201236 L54.7702483,125.032202 L53.9829305,123.868849 L53.6557781,124.695554 L53.2037914,123.544986 C52.6140563,124.136889 52.0832947,124.508906 51.258096,124.469702 C51.9920364,120.874815 49.8212086,122.720838 48.5138907,121.284332 C47.1127318,119.745128 46.2255464,118.305639 46.7076656,116.249531 C47.4153477,113.232486 49.4772682,114.294844 50.4143874,113.060327 C51.0527649,112.218281 54.2756457,111.909759 51.8000497,110.074815 C52.0987914,109.716861 52.3971026,109.358906 52.6958444,109.000952 C50.7040894,109.721122 50.2439238,109.478651 48.5005464,109.795696 C45.8114404,110.285327 45.5436921,107.930923 43.8412086,106.491009 C45.3353477,105.291861 47.2780298,103.839162 49.2220033,103.814872 L49.0579967,105.297827 L51.6067715,105.18277 C50.951606,103.255355 48.7678642,101.188168 47.4256788,99.6225426 C46.2741887,98.2789347 45.2092219,98.9160085 45.9685596,96.9860369 C46.2190894,96.3498153 48.5543543,96.1627415 49.4122682,95.3045028 C50.3567053,94.3584801 50.2611424,92.7135938 51.3265397,91.5719744 C51.8990563,90.9587642 54.0134934,90.0140199 54.7874669,89.5648722 C54.614851,89.6654403 58.2415066,87.8500994 57.7537914,87.8432813 C59.0481954,87.861179 60.1450166,89.1447017 60.452798,90.2722585 C61.877202,88.8008097 66.5490232,91.7027983 69.1813079,92.079929 C71.1347517,92.3599006 73.2276656,92.0922869 74.7906788,92.9880256 C77.270149,94.4087642 76.5766722,95.2998153 76.5745199,98.3786506 C76.5706457,103.276662 76.5684934,108.174673 76.567202,113.072685 C76.5667715,114.579077 75.7019702,119.34669 76.5650497,120.62169 C76.7238907,120.856491 78.4814735,120.89527 78.9278642,121.358906 C79.6566391,122.115724 80.2700497,123.060895 80.8438576,123.93277 C81.4835265,123.067713 82.2794536,122.379077 83.2286258,121.87027 C83.9901159,123.603366 85.5100828,125.118281 86.5427649,126.681349 C87.4760099,128.093565 89.9584934,130.46331 89.8659437,131.869986 C90.1539238,130.228935 87.5612417,128.690156 86.748957,127.043139 C85.7885927,125.09527 84.1054801,123.805781 83.2415397,121.84044 C82.2919371,122.348821 81.4964404,123.037884 80.8563411,123.90294 C80.5476987,123.433338 76.5779636,119.58277 76.5779636,120.457202 C76.5788245,117.161037 76.5796854,113.864446 76.5805464,110.567855 C76.5822682,104.949247 76.5865728,99.3302131 76.590447,93.711179 C77.8073675,93.9860369 79.887798,96.1197017 80.7401159,96.1572017 C82.5678642,96.2381676 82.6100497,95.3910085 84.1403477,94.2770881 C85.2849503,93.4439915 86.1544868,94.5527983 87.6537914,93.2982528 C88.9034272,92.2520881 90.3799172,91.4428551 90.9291887,93.476804 C91.7845199,92.8912926 92.1659106,92.0513778 92.1004801,91.0009517 C93.5244536,91.6733949 94.1262417,93.2010938 94.9759768,94.4995313 L96.581606,92.1557813 L96.7451821,94.7765199 C99.7446523,92.9756676 99.2242219,93.6417188 102.433328,95.0415767 C104.513328,95.9483949 108.232964,96.1047869 109.28846,98.0918608 C108.763725,98.5853267 108.226507,99.354929 107.592434,99.6856108 C110.313394,101.021974 114.371374,98.2005256 115.349387,101.321974 C117.762566,99.7150142 114.98048,99.0945597 115.431606,98.3773722 C116.07601,97.3525142 118.06303,96.3204119 119.129288,97.179929 C119.749586,97.6802131 120.053924,98.2047869 120.51495,98.8695597 C121.100811,99.7145881 121.844222,98.8448438 122.729255,99.4380256 C124.806242,100.829361 125.597864,99.7086222 127.940447,100.073395 C126.662831,96.7141619 131.682036,97.3584801 130.734586,101.598963 C130.726407,98.7817756 133.723725,99.1465483 133.020348,95.8929972 C132.776275,94.7650142 131.484884,93.5577699 130.685944,92.7621733 C129.862467,91.9418608 130.379454,89.9360369 130.405712,88.8327699 C130.573593,81.7891619 138.853129,90.5556392 135.228626,93.7537926 C138.096374,93.7934233 137.469619,95.7182813 137.467036,97.8532244 L139.081275,95.258054 C141.303758,97.4002415 139.369685,99.6753835 141.327864,101.897259 C143.225348,99.0962642 143.475447,96.3920028 143.532268,93.1316335 C144.781904,93.2756676 146.550679,93.4069176 147.446904,94.339304 C149.554884,96.5313494 147.852401,96.6804972 147.819685,98.9654403 C147.801606,100.220838 149.584586,101.215014 148.147699,102.500241 C146.747831,103.75223 144.980348,105.749531 143.226639,103.844702 C142.782831,106.076378 141.664487,108.592713 140.313692,110.399531 C139.755381,111.146122 138.164818,111.479361 137.273328,112.205497 C137.245778,112.780781 137.218659,113.356065 137.19154,113.931349 C136.825215,114.427372 135.904454,114.094986 135.405116,114.801094 C134.051308,116.716151 132.581275,119.076946 132.523593,121.495696 C132.481838,123.268423 132.010911,123.701804 133.782699,124.084901 C134.687964,124.280497 134.893295,126.633622 135.202798,127.557486 C134.930315,126.744844 140.666672,129.905497 141.349818,130.350384 C143.261507,131.59598 147.530414,131.370128 147.298394,133.462884 C147.154189,134.762173 148.383593,140.064162 150.290546,139.981065 C153.15356,139.85706 151.288791,134.175384 150.393858,133.133054 C153.80399,131.965866 155.590844,128.350526 153.065315,125.402088 C151.174719,123.195554 153.802699,123.344276 153.266341,121.117287 C152.948659,119.796264 151.778659,116.082486 152.892699,115.290724 C154.559454,114.106491 159.663891,116.108906 160.412897,118.08831 C160.711209,118.87794 161.351308,118.637599 162.189851,118.710895 C163.428295,118.818707 162.321142,119.962457 162.713725,120.804929 C163.798924,123.13419 163.580679,123.437599 165.089884,125.492429 C167.250811,124.489304 167.465613,122.271264 168.791871,120.536889 C170.142235,123.85777 171.870116,128.794986 173.755116,130.831918 C176.051209,133.31331 179.355017,133.766719 179.504818,137.617713 C179.613295,140.403793 172.370315,142.136463 170.322169,141.82581 C165.541871,141.100099 163.798493,144.813452 160.913957,147.966861 C163.21005,147.337031 166.415712,141.237315 169.278295,144.562031 C165.540149,147.183196 172.131407,152.979929 173.686242,147.642997 C173.570877,148.475668 173.862301,149.106776 174.589785,149.509474 C173.253626,150.754645 170.954089,151.768849 169.226639,152.301094 C168.658858,152.47581 167.804387,154.173963 166.962401,153.37027 C165.874619,152.332628 168.349354,150.803651 169.011407,150.579503 C164.709785,150.497259 166.039917,150.297401 164.372301,147.034901 C165.365811,149.291719 166.57154,151.333764 164.00899,152.514162 C162.564354,153.179361 159.676805,155.122543 162.158427,156.37027 L162.033593,155.786463 C162.480414,157.211463 159.231275,157.174389 157.780613,157.721122 C158.50207,157.403651 159.303593,157.368281 159.910977,157.721122 C159.125381,158.037741 158.290281,158.201804 157.449156,158.198395 L157.483593,158.006634 L157.117699,158.441293 C157.524487,159.092855 157.155149,160.031634 156.333825,160.814872 C156.202964,160.444134 155.963626,160.187173 155.580513,159.958338 C156.390215,161.091435 156.110414,162.393707 155.081606,163.418565 C155.160381,162.51473 155.051474,161.538452 154.586573,160.491009 C154.32356,161.02581 154.338626,161.572116 154.61197,162.114588 L153.816043,161.875952 C154.689884,162.67581 155.91154,165.070696 154.952036,166.420696 C154.169023,167.523111 151.697732,167.790298 151.228957,169.09044 C150.620712,170.776236 147.942368,170.76473 148.491209,173.209048 C148.875613,174.922543 150.179917,176.628366 150.103295,178.405781 C149.873427,183.721406 147.279023,176.168139 146.993195,175.721122 C145.503791,173.393565 141.669222,172.678082 138.607765,173.52652 C138.720116,173.973111 138.856142,174.335753 139.059321,174.71544 C137.655579,175.270696 126.439421,173.076946 129.486242,179.283622 C129.480215,179.295554 129.48452,179.30706 129.498725,179.317713 C127.231043,183.830071 129.93005,189.918707 135.189454,188.605355 C138.128228,187.871548 136.942301,184.847685 140.394189,184.985327 C143.025182,185.090582 141.042467,187.086179 140.712732,189.046406 C140.422169,188.914304 140.334785,188.449389 140.157434,188.931349 C140.474255,189.818565 140.168626,191.091435 139.390778,191.99527 C141.401904,192.284616 146.993626,190.785043 145.990215,194.596832 C144.70399,199.481634 147.466705,200.509048 151.353361,199.708764 L151.30644,199.827656 C154.648129,201.667287 154.18452,199.357202 156.321341,197.863168 C157.045811,197.356918 162.536374,195.381349 159.889884,197.449815 C159.987169,197.905781 160.287632,201.584616 160.85154,199.77652 C161.01899,199.24044 160.194652,198.524957 160.552798,198.004219 C161.087003,197.226094 161.798129,197.431918 162.309089,196.554929 C164.050315,198.014446 164.391672,198.082628 166.79452,198.387315 C168.729454,198.632344 169.814222,198.04044 172.041871,198.306776 L171.017368,198.664304 C173.250182,199.681491 175.159288,201.681349 176.95346,203.292145 C178.316308,204.515582 187.254023,203.917713 183.293758,208.128793 C184.53005,203.766435 187.279421,209.373537 185.536474,210.834759 C186.766738,211.049105 188.214387,211.053366 188.089553,212.569134 C189.307765,211.319276 193.229288,212.333906 192.919354,214.294986 C196.901573,212.676946 206.547401,216.800668 204.330513,221.824815 M176.66505,283.534048 C175.596639,283.794418 175.191142,284.479645 174.491209,283.435611 C174.149851,283.727088 173.808063,284.017713 173.466275,284.30919 C172.387964,282.338736 176.977566,281.223537 176.66505,283.534048 M167.672666,290.160043 C166.665811,290.145554 166.016242,289.949957 165.180281,289.473963 L165.907765,289.529361 C164.182897,293.867429 157.817202,287.268281 156.609321,285.366009 C157.528791,285.723963 158.459023,286.924815 159.299719,287.113168 C162.725348,287.880639 159.85846,286.282628 161.917368,285.549247 C164.919851,284.479645 163.87856,286.504645 163.892765,289.473963 L163.892765,284.970128 C164.688692,287.102514 165.810911,288.722259 168.223228,289.128793 L167.672666,290.160043 M94.7043543,143.773679 C93.3836921,142.871974 92.0062086,142.402372 91.8034603,140.829077 C94.5812417,141.931065 95.8799503,142.488878 97.6577649,144.983906 C96.5058444,145.281776 95.346606,144.807486 94.7043543,143.773679 M87.924553,138.123111 C86.9387914,136.880071 85.974553,135.749105 85.9874669,134.168565 C86.5264073,134.462173 87.1191556,134.487741 87.7140563,134.270838 C87.1243212,135.642145 87.3283609,137.089304 88.4071026,138.127372 L87.924553,138.123111 M62.0498179,127.942713 C60.0270695,129.767855 60.1717053,127.60223 61.1415397,126.387315 C62.0235596,125.282344 63.5215728,126.501946 62.0498179,127.942713 M59.8587583,187.550668 C59.495447,187.785469 59.1364404,187.933764 58.8213411,188.223963 C58.5131291,187.506776 58.3822682,187.300952 58.6147185,186.519418 C59.306043,186.68902 59.4997517,187.105781 59.8587583,187.550668 M57.9388907,186.140156 C57.9255464,185.142997 57.9363079,185.955213 57.9388907,186.140156 M57.4912086,185.505213 L56.8455132,185.466861 C57.0034934,185.279361 57.2634934,185.268707 57.5299503,185.368849 L57.4912086,185.505213 M56.3844868,185.258054 C56.0190232,185.32027 55.7814073,185.193707 55.6742219,184.853224 C56.1038245,184.63419 56.3324007,184.842997 56.3844868,185.258054 M54.2579967,184.469702 C53.9075993,183.799389 54.0853808,184.13902 54.2579967,184.469702 M46.1398841,121.925668 C45.5669371,121.651662 45.0585596,121.287741 44.616043,120.834759 C46.1652815,120.252656 47.5375993,120.588878 46.1398841,121.925668 M43.0276325,113.334759 L42.1494868,113.87169 L42.1494868,112.759474 C42.6595861,112.772685 43.0861755,112.894134 43.0276325,113.334759 M95.2596523,84.2509517 C96.0512748,81.2287926 97.881606,78.8202699 95.9613079,75.9285085 C100.40154,75.1725426 104.687235,75.4384517 107.312632,79.4441335 C105.654487,80.4510938 103.52197,82.0968324 102.60207,83.7741051 C100.905613,86.867429 101.442401,87.6698438 98.1614073,89.5094744 C97.6840232,87.1192756 93.7108444,86.7046449 95.2596523,84.2509517 M100.490215,63.5620312 C101.154851,62.6266619 102.003725,60.6638778 102.969685,60.0719744 C103.889156,59.5086222 105.303659,60.1985369 106.477533,59.3347585 C106.304917,63.7337642 105.923957,63.9527983 103.134983,66.6280824 C102.350679,67.3806392 100.779487,68.9177131 99.6525331,68.1809233 C97.6482947,66.8701278 99.4756126,65.4566335 100.490215,63.5620312 M110.834255,67.2608949 C112.021904,68.8640199 112.761871,70.7155824 115.086805,70.5165767 C114.254719,68.2461222 112.923295,66.551804 114.180679,64.4160085 C115.39803,62.3475426 116.353228,67.9171449 116.598162,68.7225426 C118.36005,66.9954119 119.378526,68.4383097 119.150381,70.4867472 C118.840877,73.2702699 117.121606,72.936179 114.750182,73.348679 C113.278427,73.6047869 112.305579,75.317429 110.806275,75.4013778 C107.398725,75.5914347 110.628063,72.9319176 111.798063,71.9824858 C109.974619,72.1678551 103.956738,73.7224006 105.083262,70.4782244 C106.572666,66.1895881 106.563195,65.117429 110.834255,67.2608949 M110.679288,57.0336222 C112.502301,55.8647301 115.700646,57.6506676 113.388626,59.2947017 C111.185513,60.8616051 108.397831,59.4306392 110.679288,57.0336222 M110.911738,54.0890199 C111.604785,51.8824858 113.097202,52.1445597 114.368361,53.7822017 C113.510877,54.833054 112.219056,55.2489631 110.889785,54.9412926 C110.897103,54.6574858 110.904421,54.3732528 110.911738,54.0890199 M121.772334,50.2921449 C124.961209,52.5204119 125.869487,53.9556392 126.425215,57.8603267 C123.641838,57.4559233 122.88293,54.6276563 119.783593,55.1074858 C122.132632,53.1140199 118.836142,52.0375994 119.404785,49.4228267 L121.772334,50.2921449 M129.249056,52.3759517 C130.627401,53.2721165 132.570944,56.004929 130.602864,57.3054972 C127.772136,59.1762358 127.602533,54.2560653 127.686904,52.1287926 L129.249056,52.3759517 M130.846076,40.4995313 C131.051838,38.2277983 133.750414,38.0466903 132.387136,35.9313494 C134.283328,35.2401563 135.092599,35.2627415 135.736573,36.9647301 C136.635381,39.3404403 137.21005,39.3792188 138.767036,41.1728267 C140.326175,42.9689915 140.69293,42.2748153 141.222401,44.8013778 C141.404487,45.6698438 143.188758,48.7286506 143.15346,49.1884517 C143.113858,49.7006676 140.725215,52.6657244 140.381275,53.3709801 C139.507864,55.1607528 139.349454,56.039446 137.130844,56.0790767 C133.422831,56.1459801 132.318692,51.3728267 134.307003,48.9072017 C129.622268,50.2733949 130.184884,43.0167188 130.846076,40.4995313 M152.502699,78.7026563 C153.642566,79.6116051 154.581838,80.7054972 154.694189,82.1202699 C151.93793,81.5040767 151.079586,83.2610369 149.458891,80.6040767 C147.857997,77.9795028 150.731341,78.0532244 152.502699,78.7026563 M130.32995,58.273679 C137.388692,56.6040767 130.090182,63.7333381 130.32995,58.273679 M135.172666,73.4867472 C134.699156,71.1110369 135.087434,68.3339063 133.399156,66.3787926 C132.676407,65.5422869 130.852103,65.7037926 129.865911,64.5804972 C129.227533,63.8530824 129.51207,61.9324858 130.604586,62.0824858 C132.863659,62.3918608 132.076341,63.1635938 133.786142,64.0350426 C135.535977,64.9265199 135.724089,63.3089063 136.934123,65.2789347 C137.84154,66.7563494 137.012036,69.5978267 139.894851,69.9753835 C141.6675,70.2076278 153.849189,67.5131676 149.995679,73.7040767 C148.822666,75.5884517 144.906308,75.2752415 142.813394,75.4128835 C139.826838,75.6089063 137.856606,74.7067756 135.172666,73.4867472 M130.837467,79.601804 C131.526209,75.9672869 134.79601,76.1671449 137.48856,77.8248153 C136.141209,80.6066335 134.336705,82.133054 133.153791,84.8292187 C131.981639,87.5006676 130.724685,80.7302131 130.837467,79.601804 M129.873659,73.0691335 C129.994189,71.5665767 130.866308,70.3158665 132.249818,69.6856108 C134.507599,72.5786506 133.010877,76.7326278 129.873659,73.0691335 M123.01207,70.086179 L122.934156,66.2850426 C124.458858,66.7282244 127.045083,64.5655824 127.84144,64.3162926 C129.25293,66.9545028 128.747566,69.5658665 128.308063,72.3711222 C128.003295,74.314304 124.194123,72.6621733 124.992202,69.7154403 L123.01207,70.086179 M117.657103,79.5123153 C119.833096,77.1229688 121.028924,80.2819176 119.537798,82.3887358 L117.657103,79.5123153 M123.498493,95.7395881 C123.081374,97.8715483 120.827467,96.4022301 119.374222,95.7694176 C117.620513,95.0057813 115.442798,96.8245313 113.640877,97.1164347 C112.601738,97.2843324 111.56303,97.4428551 110.521738,97.5937074 C109.380149,97.7590483 109.801142,96.3915767 108.882533,95.8814915 C106.959222,94.8127415 105.932997,95.7860369 105.104785,92.8716903 C107.061242,91.7449858 109.18601,92.4860369 111.049487,91.4441335 C109.051275,90.3378835 107.404752,90.9476847 105.281275,90.858196 C102.228858,90.7290767 105.10005,88.3802131 106.585149,88.0137358 C102.892632,88.6806392 102.332599,86.6232528 103.841374,83.7813494 C105.114255,81.3834801 110.919056,78.9591903 108.328957,82.8191335 C110.07793,81.4192756 111.774387,81.3570597 112.693427,83.6245313 L114.057997,81.5748153 C115.487136,83.020696 115.654156,84.8181392 116.145745,86.726804 C117.177997,85.0576278 114.864255,80.6786506 116.959752,80.445554 C119.347533,80.180071 119.934685,84.8620313 120.190811,86.1481108 C120.7375,88.8902983 121.00697,88.8728267 122.672003,90.9711222 C123.487301,91.9989631 126.957268,95.0270881 122.727533,94.4398722 L123.498493,95.7395881 M130.545182,94.4952699 C132.854619,97.8677131 127.262036,96.4725426 126.274983,94.7978267 C127.106209,94.086179 127.742003,93.2283665 128.181507,92.2282244 C129.143593,92.7937074 129.9675,93.5777983 130.545182,94.4952699 M129.993758,86.6884517 C127.523328,89.8678551 122.864421,84.7597585 123.041772,82.1032244 L125.504454,82.601804 C124.116639,80.9368892 124.131275,79.9866051 125.232831,78.4107528 C125.089487,78.6157244 129.243891,78.3204119 129.193526,78.242429 C130.177566,79.7552131 127.760944,80.8635938 128.857334,81.905071 C130.565414,83.5282244 130.137103,84.3579119 129.993758,86.6884517 M149.795083,116.202656 C151.057632,114.961321 151.044719,115.848537 150.587566,117.344702 C149.870414,117.148253 149.999123,116.737457 149.795083,116.202656 M147.905778,114.084759 C146.920877,118.707912 143.332533,113.143849 147.905778,114.084759 M147.092202,112.103224 L146.416374,110.884474 C145.6325,111.981349 144.623063,112.944844 143.502136,113.701236 C143.479321,112.260895 142.790579,111.836037 141.452699,112.40152 C143.06005,110.976094 142.703626,108.253935 143.071672,106.273679 C143.937765,106.352088 144.266639,106.892003 144.169354,107.769418 C145.483129,107.319418 148.246275,109.579645 148.29707,111.216861 C149.067169,110.879787 149.64356,111.146974 150.044752,111.90294 C149.183394,112.837031 148.183858,112.854503 147.092202,112.103224 M153.510414,100.704077 C153.67399,98.7677131 156.054023,97.5634517 156.078129,100.041435 C156.096209,101.940298 153.693791,103.375526 153.510414,100.704077 M166.527202,99.1785085 C169.429387,99.5748153 169.053162,103.367003 172.076308,102.93277 C172.023361,105.081776 170.687202,106.640156 169.583924,108.387315 C168.167268,107.454077 167.42601,106.176094 166.49707,104.799673 C165.284884,103.003935 164.223361,106.083196 165.423493,107.656918 C167.107897,109.866861 169.667434,111.351094 168.258096,114.694134 C166.574123,113.991435 165.190182,112.899673 163.708096,111.856065 C164.791142,113.342429 166.396772,114.834332 166.867699,116.598963 C161.331076,114.875241 160.409023,112.33419 156.407434,109.294986 C156.16207,110.544844 152.465679,111.371974 151.913394,109.58902 C151.066242,106.855781 156.087599,107.370128 157.461639,107.096122 C156.288195,104.722543 159.401308,103.144986 158.876142,100.955497 C158.29846,98.548679 156.212864,97.2949858 153.953791,96.4895881 C155.78154,94.6895881 152.510447,93.3459801 151.435149,92.1472585 C149.411109,96.1128835 136.270348,91.1309233 139.959421,88.3503835 C137.208328,88.798679 137.683129,85.1735369 138.188493,83.2141619 C139.036076,79.9286506 139.934884,79.2225426 143.144851,78.0591903 C142.268858,79.8225426 142.047599,81.586321 143.209421,83.2964063 C144.23995,80.2623153 144.574851,79.873679 147.384917,78.2850426 C148.465381,80.5197017 150.002136,82.5655824 149.274222,85.1500994 C150.780844,84.7635938 152.105811,83.8120313 152.804454,82.4356108 C154.624023,83.7996733 157.502533,85.3341903 157.298493,87.9285085 C158.709553,86.8337642 159.468891,86.9445597 160.169255,88.2630256 C161.071937,89.961179 162.395182,89.6326278 163.71197,90.8731108 C165.76356,92.8056392 166.735116,95.8503835 163.686142,97.0606108 L166.527202,99.1785085 M137.983162,28.7040767 C139.903891,28.4317756 141.502202,27.486179 142.38293,25.7999574 C143.806043,23.0739631 145.508096,23.3948438 146.3475,26.6458381 C147.240712,21.7708381 148.031474,19.3307813 153.412699,18.7218324 C155.802202,18.4512358 154.809983,19.9167188 157.612301,18.5539347 C159.377202,17.695696 160.89803,18.4614631 162.758924,18.9135938 C165.461374,19.5702699 172.157235,20.6100426 172.075877,24.4618892 C171.970414,29.4412926 166.543129,29.7101847 165.081275,33.5961222 L167.707103,33.5535085 C165.881937,36.5880256 163.251805,39.392429 162.07707,42.6566335 C160.588957,46.7901562 158.210215,48.4652983 153.910315,49.2822017 L155.572334,50.0875994 C154.39846,51.4316335 155.046308,52.1535085 155.579652,53.7698438 C156.031639,55.1381676 154.133725,56.670554 153.20995,57.4797869 C152.09505,58.4560653 148.569553,64.3934233 152.696838,62.7353267 C153.022268,65.2239631 149.991374,67.3043608 147.920414,66.389446 C145.492169,65.3172869 143.525381,66.7537926 141.001142,65.8631676 C138.921573,65.1297869 138.762301,66.3054972 138.608195,63.7482528 C138.520811,62.3087642 140.918924,62.7046449 140.736838,61.4803551 C140.040348,56.7928551 140.624917,57.2607528 144.169354,59.9270881 C142.533593,56.3032244 138.939222,54.6182812 143.128063,51.7312074 C145.185248,50.3134517 142.126805,45.2066335 141.810414,43.0179972 C143.453063,43.1688494 144.782765,43.026946 146.059089,44.0790767 L147.94452,41.5009517 C144.48144,40.0401562 140.183692,42.6724006 138.712798,38.1349006 C137.824752,35.395696 134.068526,30.6366051 137.983162,28.7040767 M235.03548,134.752372 C235.914917,133.924815 236.765944,133.069986 237.588129,132.187031 C237.862334,132.92169 237.862334,133.656349 237.588129,134.390156 C237.866639,133.66402 237.86793,132.925952 237.592864,132.191293 C241.539354,131.93348 239.387897,140.54527 234.687235,138.821974 C235.684189,137.611321 235.830546,136.101094 235.03548,134.752372 M246.860315,161.108906 C246.144023,162.261605 245.312798,162.640014 244.564222,163.642287 C243.56856,164.974815 241.647401,163.583906 240.470083,165.010185 C240.232036,165.299105 237.44952,163.485895 235.986805,163.925668 C236.359586,162.735469 235.846904,160.641435 235.80601,159.549247 C235.754785,158.163026 236.509387,155.964588 235.638129,154.708338 C234.126772,152.528224 249.671242,155.350526 250.334156,155.253793 C250.57048,157.830639 245.005017,157.708338 246.860315,161.108906 M239.753361,126.366009 C240.119255,124.66402 241.463162,124.187173 243.102798,124.533622 L241.811407,126.975384 C242.640911,126.698395 243.491507,126.60081 244.363626,126.681349 C244.288725,128.019844 243.774752,129.337031 242.964619,130.410043 C244.902566,130.480781 248.840017,138.070696 248.308825,138.559901 C247.588659,139.223395 248.884354,139.90223 247.398394,140.829077 C246.949421,141.109048 244.373957,141.212599 243.731275,141.327656 C242.704189,141.511747 240.995248,142.145838 239.766705,141.962599 C240.486871,140.88831 241.393858,139.978509 242.616374,139.571974 C240.762368,139.526378 239.704288,138.856065 241.643526,137.884474 C239.39995,134.51544 244.546142,136.657628 242.775215,133.906491 C241.80452,132.397969 240.205778,132.971548 240.644851,130.802088 L239.994851,131.799247 C240.288427,129.748679 238.814089,128.418707 239.753361,126.366009 M262.623891,44.7054972 C262.595911,46.5702699 263.298858,47.2802131 265.004785,46.9810653 C266.04005,46.7995313 264.530414,43.8860369 267.234156,44.4285085 C268.244454,44.6309233 272.03856,50.7660085 272.731606,51.6046449 C269.986109,53.7834801 268.790712,56.183054 267.96207,59.3773722 C266.863957,63.6084801 267.25697,65.7195597 263.608361,61.1437074 C262.550712,59.8171449 265.164917,59.5026563 263.092666,57.6178551 C261.90846,56.5401563 261.404387,54.5777983 260.739321,53.1532244 C258.76995,48.9323438 259.120348,47.2887358 262.623891,44.7054972 M271.85346,55.8532244 L274.354023,54.6685653 C274.315712,56.2307813 275.126705,57.5343324 276.571341,58.1628835 C275.704387,58.8975426 274.390182,60.7572017 273.324354,60.1137358 C270.751474,58.5600426 273.486639,58.1449858 271.85346,55.8532244 M271.418692,40.5336222 L273.170248,42.2722585 C273.333394,41.5371733 274.018262,40.7679972 274.392765,40.1032244 C275.691043,40.8728267 279.518295,42.673679 279.807997,44.3816335 C280.264719,47.0722585 276.624288,48.861179 274.517599,48.7836222 C271.580977,48.6758097 271.195281,45.8829119 269.877202,45.7921449 C268.926308,45.7265199 267.348659,43.5856108 267.690877,42.5449858 C267.903096,41.8989631 270.752765,40.8928551 271.418692,40.5336222 M303.212301,39.2509517 C304.835149,38.7161506 305.567798,39.4959801 305.29144,41.1429972 C305.596209,39.9604688 306.205315,38.9624574 307.120911,38.1515199 C309.381705,39.2245313 309.00548,40.5809233 307.247897,41.6125994 C305.670679,42.5385938 305.602666,43.523821 304.163626,44.7054972 C302.808957,43.6917188 302.623858,42.2219744 303.544189,40.8106108 L300.858096,40.5890199 L303.212301,39.2509517 M311.305017,78.2765199 C312.018295,77.3266619 312.731573,76.3763778 313.444851,75.4260938 C314.398328,74.1557813 313.285149,73.4270881 313.866275,72.3532244 C314.94803,70.3546449 318.536805,68.2989631 320.256507,66.9366051 C322.091573,65.483054 324.39154,65.9202699 326.310977,64.142429 C328.80207,61.8357528 330.488195,64.495696 329.014719,66.8006676 C328.117632,68.2039347 323.911573,69.7584801 322.352434,70.7211222 C320.459685,71.8900142 318.046507,74.133196 317.172666,76.1658665 C314.782301,81.7260938 312.138394,84.8765199 316.169685,90.1699858 C314.802103,90.6698438 313.378129,90.2385938 311.922301,90.0655824 C312.646772,90.1516619 308.868593,86.9824858 309.006341,87.3873153 C308.203957,85.0303551 310.955911,80.9462642 312.415613,78.7964063 L311.305017,78.2765199 M359.908659,37.3418608 C360.649487,36.6566335 361.680447,36.1542188 362.522003,35.5904403 C364.814222,39.3464063 371.738659,50.7962642 365.12846,52.720696 C361.941738,53.6483949 359.321076,48.4410085 358.888891,46.1927131 C358.72144,45.323821 356.78005,42.5935653 356.775315,42.383054 C356.747765,41.1204119 359.210877,38.4647301 359.908659,37.3418608 M369.938891,49.133054 C372.238858,50.1591903 373.991275,52.5336222 373.64303,54.9101847 C373.41101,56.4898722 368.263526,57.2833381 366.744851,57.7836222 C367.465877,55.1910085 367.678526,50.7553551 369.938891,49.133054 M420.05346,80.5435653 C411.532003,81.242429 419.548526,75.2266619 420.05346,80.5435653 M412.701142,68.2239631 C415.90207,65.4037926 425.20697,70.3733949 420.888129,73.5677131 C421.322036,73.2468324 414.052368,74.3952699 414.440215,74.5137358 C411.627566,73.6533665 412.333957,70.0900142 412.701142,68.2239631 M423.372334,70.4057813 C425.18846,70.9214063 426.908162,71.6420028 428.653692,72.3489631 C427.37952,75.7222585 422.403791,73.1867472 423.372334,70.4057813 M463.977533,87.2381676 C465.109222,86.9266619 467.99548,87.8228267 466.179354,89.1046449 C463.834189,90.7601847 460.546738,89.1545028 463.977533,87.2381676 M0.179288079,0.212599432 L0.179288079,186.993707 L0.179288079,286.842571 C0.179288079,287.764304 -0.083294702,299.786463 0.39839404,299.786463 L13.8800828,299.786463 L211.181772,299.786463 L453.872831,299.786463 L515.568593,299.786463 C519.143162,299.786463 519.748825,300.709474 519.748825,297.130781 L519.748825,268.294986 L519.748825,36.0272301 L519.748825,4.4074858 C519.748825,0.500667614 520.600712,0.212599432 516.790679,0.212599432 L458.400017,0.212599432 L217.7175,0.212599432 L16.2906788,0.212599432 L0.179288079,0.212599432" id="Fill-1" sketch:type="MSShapeGroup"></path>
        </g>
    </g>
</svg>