<?xml version="1.0" encoding="UTF-8" standalone="no"?>
<svg width="340px" height="287px" viewBox="0 0 340 287" version="1.1" xmlns="http://www.w3.org/2000/svg" xmlns:xlink="http://www.w3.org/1999/xlink" xmlns:sketch="http://www.bohemiancoding.com/sketch/ns">
    <!-- Generator: Sketch 3.4 (15575) - http://www.bohemiancoding.com/sketch -->
    <title>img_logotype_o</title>
    <desc>Created with Sketch.</desc>
    <defs>
        <path id="path-1" d="M0,0 L340,0 L340,287 L0,287 L0,0 Z"></path>
        <path id="path-3" d="M0,0 L340,0 L340,287 L0,287 L0,0 Z"></path>
    </defs>
    <g id="Page-2" stroke="none" stroke-width="1" fill="none" fill-rule="evenodd" sketch:type="MSPage">
        <g id="Page-1-Copy-4" sketch:type="MSLayerGroup">
            <path d="M149.59956,70.7440674 C149.289399,72.3883644 148.924505,73.830569 148.669078,74.7951008 C147.893677,77.8999745 143.77949,79.9392702 143.77949,79.9392702 C143.77949,79.9392702 142.766908,76.9905588 143.022334,73.9224292 C143.058824,73.5733606 143.095313,73.2242919 143.131802,72.8752233 C142.438503,73.1508038 141.799937,73.3804542 141.070148,73.7019648 C138.397295,74.8685889 135.98899,76.6874203 134.237496,78.2214851 C134.027682,79.1768308 133.808745,80.1505486 133.553319,81.1426384 C131.09028,91.1094667 127.596414,101.43455 126,106 C128.727587,105.255933 131.491664,104.658842 134.201007,104.658842 C134.930796,104.658842 134.246618,104.723144 134.939918,104.805818 C138.023278,101.462108 142.292545,96.3087522 145.421516,90.4205154 C149.553948,82.6215871 153.376219,73.8489411 155,70 L149.59956,70.7440674 Z" id="Fill-1" fill-opacity="0.45" fill="#FFFFFF" sketch:type="MSShapeGroup"></path>
            <path d="M141.67,63.5136519 C139.969,59.1587031 136.882,57 136.882,57 C136.882,57 136.891,61.1296928 136,68 C137.215,67.3711604 138.097,66.7892491 139.366,66.3105802 C140.32,65.9633106 141.319,65.7192833 142.327,65.5409556 C142.165,64.912116 141.958,64.2551195 141.67,63.5136519" id="Fill-3" fill-opacity="0.45" fill="#FFFFFF" sketch:type="MSShapeGroup"></path>
            <path d="M158.373617,0 C105.705147,0 63,42.6991585 63,95.3693243 C63,98.8473715 63.1998114,102.289094 63.5631049,105.685412 C64.7438086,105.930601 65.91543,106.221195 67.0234751,106.566275 C68.7400367,107.12022 70.4656807,107.392652 72.1549953,107.392652 C76.2420468,107.392652 79.8477344,105.803466 83.344434,104.268766 C86.8411336,102.734066 90.1289394,101.281096 93.8345327,101.281096 C97.3675617,101.281096 100.655368,102.643256 103.870515,105.467466 C106.013946,107.329084 108.402601,108.200866 111.381607,108.200866 C114.333366,108.200866 116.849174,107.401733 120.073403,106.43914 C121.326766,103.5332 124.932453,95.0151629 126.639933,89.26685 C128.047695,84.517454 128.901434,81.8839457 129.310139,80.6670832 C127.548166,81.2301091 126.049581,81.5207032 126.049581,81.5207032 C126.049581,81.5207032 125.986004,78.1334666 126.966897,75.3546613 C127.539084,73.7109889 129.164822,71.6495876 132.234652,69.7244022 L132.661522,68.0534866 L134.487071,56.8565359 C134.487071,56.8565359 130.172961,56.5477797 125.304829,60.3527451 C121.408507,63.3858202 118.03896,68.1987836 117.230632,71.3135883 C116.249739,75.0549863 114.596754,76.1447138 112.862028,78.2878447 C112.862028,78.2878447 109.873939,75.9812547 110.718596,68.9888361 C111.054643,66.2645172 112.607722,62.205282 119.038017,56.7748063 C123.924314,52.6792469 126.185816,52.2433558 126.90332,52.2342748 C125.38657,52.1525452 117.893642,51.8801133 111.517842,54.1776223 C105.650653,56.29351 104.951313,57.4831292 103.125763,58.5002083 C101.291131,59.5263684 96.0869522,60.6887445 96.0869522,60.6887445 C96.0869522,60.6887445 97.8216785,55.3218362 100.66445,52.1888694 C103.489057,49.0649838 106.958509,46.649421 112.253511,45.7049904 C123.32488,43.7071565 132.588863,48.4656336 132.588863,48.4656336 C132.588863,48.4656336 131.76237,44.3791552 127.720731,41.1553778 C124.387513,38.5037074 120.827237,37.5592768 118.175195,36.7510622 C116.113504,36.1063068 112.771205,34.3990669 112.771205,34.3990669 C112.771205,34.3990669 115.732046,31.7928018 119.691945,31.9017746 C123.651844,32.0107473 129.455457,33.6544197 134.069284,38.9577606 C137.59323,42.9988336 137.793042,47.9752562 137.793042,47.9752562 C137.793042,47.9752562 139.718497,40.8102974 148.782669,40.5923519 C158.264629,40.3653253 161.443446,43.770724 163.432478,46.3406648 C165.42151,48.9015246 165.376098,52.4340582 165.376098,52.4340582 C165.376098,52.4340582 161.933893,52.0526535 159.390838,50.109306 C157.810512,48.9015246 153.587225,47.8753645 151.752593,47.5756894 C147.138766,46.8219612 143.523996,48.7653087 141.989081,49.7823877 C144.795523,49.3101725 149.009728,49.237524 153.650802,51.4169791 C161.96114,55.3036741 164.213559,64.3847371 164.213559,64.3847371 C164.213559,64.3847371 165.348851,64.2303591 170.407713,65.4290594 C172.896273,66.0193285 175.030622,67.6085145 177.428359,71.0956428 C179.172167,73.6292594 179.14492,77.6884945 179.14492,77.6884945 C177.010571,76.4807132 174.848975,75.300175 174.848975,75.300175 C174.848975,75.300175 177.3557,80.630759 177.219465,84.22686 C177.110477,87.3053403 175.457492,90.2021995 175.457492,90.2021995 C175.457492,90.2021995 173.804506,87.4778805 172.687379,83.7728068 C171.107052,78.4603849 166.193508,73.5021245 166.193508,73.5021245 C166.193508,73.5021245 167.991811,79.0234108 167.183483,83.7728068 C166.529555,87.5868533 163.414313,92.0274931 162.951114,92.6450054 C161.161894,95.0151629 157.37456,95.5418645 157.37456,95.5418645 C157.37456,95.5418645 158.010323,91.718737 158.61884,90.2385237 C159.763214,87.4143131 160.52613,85.7797217 160.435307,81.2936766 C160.326319,76.6169291 158.609757,72.1944514 157.801429,70.3509956 C156.493573,73.7019079 153.614472,80.8032992 149.509256,89.3031742 C146.176039,96.2320253 142.661174,101.408231 140.308849,104.532117 C141.752941,105.113305 143.115291,105.894276 144.368654,106.965842 C146.003474,108.373407 147.62013,109 149.618244,109 C152.606333,109 156.157526,107.447138 159.617897,105.939682 C163.859348,104.087145 168.672986,101.980338 173.804506,101.980338 C175.312174,101.980338 176.783513,102.180122 178.227604,102.543364 L191.042781,82.3198367 C191.596804,81.4389736 192.623108,80.9758394 193.658494,81.1574606 C194.693881,81.3390819 195.511291,82.1200533 195.738349,83.1462134 L198.917167,97.5669416 L226.881681,53.7689744 C227.444786,52.8881113 228.47109,52.4249771 229.515559,52.6065984 C230.532781,52.7973007 231.350191,53.5782721 231.577249,54.6044322 L235.836865,73.9470966 L246,57.7010747 C231.395603,23.765142 197.663805,0 158.373617,0" id="Fill-5" fill-opacity="0.45" fill="#FFFFFF" sketch:type="MSShapeGroup"></path>
            <path d="M126,52 C126.18,52.009 126.297,52.009 126.297,52.009 C126.297,52.009 126.189,52 126,52" id="Fill-7" fill-opacity="0.45" fill="#FFFFFF" sketch:type="MSShapeGroup"></path>
            <path d="M150,61 C150.216,62.251 150.288,63.52 150.243,64.789 C152.556,64.978 154.167,65.311 154.167,65.311 C154.167,65.311 152.277,63.511 150,61" id="Fill-9" fill-opacity="0.45" fill="#FFFFFF" sketch:type="MSShapeGroup"></path>
            <path d="M218.843246,111.719976 C219.894421,111.912254 220.724297,112.69968 220.945597,113.743476 L225.906408,137 L239,116.142378 L232.573075,87.163284 L224.790687,99.3683809 C224.449516,99.8902793 223.877824,100.201587 223.260028,100.201587 C223.167819,100.201587 223.06639,100.192431 222.95574,100.174119 C222.236515,100.045933 221.664822,99.5057226 221.508068,98.800702 L216.611803,77 L199,104.404242 L204.818349,130.682283 L216.159982,112.882802 C216.731674,111.994659 217.782849,111.527697 218.843246,111.719976" id="Fill-15" fill-opacity="0.45" fill="#FFFFFF" sketch:type="MSShapeGroup"></path>
            <path d="M282.968539,33 L253.844944,78.6028585 C253.278652,79.4829774 252.262921,79.9366469 251.238202,79.7461057 C250.222472,79.5555645 249.413483,78.7661795 249.197753,77.7499599 L246.824719,66.4354424 L237,82.2775815 L244.919101,118.589289 L246.213483,123.733901 L277.692135,75.9715754 C278.258427,75.1096033 279.274157,74.6650072 280.289888,74.8646218 C281.296629,75.055163 282.096629,75.8354745 282.31236,76.8516942 L297.197753,146 L305,134.767143 L282.968539,33 Z" id="Fill-17" fill-opacity="0.45" fill="#FFFFFF" sketch:type="MSShapeGroup"></path>
            <path d="M244.68894,131.443195 C243.682965,131.263217 242.86904,130.525309 242.603829,129.553431 L241.012559,123.371204 L219,158.151856 L252.892208,165 L257.675162,158.619798 C258.269601,157.809899 259.284721,157.413948 260.290696,157.611924 L285.72357,162.84027 L294,150.376828 L284.30606,106.489314 L275.151689,120.653543 C274.758444,121.274466 274.072552,121.634421 273.359224,121.634421 C273.240337,121.634421 273.112303,121.616423 272.993415,121.598425 C272.142909,121.445444 271.475308,120.815523 271.292403,119.987627 L267.131325,101 L247.29533,130.336333 C246.728326,131.182227 245.713206,131.614173 244.68894,131.443195" id="Fill-19" fill-opacity="0.45" fill="#FFFFFF" sketch:type="MSShapeGroup"></path>
            <path d="M217.298634,120.410695 L209.526433,132.618374 C208.421295,134.376496 206.365013,135.305145 204.272498,134.926473 C202.225275,134.574848 200.603802,133.024095 200.150876,130.986476 L195.458568,109.762786 L189.534304,119.085341 C189.271607,119.482046 188.818681,119.716462 188.356697,119.716462 C188.275171,119.716462 188.202703,119.716462 188.112118,119.69843 C187.559549,119.60827 187.115682,119.184517 186.997921,118.634541 L183.274874,102 L161,137.018187 C168.772201,139.163998 175.955598,142.66221 182.296555,147.269392 C182.450549,147.359552 182.63172,147.440696 182.776656,147.530857 C187.641075,150.379916 193.891446,157.214053 196.346302,160 L213.321948,156.195243 L222,142.337634 L217.298634,120.410695 Z" id="Fill-21" fill-opacity="0.45" fill="#FFFFFF" sketch:type="MSShapeGroup"></path>
            <path d="M172.22335,245 C214.227344,228.181695 159.226231,199.633051 168.327855,179.470966 C172.687533,169.810156 181.543413,164.713152 191,161.857384 C179.695783,148.744347 162.92149,140.412011 144.217653,140.412011 C124.667365,140.412011 106.090951,149.78363 94.5136852,165.463243 C93.6763358,166.610973 92.0562467,166.854978 90.9003405,166.014515 C89.7444343,165.174051 89.4986904,163.57446 90.3360398,162.42673 C96.4887376,154.094394 104.46176,147.42491 113.490571,142.770731 C101.485529,129.585397 88.7978654,130.642754 80.2241357,131.392845 L79.0773311,131.483217 C70.4580932,132.224271 59.1356731,137.718913 52,150.741578 L172.22335,245 Z" id="Fill-26" fill-opacity="0.45" fill="#FFFFFF" sketch:type="MSShapeGroup"></path>
            <path d="M186,98.9501765 L188.907,112 C188.907,112 194.919,107.822676 194.298,105.466457 C193.677,103.11887 191.436,90 191.436,90 L186,98.9501765 Z" id="Fill-31" fill-opacity="0.45" fill="#FFFFFF" sketch:type="MSShapeGroup"></path>
            <path d="M221,74.4226373 L225.456518,94 C225.456518,94 232.867688,84.349317 231.915524,80.8165598 C230.963361,77.2930025 229.333885,61 229.333885,61 L221,74.4226373 Z" id="Fill-33" fill-opacity="0.45" fill="#FFFFFF" sketch:type="MSShapeGroup"></path>
            <path d="M270,95.4226373 L274.456518,115 C274.456518,115 281.867688,105.349317 280.915524,101.82576 C279.963361,98.2930025 278.333885,82 278.333885,82 L270,95.4226373 Z" id="Fill-35" fill-opacity="0.45" fill="#FFFFFF" sketch:type="MSShapeGroup"></path>
            <mask id="mask-2" sketch:name="Clip 29" fill="white">
                <use xlink:href="#path-1"></use>
            </mask>
            <g id="Clip-29"></g>
            <path d="M289.188952,167.368233 C288.616705,168.245949 287.563044,168.689331 286.518466,168.490261 L261.058023,163.450181 L256.434632,169.702776 C255.935051,170.381422 255.153889,170.770513 254.345477,170.770513 C254.145645,170.770513 254.091145,170.544297 253.74598,170.707172 L215.023943,162.762487 C204.759833,164.698891 189.118419,168.019733 183.732032,180.660651 C174.812248,201.553908 251.493326,235.929605 192.642733,261.74531 L224.75214,287 L261.439521,230.26517 L297.836238,246.851286 L341,179.746741 L299.543895,171.268187 L339.210593,110 L306.065692,110.06334 L311.28858,133.861203 C311.442996,134.566996 311.28858,135.299934 310.879832,135.888094 L289.188952,167.368233 Z" id="Fill-28" fill-opacity="0.45" fill="#FFFFFF" sketch:type="MSShapeGroup" mask="url(#mask-2)"></path>
            <mask id="mask-4" sketch:name="Clip 24" fill="white">
                <use xlink:href="#path-3"></use>
            </mask>
            <g id="Clip-24"></g>
            <path d="M47.8650316,148 C55.9771337,133.786907 68.7623146,127.761204 78.5440216,126.941564 L79.6601161,126.842487 C81.7289744,126.662346 84.2061599,126.446178 86.9646376,126.446178 C95.766359,126.446178 107.480815,128.643893 118.124546,141.028559 C126.209427,137.650923 134.974852,135.804482 143.912683,135.804482 C148.177434,135.804482 152.333299,136.227812 156.371202,136.993409 L175,107.792619 C174.519081,107.738576 174.047236,107.693541 173.557244,107.693541 C169.501193,107.693541 165.399772,109.467926 161.443534,111.188269 C157.514518,112.899605 153.449393,114.655975 149.384268,114.655975 C146.16302,114.655975 143.350099,113.593146 140.782174,111.404438 C138.949238,109.855228 136.88038,109.134666 134.267085,109.134666 C131.045836,109.134666 127.46163,110.206503 123.686871,111.350395 C119.603598,112.584359 115.384217,113.85435 111.192056,113.85435 C106.936379,113.85435 103.379394,112.557337 100.285181,109.88225 C98.02577,107.918717 95.9115421,107 93.6521311,107 C91.0388365,107 88.3529503,108.170914 85.2587369,109.530975 C81.4567562,111.179262 77.1647827,113.061731 71.9926371,113.061731 C69.7785959,113.061731 67.5282588,112.710457 65.3051436,112.007909 C63.1092502,111.30536 59.6157835,110.476714 54.6977082,110.476714 L0,110.476714 L47.8650316,148 Z" id="Fill-23" fill-opacity="0.45" fill="#FFFFFF" sketch:type="MSShapeGroup" mask="url(#mask-4)"></path>
        </g>
    </g>
</svg>