<?xml version="1.0" encoding="UTF-8" standalone="no"?>
<svg width="250px" height="120px" viewBox="0 0 250 120" version="1.1" xmlns="http://www.w3.org/2000/svg" xmlns:xlink="http://www.w3.org/1999/xlink" xmlns:sketch="http://www.bohemiancoding.com/sketch/ns">
    <!-- Generator: Sketch 3.4 (15575) - http://www.bohemiancoding.com/sketch -->
    <title>Page 1 Copy 5</title>
    <desc>Created with Sketch.</desc>
    <defs>
        <path id="path-1" d="M0,0.69384375 L249.8328,0.69384375 L249.8328,120 L0,120 L0,0.69384375 Z"></path>
    </defs>
    <g id="Page-2" stroke="none" stroke-width="1" fill="none" fill-rule="evenodd" sketch:type="MSPage">
        <g id="Page-1-Copy-5" sketch:type="MSLayerGroup">
            <path d="M3.45600612,38.1113816 L21,38.1113816 L21,40.8886184 L3.45600612,40.8886184 L3.45600612,46 L1,46 L1,33 L3.45600612,33 L3.45600612,38.1113816 Z" id="Fill-1" fill="#FFFFFF" sketch:type="MSShapeGroup"></path>
            <path d="M21,18.7975558 L11.8301454,18.7975558 L11.8301454,28.2024442 L21,28.2024442 L21,31 L1,31 L1,28.2024442 L9.25937261,28.2024442 L9.25937261,18.7975558 L1,18.7975558 L1,16 L21,16 L21,18.7975558 Z" id="Fill-2" fill="#FFFFFF" sketch:type="MSShapeGroup"></path>
            <path d="M21,12 L1,12 L1,1.22692308 L3.45600612,1.22692308 L3.45600612,9.24230769 L9.31293037,9.24230769 L9.31293037,2.95 L11.7727621,2.95 L11.7727621,9.24230769 L18.5401683,9.24230769 L18.5401683,1 L21,1 L21,12 Z" id="Fill-3" fill="#FFFFFF" sketch:type="MSShapeGroup"></path>
            <path d="M62,8.79402283 L49.53137,8.79402283 L49.53137,45 L41.46863,45 L41.46863,8.79402283 L29,8.79402283 L29,1 L62,1 L62,8.79402283 Z" id="Fill-4" fill="#FFFFFF" sketch:type="MSShapeGroup"></path>
            <path d="M82.9487077,7.43885625 L76.6525846,7.43885625 L76.6525846,20.8612313 L82.6308,20.8612313 C86.0618769,20.8612313 88.4112923,20.2846688 89.6829231,19.1315438 C90.9545538,17.974575 91.5903692,16.2602625 91.5903692,13.99245 C91.5903692,11.7669188 90.9778154,10.11795 89.7488308,9.04554375 C88.5198462,7.97698125 86.2557231,7.43885625 82.9487077,7.43885625 L82.9487077,7.43885625 Z M102.585323,44.8116375 L94.1336308,44.8116375 L84.9181846,28.4257313 L76.6525846,28.4257313 L76.6525846,44.8116375 L68.5188,44.8116375 L68.5188,0.69691875 L84.7902462,0.69691875 C95.0020615,0.69691875 100.111846,4.94041875 100.111846,13.4274188 C100.111846,16.57545 99.4527692,19.1392313 98.1384923,21.1149188 C96.8242154,23.0906063 94.9632923,24.8126063 92.5479692,26.2809188 L102.585323,44.8116375 Z" id="Fill-5" fill="#FFFFFF" sketch:type="MSShapeGroup"></path>
            <path d="M127.885348,26.3462625 L123.244671,13.4274188 L118.669902,26.3462625 L127.885348,26.3462625 Z M142.951071,44.8116375 L134.495502,44.8116375 L130.684486,34.1606063 L115.870763,34.1606063 L112.059748,44.8116375 L103.604178,44.8116375 L119.429778,0.69691875 L127.125471,0.69691875 L142.951071,44.8116375 Z" id="Fill-7" fill="#FFFFFF" sketch:type="MSShapeGroup"></path>
            <path d="M181.916474,0.69538125 L166.280843,44.8101 L156.363674,44.8101 L140.344228,0.69538125 L148.799797,0.69538125 L161.256351,34.1590687 L173.526812,0.69538125 L181.916474,0.69538125 Z" id="Fill-9" fill="#FFFFFF" sketch:type="MSShapeGroup"></path>
            <path d="M216.112098,44.8104844 L187.000283,44.8104844 L187.000283,0.695765625 L215.476283,0.695765625 L215.476283,8.51010938 L195.327914,8.51010938 L195.327914,17.9003906 L210.963545,17.9003906 L210.963545,25.7147344 L195.327914,25.7147344 L195.327914,36.9961406 L216.112098,36.9961406 L216.112098,44.8104844 Z" id="Fill-11" fill="#FFFFFF" sketch:type="MSShapeGroup"></path>
            <path d="M249.546683,44.8104844 L223.106068,44.8104844 L223.106068,0.695765625 L231.239852,0.695765625 L231.239852,36.9961406 L249.546683,36.9961406 L249.546683,44.8104844 Z" id="Fill-13" fill="#FFFFFF" sketch:type="MSShapeGroup"></path>
            <path d="M83.6907508,111.779372 L80.7016431,103.473028 L77.7202892,111.779372 L83.6907508,111.779372 Z M89.3433046,119.601403 L86.4743815,119.601403 L84.5514277,114.223997 L76.8596123,114.223997 L74.9366585,119.601403 L72.0677354,119.601403 L79.2710585,99.6869344 L82.1399815,99.6869344 L89.3433046,119.601403 Z" id="Fill-15" fill="#FFFFFF" sketch:type="MSShapeGroup"></path>
            <path d="M100.186671,120 C98.7715938,120 97.4611938,119.750156 96.2554708,119.246625 C95.0536246,118.743094 94.0068554,118.035844 93.1306708,117.124875 C92.2467323,116.21775 91.5643938,115.126125 91.0759015,113.853844 C90.5874092,112.585406 90.34704,111.17475 90.34704,109.618031 C90.34704,108.061313 90.5912862,106.650656 91.0914092,105.378375 C91.5876554,104.109938 92.2816246,103.022156 93.16944,102.122719 C94.0611323,101.219438 95.1234092,100.523719 96.3601477,100.031719 C97.5891323,99.535875 98.9460554,99.289875 100.419286,99.289875 C102.675655,99.289875 104.66064,99.6704063 106.385871,100.427625 L106.126117,102.787688 C104.121748,102.088125 102.24144,101.738344 100.504578,101.738344 C99.3337477,101.738344 98.3063631,101.930531 97.40304,102.31875 C96.5074708,102.706969 95.7514708,103.248938 95.1505477,103.940813 C94.5496246,104.632688 94.0960246,105.470625 93.7897477,106.446938 C93.4834708,107.42325 93.3283938,108.487969 93.3283938,109.644938 C93.3283938,110.840344 93.4912246,111.924281 93.8130092,112.904438 C94.1386708,113.88075 94.6194092,114.711 95.2591015,115.391344 C95.9026708,116.075531 96.6935631,116.605969 97.6395323,116.9865 C98.5816246,117.363188 99.6826708,117.555375 100.942671,117.555375 C102.315102,117.555375 103.431655,117.374719 104.292332,117.013406 L104.292332,112.062656 L101.163655,112.062656 L101.163655,109.618031 L107.048825,109.618031 L107.048825,118.49325 C106.661132,118.700813 106.188148,118.896844 105.622117,119.0775 C105.059963,119.258156 104.466794,119.41575 103.846486,119.557969 C103.222302,119.700188 102.59424,119.811656 101.950671,119.888531 C101.310978,119.961563 100.725563,120 100.186671,120" id="Fill-17" fill="#FFFFFF" sketch:type="MSShapeGroup"></path>
            <path d="M123.315618,119.602172 L110.804788,119.602172 L110.804788,99.6877031 L123.059742,99.6877031 L123.059742,102.136172 L113.557403,102.136172 L113.557403,107.967141 L121.105772,107.967141 L121.105772,110.411766 L113.557403,110.411766 L113.557403,117.153703 L123.315618,117.153703 L123.315618,119.602172 Z" id="Fill-19" fill="#FFFFFF" sketch:type="MSShapeGroup"></path>
            <path d="M142.306726,119.602172 L139.980572,119.602172 L129.454726,103.869703 L129.454726,119.602172 L126.702111,119.602172 L126.702111,99.6877031 L129.683465,99.6877031 L139.554111,114.593766 L139.554111,99.6877031 L142.306726,99.6877031 L142.306726,119.602172 Z" id="Fill-21" fill="#FFFFFF" sketch:type="MSShapeGroup"></path>
            <path d="M155.792603,120 C154.319372,120 152.966326,119.754 151.733465,119.262 C150.500603,118.766156 149.438326,118.066594 148.550511,117.155625 C147.658818,116.244656 146.968726,115.156875 146.468603,113.884594 C145.972357,112.616156 145.720357,111.201656 145.720357,109.644938 C145.720357,108.111281 145.972357,106.708313 146.468603,105.436031 C146.968726,104.16375 147.658818,103.075969 148.550511,102.165 C149.438326,101.254031 150.496726,100.546781 151.717957,100.047094 C152.943065,99.5435625 154.292234,99.289875 155.765465,99.289875 C157.81248,99.289875 159.665649,99.6780938 161.332726,100.458375 L161.041957,102.960656 L159.409772,102.391781 C158.31648,101.957438 157.103003,101.738344 155.765465,101.738344 C154.63728,101.738344 153.637034,101.934375 152.768603,102.334125 C151.896295,102.733875 151.15968,103.283531 150.55488,103.983094 C149.953957,104.6865 149.49648,105.520594 149.182449,106.489219 C148.864542,107.454 148.705588,108.507188 148.705588,109.644938 C148.705588,110.763469 148.860665,111.808969 149.166942,112.77375 C149.469342,113.742375 149.926818,114.580313 150.531618,115.291406 C151.132542,116.0025 151.876911,116.556 152.768603,116.95575 C153.656418,117.3555 154.676049,117.555375 155.823618,117.555375 C156.110511,117.555375 156.385772,117.543844 156.657157,117.524625 C156.920788,117.50925 157.199926,117.466969 157.490695,117.413156 L158.204049,117.270938 C158.355249,117.251719 158.61888,117.174844 158.979434,117.040313 L159.638511,116.844281 C159.735434,116.825063 159.983557,116.736656 160.386757,116.58675 L161.041957,116.359969 L161.332726,118.86225 C159.665649,119.619469 157.820234,120 155.792603,120" id="Fill-23" fill="#FFFFFF" sketch:type="MSShapeGroup"></path>
            <path d="M178.603643,99.6888562 L171.834535,110.412919 L171.834535,119.603325 L168.992751,119.603325 L168.992751,110.412919 L162.196505,99.6888562 L165.061551,99.6888562 L170.400074,107.968294 L175.738597,99.6888562 L178.603643,99.6888562 Z" id="Fill-25" fill="#FFFFFF" sketch:type="MSShapeGroup"></path>
            <path d="M105.903582,58.9108969 L105.903582,85.9478344 L112.614535,85.9478344 C114.269982,85.9478344 115.731582,85.6211156 117.003212,84.9715219 C118.27872,84.3257719 119.33712,83.4032719 120.182289,82.2078656 C121.023582,81.0124594 121.659397,79.5902719 122.093612,77.9336156 C122.523951,76.2769594 122.741058,74.4434906 122.741058,72.4293656 C122.741058,70.4152406 122.523951,68.5817719 122.093612,66.9251156 C121.659397,65.2684594 121.023582,63.8462719 120.182289,62.6508656 C119.33712,61.4554594 118.27872,60.5329594 117.003212,59.8833656 C115.731582,59.2337719 114.269982,58.9108969 112.614535,58.9108969 L105.903582,58.9108969 Z M101.049674,90.3489281 L101.049674,54.5059594 L112.614535,54.5059594 C114.855397,54.5059594 116.910166,54.9095531 118.786597,55.7090531 C120.666905,56.5123969 122.291335,57.6847406 123.667643,59.2183969 C125.047828,60.7558969 126.113982,62.6316469 126.869982,64.8494906 C127.629858,67.0711781 128.00592,69.5965219 128.00592,72.4293656 C128.00592,75.2622094 127.629858,77.7875531 126.869982,80.0053969 C126.113982,82.2270844 125.047828,84.1028344 123.667643,85.6403344 C122.291335,87.1778344 120.666905,88.3463344 118.786597,89.1458344 C116.910166,89.9491781 114.855397,90.3489281 112.614535,90.3489281 L101.049674,90.3489281 Z" id="Fill-27" fill="#FFFFFF" sketch:type="MSShapeGroup"></path>
            <path d="M133.01568,90.3496969 L133.01568,54.5067281 L152.380911,54.5067281 L152.380911,58.9116656 L137.974265,58.9116656 L137.974265,69.4089469 L149.283249,69.4089469 L149.283249,73.8100406 L137.974265,73.8100406 L137.974265,85.9447594 L152.795742,85.9447594 L152.795742,90.3496969 L133.01568,90.3496969 Z" id="Fill-29" fill="#FFFFFF" sketch:type="MSShapeGroup"></path>
            <path d="M166.737932,91.0669406 C164.566855,91.0669406 162.581871,90.8516906 160.775225,90.4250344 C158.964702,90.0022219 157.526363,89.4448781 156.464086,88.7606906 L157.080517,83.0796281 C158.181563,84.2404406 159.600517,85.1283469 161.341255,85.7433469 C163.081994,86.3545031 164.811102,86.6620031 166.532455,86.6620031 C168.76944,86.6620031 170.48304,86.1776906 171.669378,85.2052219 C172.859594,84.2327531 173.448886,82.8912844 173.448886,81.1846594 C173.448886,80.2621594 173.282178,79.4857219 172.937132,78.8553469 C172.592086,78.2249719 172.091963,77.6445656 171.436763,77.1141281 C170.78544,76.5836906 169.975163,76.0916906 169.009809,75.6304406 C168.048332,75.1691906 166.962794,74.6656594 165.757071,74.1198469 C164.210178,73.4356594 162.829994,72.7783781 161.628148,72.1480031 C160.418548,71.5176281 159.402794,70.8334406 158.580886,70.0992844 C157.755102,69.3651281 157.115409,68.5041281 156.665686,67.5162844 C156.21984,66.5245969 155.994978,65.3291906 155.994978,63.9300656 C155.994978,62.4617531 156.235348,61.1125969 156.719963,59.8864406 C157.200702,58.6564406 157.917932,57.5917219 158.863902,56.6845969 C159.809871,55.7813156 160.980702,55.0702219 162.372517,54.5590031 C163.768209,54.0477844 165.377132,53.7902531 167.203163,53.7902531 C168.129748,53.7902531 169.064086,53.8517531 169.990671,53.9709094 C170.921132,54.0900656 171.828332,54.2630344 172.704517,54.4821281 C173.580702,54.7050656 174.390978,54.9702844 175.131471,55.2739406 C175.868086,55.5852844 176.500025,55.9081594 177.015655,56.2502531 L176.395348,61.2163781 C174.639102,60.1247531 173.045686,59.3483156 171.618978,58.8870656 C170.192271,58.4258156 168.909009,58.1951906 167.773071,58.1951906 C165.877255,58.1951906 164.291594,58.6910344 163.019963,59.6788781 C161.744455,60.6705656 161.10864,61.9659094 161.10864,63.5725969 C161.10864,64.3913156 161.290855,65.0908781 161.651409,65.6712844 C162.011963,66.2516906 162.484948,66.7705969 163.07424,67.2318469 C163.655778,67.6930969 164.345871,68.1005344 165.136763,68.4618469 C165.927655,68.8193156 166.757317,69.1690969 167.617994,69.5111906 C169.440148,70.2607219 171.049071,70.9795031 172.444763,71.6598469 C173.840455,72.3440344 175.003532,73.1127844 175.930117,73.9660969 C176.860578,74.8194094 177.566178,75.8187844 178.046917,76.9603781 C178.531532,78.1058156 178.771902,79.5126281 178.771902,81.1846594 C178.771902,84.3250031 177.84144,86.7580969 175.984394,88.4800969 C174.123471,90.2059406 171.041317,91.0669406 166.737932,91.0669406" id="Fill-31" fill="#FFFFFF" sketch:type="MSShapeGroup"></path>
            <mask id="mask-2" sketch:name="Clip 34" fill="white">
                <use xlink:href="#path-1"></use>
            </mask>
            <g id="Clip-34"></g>
            <path d="M183.886338,54.5063438 L188.740246,54.5063438 L188.740246,90.3493125 L183.886338,90.3493125 L183.886338,54.5063438 Z" id="Fill-33" fill="#FFFFFF" sketch:type="MSShapeGroup" mask="url(#mask-2)"></path>
            <path d="M209.395329,91.0669406 C207.224252,91.0669406 205.212129,90.6325969 203.351206,89.7600656 C201.49416,88.8913781 199.885237,87.6460031 198.524437,86.0239406 C197.163637,84.4018781 196.093606,82.4377219 195.322098,80.1353156 C194.546714,77.8329094 194.159022,75.2460656 194.159022,72.3786281 C194.159022,69.5457844 194.546714,66.9858469 195.322098,64.6988156 C196.093606,62.4117844 197.163637,60.4591594 198.524437,58.8332531 C199.885237,57.2150344 201.521298,55.9696594 203.428745,55.0971281 C205.340068,54.2284406 207.433606,53.7902531 209.705483,53.7902531 C210.461483,53.7902531 211.267883,53.8440656 212.132437,53.9440031 C212.993114,54.0477844 213.838283,54.1938469 214.660191,54.3821906 C215.489852,54.5666906 216.269114,54.7819406 217.013483,55.0202531 C217.750098,55.2624094 218.413052,55.5314719 219.002345,55.8389719 L218.486714,60.0901594 C217.242222,59.5789406 215.850406,59.1330656 214.303514,58.7602219 C212.752745,58.3835344 211.267883,58.1951906 209.86056,58.1951906 C208.069422,58.1951906 206.522529,58.5603469 205.212129,59.2945031 C203.901729,60.0286594 202.820068,61.0357219 201.959391,62.3195344 C201.094837,63.5995031 200.459022,65.1062531 200.048068,66.8474719 C199.633237,68.5886906 199.42776,70.4490656 199.42776,72.4285969 C199.42776,74.4773156 199.648745,76.3722844 200.102345,78.1135031 C200.548191,79.8547219 201.226652,81.3576281 202.137729,82.6183781 C203.048806,83.8829719 204.184745,84.8708156 205.549422,85.5895969 C206.906345,86.3045344 208.515268,86.6620031 210.376191,86.6620031 C211.031391,86.6620031 211.795145,86.5966594 212.675206,86.4582844 C213.551391,86.3237531 214.384929,86.0662219 215.179698,85.6895344 L215.179698,76.7835656 L210.895698,76.7835656 L210.895698,72.3786281 L220.033606,72.3786281 L220.033606,88.3532531 C219.448191,88.7299406 218.723206,89.0797219 217.866406,89.4025969 C217.005729,89.7254719 216.094652,90.0175969 215.129298,90.2712844 C214.160068,90.5288156 213.183083,90.7248469 212.186714,90.8632219 C211.186468,90.9977531 210.256006,91.0669406 209.395329,91.0669406" id="Fill-35" fill="#FFFFFF" sketch:type="MSShapeGroup" mask="url(#mask-2)"></path>
            <path d="M245.80584,90.3496969 L230.364055,62.0366344 L230.364055,90.3496969 L225.510148,90.3496969 L225.510148,54.5067281 L230.519132,54.5067281 L244.980055,81.3399469 L244.980055,54.5067281 L249.833963,54.5067281 L249.833963,90.3496969 L245.80584,90.3496969 Z" id="Fill-36" fill="#FFFFFF" sketch:type="MSShapeGroup" mask="url(#mask-2)"></path>
            <path d="M32.9460923,90.9204938 L28.1464615,90.9204938 L20.9664,62.6074313 L13.6816615,90.9204938 L8.72695385,90.9204938 L0,55.077525 L5.05938462,55.077525 L11.6695385,84.8781188 L19.0550769,55.7963063 L22.9824,55.7963063 L30.5191385,84.82815 L37.0750154,55.077525 L42.0374769,55.077525 L32.9460923,90.9204938 Z" id="Fill-37" fill="#FFFFFF" sketch:type="MSShapeGroup" mask="url(#mask-2)"></path>
            <path d="M45.65232,90.9204938 L45.65232,55.077525 L65.0175508,55.077525 L65.0175508,59.4824625 L50.6070277,59.4824625 L50.6070277,69.9797438 L61.9160123,69.9797438 L61.9160123,74.3808375 L50.6070277,74.3808375 L50.6070277,86.5155563 L65.4323815,86.5155563 L65.4323815,90.9204938 L45.65232,90.9204938 Z" id="Fill-38" fill="#FFFFFF" sketch:type="MSShapeGroup" mask="url(#mask-2)"></path>
            <path d="M74.4679385,74.3816062 L74.4679385,86.516325 L79.3451077,86.516325 C80.4849231,86.516325 81.5045538,86.4586687 82.404,86.3356687 C83.2995692,86.2203562 84.0788308,85.962825 84.7340308,85.5707625 C85.3931077,85.1787 85.8932308,84.5982937 86.2421538,83.8295437 C86.5872,83.0607937 86.7616615,82.026825 86.7616615,80.7314812 C86.7616615,79.4322937 86.5949538,78.367575 86.2654154,77.5296375 C85.9397538,76.6955437 85.5094154,76.04595 84.9705231,75.5847 C84.4316308,75.12345 83.8035692,74.8082625 83.0785846,74.6391375 C82.3497231,74.4661687 81.5743385,74.3816062 80.7446769,74.3816062 L74.4679385,74.3816062 Z M74.4679385,59.37945 L74.4679385,69.9766687 L79.8413538,69.9766687 C80.3569846,69.9766687 80.8803692,69.9343875 81.4153846,69.849825 C81.9504,69.7652625 82.4311385,69.5346375 82.8614769,69.1541062 C83.2879385,68.7774187 83.6329846,68.2047 83.8966154,67.4321062 C84.1524923,66.6595125 84.2804308,65.606325 84.2804308,64.2687 C84.2804308,63.1347937 84.1447385,62.2430437 83.8694769,61.5896062 C83.5942154,60.9400125 83.2142769,60.4518562 82.7335385,60.1289812 C82.2489231,59.8022625 81.6712615,59.5947 81.0044308,59.5062937 C80.3298462,59.4217312 79.6164923,59.37945 78.8604923,59.37945 L74.4679385,59.37945 Z M69.6140308,90.9212625 L69.6140308,55.0782937 L77.2050462,55.0782937 C78.9961846,55.0782937 80.6244923,55.182075 82.0860923,55.3857937 C83.5515692,55.5895125 84.7960615,56.0200125 85.8312,56.6657625 C86.8624615,57.3153562 87.6533538,58.2186375 88.2077538,59.37945 C88.7582769,60.5402625 89.0335385,62.0585437 89.0335385,63.9381375 C89.0335385,65.4372 88.8707077,66.7709812 88.5411692,67.9317937 C88.2155077,69.0926062 87.5176615,70.38795 86.4515077,71.8216687 C88.3783385,72.709575 89.7352615,73.8511687 90.5300308,75.2541375 C91.3248,76.6532625 91.7163692,78.3252937 91.7163692,80.2702312 C91.7163692,82.5572625 91.3907077,84.3984187 90.7355077,85.8013875 C90.0803077,87.2005125 89.2390154,88.2767625 88.2077538,89.0262937 C87.1726154,89.775825 86.0056615,90.2793562 84.6952615,90.5368875 C83.3848615,90.7944187 82.0938462,90.9212625 80.8222154,90.9212625 L69.6140308,90.9212625 Z" id="Fill-39" fill="#FFFFFF" sketch:type="MSShapeGroup" mask="url(#mask-2)"></path>
        </g>
    </g>
</svg>