<?xml version="1.0" encoding="UTF-8" standalone="no"?>
<svg width="1366px" height="235px" viewBox="0 0 1366 235" version="1.1" xmlns="http://www.w3.org/2000/svg" xmlns:xlink="http://www.w3.org/1999/xlink" xmlns:sketch="http://www.bohemiancoding.com/sketch/ns">
    <!-- Generator: Sketch 3.3.2 (12043) - http://www.bohemiancoding.com/sketch -->
    <title>Rectangle 1 Copy 2</title>
    <desc>Created with Sketch.</desc>
    <defs>
        <path id="path-1" d="M0,0.233341414 L145.076962,0.233341414 L145.076962,67.6409932 L0,67.6409932 L0,0.233341414 Z"></path>
        <path id="path-3" d="M0,0.099291702 L76.1009198,0.099291702 L76.1009198,68.8635997 L0,68.8635997 L0,0.099291702 Z"></path>
        <path id="path-5" d="M0,0.099291702 L76.1009198,0.099291702 L76.1009198,68.8635997 L0,68.8635997 L0,0.099291702 Z"></path>
    </defs>
    <g id="Page-1" stroke="none" stroke-width="1" fill="none" fill-rule="evenodd" sketch:type="MSPage">
        <path d="M-76.5,0.501953125 L761.190154,0.501953125 L-76.5,234.498047 L-76.5,0.501953125 Z" id="Rectangle-1-Copy-2" fill="#FFFFFF" sketch:type="MSShapeGroup"></path>
        <g id="Imported-Layers-Copy-5" sketch:type="MSLayerGroup" transform="translate(129.792781, 33.263106)">
            <path d="M3.21055883,21.1894016 L13.5334272,21.1894016 L13.5334272,22.7139256 L3.21055883,22.7139256 L3.21055883,25.5196259 L1.76461042,25.5196259 L1.76461042,18.3837013 L3.21055883,18.3837013 L3.21055883,21.1894016 Z" id="Fill-1" fill="#59595C" sketch:type="MSShapeGroup"></path>
            <path d="M13.5333857,10.3717257 L8.13669966,10.3717257 L8.13669966,15.4968317 L13.5333857,15.4968317 L13.5333857,17.0213556 L1.76456893,17.0213556 L1.76456893,15.4968317 L6.62353644,15.4968317 L6.62353644,10.3717257 L1.76456893,10.3717257 L1.76456893,8.84720176 L13.5333857,8.84720176 L13.5333857,10.3717257 Z" id="Fill-2" fill="#59595C" sketch:type="MSShapeGroup"></path>
            <path d="M13.5333857,6.70678458 L1.76456893,6.70678458 L1.76456893,0.625098835 L3.21051733,0.625098835 L3.21051733,5.14984101 L6.65714385,5.14984101 L6.65714385,1.59808851 L8.10309225,1.59808851 L8.10309225,5.14984101 L12.0874373,5.14984101 L12.0874373,0.495020002 L13.5333857,0.495020002 L13.5333857,6.70678458 Z" id="Fill-3" fill="#59595C" sketch:type="MSShapeGroup"></path>
            <path d="M37.3021636,4.6486973 L29.9935894,4.6486973 L29.9935894,25.1579267 L25.2690515,25.1579267 L25.2690515,4.6486973 L17.9608922,4.6486973 L17.9608922,0.233621584 L37.3021636,0.233621584 L37.3021636,4.6486973 Z" id="Fill-4" fill="#F37544" sketch:type="MSShapeGroup"></path>
            <g id="Group-42" transform="translate(0.908119, 0.000000)">
                <path d="M48.1680473,4.0434505 L44.5139677,4.0434505 L44.5139677,11.6276468 L47.983414,11.6276468 C49.9766238,11.6276468 51.3424953,11.3014491 52.0806136,10.6482533 C52.8187319,9.9958579 53.1879985,9.02847162 53.1879985,7.74649469 C53.1879985,6.48853231 52.8307642,5.55676763 52.1175403,4.95160087 C51.4034866,4.34603387 50.0874038,4.0434505 48.1680473,4.0434505 L48.1680473,4.0434505 Z M59.5734062,25.1578467 L54.664235,25.1578467 L49.3123589,15.9006364 L44.5139677,15.9006364 L44.5139677,25.1578467 L39.7894298,25.1578467 L39.7894298,0.233541536 L49.2385056,0.233541536 C55.1683462,0.233541536 58.1340963,2.63139473 58.1340963,7.4259004 C58.1340963,9.20617932 57.7523825,10.6546572 56.9897848,11.7701332 C56.2267721,12.8860094 55.1442816,13.8589991 53.7414835,14.6899027 L59.5734062,25.1578467 Z" id="Fill-5" fill="#F37544" sketch:type="MSShapeGroup"></path>
                <path d="M74.2637856,14.7253241 L71.5693842,7.42610052 L68.9119094,14.7253241 L74.2637856,14.7253241 Z M83.0116697,25.1580468 L78.1024986,25.1580468 L75.8877288,19.1403999 L67.2875513,19.1403999 L65.0727816,25.1580468 L60.1640253,25.1580468 L69.3546145,0.233341414 L73.8206657,0.233341414 L83.0116697,25.1580468 Z" id="Fill-7" fill="#F37544" sketch:type="MSShapeGroup"></path>
                <path d="M105.638211,0.233541536 L96.5579866,25.1578467 L90.7999171,25.1578467 L81.498548,0.233541536 L86.4077192,0.233541536 L93.6420252,19.1406 L100.765966,0.233541536 L105.638211,0.233541536 Z" id="Fill-9" fill="#F37544" sketch:type="MSShapeGroup"></path>
                <path d="M125.496206,25.1580068 L108.59085,25.1580068 L108.59085,0.233701633 L125.12694,0.233701633 L125.12694,4.64877735 L113.426168,4.64877735 L113.426168,9.95399252 L122.506392,9.95399252 L122.506392,14.3690682 L113.426168,14.3690682 L113.426168,20.7429311 L125.496206,20.7429311 L125.496206,25.1580068 Z" id="Fill-11" fill="#F37544" sketch:type="MSShapeGroup"></path>
                <path d="M144.911082,25.1580068 L129.55623,25.1580068 L129.55623,0.233701633 L134.280768,0.233701633 L134.280768,20.7429311 L144.911082,20.7429311 L144.911082,25.1580068 Z" id="Fill-13" fill="#F37544" sketch:type="MSShapeGroup"></path>
                <path d="M48.5983466,62.9959781 L46.865698,58.3027338 L45.1326344,62.9959781 L48.5983466,62.9959781 Z M51.8806703,67.4158567 L50.2144066,67.4158567 L49.0983087,64.3784159 L44.6326724,64.3784159 L43.5165745,67.4158567 L41.8503108,67.4158567 L46.0321513,56.1654385 L47.6988298,56.1654385 L51.8806703,67.4158567 Z" id="Fill-15" fill="#58585B" sketch:type="MSShapeGroup"></path>
                <path d="M58.1786573,67.6409932 C57.3567279,67.6409932 56.5957898,67.4989071 55.8962578,67.2151351 C55.1963109,66.9313631 54.5909626,66.531921 54.080213,66.0176094 C53.5690484,65.5032977 53.1719831,64.8873244 52.8886021,64.1692892 C52.6052211,63.4516543 52.4637381,62.6531704 52.4637381,61.7746379 C52.4637381,60.8961055 52.6081255,60.0976216 52.8973151,59.3795864 C53.185675,58.6619515 53.588549,58.0483797 54.1051073,57.5392711 C54.6216657,57.0305628 55.2382164,56.6367242 55.9543447,56.3581553 C56.6708878,56.0795865 57.4567203,55.9403021 58.3118422,55.9403021 C59.6225311,55.9403021 60.7780451,56.1548321 61.7775544,56.5830917 L61.6277732,57.9171001 C60.4614716,57.52086 59.3727575,57.3223397 58.3620458,57.3223397 C57.6845039,57.3223397 57.0845494,57.4324064 56.5625973,57.6517393 C56.0402303,57.8714725 55.6045787,58.1768575 55.2548127,58.5682948 C54.9046318,58.9593317 54.6407514,59.4308175 54.4631715,59.9823517 C54.2855916,60.5346865 54.1968016,61.1370515 54.1968016,61.7906476 C54.1968016,62.4654566 54.2905704,63.0794287 54.4789379,63.6309629 C54.6673054,64.1828974 54.9469522,64.6515815 55.3182933,65.0374153 C55.6892195,65.4228489 56.1489357,65.7230308 56.6978567,65.9375608 C57.2459479,66.1516906 57.8857334,66.2589556 58.6172132,66.2589556 C59.4146631,66.2589556 60.0627467,66.1568938 60.561464,65.9535705 L60.561464,63.1566755 L58.7454192,63.1566755 L58.7454192,61.7746379 L62.1609278,61.7746379 L62.1609278,66.789277 C61.938538,66.9073486 61.6634551,67.017015 61.3360941,67.1186766 C61.0083181,67.2207385 60.6639459,67.3115936 60.3029774,67.3920423 C59.942009,67.4724911 59.5756467,67.5337282 59.2034758,67.5765541 C58.8313048,67.6193801 58.489837,67.6409932 58.1786573,67.6409932" id="Fill-17" fill="#58585B" sketch:type="MSShapeGroup"></path>
                <path d="M71.608012,67.4160569 L64.3434178,67.4160569 L64.3434178,56.1652384 L71.4582308,56.1652384 L71.4582308,57.547276 L65.9432965,57.547276 L65.9432965,60.842473 L70.3251217,60.842473 L70.3251217,62.2245106 L65.9432965,62.2245106 L65.9432965,66.0336191 L71.608012,66.0336191 L71.608012,67.4160569 Z" id="Fill-19" fill="#58585B" sketch:type="MSShapeGroup"></path>
                <path d="M82.6376732,67.4160569 L81.2879831,67.4160569 L75.1735091,58.5278703 L75.1735091,67.4160569 L73.5736305,67.4160569 L73.5736305,56.1652384 L75.3066941,56.1652384 L81.0382095,64.5871424 L81.0382095,56.1652384 L82.6376732,56.1652384 L82.6376732,67.4160569 Z" id="Fill-21" fill="#58585B" sketch:type="MSShapeGroup"></path>
                <path d="M90.468407,67.6409932 C89.6128702,67.6409932 88.8274526,67.5017088 88.1109095,67.22314 C87.3943663,66.9445711 86.7778156,66.548331 86.2612573,66.0336191 C85.7451138,65.5193074 85.3422398,64.9033341 85.0534651,64.1852989 C84.7642754,63.467664 84.6203029,62.6695803 84.6203029,61.7906476 C84.6203029,60.9225215 84.7642754,60.129641 85.0534651,59.4116058 C85.3422398,58.6939709 85.7451138,58.0775974 86.2612573,57.5636859 C86.7778156,57.0493742 87.391462,56.6503324 88.1026114,56.3661602 C88.8133458,56.0823882 89.596274,55.9403021 90.4518107,55.9403021 C91.6401024,55.9403021 92.717614,56.1600353 93.6839307,56.5991014 L93.5175533,58.0135586 L92.5678328,57.6921638 C91.9346858,57.4456144 91.2289302,57.3223397 90.4518107,57.3223397 C89.7962588,57.3223397 89.2158049,57.4348078 88.710864,57.6597441 C88.2050932,57.8850807 87.7777397,58.1956689 87.4275588,58.5923093 C87.0777928,58.9885495 86.811423,59.4600352 86.6280344,60.0063663 C86.4446458,60.5530976 86.3533665,61.1478581 86.3533665,61.7906476 C86.3533665,62.4230309 86.4417415,63.0121879 86.6197363,63.558519 C86.7973162,64.1052504 87.0611966,64.5791376 87.4109626,64.9809811 C87.7611435,65.3828246 88.1943056,65.6962146 88.710864,65.9211509 C89.2270074,66.1464875 89.8186638,66.2589556 90.4854182,66.2589556 C90.6517956,66.2589556 90.8127792,66.2537525 90.9683691,66.2425457 C91.1239589,66.2321394 91.2849426,66.2105263 91.4517349,66.1785069 L91.8683008,66.0980581 C91.9566758,66.0876518 92.1068719,66.0444256 92.3180592,65.9695802 L92.7010177,65.8571121 C92.7566152,65.8467058 92.9010026,65.7982764 93.1341799,65.7122243 L93.5175533,65.5837464 L93.6839307,66.9982036 C92.717614,67.4264632 91.6454961,67.6409932 90.468407,67.6409932" id="Fill-23" fill="#58585B" sketch:type="MSShapeGroup"></path>
                <path d="M103.714415,56.1652784 L99.7823478,62.2245506 L99.7823478,67.4160969 L98.1326804,67.4160969 L98.1326804,62.2245506 L94.1840173,56.1652784 L95.849866,56.1652784 L98.949216,60.842513 L102.048151,56.1652784 L103.714415,56.1652784 Z" id="Fill-25" fill="#58585B" sketch:type="MSShapeGroup"></path>
                <path d="M61.4983224,33.1251552 L61.4983224,48.4000124 L65.3967819,48.4000124 C66.3564601,48.4000124 67.2061882,48.2167013 67.9459661,47.8500791 C68.6853291,47.4838571 69.3002202,46.9631416 69.7902246,46.2879324 C70.2802289,45.6131234 70.6499104,44.8078354 70.9000989,43.8724685 C71.1498725,42.9371016 71.2747592,41.9004734 71.2747592,40.7625838 C71.2747592,39.6246942 71.1498725,38.5880659 70.9000989,37.6526991 C70.6499104,36.7173322 70.2802289,35.9124444 69.7902246,35.236835 C69.3002202,34.562026 68.6853291,34.0417107 67.9459661,33.6750885 C67.2061882,33.3084663 66.3564601,33.1251552 65.3967819,33.1251552 L61.4983224,33.1251552 Z M58.6794491,50.8875199 L58.6794491,30.6372474 L65.3967819,30.6372474 C66.6962684,30.6372474 67.8907836,30.8641849 68.9807424,31.3172595 C70.0702863,31.7707344 71.0150279,32.4311346 71.8145523,33.2988605 C72.6140767,34.1665863 73.2339467,35.2276294 73.6737474,36.4807888 C74.1135481,37.735149 74.3338633,39.1620138 74.3338633,40.7625838 C74.3338633,42.363554 74.1135481,43.7904188 73.6737474,45.0439785 C73.2339467,46.2979384 72.6140767,47.3585812 71.8145523,48.2263071 C71.0150279,49.094033 70.0702863,49.7548334 68.9807424,50.207908 C67.8907836,50.6609826 66.6962684,50.8875199 65.3967819,50.8875199 L58.6794491,50.8875199 Z" id="Fill-27" fill="#58BE8A" sketch:type="MSShapeGroup"></path>
                <path d="M77.2422734,50.88768 L77.2422734,30.6374075 L88.4878933,30.6374075 L88.4878933,33.1253153 L80.1208932,33.1253153 L80.1208932,39.0557093 L86.6888597,39.0557093 L86.6888597,41.5436171 L80.1208932,41.5436171 L80.1208932,48.3997722 L88.7281241,48.3997722 L88.7281241,50.88768 L77.2422734,50.88768 Z" id="Fill-29" fill="#58BE8A" sketch:type="MSShapeGroup"></path>
                <path d="M96.8251032,51.2926054 C95.5654477,51.2926054 94.4107635,51.1721324 93.3610506,50.9311864 C92.3117526,50.6902403 91.4765463,50.3768504 90.8570912,49.9910166 L91.216815,46.7798705 C91.8566005,47.4354678 92.6814341,47.9369718 93.691316,48.2839821 C94.7003681,48.6313926 95.7052712,48.8046976 96.7047804,48.8046976 C98.0042669,48.8046976 98.9992122,48.5301312 99.6887864,47.9801979 C100.378776,47.4306649 100.723563,46.6738062 100.723563,45.7092216 C100.723563,45.1889063 100.623155,44.7502405 100.423585,44.3932241 C100.223601,44.036608 99.9335811,43.7088093 99.5539419,43.4094279 C99.1738877,43.1108469 98.7037989,42.8306771 98.1445052,42.5705195 C97.5847966,42.3103618 96.9549689,42.0257893 96.255022,41.7172023 C95.3555052,41.3313685 94.5555658,40.9607439 93.8560338,40.6033273 C93.1560869,40.2467111 92.5665051,39.8612776 92.0868734,39.446226 C91.6068269,39.0315747 91.2367305,38.5448798 90.9769991,37.9853407 C90.7172678,37.4262018 90.5874021,36.7513928 90.5874021,35.9601133 C90.5874021,35.1312109 90.7268106,34.3691491 91.0072873,33.6747283 C91.2869341,32.9807076 91.7014255,32.3779423 92.2515912,31.8668326 C92.8013421,31.3561231 93.4813735,30.9554803 94.2908556,30.6661049 C95.1007527,30.3771298 96.0351217,30.232242 97.0947923,30.232242 C97.6345854,30.232242 98.1743785,30.2662626 98.7141715,30.3335033 C99.2539646,30.4015446 99.7788211,30.4976028 100.288741,30.6228787 C100.798661,30.7485549 101.26792,30.8974451 101.698178,31.0711504 C102.12802,31.2448557 102.493138,31.428567 102.7927,31.6210837 L102.432977,34.4271843 C101.413552,33.8100102 100.488311,33.3713444 99.6589132,33.1107865 C98.8291006,32.8502286 98.0847587,32.7201497 97.4246428,32.7201497 C96.3251411,32.7201497 95.4052939,32.9999193 94.6659309,33.5590582 C93.9257381,34.1185973 93.5564715,34.8514414 93.5564715,35.7579908 C93.5564715,36.2206712 93.6614428,36.6161108 93.8709705,36.9439095 C94.080913,37.2721084 94.355581,37.5658865 94.6958042,37.8260441 C95.0356124,38.086602 95.4351672,38.3179422 95.8952982,38.520465 C96.3550144,38.7229877 96.8346461,38.9211078 97.335023,39.1136244 C98.3942788,39.5378816 99.3290627,39.942927 100.13896,40.3283606 C100.948442,40.7145947 101.62308,41.1484576 102.162873,41.6303497 C102.703081,42.112642 103.112178,42.676984 103.392655,43.3225752 C103.672302,43.968967 103.81254,44.7646492 103.81254,45.7092216 C103.81254,47.4838972 103.272747,48.8579299 102.193161,49.83172 C101.11316,50.8059104 99.3236689,51.2926054 96.8251032,51.2926054" id="Fill-31" fill="#58BE8A" sketch:type="MSShapeGroup"></path>
                <mask id="mask-2" sketch:name="Clip 34" fill="white">
                    <use xlink:href="#path-1"></use>
                </mask>
                <g id="Clip-34"></g>
                <path d="M106.781111,30.6373675 L109.599985,30.6373675 L109.599985,50.88764 L106.781111,50.88764 L106.781111,30.6373675 Z" id="Fill-33" fill="#58BE8A" sketch:type="MSShapeGroup" mask="url(#mask-2)"></path>
                <path d="M121.595506,51.2926054 C120.335851,51.2926054 119.166645,51.0468565 118.086644,50.5549584 C117.007058,50.0630602 116.072274,49.3594338 115.282707,48.4432786 C114.492726,47.5275236 113.873271,46.4180512 113.423512,45.1164624 C112.973754,43.8144733 112.748875,42.353588 112.748875,40.7334061 C112.748875,39.1328361 112.973754,37.6863595 113.423512,36.3939762 C113.873271,35.1023935 114.492726,33.9981242 115.282707,33.0815688 C116.072274,32.1658138 117.022409,31.4617871 118.131869,30.969889 C119.241328,30.4783911 120.455759,30.232242 121.775576,30.232242 C122.214961,30.232242 122.684635,30.2614597 123.185012,30.3190946 C123.68456,30.3771298 124.174564,30.4591795 124.65461,30.5648435 C125.134242,30.6713081 125.588979,30.7917811 126.018822,30.9266628 C126.448665,31.0619448 126.833283,31.2160382 127.173506,31.3893432 L126.873529,33.7903984 C126.153667,33.5014232 125.344185,33.2508714 124.444253,33.0383426 C123.544736,32.826214 122.684635,32.7201497 121.865195,32.7201497 C120.825855,32.7201497 119.925923,32.9278756 119.166645,33.3421267 C118.406122,33.7571782 117.776294,34.3255227 117.277162,35.0491612 C116.7772,35.7723995 116.407518,36.6257167 116.167287,37.6091126 C115.927472,38.5929089 115.807564,39.6439458 115.807564,40.7622236 C115.807564,41.9197251 115.937429,42.9899737 116.197576,43.9737699 C116.456892,44.9571659 116.851883,45.8060803 117.382133,46.5193126 C117.911553,47.2329451 118.571254,47.7920839 119.361236,48.1971294 C120.150803,48.6021749 121.085587,48.8046976 122.165173,48.8046976 C122.544812,48.8046976 122.990006,48.7662743 123.499926,48.6890275 C124.009431,48.612181 124.494042,48.4676934 124.954173,48.2551646 L124.954173,43.2213139 L122.46515,43.2213139 L122.46515,40.7334061 L127.773046,40.7334061 L127.773046,49.7592761 C127.432823,49.9718049 127.013353,50.1695248 126.513805,50.3524356 C126.013428,50.536147 125.483593,50.6998462 124.924299,50.8443337 C124.364176,50.9888213 123.79451,51.0996885 123.214886,51.1769353 C122.634847,51.2537819 122.095054,51.2926054 121.595506,51.2926054" id="Fill-35" fill="#58BE8A" sketch:type="MSShapeGroup" mask="url(#mask-2)"></path>
                <path d="M142.737471,50.88768 L133.770931,34.8899847 L133.770931,50.88768 L130.952058,50.88768 L130.952058,30.6374075 L133.860551,30.6374075 L142.257839,45.7961944 L142.257839,30.6374075 L145.076713,30.6374075 L145.076713,50.88768 L142.737471,50.88768 Z" id="Fill-36" fill="#58BE8A" sketch:type="MSShapeGroup" mask="url(#mask-2)"></path>
                <path d="M19.1331129,51.2113161 L16.3441129,51.2113161 L12.1755494,35.2136209 L7.94723947,51.2113161 L5.06820475,51.2113161 L0.000124471886,30.9610436 L2.93890569,30.9610436 L6.77761865,47.7976473 L11.06609,31.3660891 L13.3451702,31.3660891 L17.7236763,47.7688299 L21.5321011,30.9610436 L24.4111358,30.9610436 L19.1331129,51.2113161 Z" id="Fill-37" fill="#4090CE" sketch:type="MSShapeGroup" mask="url(#mask-2)"></path>
                <path d="M26.5102297,51.2113161 L26.5102297,30.9610436 L37.7558496,30.9610436 L37.7558496,33.4489514 L29.3888495,33.4489514 L29.3888495,39.3793455 L35.956816,39.3793455 L35.956816,41.8672533 L29.3888495,41.8672533 L29.3888495,48.7234084 L37.9960804,48.7234084 L37.9960804,51.2113161 L26.5102297,51.2113161 Z" id="Fill-38" fill="#4090CE" sketch:type="MSShapeGroup" mask="url(#mask-2)"></path>
                <path d="M43.2438566,41.8671732 L43.2438566,48.7233283 L46.0743472,48.7233283 C46.7369526,48.7233283 47.3294388,48.6901082 47.8513909,48.6220669 C48.373343,48.5548262 48.8251759,48.4103386 49.2064748,48.188204 C49.5881886,47.9668699 49.8794528,47.638671 50.0798525,47.2044078 C50.2802523,46.7705448 50.3810745,46.1873914 50.3810745,45.4545473 C50.3810745,44.7217032 50.285646,44.1189379 50.0947891,43.6462514 C49.9043472,43.1739652 49.652914,42.807343 49.3417342,42.5471853 C49.0309694,42.2866274 48.6641923,42.1085195 48.2426475,42.0116608 C47.8211027,41.9156026 47.3696847,41.8671732 46.8879785,41.8671732 L43.2438566,41.8671732 Z M43.2438566,33.3908362 L43.2438566,39.3792654 L46.3627071,39.3792654 C46.6626844,39.3792654 46.9672256,39.3552509 47.2775755,39.3068215 C47.5870956,39.2579919 47.8667424,39.1275129 48.1169309,38.9141836 C48.3667045,38.7012545 48.5671042,38.3766578 48.7168854,37.9403934 C48.8666665,37.5049295 48.9417646,36.9085681 48.9417646,36.1529101 C48.9417646,35.5133225 48.8616877,35.0094171 48.7019487,34.6407937 C48.5417949,34.2729708 48.3218946,33.9968034 48.0418328,33.8126919 C47.7617711,33.6289805 47.4273566,33.5125099 47.0373447,33.4636803 C46.6477477,33.415251 46.2324265,33.3908362 45.7930408,33.3908362 L43.2438566,33.3908362 Z M40.4249833,51.2112361 L40.4249833,30.9609636 L44.8333625,30.9609636 C45.8722879,30.9609636 46.8170295,31.0189988 47.6671725,31.1346689 C48.5164856,31.250339 49.2417418,31.4916852 49.8412814,31.8579072 C50.4412359,32.2245294 50.9009521,32.7356391 51.2208448,33.3908362 C51.5407376,34.0468338 51.7008914,34.9053541 51.7008914,35.9655966 C51.7008914,36.8145111 51.6054629,37.5665669 51.4158508,38.2221642 C51.2254088,38.8781617 50.8208751,39.6106056 50.2014201,40.4206966 C51.3208372,40.9226008 52.1104039,41.568192 52.570535,42.3590713 C53.0298362,43.1499506 53.2601092,44.0945231 53.2601092,45.1939894 C53.2601092,46.4863726 53.0700821,47.5278038 52.6904429,48.3182828 C52.3103887,49.1095624 51.8207993,49.7167304 51.2208448,50.1409875 C50.6213052,50.5652446 49.9412738,50.8498171 49.1815804,50.9943046 C48.4214721,51.1391924 47.6717364,51.2112361 46.9323734,51.2112361 L40.4249833,51.2112361 Z" id="Fill-39" fill="#4090CE" sketch:type="MSShapeGroup" mask="url(#mask-2)"></path>
                <path d="M144.175495,62.7938957 L109.110105,62.7938957 C108.75702,62.7938957 108.470319,62.5181285 108.470319,62.1763214 C108.470319,61.8353147 108.75702,61.5595476 109.110105,61.5595476 L144.175495,61.5595476 C144.528995,61.5595476 144.81528,61.8353147 144.81528,62.1763214 C144.81528,62.5181285 144.528995,62.7938957 144.175495,62.7938957" id="Fill-40" fill="#D7D7D7" sketch:type="MSShapeGroup" mask="url(#mask-2)"></path>
                <path d="M36.4296847,62.7938957 L1.36387994,62.7938957 C1.01037979,62.7938957 0.72409445,62.5181285 0.72409445,62.1763214 C0.72409445,61.8353147 1.01037979,61.5595476 1.36387994,61.5595476 L36.4296847,61.5595476 C36.7827699,61.5595476 37.0694702,61.8353147 37.0694702,62.1763214 C37.0694702,62.5181285 36.7827699,62.7938957 36.4296847,62.7938957" id="Fill-41" fill="#D7D7D7" sketch:type="MSShapeGroup" mask="url(#mask-2)"></path>
            </g>
        </g>
        <g id="Imported-Layers-Copy-2" sketch:type="MSLayerGroup" transform="translate(45.213950, 33.259854)">
            <path d="M33.4090467,16.8190534 C33.3392016,17.2086132 33.2581514,17.5489275 33.2036199,17.7783394 C33.0299409,18.5110161 32.1163519,18.9946627 32.1163519,18.9946627 C32.1163519,18.9946627 31.8907559,18.2960175 31.9486489,17.5713482 C31.9553719,17.4872706 31.9632155,17.404394 31.9703121,17.323119 C31.8186697,17.3883792 31.674871,17.4436303 31.5142646,17.5184994 C30.9196473,17.7947545 30.3859112,18.2255524 29.9959737,18.5870863 C29.9492858,18.8136956 29.8996099,19.0439082 29.8447049,19.2789253 C29.2960286,21.634701 28.5213828,24.0777573 28.1654342,25.1579549 C28.7727505,24.9805911 29.3856694,24.8408621 29.9870097,24.8408621 C30.1487366,24.8408621 29.9989618,24.8552754 30.1509776,24.8748935 C30.8374766,24.0833625 31.7843074,22.8646369 32.4790235,21.4721508 C33.3978416,19.6288484 34.2475616,17.5521305 34.6094862,16.6432911 L33.4090467,16.8190534 Z" id="Fill-1" fill="#F37544" sketch:type="MSShapeGroup"></path>
            <path d="M31.7328387,15.2891204 C31.3499978,14.2809894 30.6537877,13.7805272 30.6537877,13.7805272 C30.6537877,13.7805272 30.6567757,14.7366102 30.456578,16.3260781 C30.7307294,16.1807439 30.9286861,16.0462197 31.2147896,15.9369187 C31.42806,15.8548429 31.6540295,15.7991915 31.88224,15.7583538 C31.8433957,15.6118185 31.7967077,15.4588772 31.7328387,15.2891204" id="Fill-3" fill="#F37544" sketch:type="MSShapeGroup"></path>
            <path d="M35.3190304,0.099291702 C23.5648822,0.099291702 14.03644,10.3131248 14.03644,22.9127613 C14.03644,23.7459308 14.0808869,24.5690911 14.1619371,25.3798398 C14.4267509,25.4394949 14.6863357,25.5075578 14.9347154,25.5924362 C15.3175563,25.7233571 15.7030117,25.7898185 16.0798765,25.7898185 C16.990851,25.7898185 17.7964975,25.4090668 18.5771194,25.0407266 C19.3547532,24.6731872 20.0898077,24.326467 20.9156234,24.326467 C21.7055829,24.326467 22.4383963,24.6539694 23.1570166,25.3277918 C23.6339803,25.7746044 24.166596,25.9823963 24.8332993,25.9823963 C25.4914121,25.9823963 26.052414,25.7922207 26.7714079,25.5612073 C27.0522823,24.8661654 27.8579289,22.8298848 28.2374082,21.4526128 C28.550404,20.3151623 28.7420112,19.6873825 28.83464,19.3959133 C28.441341,19.5296368 28.1063086,19.5997015 28.1063086,19.5997015 C28.1063086,19.5997015 28.0913685,18.7893531 28.3094944,18.1251397 C28.4391,17.7319766 28.7999042,17.2375199 29.4849092,16.7770947 L29.5816465,16.3767249 L29.9883916,13.7010538 C29.9883916,13.7010538 29.0255002,13.626585 27.9393526,14.5354244 C27.069837,15.263697 26.3183484,16.4143597 26.1371993,17.1578463 C25.9186999,18.0526727 25.5504256,18.3133135 25.1623557,18.8265875 C25.1623557,18.8265875 24.4952789,18.2756787 24.685392,16.6021331 C24.7593457,15.952333 25.1074507,14.9782333 26.5424504,13.681836 C27.6308389,12.6993286 28.1343213,12.5968339 28.2964218,12.5952325 C27.9565338,12.575214 26.2862271,12.5099537 24.8631796,13.0600618 C23.5544241,13.564928 23.3982997,13.8507921 22.9900607,14.0942169 C22.5814481,14.3380421 21.4198529,14.6175002 21.4198529,14.6175002 C21.4198529,14.6175002 21.8086698,13.3323132 22.4398903,12.5836217 C23.0707374,11.835731 23.8457567,11.2591986 25.026774,11.0317885 C27.4986187,10.5553485 29.5652124,11.6935998 29.5652124,11.6935998 C29.5652124,11.6935998 29.3807018,10.7146957 28.4790649,9.94438425 C27.7350463,9.3093978 26.9406048,9.08438999 26.3493492,8.88940991 C25.8876991,8.73646866 25.1436806,8.32608965 25.1436806,8.32608965 C25.1436806,8.32608965 25.8036609,7.70471578 26.6873696,7.73073981 C27.5707049,7.75636348 28.8663878,8.14792511 29.8957628,9.41709727 C30.6819872,10.3859921 30.7253136,11.5754907 30.7253136,11.5754907 C30.7253136,11.5754907 31.1570834,9.85910549 33.1781096,9.80825853 C35.2940057,9.75500935 36.0029149,10.5697618 36.4473838,11.183929 C36.8914792,11.7972955 36.8799006,12.6428765 36.8799006,12.6428765 C36.8799006,12.6428765 36.1127249,12.5523929 35.5446264,12.0855618 C35.1924128,11.7972955 34.250064,11.5514685 33.8395839,11.4798023 C32.8113294,11.2992355 32.0041888,11.7636645 31.6624333,12.0086908 C32.2899188,11.8937846 33.2289061,11.8769691 34.2653777,12.3978502 C36.1190745,13.3283095 36.6206894,15.501917 36.6206894,15.501917 C36.6206894,15.501917 36.8750451,15.4638818 38.004519,15.7505466 C38.5591714,15.8914768 39.0357616,16.2730291 39.5702448,17.1061986 C39.9590617,17.7127588 39.9542061,18.6844562 39.9542061,18.6844562 C39.4772424,18.3949889 38.9961702,18.1111267 38.9961702,18.1111267 C38.9961702,18.1111267 39.5549311,19.3887067 39.5246774,20.2495017 C39.4989056,20.9837798 39.1317519,21.6772202 39.1317519,21.6772202 C39.1317519,21.6772202 38.7604897,21.0254183 38.5132305,20.1377985 C38.1591494,18.8690267 37.0647848,17.6823307 37.0647848,17.6823307 C37.0647848,17.6823307 37.4640598,19.0027502 37.2836577,20.1377985 C37.1391119,21.0502412 36.4447693,22.1136233 36.3405619,22.2613597 C35.9409134,22.8270822 35.095302,22.9527983 35.095302,22.9527983 C35.095302,22.9527983 35.2387272,22.0411564 35.3735619,21.685628 C35.6301587,21.0102042 35.7997292,20.6202441 35.778066,19.5444505 C35.7552823,18.4262177 35.3713209,17.3684408 35.1897983,16.9280341 C34.8992127,17.7295743 34.2567871,19.429144 33.3409571,21.4638232 C32.5954445,23.1193521 31.8125816,24.3572955 31.2885565,25.1043854 C31.6112634,25.2437141 31.913801,25.4314875 32.1924345,25.6873238 C32.5588412,26.0236344 32.9203924,26.1737731 33.3652348,26.1737731 C34.0308176,26.1737731 34.8245121,25.8018296 35.5954229,25.4410964 C36.5426272,24.9970863 37.6168226,24.4934212 38.7627307,24.4934212 C39.0977631,24.4934212 39.426446,24.543067 39.7476588,24.6299473 L42.6068264,19.7914786 C42.73195,19.5804838 42.9620281,19.4699817 43.1932266,19.5132217 C43.4229311,19.556862 43.6059477,19.744235 43.6559971,19.9888609 L44.3645329,23.4376461 L50.6057727,12.9611704 C50.7308963,12.7497752 50.9606008,12.641275 51.1917993,12.6849153 C51.4211303,12.7281552 51.6033999,12.916329 51.6534494,13.1597538 L52.6040152,17.7884287 L54.8734212,13.9000375 C51.613111,5.78334127 44.0866464,0.099291702 35.3190304,0.099291702" id="Fill-5" fill="#F37544" sketch:type="MSShapeGroup"></path>
            <path id="Fill-7" fill="#F37544" sketch:type="MSShapeGroup" d="M28.2963471,12.5954327 C28.3366854,12.5982352 28.3620836,12.599036 28.3620836,12.599036 C28.3620836,12.599036 28.3374324,12.5946319 28.2963471,12.5954327"></path>
            <path d="M33.4741483,14.7929422 C33.5234508,15.0936199 33.5410054,15.4015042 33.5309208,15.7061856 C34.0512109,15.7522281 34.4135091,15.8331028 34.4135091,15.8331028 C34.4135091,15.8331028 33.9888358,15.3979009 33.4741483,14.7929422" id="Fill-9" fill="#F37544" sketch:type="MSShapeGroup"></path>
            <path id="Fill-11" fill="#221F20" sketch:type="MSShapeGroup"></path>
            <path id="Stroke-13" stroke="#FEFEFE" stroke-width="3.084" sketch:type="MSShapeGroup"></path>
            <path d="M49.0773973,26.8797051 C49.3074753,26.9237457 49.4901184,27.1131206 49.5390473,27.3585473 L50.6296769,32.879246 L53.5075197,27.9286738 L52.0953038,21.0527235 L50.3842852,23.948598 C50.3107051,24.0735134 50.1833405,24.1463807 50.0496263,24.1463807 C50.0268426,24.1463807 50.0040589,24.1447792 49.9812752,24.1403751 C49.8240303,24.1107478 49.6977862,23.9826294 49.6626769,23.8148745 L48.5869875,18.6436986 L44.7148789,25.1433014 L45.9952482,31.3782597 L48.4891296,27.1567609 C48.6142532,26.9453657 48.8454517,26.835264 49.0773973,26.8797051" id="Fill-15" fill="#6C6E70" sketch:type="MSShapeGroup"></path>
            <path d="M63.3268462,7.7280173 L56.759538,18.6477023 C56.6336674,18.8574961 56.4039629,18.9663966 56.1716439,18.9199537 C55.9423128,18.874712 55.7607903,18.6857374 55.7126083,18.4407111 L55.1758841,15.73261 L52.9613832,19.5285158 L54.7471024,28.2205434 L55.0391819,29.4512801 L62.1361177,18.0167195 C62.2638559,17.809328 62.4943074,17.7040308 62.7221444,17.7512744 C62.9492344,17.7969165 63.1288895,17.98469 63.1778184,18.2269137 L66.5344924,34.7826039 L68.2936928,32.0945213 L63.3268462,7.7280173 Z" id="Fill-17" fill="#57585A" sketch:type="MSShapeGroup"></path>
            <path d="M54.7038133,31.5584261 C54.4793378,31.5175884 54.2985623,31.3386231 54.2425368,31.1020046 L53.8877087,29.608225 L49.0105028,38.007182 L56.5209068,39.6583069 L57.5816561,38.1192855 C57.7135028,37.9247058 57.9387252,37.8290174 58.1602127,37.8758607 L63.7956302,39.1382265 L65.6295313,36.1310492 L63.4811404,25.5352634 L61.4533911,28.956423 C61.3659913,29.1037591 61.215843,29.1898386 61.0571041,29.1898386 C61.0302119,29.1898386 61.0021991,29.1874364 60.9745599,29.1818312 C60.7870612,29.1465987 60.6384069,28.9920559 60.5980686,28.7930722 L59.675889,24.2092387 L55.2797554,31.2913795 C55.1542583,31.4951677 54.9290358,31.6000646 54.7038133,31.5584261" id="Fill-19" fill="#939597" sketch:type="MSShapeGroup"></path>
            <path d="M48.7071808,29.0958318 L46.968523,32.0389499 C46.7193964,32.4605393 46.2592403,32.6839456 45.7927347,32.5938624 C45.3344462,32.5077829 44.9710275,32.1346383 44.8705551,31.6433846 L43.8198904,26.5294616 L42.4935802,28.7751356 C42.4360607,28.8728258 42.3359619,28.9300787 42.2306339,28.9300787 C42.2127058,28.9300787 42.1951511,28.9284772 42.177223,28.9252743 C42.0532199,28.9020528 41.9542415,28.8003589 41.9266023,28.6690376 L41.0929429,24.6617366 L36.1115297,33.0975276 C37.8475729,33.6136042 39.4573721,34.4575837 40.876311,35.5670083 C40.9117938,35.5874272 40.9506382,35.6090471 40.984627,35.6306671 C42.0707745,36.3177016 43.4706648,37.9640221 44.0193411,38.6362429 L47.816002,37.7193962 L49.7570985,34.3791112 L48.7071808,29.0958318 Z" id="Fill-21" fill="#939597" sketch:type="MSShapeGroup"></path>
            <g id="Group-25">
                <mask id="mask-4" sketch:name="Clip 24" fill="white">
                    <use xlink:href="#path-3"></use>
                </mask>
                <g id="Clip-24"></g>
                <path d="M10.6902615,35.4505007 C12.5024994,32.0233355 15.3575585,30.5695929 17.5421792,30.3706091 L17.7916794,30.3473877 C18.2529559,30.3041477 18.8061143,30.2520997 19.4235152,30.2520997 C21.3892629,30.2520997 24.0049064,30.7837907 26.3837488,33.7685473 C28.1881432,32.9529941 30.1441798,32.5105855 32.1435429,32.5105855 C33.0941087,32.5105855 34.0222644,32.6118791 34.9239013,32.794848 L39.0843543,25.7523439 C38.9782794,25.7403328 38.871831,25.7283217 38.762768,25.7283217 C37.8577696,25.7283217 36.942313,26.1575181 36.0571103,26.5723011 C35.1793776,26.9834809 34.2725116,27.4086736 33.3652721,27.4086736 L33.3648986,27.4086736 C32.6459048,27.4086736 32.0172988,27.1520366 31.4432242,26.62515 C31.0342381,26.2500035 30.5714676,26.0754423 29.9873085,26.0754423 C29.2668206,26.0754423 28.4690176,26.336083 27.6249002,26.6119378 C26.7131787,26.9098129 25.7704564,27.2172968 24.8333367,27.2172968 C23.8842649,27.2172968 23.0879559,26.9030066 22.3984688,26.2564094 C21.8927454,25.782772 21.4210107,25.5613675 20.9156608,25.5613675 C20.3318752,25.5613675 19.7338964,25.8440285 19.0414213,26.1707303 C18.1939424,26.5711 17.2336654,27.0243186 16.0799138,27.0243186 C15.584275,27.0243186 15.081166,26.9386395 14.5847802,26.7684823 C14.0962379,26.6011278 13.3144955,26.402144 12.2167694,26.402144 L-0.000149401312,26.402144 L10.6902615,35.4505007 Z" id="Fill-23" fill="#4090CE" sketch:type="MSShapeGroup" mask="url(#mask-4)"></path>
            </g>
            <path d="M38.3792922,58.8868256 C47.7329349,54.8414895 35.4850153,47.9815539 37.5108971,43.1338768 C38.4820056,40.8117321 40.4563439,39.5866006 42.5587939,38.8995661 C40.0425023,35.7466542 36.3082165,33.7452058 32.1436549,33.7452058 C27.7901007,33.7452058 23.6528049,35.996485 21.0767528,39.7663667 C20.8888806,40.0414207 20.5288234,40.1002751 20.2718532,39.8988891 C20.0152564,39.6975031 19.9596044,39.311947 20.1474766,39.036893 C21.5159926,37.0342434 23.2920007,35.4307625 25.3010748,34.3129301 C22.6282854,31.1432027 19.8034801,31.3962363 17.8930108,31.5772035 L17.6390286,31.6012257 C15.7214627,31.7757869 13.1980746,33.0974075 11.6091916,36.2282991 L38.3792922,58.8868256 Z" id="Fill-26" fill="#FAAB42" sketch:type="MSShapeGroup"></path>
            <g id="Group-30">
                <mask id="mask-6" sketch:name="Clip 29" fill="white">
                    <use xlink:href="#path-5"></use>
                </mask>
                <g id="Clip-29"></g>
                <path d="M64.5420391,40.1395914 C64.4139275,40.3505862 64.1801144,40.4566842 63.9474219,40.4078391 L58.2653165,39.1991228 L57.2333269,40.7005094 C57.1238905,40.8630595 56.9490909,40.9559453 56.7668213,40.9559453 C56.7231215,40.9559453 56.7122899,40.9010947 56.6353482,40.9403309 L47.9950968,39.0333697 C45.7040277,39.498199 42.215507,40.2969367 41.012453,43.3285366 C39.022054,48.3451697 56.1311188,56.5995932 43.0002374,62.7981179 L50.1666449,68.8637199 L58.3508488,55.238336 L66.4715571,59.220814 L76.1008451,43.1091339 L66.8510364,41.076857 L75.7038111,26.3648696 L68.3080727,26.3828862 L69.4730294,32.0957624 C69.5070182,32.2647184 69.4741499,32.4404808 69.3818946,32.5814109 L64.5420391,40.1395914 Z" id="Fill-28" fill="#58BE8A" sketch:type="MSShapeGroup" mask="url(#mask-6)"></path>
            </g>
            <path d="M41.7114644,23.7438089 L42.3650951,27.0296435 C42.3650951,27.0296435 43.7190445,25.9786729 43.5789808,25.3869264 C43.438917,24.7947795 42.9343141,21.4917289 42.9343141,21.4917289 L41.7114644,23.7438089 Z" id="Fill-31" fill="#FEFEFE" sketch:type="MSShapeGroup"></path>
            <path d="M49.3744818,17.7050317 L50.2944203,22.3293025 C50.2944203,22.3293025 51.8265308,20.049597 51.6296946,19.2164275 C51.4324848,18.3832581 51.0959584,14.5353042 51.0959584,14.5353042 L49.3744818,17.7050317 Z" id="Fill-33" fill="#FEFEFE" sketch:type="MSShapeGroup"></path>
            <path d="M60.4395164,22.8597924 L61.359455,27.4840632 C61.359455,27.4840632 62.8915655,25.2043578 62.6947292,24.3711883 C62.4975195,23.5380188 62.1609931,19.690065 62.1609931,19.690065 L60.4395164,22.8597924 Z" id="Fill-35" fill="#FEFEFE" sketch:type="MSShapeGroup"></path>
        </g>
    </g>
</svg>