<?xml version="1.0" encoding="UTF-8" standalone="no"?>
<svg viewBox="0 0 200 200" version="1.1" xmlns="http://www.w3.org/2000/svg" xmlns:xlink="http://www.w3.org/1999/xlink" xmlns:sketch="http://www.bohemiancoding.com/sketch/ns">
    <defs>
        <path id="path-1" d="M1714.50984,-424.598694 L83,2.57889108 L819.197339,160.8125 L1714.50984,2.57888794 L1714.50984,-424.598694 Z"></path>
        <path id="path-2" d="M1717.87338,-427 L84,-70.1677383 L643.555877,130.919408 L1717.87338,-15.3881483 L1717.87338,-427 Z"></path>
    </defs>
    <g id="Page-2" stroke="none" stroke-width="1" fill="none" fill-rule="evenodd" sketch:type="MSPage">
        <g id="Rectangle-4-Copy-27">
            <use fill-opacity="0.25" fill="#000000" fill-rule="evenodd" sketch:type="MSShapeGroup" transform="translate(898.754920, -131.893097) scale(1, -1) translate(-898.754920, 131.893097) " xlink:href="#path-1"></use>
            <use fill="none" xlink:href="#path-1"></use>
        </g>
        <g id="Rectangle-4-Copy-28">
            <use fill-opacity="0.25" fill="#000000" fill-rule="evenodd" sketch:type="MSShapeGroup" transform="translate(900.936691, -148.040296) scale(1, -1) translate(-900.936691, 148.040296) " xlink:href="#path-2"></use>
            <use fill="none" xlink:href="#path-2"></use>
        </g>
        <path d="M34,124.80186 L136.952386,184.094153 L165.46136,106.342448 L53.4329484,44 L34,124.80186 Z" id="Path-81-Copy-10" fill-opacity="0.100000001" fill="#000000" sketch:type="MSShapeGroup"></path>
        <path d="M60.2142942,127.142866 L60.2142942,111.071418 L76.285742,111.071418 L76.285742,127.142866 L60.2142942,127.142866 Z M79.8571748,127.142866 L79.8571748,111.071418 L97.7143389,111.071418 L97.7143389,127.142866 L79.8571748,127.142866 Z M60.2142942,107.499985 L60.2142942,89.642821 L76.285742,89.642821 L76.285742,107.499985 L60.2142942,107.499985 Z M79.8571748,107.499985 L79.8571748,89.642821 L97.7143389,89.642821 L97.7143389,107.499985 L79.8571748,107.499985 Z M60.2142942,86.0713881 L60.2142942,69.9999404 L76.285742,69.9999404 L76.285742,86.0713881 L60.2142942,86.0713881 Z M101.285772,127.142866 L101.285772,111.071418 L119.142936,111.071418 L119.142936,127.142866 L101.285772,127.142866 Z M79.8571748,86.0713881 L79.8571748,69.9999404 L97.7143389,69.9999404 L97.7143389,86.0713881 L79.8571748,86.0713881 Z M122.714369,127.142866 L122.714369,111.071418 L138.785816,111.071418 L138.785816,127.142866 L122.714369,127.142866 Z M101.285772,107.499985 L101.285772,89.642821 L119.142936,89.642821 L119.142936,107.499985 L101.285772,107.499985 Z M81.6428912,59.2856419 C81.6428912,60.2343038 80.8058366,61.0713583 79.8571748,61.0713583 L76.285742,61.0713583 C75.3370801,61.0713583 74.5000255,60.2343038 74.5000255,59.2856419 L74.5000255,43.2141942 C74.5000255,42.2655323 75.3370801,41.4284778 76.285742,41.4284778 L79.8571748,41.4284778 C80.8058366,41.4284778 81.6428912,42.2655323 81.6428912,43.2141942 L81.6428912,59.2856419 Z M122.714369,107.499985 L122.714369,89.642821 L138.785816,89.642821 L138.785816,107.499985 L122.714369,107.499985 Z M101.285772,86.0713881 L101.285772,69.9999404 L119.142936,69.9999404 L119.142936,86.0713881 L101.285772,86.0713881 Z M122.714369,86.0713881 L122.714369,69.9999404 L138.785816,69.9999404 L138.785816,86.0713881 L122.714369,86.0713881 Z M124.500085,59.2856419 C124.500085,60.2343038 123.663031,61.0713583 122.714369,61.0713583 L119.142936,61.0713583 C118.194274,61.0713583 117.357219,60.2343038 117.357219,59.2856419 L117.357219,43.2141942 C117.357219,42.2655323 118.194274,41.4284778 119.142936,41.4284778 L122.714369,41.4284778 C123.663031,41.4284778 124.500085,42.2655323 124.500085,43.2141942 L124.500085,59.2856419 Z M145.928682,55.7142091 C145.928682,51.8079544 142.692071,48.5713434 138.785816,48.5713434 L131.642951,48.5713434 L131.642951,43.2141942 C131.642951,38.303474 127.625089,34.2856121 122.714369,34.2856121 L119.142936,34.2856121 C114.232216,34.2856121 110.214354,38.303474 110.214354,43.2141942 L110.214354,48.5713434 L88.7857569,48.5713434 L88.7857569,43.2141942 C88.7857569,38.303474 84.7678949,34.2856121 79.8571748,34.2856121 L76.285742,34.2856121 C71.3750218,34.2856121 67.3571599,38.303474 67.3571599,43.2141942 L67.3571599,48.5713434 L60.2142942,48.5713434 C56.3080396,48.5713434 53.0714286,51.8079544 53.0714286,55.7142091 L53.0714286,127.142866 C53.0714286,131.04912 56.3080396,134.285731 60.2142942,134.285731 L138.785816,134.285731 C142.692071,134.285731 145.928682,131.04912 145.928682,127.142866 L145.928682,55.7142091 Z" id="ï³-copy" fill="#FFFFFF" sketch:type="MSShapeGroup"></path>
    </g>
</svg>