<?xml version="1.0" encoding="UTF-8" standalone="no"?>
<svg viewBox="0 0 200 200" version="1.1" xmlns="http://www.w3.org/2000/svg" xmlns:xlink="http://www.w3.org/1999/xlink" xmlns:sketch="http://www.bohemiancoding.com/sketch/ns">
    <defs></defs>
    <g id="Page-2" stroke="none" stroke-width="1" fill="none" fill-rule="evenodd" sketch:type="MSPage">
        <path d="M29,150.790909 L96.9310876,190.310605 L164.862178,123.026419 L96.9310876,57 L29,150.790909 Z" id="Path-81-Copy-9" fill-opacity="0.100000001" fill="#000000" sketch:type="MSShapeGroup"></path>
        <path d="M137.000092,60.2141942 C133.428659,56.6427613 124.500077,60.2141942 119.142927,65.5713434 L110.214345,74.4999255 L73.1049261,65.6271471 C72.5468897,65.4597361 71.877246,65.6829507 71.4308169,66.0735762 L64.2879513,73.2164418 C63.8973258,73.6070673 63.7299149,74.2209073 63.7857185,74.72314 C63.8973258,75.2811764 64.2321476,75.7834092 64.7343804,76.0624274 L93.0826285,91.6316423 L78.6294862,106.084785 L67.8035805,103.127192 C67.6919732,103.071388 67.5245623,103.071388 67.3571514,103.071388 C66.9107223,103.071388 66.4084895,103.238799 66.0736677,103.573621 L60.7165185,108.986574 C60.3816966,109.377199 60.1584821,109.879432 60.2142857,110.381665 C60.2700894,110.883897 60.4933039,111.38613 60.939733,111.665148 L75.0022498,122.212036 L85.5491373,136.274553 C85.8839592,136.720982 86.3303883,136.944196 86.8884247,137 L87.0000319,137 C87.446461,137 87.9486938,136.832589 88.2835156,136.497767 L93.6406648,131.140618 C94.087094,130.638385 94.2545049,130.024545 94.087094,129.410705 L91.1295011,118.584799 L105.582643,104.131657 L121.151858,132.479905 C121.375073,132.982138 121.821502,133.261156 122.323735,133.372764 C122.491146,133.428567 122.602753,133.428567 122.71436,133.428567 C123.104986,133.428567 123.495611,133.31696 123.774629,133.093745 L130.917495,127.736596 C131.475531,127.290167 131.75455,126.56472 131.587139,125.895076 L122.658557,87.055744 L131.642942,78.0713583 C137.000092,72.7142091 140.571524,63.785627 137.000092,60.2141942 L137.000092,60.2141942 Z" id="ï²-copy" fill="#FFFFFF" sketch:type="MSShapeGroup"></path>
    </g>
</svg>