<?xml version="1.0" encoding="UTF-8" standalone="no"?>
<svg viewBox="0 0 200 200" version="1.1" xmlns="http://www.w3.org/2000/svg" xmlns:xlink="http://www.w3.org/1999/xlink" xmlns:sketch="http://www.bohemiancoding.com/sketch/ns">
    <defs></defs>
    <g id="Page-2" stroke="none" stroke-width="1" fill="none" fill-rule="evenodd" sketch:type="MSPage">
        <path d="M100,0 C44.7916667,0 0,44.7916667 0,100 C0,155.208333 44.7916667,200 100,200 C155.208333,200 200,155.208333 200,100 C200,44.7916667 155.208333,0 100,0 L100,0 Z M135.488332,68.1154974 C136.915349,67.2008967 139.250468,66.0249814 141.066671,66.5476104 C142.493688,66.9395822 143.661247,67.4622112 141.974773,68.6381264 C141.1964,69.1607554 140.028841,68.6381264 139.120739,68.8994409 C140.288298,69.1607554 141.974773,69.6833844 141.455857,70.8592997 C144.828806,72.8191584 140.418027,75.170989 138.212637,74.9096745 C139.250468,75.0403317 136.007248,77.0001905 136.007248,76.8695332 C134.839688,77.5228195 133.282943,77.5228195 132.374841,78.6987347 C131.337011,80.1359645 132.764028,82.6184522 130.818096,82.0958232 C130.039723,83.7943675 127.05596,82.8797667 125.758672,84.7089683 C127.185689,86.2768553 124.331655,88.4980285 122.904639,86.5381698 C121.607351,87.0607988 122.255995,88.4980285 120.958707,89.281972 C121.477622,90.0659155 121.607351,90.849859 120.699249,91.372488 C120.958707,91.2418308 122.515452,92.5484033 122.904639,92.6790606 C122.645181,93.3323468 122.126266,93.8549758 121.477622,93.8549758 C122.126266,95.5535201 120.699249,97.3827216 119.53169,98.4279796 C118.234402,99.4732376 115.250639,100.518496 114.861453,100.77981 C112.526334,103.000983 110.969589,106.267415 115.12091,107.182015 C115.250639,107.182015 115.250639,111.493705 115.380368,111.624362 C115.639826,113.192249 116.28847,117.765253 113.564165,116.066708 C112.266877,115.413422 111.488504,111.755019 111.099318,110.317789 C110.710131,108.749902 110.580402,108.749902 109.542572,107.182015 C107.856098,109.141874 107.59664,107.704644 106.169623,106.790044 C104.742606,106.0061 102.666945,106.267415 101.888573,105.483471 C99.9426406,106.920701 98.5156237,106.528729 98.1264373,104.307556 C97.6075221,105.352814 98.6453525,106.920701 98.5156237,107.312673 C97.8669797,108.619245 96.6994205,108.357931 95.6615901,107.573987 C93.9751157,106.267415 90.3427092,108.488588 88.3967772,107.573987 C88.526506,107.573987 89.0454212,108.096616 89.4346076,108.357931 C89.0454212,109.925818 88.1373195,109.011217 87.3589467,109.533846 C86.4508451,110.187132 85.6724723,111.493705 84.8940995,112.146991 C86.5805739,115.413422 84.7643707,118.549196 84.8940995,122.076942 C84.8940995,124.690087 86.5805739,129.263091 89.0454212,130.700321 C90.2129804,131.353607 94.1048445,131.614921 95.2724037,131.092292 C97.0886069,130.308349 96.8291493,128.871119 97.4777933,127.303232 C98.1264373,125.604688 98.9048102,124.820744 100.850742,124.690087 C106.429081,124.428772 102.14803,129.001776 101.499386,131.353607 C101.1102,133.052151 100.980471,135.01201 100.721013,136.579897 C101.369657,136.841211 102.018301,136.710554 102.666945,136.710554 C102.666945,136.187925 103.056132,135.534639 103.056132,135.142667 C103.834505,136.44924 106.429081,136.841211 107.207454,135.273324 C108.115555,136.841211 109.931758,138.017127 110.191216,139.846328 C110.450674,141.67553 112.137148,143.635388 109.672301,143.635388 C107.856098,143.635388 109.931758,147.293791 110.191216,147.947078 C111.618233,150.560223 113.953351,151.605481 116.547927,150.298908 C116.547927,151.344166 116.158741,154.218626 114.731724,154.47994 C113.434436,154.741255 110.969589,151.997452 111.488504,150.560223 C111.358775,151.082852 110.969589,151.474823 110.580402,151.736138 C109.283114,150.168251 107.077725,149.384307 105.910165,147.81642 C105.650708,147.424449 102.14803,142.067501 102.926403,141.806187 C101.1102,142.59013 97.4777933,141.283558 95.7913189,140.368957 C93.067014,138.931727 92.6778276,135.142667 89.3048788,135.665296 C86.9697603,136.057268 86.3211163,136.971869 83.5968115,135.926611 C81.7806082,135.273324 80.2238626,133.966752 78.4076594,133.052151 C76.3319985,131.876236 72.6995921,130.700321 71.9212192,128.087176 C71.1428464,125.99666 71.402304,123.514172 70.2347448,121.554313 C69.456372,120.24774 67.1212535,117.634595 65.4347791,117.634595 C66.9915247,117.634595 64.0077623,113.714878 63.6185759,113.322906 C62.1915591,111.624362 57.002407,107.051358 58.0402374,104.438213 C58.299695,104.046241 55.4456613,103.000983 54.9267461,102.870326 C55.4456613,104.176899 55.5753901,105.614128 56.2240341,106.790044 C56.8726781,108.096616 57.651051,109.272531 58.4294238,110.579104 C59.8564406,112.930934 61.8023726,115.805394 61.542915,118.679853 C59.8564406,119.202482 60.3753558,116.719995 59.8564406,115.674737 C58.948339,113.976192 56.4834917,113.976192 55.8348477,112.146991 C56.0943053,112.016334 56.2240341,112.016334 56.4834917,111.885676 C56.6132205,109.664503 53.3700005,107.835302 53.8889157,106.267415 C52.0727125,104.830185 52.0727125,102.086383 50.7754244,100.257181 C49.6078652,98.5586368 47.6619332,97.7746933 45.9754587,96.5987781 C45.3268147,96.2068063 40.6565778,90.1965728 42.3430523,89.804601 C39.7484762,90.4578873 38.4511882,84.3169965 38.8403746,82.7491095 C38.8403746,82.7491095 38.580917,82.7491095 38.580917,82.6184522 C39.0998322,81.0505652 38.1917306,72.9498157 40.2673914,72.8191584 C38.8403746,72.9498157 38.4511882,69.4220699 38.8403746,68.7687837 C39.0998322,68.2461547 41.0457642,70.2060134 41.175493,70.4673279 C41.9538659,70.0753562 42.7322387,69.0300982 42.4727811,68.1154974 C42.0835947,67.0702394 40.6565778,66.1556386 39.7484762,65.3716951 C39.3592898,65.1103806 34.1701377,61.7132921 34.0404089,61.8439494 C34.5593241,60.9293486 34.4295953,60.0147479 33.6512225,59.3614616 C31.1863753,61.3213204 32.4836633,57.5322601 31.1863753,57.1402883 C30.66746,57.0096311 30.1485448,56.6176593 29.6296296,56.0950303 C37.1539002,44.0745633 47.6619332,34.013955 60.1158982,27.0891207 C60.894271,26.9584634 61.9321014,26.9584634 62.9699319,26.9584634 C65.3050503,27.2197779 66.6023383,29.1796367 68.2888128,30.3555519 C68.5482704,29.7022657 68.0293552,28.6570077 67.6401688,28.0037214 C68.0293552,26.9584634 69.5861008,26.6971489 70.4942024,26.4358344 C71.6617616,26.3051772 73.3482361,26.0438627 74.3860665,26.5664917 C73.6076937,25.3905764 72.6995921,24.3453184 71.7914904,23.3000604 C71.6617616,23.4307176 71.2725752,23.6920321 71.1428464,23.9533466 C69.7158296,22.7774314 66.9915247,24.3453184 65.6942367,24.8679474 C64.6564063,25.3905764 63.7483047,26.0438627 62.7104743,26.4358344 C62.0618302,26.6971489 61.6726438,26.6971489 61.1537286,26.5664917 C65.0455927,24.4759757 69.0671856,22.6467741 73.3482361,21.2095444 C74.1266089,21.7321734 74.9049817,22.6467741 76.0725409,23.5613749 C75.2941681,22.9080886 75.2941681,25.9132054 75.5536257,26.4358344 C76.9806425,28.3956932 80.0941338,27.0891207 82.0400658,27.0891207 C81.910337,27.0891207 87.7481331,27.8730642 86.5805739,26.4358344 C87.4886755,27.7424069 87.4886755,29.7022657 88.6562348,30.8781809 C89.823794,29.7022657 88.1373195,28.3956932 88.9156924,27.2197779 C89.17515,26.6971489 91.5102684,26.0438627 92.2886412,25.6518909 C93.1967428,24.9986047 91.6399972,24.0840039 91.2508108,23.8226894 C89.9535228,23.0387459 84.8940995,22.6467741 87.3589467,19.6416574 C88.2670483,18.5963994 91.5102684,19.1190284 92.5480988,19.7723146 C93.9751157,20.5562581 95.5318613,21.9934879 93.5859292,23.3000604 C94.4940309,23.4307176 98.7750813,24.6066329 98.1264373,26.3051772 C98.5156237,25.5212337 99.1642678,24.3453184 100.202098,24.3453184 C101.369657,24.4759757 101.629115,27.2197779 102.14803,27.8730642 C103.964233,31.1394954 107.077725,24.6066329 107.59664,24.8679474 C105.261521,23.9533466 109.672301,22.7774314 110.83986,23.1694031 C111.747962,23.5613749 113.174978,26.6971489 111.488504,26.5664917 C112.915521,27.8730642 113.04525,30.7475237 110.450674,30.6168664 C108.63447,30.4862092 106.558809,28.0037214 104.872335,29.9635802 C103.704776,31.2701527 103.185861,33.2300115 102.018301,34.4059267 C100.202098,36.2351282 97.7372509,36.104471 95.5318613,35.8431565 C96.4399629,35.9738137 93.5859292,38.9789305 93.3264716,39.5015595 C92.5480988,40.4161602 92.0291836,41.4614183 91.769726,42.5066763 C91.5102684,43.8132488 91.769726,45.2504785 91.121082,46.557051 C93.3264716,45.9037648 94.4940309,49.9541396 93.5859292,50.0847968 C96.3102341,49.6928251 98.5156237,49.6928251 101.1102,50.6074258 C102.926403,51.2607121 105.650708,52.0446556 106.429081,54.0045143 C106.947996,53.2205708 109.412843,53.6125426 110.191216,53.8738571 C111.747962,54.6578006 111.87769,56.3563448 112.266877,57.7935746 C112.785792,59.7534334 114.472266,63.0198646 116.677656,61.9746066 C117.066842,61.7132921 119.920876,60.4067196 118.883046,59.6227761 C117.845215,58.7081754 116.677656,56.3563448 117.715487,55.0497723 C118.753317,53.6125426 121.218164,53.2205708 121.866808,51.3913693 C122.904639,48.3862525 118.753317,48.7782243 118.753317,46.557051 C118.753317,45.2504785 120.439791,44.8585068 120.310063,43.2906198 C120.310063,41.9840473 118.364131,39.3709022 119.920876,38.4563015 C121.218164,37.672358 127.445147,38.9789305 128.612706,39.762874 C129.780265,40.5468175 133.412672,41.5920755 133.672129,42.7679908 L133.023485,42.7679908 C134.061316,43.6825915 134.969417,45.6424503 133.153214,46.1650793 C134.320773,45.9037648 137.693722,47.2103373 135.358604,47.9942808 C136.136976,47.602309 136.78562,47.8636235 137.563993,47.3409945 C138.472095,46.8183655 138.99101,45.9037648 140.158569,46.557051 C140.418027,46.6877083 141.845044,43.8132488 142.623417,43.943906 C143.790976,44.0745633 144.050433,45.7731075 144.569349,46.557051 C145.088264,47.7329663 146.515281,48.124938 147.034196,49.3008533 C147.942297,51.5220266 147.553111,53.6125426 150.536874,54.3964861 C151.444975,54.6578006 153.909822,53.2205708 153.780094,55.1804296 C154.299009,54.6578006 154.558466,54.2658288 154.558466,54.1351716 C154.688195,55.9643731 155.466568,58.0548891 157.671958,57.7935746 C157.671958,57.7935746 157.671958,60.2760624 157.4125,60.6680341 C156.634127,61.8439494 154.688195,61.5826349 153.520636,62.2359211 C153.13145,62.3665784 150.017958,65.1103806 150.407145,65.5023524 C148.72067,63.5424936 145.996365,63.5424936 143.790976,64.0651226 C141.455857,64.4570944 139.250468,64.7184089 137.045078,65.6330096 C136.007248,66.1556386 134.969417,66.6782677 134.191044,67.5928684 C133.801858,68.1154974 133.153214,70.4673279 132.50457,70.5979852 C133.801858,70.3366707 134.450502,68.8994409 135.488332,68.1154974 L135.488332,68.1154974 Z M114.548963,182.010582 C114.420076,181.368572 114.291188,180.084552 114.291188,179.95615 C114.162301,177.901718 116.353383,176.489296 116.224496,174.563265 C114.806737,174.178059 114.420076,172.765637 114.67785,171.224813 C114.935624,169.041979 116.868932,167.501155 118.415578,166.088733 C119.962224,164.676311 120.348885,161.723065 119.962224,159.925436 C119.317788,156.843788 119.317788,153.633738 118.802239,150.55209 C118.931127,151.322502 121.122208,151.065698 121.50887,152.092914 C122.024419,151.1941 122.282193,150.038482 122.926629,149.139668 C123.442178,148.369256 124.344388,148.112452 125.117711,147.470442 C126.406582,146.700029 129.113213,143.746783 130.659859,145.544411 C131.948731,147.085236 128.726552,148.754462 130.402085,150.166884 C130.917633,149.139668 130.402085,147.598844 131.433182,146.571627 C133.495377,144.260391 134.913136,146.828431 136.975331,147.470442 C139.166412,148.112452 139.939735,148.882864 141.615269,150.295286 C141.09972,149.781678 143.677463,148.882864 143.935238,148.754462 C146.384094,148.240854 147.415191,149.653276 149.090725,150.937296 C150.895145,152.221316 153.730663,153.12013 153.472888,155.68817 C154.76176,155.944974 155.535083,156.33018 156.566181,156.715386 C157.597278,157.228994 159.015037,156.97219 159.78836,157.742602 C147.93074,170.197597 132.206505,178.928934 114.548963,182.010582 L114.548963,182.010582 Z" id="-copy-2" fill-opacity="0.45" fill="#FFFFFF" sketch:type="MSShapeGroup"></path>
    </g>
</svg>