<?xml version="1.0" encoding="UTF-8" standalone="no"?>
<svg viewBox="0 0 200 200" version="1.1" xmlns="http://www.w3.org/2000/svg" xmlns:xlink="http://www.w3.org/1999/xlink" xmlns:sketch="http://www.bohemiancoding.com/sketch/ns">
    <defs></defs>
    <g id="Page-2" stroke="none" stroke-width="1" fill="none" fill-rule="evenodd" sketch:type="MSPage">
        <path d="M15,101.402992 L72.8418688,183.795981 L164.616211,122.280812 L133.921291,53 L15,101.402992 Z" id="Path-81-Copy-6" fill-opacity="0.100000001" fill="#000000" sketch:type="MSShapeGroup"></path>
        <path d="M163.071561,91.4285374 C165.024688,91.4285374 166.642993,93.0468429 166.642993,94.9999702 L166.642993,120 L152.357262,120 L152.357262,105.714269 L66.6428742,105.714269 L66.6428742,120 L52.3571429,120 L52.3571429,52.1427763 C52.3571429,50.1896489 53.9754484,48.5713434 55.9285757,48.5713434 L63.0714413,48.5713434 C65.0245687,48.5713434 66.6428742,50.1896489 66.6428742,52.1427763 L66.6428742,91.4285374 L163.071561,91.4285374 Z M98.7857696,73.5713732 C98.7857696,81.4396862 92.3683513,87.8571045 84.5000383,87.8571045 C76.6317254,87.8571045 70.214307,81.4396862 70.214307,73.5713732 C70.214307,65.7030603 76.6317254,59.2856419 84.5000383,59.2856419 C92.3683513,59.2856419 98.7857696,65.7030603 98.7857696,73.5713732 L98.7857696,73.5713732 Z M166.642993,87.8571045 L102.357202,87.8571045 L102.357202,66.4285076 C102.357202,64.4753802 103.975508,62.8570747 105.928635,62.8570747 L145.214396,62.8570747 C157.044768,62.8570747 166.642993,72.4553005 166.642993,84.2856717 L166.642993,87.8571045 Z" id="-copy" fill="#FFFFFF" sketch:type="MSShapeGroup"></path>
    </g>
</svg>