<?xml version="1.0" encoding="UTF-8" standalone="no"?>
<svg viewBox="0 0 200 200" version="1.1" xmlns="http://www.w3.org/2000/svg" xmlns:xlink="http://www.w3.org/1999/xlink" xmlns:sketch="http://www.bohemiancoding.com/sketch/ns">
    <defs></defs>
    <g id="Page-2" stroke="none" stroke-width="1" fill="none" fill-rule="evenodd" sketch:type="MSPage">
        <path d="M35,92.8349582 L67.0105336,184.013327 L181.608176,109.292288 L81.3200973,50 L35,92.8349582 Z" id="Path-81-Copy-8" fill-opacity="0.100000001" fill="#000000" sketch:type="MSShapeGroup"></path>
        <path d="M75.5714626,34.2856121 C75.2924444,34.2856121 75.0134263,34.3414157 74.7344081,34.5088267 L47.9486618,48.794558 C47.3906255,49.0735762 47,49.6874162 47,50.3570598 L47,132.500015 C47,133.448677 47.8370546,134.285731 48.7857164,134.285731 C49.0647346,134.285731 49.3437528,134.229928 49.622771,134.062517 L76.4085172,119.776785 C76.9665536,119.497767 77.357179,118.883927 77.357179,118.214284 L77.357179,36.0713285 C77.357179,35.1226667 76.5201245,34.2856121 75.5714626,34.2856121 L75.5714626,34.2856121 Z M145.214403,34.2856121 C144.935385,34.2856121 144.656366,34.3414157 144.377348,34.5088267 L117.591602,48.794558 C117.033566,49.0735762 116.64294,49.6874162 116.64294,50.3570598 L116.64294,132.500015 C116.64294,133.448677 117.479995,134.285731 118.428657,134.285731 C118.707675,134.285731 118.986693,134.229928 119.265711,134.062517 L146.051457,119.776785 C146.609494,119.497767 147.000119,118.883927 147.000119,118.214284 L147.000119,36.0713285 C147.000119,35.1226667 146.163065,34.2856121 145.214403,34.2856121 L145.214403,34.2856121 Z M82.7143283,34.2856121 C81.7656664,34.2856121 80.9286119,35.1226667 80.9286119,36.0713285 L80.9286119,118.214284 C80.9286119,118.883927 81.3192373,119.497767 81.9330774,119.832589 L110.50454,134.11832 C110.727755,134.229928 111.006773,134.285731 111.285791,134.285731 C112.234453,134.285731 113.071507,133.448677 113.071507,132.500015 L113.071507,50.3570598 C113.071507,49.6874162 112.680882,49.0735762 112.067042,48.7387543 L83.4955792,34.453023 C83.2723647,34.3414157 82.9933465,34.2856121 82.7143283,34.2856121 L82.7143283,34.2856121 Z" id="-copy" fill="#FFFFFF" sketch:type="MSShapeGroup"></path>
    </g>
</svg>