<?xml version="1.0" encoding="UTF-8" standalone="no"?>
<svg viewBox="0 0 200 200" version="1.1" xmlns="http://www.w3.org/2000/svg" xmlns:xlink="http://www.w3.org/1999/xlink" xmlns:sketch="http://www.bohemiancoding.com/sketch/ns">
    <defs></defs>
    <g id="Page-2" stroke="none" stroke-width="1" fill="none" fill-rule="evenodd" sketch:type="MSPage">
        <g id="Artboard-2" sketch:type="MSArtboardGroup" transform="translate(-162.000000, -77.000000)" fill-opacity="0.45" fill="#FFFFFF">
            <path d="M317.449087,106.391404 C313.259548,106.391404 309.326511,108.272421 306.333983,111.008447 L251.784474,160.513409 C246.739927,165.130452 243.9184,171.799515 243.9184,178.639578 C243.9184,193.003713 255.71751,205.315828 270.167145,205.315828 C277.434713,205.315828 283.590771,202.4088 288.806319,197.535255 C299.493919,187.702663 321.895128,145.892773 328.564191,133.238655 C330.61621,129.220117 332.411727,124.859576 332.411727,120.328034 C332.411727,112.205458 325.229659,106.391404 317.449087,106.391404 L317.449087,106.391404 Z M239.728861,194.799229 C220.491181,195.654237 209.119575,199.074269 201.852007,218.055447 C201.0825,220.021965 199.286983,221.218976 197.149463,221.218976 C193.55843,221.218976 182.528827,212.412394 179.365297,210.274874 C179.365297,236.523619 191.933915,259.608835 220.918685,259.608835 C245.371914,259.608835 262.301072,242.850678 261.788067,218.482951 L261.702566,212.412394 C252.297478,209.932871 244.174903,203.43481 239.728861,194.799229 L239.728861,194.799229 Z" id="-copy-2" sketch:type="MSShapeGroup" transform="translate(255.888512, 183.000119) rotate(-40.000000) translate(-255.888512, -183.000119) "></path>
        </g>
    </g>
</svg>