<?xml version="1.0" encoding="UTF-8" standalone="no"?>
<svg viewBox="0 0 200 200" version="1.1" xmlns="http://www.w3.org/2000/svg" xmlns:xlink="http://www.w3.org/1999/xlink" xmlns:sketch="http://www.bohemiancoding.com/sketch/ns">
    <defs></defs>
    <g id="Page-2" stroke="none" stroke-width="1" fill="none" fill-rule="evenodd" sketch:type="MSPage">
        <path d="M23,95.8313023 L102.064973,186.404111 L181.129945,112.292288 L80.8418664,53 L23,95.8313023 Z" id="Path-81-Copy-7" fill-opacity="0.100000001" fill="#000000" sketch:type="MSShapeGroup"></path>
        <path d="M110.000051,41.4284778 C86.3393086,41.4284778 67.1428571,60.6249292 67.1428571,84.2856717 C67.1428571,107.946414 86.3393086,127.142866 110.000051,127.142866 C133.660794,127.142866 152.857245,107.946414 152.857245,84.2856717 C152.857245,60.6249292 133.660794,41.4284778 110.000051,41.4284778 L110.000051,41.4284778 Z M125.290248,70.5021731 C125.904088,70.1115477 126.908553,69.6093149 127.689804,69.8325295 C128.303644,69.9999404 128.805877,70.2231549 128.08043,70.7253877 C127.745608,70.9486022 127.243375,70.7253877 126.85275,70.836995 C127.354982,70.9486022 128.08043,71.1718168 127.857215,71.6740495 C129.30811,72.5111041 127.410786,73.5155696 126.462124,73.4039623 C126.908553,73.4597659 125.513462,74.2968205 125.513462,74.2410169 C125.01123,74.5200351 124.341586,74.5200351 123.950961,75.0222678 C123.504531,75.6361078 124.118371,76.6963769 123.281317,76.4731624 C122.946495,77.1986097 121.663011,76.8079842 121.104975,77.5892352 C121.718815,78.2588788 120.491135,79.2075407 119.877295,78.3704861 C119.319259,78.5937006 119.598277,79.2075407 119.04024,79.5423625 C119.263455,79.8771843 119.319259,80.2120061 118.928633,80.4352207 C119.04024,80.3794171 119.709884,80.9374534 119.877295,80.9932571 C119.765688,81.2722753 119.542473,81.4954898 119.263455,81.4954898 C119.542473,82.2209371 118.928633,83.002188 118.4264,83.4486171 C117.868364,83.8950462 116.58488,84.3414753 116.417469,84.4530826 C115.413004,85.4017445 114.74336,86.7968354 116.529077,87.1874609 C116.58488,87.1874609 116.58488,89.0289809 116.640684,89.0847846 C116.752291,89.7544282 117.031309,91.7075556 115.859433,90.9821083 C115.301397,90.7030901 114.966575,89.1405882 114.799164,88.5267482 C114.631753,87.8571045 114.575949,87.8571045 114.12952,87.1874609 C113.404073,88.0245155 113.292466,87.4106754 112.678626,87.02005 C112.064786,86.6852281 111.171927,86.7968354 110.837106,86.4620136 C110.000051,87.0758536 109.386211,86.9084427 109.2188,85.9597808 C108.995586,86.40621 109.442015,87.0758536 109.386211,87.2432645 C109.107193,87.8013009 108.60496,87.6896936 108.158531,87.3548718 C107.433084,86.7968354 105.870582,87.7454973 105.033527,87.3548718 C105.089331,87.3548718 105.312546,87.5780864 105.479956,87.6896936 C105.312546,88.3593373 104.92192,87.9687118 104.587098,88.1919264 C104.196473,88.4709446 103.861651,89.0289809 103.526829,89.3079991 C104.252276,90.7030901 103.471025,92.0423774 103.526829,93.5490756 C103.526829,94.6651484 104.252276,96.6182757 105.312546,97.2321157 C105.814778,97.5111339 107.488887,97.6227412 107.99112,97.3995266 C108.772371,97.0647048 108.660764,96.4508648 108.939782,95.7812211 C109.2188,95.0557738 109.553622,94.720952 110.390677,94.6651484 C112.790233,94.5535411 110.948713,96.5066684 110.669695,97.5111339 C110.502284,98.2365812 110.44648,99.0736358 110.334873,99.7432794 C110.613891,99.8548867 110.892909,99.7990831 111.171927,99.7990831 C111.171927,99.5758685 111.339338,99.2968503 111.339338,99.1294394 C111.67416,99.6874758 112.790233,99.8548867 113.125055,99.185243 C113.51568,99.8548867 114.296931,100.357119 114.408538,101.13837 C114.520146,101.919621 115.245593,102.756676 114.185324,102.756676 C113.404073,102.756676 114.296931,104.319178 114.408538,104.598196 C115.022379,105.714269 116.026844,106.160698 117.142917,105.602661 C117.142917,106.049091 116.975506,107.276771 116.361666,107.388378 C115.803629,107.499985 114.74336,106.328109 114.966575,105.714269 C114.910771,105.937483 114.74336,106.104894 114.575949,106.216501 C114.017913,105.546858 113.069251,105.212036 112.567018,104.542392 C112.455411,104.374981 110.948713,102.087032 111.283535,101.975425 C110.502284,102.310247 108.939782,101.75221 108.214335,101.361585 C107.042458,100.747745 106.875047,99.1294394 105.424153,99.352654 C104.419687,99.5200649 104.140669,99.9106903 102.968793,99.4642612 C102.187542,99.185243 101.517898,98.6272067 100.736647,98.2365812 C99.843789,97.7343485 98.2812871,97.2321157 97.9464653,96.116043 C97.6116435,95.2231847 97.7232507,94.1629156 97.221018,93.3258611 C96.8861962,92.7678247 95.8817307,91.6517519 95.1562834,91.6517519 C95.825927,91.6517519 94.5424434,89.9776428 94.3750325,89.8102319 C93.7611924,89.0847846 91.5290469,87.1316572 91.975476,86.0155845 C92.0870833,85.8481736 90.8594033,85.4017445 90.6361887,85.3459408 C90.8594033,85.9039772 90.9152069,86.5178172 91.1942251,87.02005 C91.4732433,87.5780864 91.8080651,88.0803191 92.1428869,88.6383555 C92.756727,89.642821 93.5937815,90.870501 93.4821743,92.098181 C92.756727,92.3213956 92.9799415,91.2611265 92.756727,90.8146974 C92.3661015,90.0892501 91.3058324,90.0892501 91.0268142,89.3079991 C91.1384215,89.2521955 91.1942251,89.2521955 91.3058324,89.1963919 C91.361636,88.24773 89.9665451,87.4664791 90.1897596,86.7968354 C89.4085087,86.1829954 89.4085087,85.011119 88.8504723,84.2298681 C88.3482396,83.5044208 87.511185,83.169599 86.7857377,82.6673662 C86.5067195,82.4999553 84.4977885,79.932988 85.2232358,79.765577 C84.1071631,80.0445952 83.5491267,77.4218242 83.7165376,76.7521806 C83.7165376,76.7521806 83.6049303,76.7521806 83.6049303,76.6963769 C83.8281449,76.0267333 83.4375194,72.5669077 84.3303776,72.5111041 C83.7165376,72.5669077 83.5491267,71.0602095 83.7165376,70.7811913 C83.8281449,70.5579768 84.6651995,71.3950313 84.7210031,71.5066386 C85.0558249,71.3392277 85.3906468,70.8927986 85.2790395,70.5021731 C85.1116286,70.055744 84.4977885,69.6651186 84.1071631,69.3302967 C83.9397522,69.2186895 81.7076066,67.7677949 81.651803,67.8235985 C81.8750176,67.432973 81.8192139,67.0423476 81.4843921,66.7633294 C80.424123,67.600384 80.9821594,65.9820785 80.424123,65.8146675 C80.2009084,65.7588639 79.9776939,65.591453 79.7544793,65.3682384 C82.9910903,60.2343038 87.511185,55.9374236 92.8683342,52.9798308 C93.2031561,52.9240272 93.6495852,52.9240272 94.0960143,52.9240272 C95.1004798,53.0356345 95.6585161,53.872689 96.3839634,54.3749218 C96.4955707,54.0959036 96.2723562,53.6494745 96.1049452,53.3704563 C96.2723562,52.9240272 96.9419998,52.8124199 97.3326253,52.7008126 C97.834858,52.645009 98.5603053,52.5334017 99.0067344,52.7566163 C98.6719126,52.2543835 98.2812871,51.8079544 97.8906617,51.3615253 C97.834858,51.417329 97.6674471,51.5289362 97.6116435,51.6405435 C96.9978034,51.1383108 95.825927,51.8079544 95.2678907,52.031169 C94.8214616,52.2543835 94.4308361,52.5334017 93.984407,52.7008126 C93.7053888,52.8124199 93.5379779,52.8124199 93.3147633,52.7566163 C94.9888725,51.8637581 96.7187853,51.0825071 98.5603053,50.4686671 C98.8951271,50.6918817 99.229949,51.0825071 99.7321817,51.4731326 C99.3973599,51.1941144 99.3973599,52.4775981 99.5089672,52.7008126 C100.122807,53.5378672 101.462094,52.9798308 102.299149,52.9798308 C102.243345,52.9798308 104.754509,53.3146526 104.252276,52.7008126 C104.642902,53.258849 104.642902,54.0959036 105.145135,54.5981363 C105.647367,54.0959036 104.92192,53.5378672 105.256742,53.0356345 C105.368349,52.8124199 106.372815,52.5334017 106.707636,52.3659908 C107.098262,52.0869726 106.428618,51.6963471 106.261207,51.5847399 C105.703171,51.249918 103.526829,51.0825071 104.587098,49.7990235 C104.977724,49.3525944 106.372815,49.5758089 106.819244,49.8548271 C107.433084,50.1896489 108.102727,50.8034889 107.265673,51.3615253 C107.656298,51.417329 109.497818,51.9195617 109.2188,52.645009 C109.386211,52.3101872 109.665229,51.8079544 110.111658,51.8079544 C110.613891,51.8637581 110.725498,53.0356345 110.948713,53.3146526 C111.729964,54.7097436 113.069251,51.9195617 113.292466,52.031169 C112.288,51.6405435 114.185324,51.1383108 114.687557,51.3057217 C115.078182,51.4731326 115.692022,52.8124199 114.966575,52.7566163 C115.580415,53.3146526 115.636219,54.5423327 114.520146,54.486529 C113.738895,54.4307254 112.846037,53.3704563 112.120589,54.2075109 C111.618357,54.7655472 111.395142,55.6026018 110.892909,56.1048345 C110.111658,56.8860855 109.051389,56.8302818 108.102727,56.7186746 C108.493353,56.7744782 107.265673,58.0579619 107.154066,58.2811764 C106.819244,58.6718019 106.596029,59.118231 106.484422,59.5646601 C106.372815,60.1226965 106.484422,60.7365365 106.205404,61.2945729 C107.154066,61.0155547 107.656298,62.7454675 107.265673,62.8012711 C108.437549,62.6338602 109.386211,62.6338602 110.502284,63.0244857 C111.283535,63.3035038 112.455411,63.6383257 112.790233,64.4753802 C113.013448,64.1405584 114.073717,64.3079693 114.408538,64.4195766 C115.078182,64.7543984 115.133986,65.4798457 115.301397,66.0936857 C115.524611,66.9307403 116.250059,68.3258313 117.19872,67.8794022 C117.366131,67.7677949 118.593811,67.2097585 118.147382,66.8749367 C117.700953,66.4843112 117.19872,65.4798457 117.645149,64.9218093 C118.091579,64.3079693 119.151848,64.1405584 119.430866,63.3593075 C119.877295,62.0758238 118.091579,62.2432347 118.091579,61.2945729 C118.091579,60.7365365 118.817026,60.5691256 118.761222,59.8994819 C118.761222,59.3414455 117.924168,58.2253728 118.593811,57.8347473 C119.151848,57.4999255 121.830422,58.0579619 122.332655,58.3927837 C122.834888,58.7276055 124.39739,59.1740346 124.508997,59.6762674 L124.229979,59.6762674 C124.676408,60.0668928 125.067033,60.9039474 124.285782,61.127162 C124.788015,61.0155547 126.23891,61.5735911 125.234444,61.9084129 C125.569266,61.741002 125.848284,61.8526093 126.183106,61.6293947 C126.573732,61.4061802 126.796946,61.0155547 127.299179,61.2945729 C127.410786,61.3503765 128.024626,60.1226965 128.359448,60.1785001 C128.861681,60.2343038 128.973288,60.959751 129.196503,61.2945729 C129.419717,61.7968056 130.033557,61.9642165 130.256772,62.4664493 C130.647397,63.4151111 130.479986,64.3079693 131.76347,64.6427912 C132.154095,64.7543984 133.214364,64.1405584 133.158561,64.977613 C133.381775,64.7543984 133.493383,64.5869875 133.493383,64.5311839 C133.549186,65.3124348 133.884008,66.205293 134.83267,66.0936857 C134.83267,66.0936857 134.83267,67.1539549 134.721063,67.3213658 C134.386241,67.8235985 133.549186,67.7119912 133.046954,67.9910094 C132.879543,68.0468131 131.540255,69.2186895 131.707666,69.3861004 C130.982219,68.5490458 129.810343,68.5490458 128.861681,68.7722604 C127.857215,68.9396713 126.908553,69.0512786 125.959892,69.441904 C125.513462,69.6651186 125.067033,69.8883331 124.732212,70.2789586 C124.564801,70.5021731 124.285782,71.5066386 124.006764,71.5624423 C124.564801,71.450835 124.843819,70.836995 125.290248,70.5021731 L125.290248,70.5021731 Z M116.194255,119.441964 C116.138451,119.162945 116.082648,118.604909 116.082648,118.549105 C116.026844,117.656247 116.975506,117.042407 116.919702,116.205353 C116.305862,116.037942 116.138451,115.424102 116.250059,114.754458 C116.361666,113.805796 117.19872,113.136153 117.868364,112.522313 C118.538008,111.908472 118.705419,110.624989 118.538008,109.843738 C118.25899,108.504451 118.25899,107.10936 118.035775,105.770072 C118.091579,106.104894 119.04024,105.993287 119.207651,106.439716 C119.430866,106.049091 119.542473,105.546858 119.821491,105.156232 C120.044706,104.82141 120.435331,104.709803 120.770153,104.430785 C121.32819,104.095963 122.500066,102.81248 123.16971,103.59373 C123.727746,104.263374 122.332655,104.988821 123.058102,105.602661 C123.281317,105.156232 123.058102,104.486589 123.504531,104.04016 C124.39739,103.035694 125.01123,104.151767 125.904088,104.430785 C126.85275,104.709803 127.187572,105.044625 127.913019,105.658465 C127.689804,105.43525 128.805877,105.044625 128.917484,104.988821 C129.977753,104.765607 130.424183,105.379447 131.14963,105.937483 C131.930881,106.49552 133.158561,106.886145 133.046954,108.002218 C133.60499,108.113825 133.939812,108.281236 134.386241,108.448647 C134.83267,108.671861 135.44651,108.560254 135.781332,108.895076 C130.647397,114.308029 123.839353,118.102676 116.194255,119.441964 L116.194255,119.441964 Z" id="-copy" fill="#FFFFFF" sketch:type="MSShapeGroup"></path>
    </g>

</svg>