<?xml version="1.0" encoding="UTF-8" standalone="no"?>
<svg viewBox="0 0 200 200" version="1.1" xmlns="http://www.w3.org/2000/svg" xmlns:xlink="http://www.w3.org/1999/xlink" xmlns:sketch="http://www.bohemiancoding.com/sketch/ns">
    <defs></defs>
    <g id="Page-2" stroke="none" stroke-width="1" fill="none" fill-rule="evenodd" sketch:type="MSPage">
        <g id="Artboard-2" sketch:type="MSArtboardGroup" transform="translate(-410.000000, -376.000000)" fill-opacity="0.45" fill="#000000">
            <g id="Group" sketch:type="MSLayerGroup" transform="translate(457.000000, 384.000000)">
                <path d="M54.3269736,37.9972216 C49.4461532,31.8586798 44.2928639,29 38.1104351,29 C28.8127505,29 21.249419,34.6528844 21.249419,41.6019716 C21.249419,43.4675658 21.8086972,45.2845942 22.9120697,47.0028165 L23.6063171,48.0838228 L23.0723455,49.2510752 C22.8159042,49.8129306 22.5678985,50.3337562 22.330859,50.8319737 C20.583009,54.5070603 19.619667,56.5309118 20.1823195,65.1036018 C20.4893742,69.7868461 18.3577058,73.9534515 16.4774174,77.6293754 C14.8417605,80.8263407 13.4288026,83.5887264 14.2318688,85.4266883 C14.9463615,87.064526 17.6465873,88.6002081 22.0389883,89.8679413 C24.8463458,90.6776494 27.17625,91.8767207 29.2311547,92.9351188 C31.3830685,94.04292 33.2414244,95 34.74633,95 C35.6008532,95 36.9716332,94.714467 38.9987005,92.2459877 C45.4476933,84.3917357 48.3664003,76.4294668 47.9218458,67.9045051 L47.9404041,67.9036678 C47.9522139,67.3610713 48.0568149,66.5354537 48.2322748,65.1337461 L49.9598794,51.4114132 L50.7806603,50.8085282 C50.8219946,50.7775466 55.3873247,47.3469634 55.9457594,43.1259309 C56.1811118,41.3407214 55.6522016,39.6635288 54.3269736,37.9972216" id="Fill-1" sketch:type="MSShapeGroup"></path>
                <path d="M92.2130643,97.375821 C91.87824,97.1207996 91.4662131,97 91.0097107,97 C89.7165671,97 88.0684593,97.9714302 86.8281826,99.5997083 L26.5010598,178.837542 C24.8244206,181.040457 24.5030228,183.643521 25.7869357,184.62334 C26.12176,184.8792 26.5337869,185 26.9902893,185 C28.2842721,185 29.9315407,184.027731 31.1718174,182.399453 L91.4989402,103.161619 C93.1755794,100.958704 93.4969772,98.3548012 92.2130643,97.375821" id="Fill-3" sketch:type="MSShapeGroup"></path>
                <path d="M58.4355156,0.304613847 C81.4442901,-3.54456403 81.1022486,30.3450099 61.7664482,30.991302 C44.63092,31.5644765 38.5561285,3.63020268 58.4355156,0.304613847" id="Fill-5" sketch:type="MSShapeGroup"></path>
                <path d="M100.616423,84.9179318 C99.8416217,84.4770091 99.1728993,84.0960585 98.6586279,83.7488952 C96.9936108,82.6229372 95.2539141,81.6616918 93.5710757,80.7316995 C90.2817759,78.9147936 87.1740834,77.1975599 84.7325675,74.4194086 C82.1408436,71.470632 80.2721547,66.9744023 78.622413,63.0077867 C77.9002267,61.269436 77.2179261,59.6282235 76.5398687,58.2640659 C75.7879802,56.7495553 75.0742802,55.1429746 74.3181486,53.4409451 C70.8302687,45.594716 67.2346125,37.5094425 59.309233,36 C60.7094767,38.301752 61.2593906,40.7530123 60.9148458,43.3132363 C60.2512151,48.2537675 56.3890883,52.0810109 54.6544833,53.5752492 C54.2709014,56.6313001 53.0794213,66.1238099 52.8918735,67.626495 C53.3357083,77.2490854 49.9522103,86.5346486 42.8330317,95.2289362 C40.3338087,98.279919 37.7191718,99.7640211 34.8389129,99.7640211 L34.8389129,99.7640211 C33.508257,99.7640211 32.231065,99.4498003 30.9640565,98.9700223 C30.7646279,99.8265274 30.5651992,100.683877 30.3700137,101.537004 C29.3694759,105.898929 28.5819449,110.515948 27.8207215,114.98008 C26.4764875,122.860096 25.087276,131.007876 22.4208725,138.761191 C20.3162637,144.88005 15.686973,151.495581 11.2095876,157.893184 C6.67534379,164.371877 1.98919474,171.067653 0,177.100355 L0,179.772921 C2.28282161,186.066629 5.70281086,186.912998 8.09340881,186.996621 L8.31744781,187 C14.4021433,187 19.2614134,178.211953 23.1659719,171.151276 C23.9246494,169.778672 24.6417439,168.482088 25.3444117,167.290245 C25.9435463,166.272406 26.5443781,165.258791 27.1443614,164.246865 C35.2793532,150.525889 42.9620238,137.565969 44.781492,119.363123 L45.1786521,115.391439 L48.2540965,117.951663 C48.8523825,118.450869 49.3607134,118.86983 49.8028509,119.234731 C51.7971375,120.880167 52.5430855,121.495939 54.0969317,123.198813 C54.8819169,124.059542 55.8391744,124.971796 56.8524417,125.937264 C57.8046074,126.84445 58.7805349,127.79387 59.741187,128.798194 L70.4076497,114.849999 C69.1516735,113.560174 67.8804219,112.240784 66.6880932,110.850441 C66.4352007,110.555648 66.06944,110.153581 65.6391833,109.679715 C62.6138082,106.349988 59.8642387,103.170614 59.4526519,100.878154 C57.7681162,91.4962968 62.8123882,76.1949252 66.3876772,68.7532976 L68.6034569,64.1405021 L70.3032679,68.9661569 C73.6791283,78.549892 79.6221022,82.5578969 88.6176074,88.6252307 L90.3411801,89.7891993 C91.7312403,90.7310171 93.140819,91.9051218 94.5037229,93.0412159 C97.6894896,95.6943546 100.98473,98.4387188 104.116184,98.4387188 C104.306278,98.4387188 104.498069,98.4285826 104.68986,98.4074656 C108.147189,98.0298938 108.966968,94.6030285 108.997519,93.7059788 C109.131602,89.7655483 103.800493,86.7306143 100.616423,84.9179318" id="Fill-8" sketch:type="MSShapeGroup"></path>
                <path d="M92.1955607,158.269107 C91.8175159,156.226185 91.4561251,153.991215 91.106392,151.830045 C90.1929224,146.178465 89.2478104,140.333998 87.8905129,136.960158 C86.3916568,133.237444 83.2923555,129.570081 80.0581571,126 L70,139.310021 C70.9867469,140.539464 71.8227756,141.817548 72.3848466,143.142596 C73.7937713,146.461086 74.2525878,150.979666 74.737218,155.763257 C75.0253314,158.602884 75.3234372,161.539794 75.8313829,164.16473 C76.1111694,165.610542 76.3568153,167.09577 76.6174497,168.668216 C78.3477958,179.130223 80.0789746,186.566424 86.6298084,186.970648 C86.9528952,186.989936 87.2626588,187 87.5649281,187 L87.5674262,187 C90.127972,187 91.9399225,186.302253 93.1073649,184.867344 C96.6055285,180.569325 94.473822,169.829729 92.9175098,161.988465 C92.6618715,160.69864 92.4145603,159.450747 92.1955607,158.269107" id="Fill-10" sketch:type="MSShapeGroup"></path>
                <path d="M104.04781,81.4666487 C104.528484,81.8273265 105.104309,82 105.691618,82 C106.639843,82 107.619237,81.5505648 108.28283,80.7130178 C109.356555,79.3558365 109.207267,77.4749866 107.951444,76.5333513 C107.470769,76.1726735 106.894944,76 106.306816,76 C105.359411,76 104.379196,76.4494352 103.717244,77.2869822 C102.643519,78.6433566 102.792807,80.5250134 104.04781,81.4666487" id="Fill-13" sketch:type="MSShapeGroup"></path>
            </g>
        </g>
    </g>
</svg>