<?xml version="1.0" encoding="UTF-8" standalone="no"?>
<svg viewBox="0 0 200 200" version="1.1" xmlns="http://www.w3.org/2000/svg" xmlns:xlink="http://www.w3.org/1999/xlink" xmlns:sketch="http://www.bohemiancoding.com/sketch/ns">
    <defs></defs>
    <g id="Page-2" stroke="none" stroke-width="1" fill="none" fill-rule="evenodd" sketch:type="MSPage">
        <path d="M196.28591,99.5713434 C196.28591,47.4831222 153.802609,4.99982119 101.714388,4.99982119 C77.4558073,4.99982119 53.9360668,14.7278814 36.5733264,31.1055018 L20.565126,15.2204414 C18.3486059,12.8807814 14.9006858,12.2650814 12.0684658,13.4964814 C9.1131057,14.7278814 7.14286566,17.5601015 7.14286566,20.7617416 L7.14286566,75.9284629 C7.14286566,80.238363 10.7139257,83.809423 15.0238258,83.809423 L70.1905471,83.809423 C73.3921872,83.809423 76.2244073,81.839183 77.4558073,78.8838229 C78.6872073,76.0516029 78.0715073,72.6036828 75.7318473,70.3871627 L58.8616669,53.3938423 C70.3136872,42.6806621 85.5830475,36.5236619 101.714388,36.5236619 C136.439869,36.5236619 164.762069,64.8458626 164.762069,99.5713434 C164.762069,134.296824 136.439869,162.619025 101.714388,162.619025 C82.1351274,162.619025 64.033547,153.752945 51.9658267,138.114164 C51.3501267,137.252184 50.2418667,136.759624 49.1336067,136.636484 C48.0253466,136.636484 46.9170866,137.005904 46.0551066,137.744744 L29.1849262,154.738065 C27.8303861,156.092605 27.7072461,158.432265 28.9386462,160.033085 C46.9170866,181.705725 73.5153272,194.142866 101.714388,194.142866 C153.802609,194.142866 196.28591,151.659565 196.28591,99.5713434 L196.28591,99.5713434 Z M117.476308,64.1070226 C117.476308,61.8905025 115.752348,60.1665425 113.535828,60.1665425 L105.654868,60.1665425 C103.438348,60.1665425 101.714388,61.8905025 101.714388,64.1070226 L101.714388,107.452304 L74.1310272,107.452304 C71.9145072,107.452304 70.1905471,109.176264 70.1905471,111.392784 L70.1905471,119.273744 C70.1905471,121.490264 71.9145072,123.214224 74.1310272,123.214224 L113.535828,123.214224 C115.752348,123.214224 117.476308,121.490264 117.476308,119.273744 L117.476308,64.1070226 Z" id="-copy-2" fill-opacity="0.45" fill="#FFFFFF" sketch:type="MSShapeGroup"></path>
    </g>
</svg>