<?xml version="1.0" encoding="UTF-8" standalone="no"?>
<svg viewBox="0 0 200 200" version="1.1" xmlns="http://www.w3.org/2000/svg" xmlns:xlink="http://www.w3.org/1999/xlink" xmlns:sketch="http://www.bohemiancoding.com/sketch/ns">
    <defs></defs>
    <g id="Page-2" stroke="none" stroke-width="1" fill="none" fill-rule="evenodd" sketch:type="MSPage">
        <g id="Artboard-2" sketch:type="MSArtboardGroup" transform="translate(-1102.000000, -345.000000)" fill-opacity="0.45" fill="#FFFFFF">
            <path d="M1264.78559,341.128771 C1263.74058,341.128771 1262.69557,341.413782 1261.74556,341.983805 L1103.66419,433.187439 C1101.66917,434.327485 1100.52916,436.512572 1100.62416,438.792662 C1100.81416,441.167757 1102.23917,443.162837 1104.42419,444.017871 L1141.94952,459.408484 L1243.50541,371.529982 L1161.42469,472.138991 C1161.42469,472.138991 1180.31071,499.405076 1182.68573,500.26011 C1183.35074,500.545121 1184.11074,500.640125 1184.77575,500.640125 C1186.58077,500.640125 1188.29078,499.880095 1189.43079,498.455038 L1195.14998,481.164351 L1238.18536,498.740051 C1238.94537,499.025063 1239.70537,499.21507 1240.46538,499.21507 C1241.51039,499.21507 1242.5554,498.930059 1243.4104,498.45504 C1245.02542,497.505002 1246.16543,495.984941 1246.45043,494.179869 L1270.77064,348.254055 C1271.15065,345.87896 1270.20064,343.598869 1268.20562,342.173812 C1267.25561,341.508786 1266.0206,341.128771 1264.78559,341.128771 Z" id="icon_paperplane-copy" sketch:type="MSShapeGroup" transform="translate(1185.735790, 420.884448) rotate(38.000000) translate(-1185.735790, -420.884448) "></path>
        </g>
    </g>
</svg>