<svg xmlns="http://www.w3.org/2000/svg" viewBox="0 0 1000 1000" preserveAspectRatio="none">
  <g opacity=".1">
    <g opacity=".75">
      <path fill="#4D4D4D" d="M978.3 428.2c-.1 0-.2-.1-.2-.2l-29.7-90.5c0-.1 0-.2.1-.3 0 0 .1-.1.2-.1h.1l180.3 72.4c.1 0 .2.2.2.3 0 .1-.1.2-.2.2-.1.2-150.8 18.2-150.8 18.2z"/>
      <path d="M948.6 337.5l180.3 72.4L978.3 428l-29.7-90.5m0-.5c-.1 0-.2 0-.3.1-.1.1-.2.3-.1.5l29.7 90.5c.1.2.3.3.5.3h.1l150.6-18.1c.2 0 .4-.2.4-.4s-.1-.4-.3-.5L948.8 337h-.2z"/>
    </g>
    <g opacity=".571">
      <path fill="#4D4D4D" d="M1128.9 410.2l-180.4-72.4c-.1 0-.2-.1-.2-.2s0-.2.1-.2l207.4-111.1h.2c.1.1.1.1.1.2l-27 183.5c0 .1-.1.1-.1.2h-.1z"/>
      <path d="M1156 226.4l-27 183.5-180.3-72.4L1156 226.4m0-.5c-.1 0-.2 0-.2.1L948.4 337c-.2.1-.3.3-.3.5s.1.4.3.4l180.3 72.4h.2c.1 0 .2 0 .2-.1.1-.1.2-.2.2-.4l27-183.5c0-.2-.1-.4-.2-.5.1.1 0 .1-.1.1z"/>
    </g>
    <g opacity=".76">
      <path fill="#4D4D4D" d="M883.5 478.5c-.1 0-.1 0-.2-.1s-.1-.2-.1-.3l65.1-140.7c0-.1.1-.1.2-.1s.2.1.2.2l29.7 90.5c0 .1 0 .2-.1.3l-94.8 50.2c.1 0 0 0 0 0z"/>
      <path d="M948.6 337.5l29.7 90.5-94.8 50.2 65.1-140.7m0-.5c-.2 0-.4.1-.5.3l-65 140.7c-.1.2 0 .4.1.6.1.1.2.1.3.1.1 0 .2 0 .2-.1l94.8-50.2c.2-.1.3-.4.2-.6L949 337.3c0-.2-.1-.3-.4-.3z"/>
    </g>
    <g opacity=".429">
      <path fill="#4D4D4D" d="M948.6 337.7c-.1 0-.1 0-.2-.1s-.1-.2-.1-.3l65.1-172c0-.1.1-.1.1-.1h.2l142.2 60.9c.1 0 .1.1.2.2 0 .1 0 .2-.1.2L948.7 337.7h-.1z"/>
      <path d="M1013.7 165.5l142.2 60.9-207.3 111.1 65.1-172m0-.5h-.2l-.3.3-65.1 172c-.1.2 0 .4.1.6.1.1.2.1.3.1.1 0 .2 0 .2-.1l207.4-111.1c.2-.1.3-.3.3-.5s-.1-.4-.3-.4L1013.9 165h-.2z"/>
    </g>
    <g opacity=".691">
      <path fill="#4D4D4D" d="M883.5 478.5c-.1 0-.2-.1-.2-.2l-69.1-167.1v-.3c0-.1.1-.1.2-.1l134.2 26.3c.1 0 .1.1.2.1s0 .1 0 .2l-65.1 140.7c0 .3-.1.4-.2.4z"/>
      <path d="M814.4 311.2l134.2 26.3-65.1 140.7-69.1-167m0-.5c-.1 0-.3.1-.4.2-.1.1-.1.3-.1.5l69.1 167c.1.2.3.3.5.3s.4-.1.5-.3l65.1-140.7c.1-.1.1-.3 0-.4l-.3-.3-134.4-26.3c.1 0 0 0 0 0z"/>
    </g>
    <g opacity=".714">
      <path fill="#4D4D4D" d="M745.3 475.2c-.1 0-.2 0-.2-.1s-.1-.2 0-.2l69.1-163.8c0-.1.1-.2.2-.2s.2.1.2.2l69.1 167.1v.2c0 .1-.1.1-.2.1l-138.2-3.3z"/>
      <path d="M814.4 311.2l69.1 167.1-138.2-3.3 69.1-163.8m0-.5c-.2 0-.4.1-.5.3l-69.1 163.8c-.1.2 0 .3 0 .5s.2.2.4.2l138.2 3.3c.2 0 .3-.1.4-.2.1-.1.1-.3 0-.5l-69-167.1c0-.2-.2-.3-.4-.3z"/>
    </g>
    <g opacity=".452">
      <path fill="#4D4D4D" d="M948.6 337.7c-.1 0-.1 0-.2-.1l-92.2-83.9c-.1-.1-.1-.1-.1-.2s.1-.2.1-.2l157.3-88.1h.1c.1 0 .1 0 .2.1s.1.2.1.3l-65.1 172c0 .1 0 .1-.2.1.1 0 0 0 0 0z"/>
      <path d="M1013.7 165.5l-65.1 172-92.2-83.9 157.3-88.1m0-.5c-.1 0-.2 0-.2.1l-157.3 88.1c-.1.1-.2.2-.3.4 0 .2 0 .3.2.4l92.2 83.9c.1.1.2.1.3.1h.1c.2 0 .3-.2.4-.3l65.1-172c.1-.2 0-.4-.1-.6-.1-.1-.3-.1-.4-.1z"/>
    </g>
    <g opacity=".738">
      <path fill="#4D4D4D" d="M745.3 475.2c-.1 0-.1 0-.2-.1L675 406c-.1-.1-.1-.1-.1-.2s0-.1.1-.2L814.2 311h.1c.1 0 .1 0 .2.1s.1.2.1.3L745.5 475c0 .1-.1.2-.2.2z"/>
      <path d="M814.4 311.2L745.3 475l-70.1-69.1 139.2-94.7m0-.5c-.1 0-.2 0-.3.1l-139.2 94.6c-.1.1-.2.2-.2.4 0 .1 0 .3.1.4l70.1 69.1c.1.1.2.1.4.1h.1c.2 0 .3-.1.4-.3l69.1-163.8c.1-.2 0-.4-.1-.6h-.4z"/>
    </g>
    <g opacity=".5">
      <path fill="#4D4D4D" d="M948.6 337.7l-134.2-26.3c-.1 0-.2-.1-.2-.2v-.2l42.1-57.6c0-.1.1-.1.2-.1s.1 0 .2.1l92.2 83.9c.1.1.1.2.1.3-.2.1-.3.1-.4.1z"/>
      <path d="M856.5 253.5l92.2 83.9-134.2-26.3 42-57.6m0-.5c-.1 0-.1 0 0 0-.2 0-.3.1-.4.2L814 310.9c-.1.1-.1.3-.1.5s.2.3.4.3L948.5 338h.1c.2 0 .4-.1.4-.3.1-.2.1-.4-.1-.6l-92.2-83.9c0-.1-.1-.2-.2-.2z"/>
    </g>
    <g opacity=".78">
      <path fill="#4D4D4D" d="M602 504c-.1 0-.2 0-.2-.1-.1-.1-.1-.2 0-.3l73.1-97.9c0-.1.1-.1.2-.1s.1 0 .2.1l70.1 69.1c.1.1.1.2.1.2 0 .1-.1.2-.2.2L602 504c.1 0 0 0 0 0z"/>
      <path d="M675.2 405.8l70.1 69.1L602 503.7l73.2-97.9m0-.5c-.1 0-.1 0 0 0-.2 0-.3.1-.4.2l-73.1 97.9c-.1.2-.1.4 0 .6.1.1.3.2.4.2h.1l143.2-28.8c.2 0 .3-.2.4-.3.1-.2 0-.4-.1-.5l-70.1-69.1c-.2-.1-.3-.2-.4-.2z"/>
    </g>
    <g opacity=".64">
      <path fill="#4D4D4D" d="M675.2 406.1c-.1 0-.1 0-.2-.1l-54.1-62.6c-.1-.1-.1-.2 0-.2 0-.1.1-.1.2-.2l193.3-32.1c.1 0 .2.1.2.2s0 .2-.1.3L675.3 406c-.1 0-.1.1-.1.1z"/>
      <path d="M814.4 311.2l-139.2 94.6-54.1-62.6 193.3-32m0-.5s-.1 0 0 0L621 342.8c-.2 0-.3.2-.4.3-.1.2 0 .4.1.5l54.1 62.6c.1.1.2.2.4.2.1 0 .2 0 .3-.1l139.2-94.6c.2-.1.3-.4.2-.6-.1-.3-.3-.4-.5-.4z"/>
    </g>
    <g opacity=".191">
      <path fill="#4D4D4D" d="M856.5 253.8c-.1 0-.1 0 0 0-.2 0-.2-.1-.2-.2L783.1 48.5c0-.1 0-.2.1-.3 0 0 .1-.1.2-.1h.1l230.4 117c.1 0 .1.1.1.2s0 .2-.1.2l-157.3 88.1-.1.2z"/>
      <path d="M783.3 48.4l230.4 117-157.3 88.1-73.1-205.1m0-.5c-.1 0-.2 0-.3.1-.2.1-.2.4-.1.5L856 253.7c0 .1.2.2.3.3h.2c.1 0 .2 0 .2-.1l157.3-88.1c.2-.1.3-.3.3-.4s-.1-.4-.3-.4L783.6 48c-.1 0-.2-.1-.3-.1z"/>
    </g>
    <g opacity=".49">
      <path fill="#4D4D4D" d="M621.1 343.5c-.1 0-.2-.1-.2-.1 0-.1 0-.2.1-.3l129.2-106.2s.1-.1.2-.1.1 0 .2.1l64.1 74.1c.1.1.1.2 0 .2 0 .1-.1.1-.2.2l-193.4 32.1z"/>
      <path d="M750.3 237.1l64.1 74.1-193.3 32.1 129.2-106.2m0-.5c-.1 0-.2 0-.3.1L620.7 342.9c-.2.1-.2.4-.1.6.1.2.3.3.5.3h.1l193.3-32.1c.2 0 .3-.2.4-.3.1-.2 0-.4-.1-.5l-64.1-74.1c-.1-.2-.3-.2-.4-.2z"/>
    </g>
    <g opacity=".048">
      <path fill="#4D4D4D" d="M1013.7 165.7c-.1 0-.2 0-.2-.1L939.4 29v-.2c0-.1.1-.1.1-.1L999.9-.2h.2c.1 0 .1.1.1.2l13.7 165.5c.1.1 0 .2-.2.2.1 0 .1 0 0 0z"/>
      <path d="M1000 0l13.7 165.5-74.1-136.6L1000 0m0-.5h-.2l-60.4 28.9-.3.3v.4l74.1 136.6c.1.2.3.3.4.3h.1c.2-.1.4-.3.4-.5L1000.5 0c0-.2-.1-.3-.2-.4-.1-.1-.2-.1-.3-.1z"/>
    </g>
    <g opacity=".78">
      <path fill="#4D4D4D" d="M442.8 560.8h-.1c-.1 0-.1-.1-.1-.2V396c0-.1.1-.2.1-.2h.2l159.3 107.8c.1.1.1.1.1.2s-.1.2-.2.2l-159.3 56.8z"/>
      <path d="M442.8 395.9L602 503.7l-159.3 56.8.1-164.6m0-.5c-.1 0-.2 0-.2.1-.2.1-.3.3-.3.4v164.6c0 .2.1.3.2.4.1.1.2.1.3.1h.2l159.3-56.8c.2-.1.3-.2.3-.4s-.1-.4-.2-.5L443 395.5s-.1-.1-.2-.1z"/>
    </g>
    <g opacity=".84">
      <path fill="#4D4D4D" d="M480.8 632.9c-.1 0-.2 0-.2-.1l-38.1-72.1v-.3c0-.1.1-.1.2-.1l216.4 19.4c.1 0 .2.1.2.2s-.1.2-.2.3l-178.3 52.7c.1 0 0 0 0 0z"/>
      <path d="M442.8 560.5l216.4 19.4-178.3 52.7-38.1-72.1m0-.5c-.2 0-.3.1-.4.2-.1.2-.1.3 0 .5l38.1 72.1c.1.2.3.3.4.3h.1l178.3-52.7c.2-.1.4-.3.4-.5s-.2-.4-.5-.4L442.8 560z"/>
    </g>
    <g opacity=".73">
      <path fill="#4D4D4D" d="M602 504c-.2-.1-.3-.2-.2-.3l19-160.5c0-.1.1-.2.2-.2h.1c.1 0 .1 0 .2.1l54.1 62.6c.1.1.1.2 0 .3l-73.1 97.9c-.1.1-.2.1-.3.1z"/>
      <path d="M621.1 343.2l54.1 62.6-73.2 97.9 19.1-160.5m0-.5h-.1c-.2.1-.3.2-.3.4l-19 160.5c0 .2.1.4.3.5h.2c.2 0 .3-.1.4-.2l73.1-97.9c.1-.2.1-.4 0-.6l-54.1-62.6c-.3 0-.4-.1-.5-.1z"/>
    </g>
    <g opacity=".7">
      <path fill="#4D4D4D" d="M602 504h-.1L442.6 396.1c-.1-.1-.1-.1-.1-.2s.1-.2.2-.2L621 343h.1c.1 0 .1 0 .2.1s.1.1.1.2l-19 160.5c0 .1-.1.2-.1.2h-.3z"/>
      <path d="M621.1 343.2l-19 160.5-159.3-107.8 178.3-52.7m0-.5h-.1l-178.3 52.7c-.2.1-.3.2-.4.4s.1.4.2.5l159.3 107.8c.1.1.2.1.3.1h.2c.2-.1.3-.2.3-.4l19-160.5c0-.2 0-.3-.2-.4-.1-.1-.2-.2-.3-.2z"/>
    </g>
    <g opacity=".119">
      <path fill="#4D4D4D" d="M1013.7 165.7h-.1l-230.4-117c-.1 0-.2-.2-.1-.3 0-.1.1-.2.2-.2l156.3-19.6c.1 0 .2 0 .2.1l74.1 136.6c.1.1 0 .2 0 .3 0 .1-.1.1-.2.1z"/>
      <path d="M939.6 28.9l74.1 136.6-230.4-117 156.3-19.6m0-.5L783.3 47.9c-.2 0-.4.2-.4.4s.1.4.3.5l230.4 117c.1 0 .1.1.2.1s.3-.1.4-.2c.2-.2.2-.4.1-.6L940 28.6c0-.1-.2-.2-.4-.2z"/>
    </g>
    <g opacity=".41">
      <path fill="#4D4D4D" d="M814.4 311.4c-.1 0-.1 0-.2-.1l-64.1-74.1c-.1-.1-.1-.2 0-.3 0-.1.1-.1.2-.1l106.2 16.5c.1 0 .2.1.2.2v.2l-42.1 57.6c-.1.1-.1.1-.2.1z"/>
      <path d="M750.3 237.1l106.2 16.5-42.1 57.6-64.1-74.1m0-.5c-.2 0-.3.1-.4.3-.1.2-.1.4.1.6l64.1 74.1c.1.1.2.2.4.2s.3-.1.4-.2L857 254c.1-.1.1-.3.1-.5-.1-.2-.2-.3-.4-.3l-106.4-16.6z"/>
    </g>
    <g opacity=".214">
      <path fill="#4D4D4D" d="M750.2 237.3c-.1 0-.1 0-.2-.1s-.1-.1 0-.2l33.1-188.6c0-.1.1-.2.2-.2s.2.1.2.2l73.1 205.1v.2c0 .1-.1.1-.2.1l-106.2-16.5z"/>
      <path d="M783.3 48.4l73.1 205.1L750.2 237l33.1-188.6m0-.5c-.3 0-.5.2-.5.4l-33 188.7c0 .1 0 .3.1.4.1.1.2.2.3.2L856.4 254h.1c.1 0 .3-.1.4-.2.1-.1.1-.3.1-.5l-73.2-205c-.1-.2-.3-.4-.5-.4z"/>
    </g>
    <g opacity=".5">
      <path d="M442.8 396.2h-.1c-.1 0-.1-.1-.1-.2l-12-179.4c0-.1 0-.2.1-.2h.2L621.2 343c.1.1.1.1.1.2s-.1.2-.2.2l-178.3 52.8z"/>
      <path d="M430.7 216.5L621 343.2l-178.3 52.7-12-179.4m0-.5c-.1 0-.2 0-.3.1-.2.1-.3.3-.2.5l12 179.4c0 .2.1.3.2.4.1.1.2.1.3.1h.1l178.3-52.7c.2-.1.3-.2.4-.4s-.1-.4-.2-.5L431 216.1c-.1-.1-.2-.1-.3-.1z"/>
      <path fill="#4D4D4D" d="M430.7 216.5l12.1 179.4 178.3-52.7"/>
    </g>
    <g opacity=".262">
      <path fill="#4D4D4D" d="M621.1 343.5h-.1L430.6 216.7c-.1 0-.1-.1-.1-.2s0-.2.1-.2L614.4 62.1s.1-.1.2-.1h.1c.1 0 .1.1.1.2l6.5 280.9c0 .1 0 .2-.1.2l-.1.2z"/>
      <path d="M614.6 62.3l6.5 280.9-190.4-126.7L614.6 62.3m0-.5c-.1 0-.2 0-.3.1L430.4 216.1c-.1.1-.2.3-.2.4 0 .2.1.3.2.4l190.3 126.7c.1.1.2.1.3.1.1 0 .2 0 .2-.1.2-.1.3-.3.3-.4L615 62.3c0-.2-.1-.4-.3-.4 0-.1-.1-.1-.1-.1z"/>
    </g>
    <g opacity=".286">
      <path d="M621.1 343.5h-.1c-.1 0-.1-.1-.1-.2l-6.5-280.9c0-.1.1-.2.2-.2h.1c.1 0 .1 0 .2.1l135.7 174.8c.1.1.1.3 0 .3l-129.4 106c0 .1-.1.1-.1.1z"/>
      <path d="M614.6 62.3l135.7 174.8-129.2 106.1-6.5-280.9m0-.5h-.2c-.2.1-.3.3-.3.5l6.5 280.9c0 .2.1.4.3.4h.2c.1 0 .2 0 .3-.1l129.2-106.2c.2-.2.2-.5.1-.7L614.9 62c-.1-.1-.2-.2-.3-.2z"/>
      <path fill="#4D4D4D" d="M614.6 62.3l6.5 280.9 129.2-106.1"/>
    </g>
    <g opacity=".238">
      <path fill="#4D4D4D" d="M750.3 237.3c-.1 0-.1 0-.2-.1L614.4 62.5c-.1-.1-.1-.2 0-.3 0-.1.1-.1.2-.1l168.8-13.9c.1 0 .1 0 .2.1s.1.1.1.2l-33.1 188.6c-.1.1-.2.2-.3.2z"/>
      <path d="M783.3 48.4L750.2 237 614.6 62.3l168.7-13.9m0-.5L614.5 61.8c-.2 0-.3.1-.4.3-.1.2 0 .4.1.5l135.7 174.8c.1.1.2.2.4.2h.1c.2 0 .3-.2.4-.4l33.1-188.6c0-.2 0-.3-.1-.4-.2-.2-.3-.3-.5-.3z"/>
    </g>
    <g opacity=".524">
      <path fill="#4D4D4D" d="M442.7 396.2l-124.2-21.4c-.1 0-.2-.1-.2-.2v-.2l112.2-158c0-.1.1-.1.2-.1h.1c.1 0 .2.1.2.2l12 179.4c0 .1 0 .2-.1.2 0 .1-.1.1-.2.1.1 0 0 0 0 0z"/>
      <path d="M430.7 216.5l12 179.4-124.2-21.4 112.2-158m0-.5c-.2 0-.3.1-.4.2l-112.2 158c-.1.1-.1.3-.1.5.1.2.2.3.4.3l124.2 21.4h.1c.1 0 .2 0 .3-.1.1-.1.2-.3.2-.4l-12-179.4c0-.2-.2-.4-.4-.4 0-.1 0-.1-.1-.1z"/>
    </g>
    <g opacity=".548">
      <path fill="#4D4D4D" d="M318.5 374.8c-.1 0-.2 0-.2-.1l-78.1-120.2c0-.1-.1-.2 0-.2 0-.1.1-.1.2-.1l190.3-37.9c.1 0 .2 0 .2.1.1.1.1.2 0 .3l-112.2 158s-.1.1-.2.1z"/>
      <path d="M430.7 216.5l-112.2 158-78.1-120.2 190.3-37.8m0-.5l-190.4 37.9c-.2 0-.3.1-.4.3s0 .3 0 .5L318 374.9c.1.1.2.2.4.2s.3-.1.4-.2l112.2-158c.1-.2.1-.4 0-.6.1-.2-.1-.3-.3-.3z"/>
    </g>
    <g opacity=".143">
      <path fill="#4D4D4D" d="M430.7 216.8h-.1c-.1 0-.1-.1-.1-.2l21-178.5c0-.1 0-.1.1-.2 0 0 .1-.1.2-.1l162.8 24.3c.1 0 .2.1.2.2s0 .2-.1.3L430.9 216.7c-.1 0-.1.1-.2.1z"/>
      <path d="M451.8 38l162.8 24.3-183.9 154.2L451.8 38m0-.5c-.1 0-.2 0-.3.1-.1.1-.2.2-.2.3l-21 178.5c0 .2.1.4.3.5.1 0 .2.1.2.1.1 0 .2 0 .3-.1L614.9 62.7c.2-.1.2-.3.2-.5-.1-.2-.2-.3-.4-.4L451.8 37.5z"/>
    </g>
    <g opacity=".74">
      <path fill="#4D4D4D" d="M202.2 402.8h-.1L61 321.2c-.1-.1-.2-.2-.1-.3 0-.1.1-.2.2-.2h.1l257.4 53.5c.1 0 .2.1.2.2s-.1.2-.2.2l-116.4 28.2c.1-.1.1 0 0 0z"/>
      <path d="M61.1 321l257.4 53.5-116.3 28L61.1 321m0-.5c-.2 0-.4.1-.5.3-.1.2 0 .5.2.6L202 402.9c.1 0 .2.1.2.1h.1l116.3-28c.2-.1.4-.3.4-.5s-.2-.4-.4-.5L61.2 320.5h-.1z"/>
    </g>
    <g opacity=".809">
      <path fill="#4D4D4D" d="M83 441.6h-.1c-.1 0-.1-.1-.1-.2L60.9 321.1c0-.1 0-.2.1-.2h.2l141.1 81.5c.1 0 .1.1.1.2s-.1.2-.2.2L83 441.6c.1 0 0 0 0 0z"/>
      <path d="M61.1 321l141.1 81.5L83 441.3 61.1 321m0-.5c-.1 0-.2 0-.3.1-.2.1-.2.3-.2.5l21.9 120.3c0 .1.1.3.2.3s.2.1.3.1h.2L202.4 403c.2-.1.3-.2.3-.4s-.1-.4-.2-.5L61.4 320.6c-.1 0-.2-.1-.3-.1z"/>
    </g>
    <g opacity=".64">
      <path fill="#4D4D4D" d="M318.5 374.8L61.1 321.3c-.1 0-.2-.1-.2-.2s.1-.2.2-.3l179.3-66.7h.1c.1 0 .2 0 .2.1l78.1 120.2c.1.1.1.2 0 .3-.1 0-.2.1-.3.1z"/>
      <path d="M240.4 254.4l78.1 120.2L61.1 321l179.3-66.6m0-.5h-.2L60.9 320.6c-.2.1-.3.3-.3.5s.2.4.4.5L318.4 375h.1c.2 0 .3-.1.4-.2.1-.2.1-.4 0-.6L240.8 254c-.1-.1-.2-.1-.4-.1z"/>
    </g>
    <g opacity=".167">
      <path fill="#4D4D4D" d="M430.7 216.8c-.1 0-.1 0-.2-.1l-95.2-114.4c0-.1-.1-.1-.1-.2s.1-.1.1-.2l116.2-64.1h.2c.1.1.1.1.1.2l-21 178.5c.2.1.1.2-.1.3.1 0 .1 0 0 0z"/>
      <path d="M451.8 38l-21 178.5-95.2-114.4L451.8 38m0-.5c-.1 0-.2 0-.2.1l-116.2 64.1c-.1.1-.2.2-.2.3 0 .1 0 .3.1.4l95.2 114.4c.1.1.2.2.4.2h.1c.2-.1.3-.2.4-.4l21-178.5c0-.2-.1-.4-.2-.5-.2-.1-.3-.1-.4-.1z"/>
    </g>
    <g opacity=".26">
      <path fill="#4D4D4D" d="M240.4 254.6c-.1 0-.2 0-.2-.1-.1-.1-.1-.2 0-.3L335.4 102c0-.1.1-.1.2-.1s.1 0 .2.1L431 216.4c.1.1.1.2 0 .2 0 .1-.1.1-.2.2l-190.4 37.8z"/>
      <path d="M335.6 102.1l95.2 114.4-190.3 37.9 95.1-152.3m0-.5s-.1 0 0 0c-.2 0-.3.1-.4.2L240 254.1c-.1.2-.1.4 0 .5.1.1.2.2.4.2h.1L430.8 217c.2 0 .3-.2.4-.3.1-.2 0-.4-.1-.5L336 101.8c-.1-.1-.3-.2-.4-.2z"/>
    </g>
    <g opacity=".78">
      <path fill="#4D4D4D" d="M0 470.2c-.1 0-.1 0-.2-.1s-.1-.2 0-.3l61.1-149c0-.1.1-.2.2-.2s.2.1.2.2l21.9 120.3c0 .1 0 .2-.2.3L0 470.2c.1 0 0 0 0 0z"/>
      <path d="M61.1 321L83 441.3 0 470l61.1-149m0-.5c-.2 0-.4.1-.5.3l-61.1 149c-.1.2 0 .4.1.5.1.1.2.2.4.2h.2l83-28.7c.2-.1.4-.3.3-.6L61.6 320.9c0-.2-.2-.3-.5-.4z"/>
    </g>
    <g opacity=".7">
      <path fill="#4D4D4D" d="M0 470.2c-.1 0-.2 0-.2-.1l-78.1-135v-.2s.1-.1.2-.1l139.3-14c.1 0 .2 0 .2.1.1.1.1.2 0 .2L.3 470.1c-.1.1-.2.1-.3.1z"/>
      <path d="M61.1 321L0 470l-78.1-135 139.2-14m0-.5l-139.3 14c-.2 0-.3.1-.4.3-.1.2-.1.3 0 .5l78.1 135c.1.2.3.2.4.2.2 0 .4-.1.4-.3l61.1-149c.1-.2 0-.3-.1-.5.1-.1 0-.2-.2-.2z"/>
    </g>
    <g opacity=".23">
      <path fill="#4D4D4D" d="M240.4 254.6c-.1 0-.2-.1-.2-.2L179.1 69.3c0-.1 0-.2.1-.2 0-.1.1-.1.2-.1h.1l156.3 32.9c.1 0 .1.1.2.1v.2l-95.2 152.3c-.2.1-.3.1-.4.1z"/>
      <path d="M179.3 69.2l156.3 32.9-95.2 152.3-61.1-185.2m0-.5c-.1 0-.3.1-.4.2-.1.1-.2.3-.1.5l61.1 185.2c.1.2.2.3.4.3h.1c.2 0 .3-.1.4-.2L336 102.4c.1-.1.1-.3 0-.5s-.2-.3-.4-.3L179.4 68.7h-.1z"/>
    </g>
    <g opacity=".381">
      <path fill="#4D4D4D" d="M61.1 321.3c-.1 0-.1 0-.2-.1s-.1-.1-.1-.2l29-168.7c0-.1.1-.2.1-.2h.2l150.3 102.1c.1.1.1.1.1.2s-.1.2-.2.2L61.1 321.3c.1 0 0 0 0 0z"/>
      <path d="M90.2 152.3l150.3 102.1L61.1 321l29.1-168.7m0-.5H90c-.2.1-.3.2-.3.4l-29 168.7c0 .2 0 .4.2.5.1.1.2.1.3.1h.2l179.3-66.7c.2-.1.3-.2.3-.4s-.1-.4-.2-.5l-150.4-102c-.1-.1-.1-.1-.2-.1z"/>
    </g>
    <g opacity=".22">
      <path fill="#4D4D4D" d="M240.4 254.6h-.1L90 152.5c-.1 0-.1-.1-.1-.2s0-.1.1-.2L179.1 69s.1-.1.2-.1h.1c.1 0 .1.1.2.2l61.1 185.2c0 .1 0 .2-.1.3h-.2z"/>
      <path d="M179.3 69.2l61.1 185.2L90.2 152.3l89.1-83.1m0-.5c-.1 0-.2 0-.3.1l-89.2 83.1c-.1.1-.2.3-.2.4 0 .2.1.3.2.4l150.3 102.1c.1.1.2.1.3.1.1 0 .2 0 .3-.1.2-.1.2-.4.2-.6L179.8 69c-.1-.2-.2-.3-.4-.3h-.1z"/>
    </g>
    <g opacity=".405">
      <path fill="#4D4D4D" d="M61.1 321.3c-.1 0-.2 0-.2-.1L-.2 211.7c-.1-.1 0-.3.1-.3L90 152.1h.2c.1.1.1.2.1.3l-29 168.7c0 .1-.1.2-.2.2z"/>
      <path d="M90.2 152.3L61.1 321 0 211.6l90.2-59.3m0-.5c-.1 0-.2 0-.3.1L-.3 211.2c-.2.1-.3.4-.2.7l61.1 109.5c.1.2.3.3.4.3h.1c.2 0 .4-.2.4-.4l29-168.7c0-.2-.1-.4-.2-.5 0-.3-.1-.3-.1-.3z"/>
    </g>
    <g opacity=".476">
      <path fill="#4D4D4D" d="M-78.1 335.3c-.1 0-.2 0-.2-.1-.1-.1 0-.2 0-.3L-.2 211.4c0-.1.1-.1.2-.1s.2.1.2.1l61.1 109.5v.2s-.1.1-.2.1c0 .1-139.2 14.1-139.2 14.1z"/>
      <path d="M0 211.6L61.1 321l-139.2 14L0 211.6m0-.5c-.2 0-.3.1-.4.2l-78.1 123.5c-.1.2-.1.4 0 .5.1.1.3.2.4.2l139.2-14c.2 0 .3-.1.4-.3.1-.1.1-.3 0-.5L.4 211.3c-.1-.1-.2-.2-.4-.2z"/>
    </g>
    <g opacity=".071">
      <path fill="#4D4D4D" d="M90.1 152.6c-.1 0-.1-.1-.2-.1L-.2.1c-.1-.1 0-.2 0-.3 0-.1.1-.1.2-.1h.1l179.3 69.2c.1 0 .1.1.2.2 0 .1 0 .2-.1.2l-89.2 83.1c0 .1-.1.2-.2.2.1 0 0 0 0 0z"/>
      <path d="M0 0l179.3 69.2-89.2 83.1L0 0m0-.5c-.1 0-.3.1-.4.2-.1.2-.2.4 0 .6l90.2 152.3c.1.1.2.2.4.2h.1c.1 0 .2 0 .3-.1l89.2-83.1c.1-.1.2-.3.1-.5 0-.2-.1-.3-.3-.4L.2-.5H0z"/>
    </g>
    <g opacity=".095">
      <path fill="#4D4D4D" d="M0 211.8h-.1c-.1 0-.1-.1-.1-.2V0c0-.1.1-.2.2-.2h.1c.1 0 .2 0 .2.1l90.2 152.3c.1.1 0 .3-.1.3L.1 211.8H0z"/>
      <path d="M0 0l90.2 152.3L0 211.6V0m0-.5h-.1c-.3.1-.4.3-.4.5v211.6c0 .2.1.4.3.4.1 0 .2.1.2.1.1 0 .2 0 .3-.1l90.2-59.3c.2-.1.3-.4.2-.7L.4-.3C.3-.4.2-.5 0-.5z"/>
    </g>
    <g opacity=".86">
      <path fill="#4D4D4D" d="M153.3 638.6c-.1 0-.1 0 0 0l-180.4-72.4c-.1 0-.2-.1-.2-.2s.1-.2.2-.2l141.5-45.6h.1c.1 0 .2.1.2.2l38.8 118c0 .1 0 .2-.1.3 0-.1-.1-.1-.1-.1z"/>
      <path d="M114.4 520.3l38.8 118L-27 565.9l141.4-45.6m0-.5h-.2l-141.5 45.6c-.2.1-.3.2-.3.5 0 .2.1.4.3.5L153 638.8h.2c.1 0 .2 0 .3-.1.1-.1.2-.3.1-.5l-38.8-118c0-.2-.2-.4-.4-.4z"/>
    </g>
    <g opacity=".795">
      <path fill="#4D4D4D" d="M-54.1 749.7h-.1c-.1-.1-.1-.1-.1-.2l27-183.5c0-.1.1-.1.1-.2h.2l180.3 72.4c.1 0 .2.1.2.2s0 .2-.1.2L-54 749.7h-.1z"/>
      <path d="M-27 565.9l180.3 72.4-207.4 111.2L-27 565.9m0-.5c-.1 0-.2 0-.2.1-.1.1-.2.2-.2.4l-27 183.5c0 .2.1.4.2.5.1.1.2.1.3.1.1 0 .2 0 .2-.1l207.4-111.1c.2-.1.3-.3.3-.5s-.1-.4-.3-.4l-180.3-72.4c-.3 0-.4-.1-.4-.1z"/>
    </g>
    <g opacity=".85">
      <path fill="#4D4D4D" d="M153.2 638.6c-.1 0-.2-.1-.2-.2l-38.8-118v-.2c0-.1.1-.1.2-.1l104-22.7h.1c.1 0 .1 0 .2.1s.1.2 0 .3l-65.1 140.7c-.2.1-.2.1-.4.1.1 0 0 0 0 0z"/>
      <path d="M218.4 497.6l-65.1 140.7-38.8-118 103.9-22.7m0-.5h-.1l-104 22.7c-.1 0-.3.1-.3.2s-.1.3 0 .4l38.8 118c.1.2.2.3.4.3s.4-.1.5-.3l65.1-140.7c.1-.2.1-.4-.1-.5 0 0-.2-.1-.3-.1z"/>
    </g>
    <g opacity=".591">
      <path fill="#4D4D4D" d="M88.1 810.6l-142.3-60.9c-.1 0-.1-.1-.2-.2 0-.1 0-.2.1-.2l207.4-111.1h.1c.1 0 .1 0 .2.1s.1.2.1.3l-65.1 172c0-.1-.1 0-.3 0 .1 0 .1 0 0 0z"/>
      <path d="M153.3 638.4l-65.1 172L-54 749.5l207.3-111.1m0-.5c-.1 0-.2 0-.2.1L-54.3 749c-.2.1-.3.3-.3.5s.1.4.3.4L88 810.8h.4l.3-.3 65.1-172c.1-.2 0-.4-.1-.6h-.4z"/>
    </g>
    <g opacity=".83">
      <path fill="#4D4D4D" d="M287.4 665l-134.2-26.3c-.1 0-.1-.1-.2-.1s0-.1 0-.2l65.1-140.7c0-.1.1-.1.2-.1s.2.1.2.2l69.1 167.1v.3c0-.3 0-.2-.2-.2.1 0 .1 0 0 0z"/>
      <path d="M218.4 497.6l69.1 167.1-134.2-26.3 65.1-140.8m0-.5c-.2 0-.4.1-.5.3l-65.1 140.7c-.1.1-.1.3 0 .4l.3.3 134.2 26.3h.1c.1 0 .3-.1.4-.2.1-.1.1-.3.1-.5l-69.1-167.1s-.2-.2-.4-.2z"/>
    </g>
    <g opacity=".81">
      <path fill="#4D4D4D" d="M287.5 665c-.1 0-.2-.1-.2-.2l-69.1-167.1v-.2c0-.1.1-.1.2-.1l138.2 3.3c.1 0 .2 0 .2.1s.1.2 0 .2l-69.1 163.8c0 .1-.1.2-.2.2z"/>
      <path d="M218.4 497.6l138.2 3.3-69.1 163.8-69.1-167.1m0-.5c-.2 0-.3.1-.4.2-.1.1-.1.3 0 .5l69 167.1c.1.2.3.3.5.3s.4-.1.5-.3l69.1-163.8c.1-.2 0-.3 0-.5-.1-.1-.2-.2-.4-.2l-138.3-3.3z"/>
    </g>
    <g opacity=".341">
      <path fill="#4D4D4D" d="M-128.2 837c-.1 0-.2 0-.2-.1v-.3l74.1-87.2c0-.1.1-.1.2-.1h.1l142.2 60.9c.1 0 .2.2.1.3 0 .1-.1.2-.2.2.1-.1-216.3 26.3-216.3 26.3z"/>
      <path d="M-54.1 749.5l142.2 60.9-216.4 26.3 74.2-87.2m0-.5c-.1 0-.3.1-.4.2l-74.1 87.2c-.1.2-.2.4-.1.6.1.2.3.3.4.3h.1L88.2 811c.2 0 .4-.2.4-.4s-.1-.4-.3-.5L-53.9 749h-.2z"/>
    </g>
    <g opacity=".273">
      <path fill="#4D4D4D" d="M-8.9 933.1c-.1 0-.1 0-.2-.1l-119.4-96.1c-.1-.1-.1-.2-.1-.3 0-.1.1-.2.2-.2L88 810.1c.1 0 .2 0 .2.1v.3L-8.7 933s-.1.1-.2.1c.1 0 .1 0 0 0z"/>
      <path d="M88.1 810.4l-97 122.5-119.4-96.1 216.4-26.4m0-.5l-216.4 26.3c-.2 0-.4.2-.4.4-.1.2 0 .4.2.5l119.4 96.1c.1.1.2.1.3.1h.1c.1 0 .3-.1.3-.2l97-122.5c.1-.2.1-.4 0-.6-.1 0-.3-.1-.5-.1z"/>
    </g>
    <g opacity=".568">
      <path fill="#4D4D4D" d="M88.1 810.6c-.1 0-.1 0-.2-.1s-.1-.2-.1-.3l65.1-172c0-.1.1-.1.2-.2h.1c.1 0 .1 0 .2.1l92.2 83.9c.1.1.1.1.1.2s-.1.2-.1.2L88.3 810.6h-.2z"/>
      <path d="M153.3 638.4l92.2 83.9-157.4 88.1 65.2-172m0-.5h-.1c-.2 0-.3.2-.4.3l-65.1 172c-.1.2 0 .4.1.6.1.1.2.1.3.1.1 0 .2 0 .2-.1l157.3-88.1c.1-.1.2-.2.3-.4 0-.2 0-.3-.2-.4L153.6 638c-.1-.1-.2-.1-.3-.1z"/>
    </g>
    <g opacity=".84">
      <path fill="#4D4D4D" d="M287.5 665c-.1 0-.1 0-.2-.1s-.1-.2-.1-.3l69.1-163.8c0-.1.1-.1.2-.1h.2l86.1 59.6c.1 0 .1.1.1.2s0 .2-.1.2L287.6 664.9l-.1.1z"/>
      <path d="M356.6 500.9l86.1 59.6-155.2 104.2 69.1-163.8m0-.5h-.1c-.1 0-.3.1-.3.3L287 664.5c-.1.2 0 .4.1.6.1.1.2.1.3.1.1 0 .2 0 .3-.1L443 560.9c.1-.1.2-.2.2-.4s-.1-.3-.2-.4l-86.1-59.6c-.1 0-.2-.1-.3-.1z"/>
    </g>
    <g opacity=".64">
      <path fill="#4D4D4D" d="M245.4 722.6c-.1 0-.1 0-.2-.1L153 638.6c-.1-.1-.1-.2-.1-.3 0-.1.1-.1.2-.1l134.2 26.3c.1 0 .2.1.2.2v.2l-42.1 57.6c.2 0 .1.1 0 .1z"/>
      <path d="M153.3 638.4l134.2 26.3-42.1 57.6-92.1-83.9m0-.5c-.2 0-.4.1-.4.3-.1.2-.1.4.1.6l92.2 83.9c.1.1.2.1.3.1h.1c.1 0 .3-.1.4-.2l42.1-57.6c.1-.1.1-.3.1-.5-.1-.2-.2-.3-.4-.3l-134.5-26.3z"/>
    </g>
    <g opacity=".8">
      <path fill="#4D4D4D" d="M287.5 665c-.1 0-.2-.1-.2-.2s0-.2.1-.3l155.3-104.2h.2c.1 0 .1.1.2.1l38.1 72.1v.2c0 .1-.1.1-.2.1L287.5 665z"/>
      <path d="M442.8 560.5l38.1 72.1-193.3 32.1 155.2-104.2m0-.5c-.1 0-.2 0-.3.1L287.2 664.3c-.2.1-.3.4-.2.6.1.2.3.3.5.3h.1l193.3-32.1c.2 0 .3-.1.4-.3.1-.1.1-.3 0-.5l-38.1-72.1-.3-.3-.1.1z"/>
    </g>
    <g opacity=".409">
      <path fill="#4D4D4D" d="M282.4 845.2L88.1 810.6c-.1 0-.2-.1-.2-.2s0-.2.1-.3L245.3 722h.2c.1 0 .1.1.1.2l37.1 122.6c0 .1 0 .2-.1.2 0 .2 0 .2-.2.2.1 0 .1 0 0 0z"/>
      <path d="M245.4 722.3L282.5 845 88.1 810.4l157.3-88.1m0-.5c-.1 0-.2 0-.2.1L87.9 810c-.2.1-.3.3-.2.5 0 .2.2.4.4.4l194.3 34.6h.1c.1 0 .3-.1.4-.2.1-.1.2-.3.1-.5l-37.1-122.6c0-.1-.2-.3-.3-.3-.1-.1-.1-.1-.2-.1z"/>
    </g>
    <g opacity=".659">
      <path fill="#4D4D4D" d="M351.6 739c-.1 0-.1 0-.2-.1l-64.1-74.1c-.1-.1-.1-.2 0-.2 0-.1.1-.1.2-.2l193.3-32.1c.1 0 .2.1.2.1 0 .1 0 .2-.1.3L351.8 739h-.2z"/>
      <path d="M480.8 632.6L351.6 738.8l-64.1-74.1 193.3-32.1m0-.5l-193.4 32.1c-.2 0-.3.2-.4.3s0 .4.1.5l64.1 74.1c.1.1.2.2.4.2.1 0 .2 0 .3-.1L481.1 633c.2-.1.2-.4.1-.6 0-.2-.2-.3-.4-.3z"/>
    </g>
    <g opacity=".25">
      <path fill="#4D4D4D" d="M-8.9 933.1c-.1 0-.2-.1-.2-.1v-.3l97-122.5c0-.1.1-.1.2-.1s.2.1.2.1l74.1 136.6v.3c0 .1-.1.1-.2.1L-8.9 933.1z"/>
      <path d="M88.1 810.4L162.3 947-8.9 932.8l97-122.4m0-.5c-.2 0-.3.1-.4.2l-97 122.5c-.1.1-.1.3-.1.5.1.2.2.3.4.3l171.1 14.2c.2 0 .3-.1.4-.2.1-.2.1-.4 0-.5L88.6 810.1c-.1-.1-.2-.2-.5-.2.1 0 .1 0 0 0z"/>
    </g>
    <g opacity=".227">
      <path fill="#4D4D4D" d="M162.2 947.3c-.1 0-.1-.1-.2-.1L87.9 810.5v-.3c0-.1.1-.1.2-.1l194.3 34.6c.1 0 .2.1.2.2s0 .2-.1.3l-120.1 102s-.1.1-.2.1c.1 0 0 0 0 0z"/>
      <path d="M88.1 810.4L282.5 845 162.3 947 88.1 810.4m0-.5c-.2 0-.3.1-.4.2-.1.2-.1.4 0 .5l74.1 136.6.3.3h.1c.1 0 .2 0 .3-.1l120.2-102.1c.1-.1.2-.3.2-.5-.1-.2-.2-.3-.4-.4L88.1 809.9c.1 0 .1 0 0 0z"/>
    </g>
    <g opacity=".5">
      <path fill="#4D4D4D" d="M245.4 722.6c-.1 0-.2-.1-.2-.2v-.2l42.1-57.6c0-.1.1-.1.2-.1s.1 0 .2.1l64.1 74.1c.1.1.1.2 0 .3 0 .1-.1.1-.2.1l-106.2-16.5z"/>
      <path d="M287.5 664.7l64.1 74.1-106.2-16.5 42.1-57.6m0-.5c-.2 0-.3.1-.4.2L245 722c-.1.1-.1.3-.1.5s.2.3.4.3l106.2 16.5h.1c.2 0 .3-.1.4-.3.1-.2.1-.4-.1-.6l-64.1-74.1s-.2-.1-.3-.1z"/>
    </g>
    <g opacity=".386">
      <path fill="#4D4D4D" d="M282.4 845.2c-.1 0-.2-.1-.2-.2l-37.1-122.6c0-.1 0-.2.1-.2 0-.1.1-.1.2-.1l106.2 16.5c.1 0 .2.1.2.1v.2l-69.1 106.2c-.1.1-.1.1-.3.1.1 0 .1 0 0 0z"/>
      <path d="M245.4 722.3l106.2 16.5L282.5 845l-37.1-122.7m0-.5c-.1 0-.3.1-.4.2-.1.1-.2.3-.1.5L282 845.1c.1.2.2.3.4.4h.1c.2 0 .3-.1.4-.2L352 739.1c.1-.1.1-.3 0-.5s-.2-.3-.4-.3l-106.2-16.5c.1 0 0 0 0 0z"/>
    </g>
    <g opacity=".023">
      <path fill="#4D4D4D" d="M0 999.1h-.1c-.1 0-.1-.1-.1-.2l-8.9-66c0-.1 0-.2.1-.2 0 0 .1-.1.2-.1l171.2 14.2c.1 0 .2.1.2.2s-.1.2-.2.3L0 999.1c.1 0 0 0 0 0z"/>
      <path d="M-8.9 932.8L162.3 947 0 998.8l-8.9-66m0-.5c-.1 0-.3.1-.4.2-.1.1-.2.3-.1.4l8.9 66c0 .1.1.3.2.4.1.1.2.1.3.1h.2l162.3-51.8c.2-.1.4-.3.3-.5 0-.2-.2-.4-.5-.4L-8.9 932.3c.1 0 .1 0 0 0z"/>
    </g>
    <g opacity=".114">
      <path fill="#4D4D4D" d="M279.5 990.9c-.1 0-.1 0 0 0l-117.3-43.6c-.1 0-.1-.1-.2-.2 0-.1 0-.2.1-.2l120.2-102.1s.1-.1.2-.1h.1c.1 0 .1.1.1.2l-3 145.7c0 .1 0 .2-.1.2 0 .1-.1.1-.1.1z"/>
      <path d="M282.5 845l-3 145.7L162.3 947l120.2-102m0-.5c-.1 0-.2 0-.3.1L162 946.6c-.1.1-.2.3-.2.5s.2.3.3.4l117.2 43.6h.2c.1 0 .2 0 .3-.1.1-.1.2-.2.2-.4l3-145.7c0-.2-.1-.4-.3-.5-.1.1-.1.1-.2.1z"/>
    </g>
    <g opacity=".75">
      <path fill="#4D4D4D" d="M671.1 759.6h-.1L480.7 632.8c-.1-.1-.1-.1-.1-.2s.1-.2.2-.2l178.3-52.7h.2c.1 0 .1.1.1.2l12 179.4c0 .1 0 .2-.1.2-.1.1-.1.1-.2.1z"/>
      <path d="M659.1 579.9l12 179.4-190.3-126.7 178.3-52.7m0-.5h-.1l-178.3 52.7c-.2.1-.3.2-.4.4 0 .2.1.4.2.5l190.3 126.7c.1.1.2.1.3.1.1 0 .2 0 .3-.1.2-.1.3-.3.2-.5l-12-179.4c0-.2-.1-.3-.2-.4-.1.1-.2 0-.3 0z"/>
    </g>
    <g opacity=".636">
      <path fill="#4D4D4D" d="M491.8 837.8h-.1c-.1 0-.1-.1-.1-.2l-11-204.9c0-.1 0-.2.1-.2h.2l190.3 126.7c.1.1.1.1.1.2s-.1.2-.1.2l-179.3 78.2h-.1z"/>
      <path d="M480.8 632.6l190.3 126.7-179.3 78.2-11-204.9m0-.5c-.1 0-.2 0-.2.1-.2.1-.3.3-.3.5l11 204.9c0 .2.1.3.2.4.1 0 .2.1.3.1h.2l179.3-78.2c.2-.1.3-.2.3-.4s-.1-.4-.2-.5L481.1 632.2c-.1-.1-.2-.1-.3-.1z"/>
    </g>
    <g opacity=".614">
      <path fill="#4D4D4D" d="M491.8 837.8h-.1L351.5 739c-.1 0-.1-.1-.1-.2s0-.2.1-.2l129.2-106.2s.1-.1.2-.1h.1c.1 0 .1.1.1.2l11 204.9c0 .1 0 .2-.1.2-.1.2-.1.2-.2.2z"/>
      <path d="M480.8 632.6l11 204.9-140.2-98.8 129.2-106.1m0-.5c-.1 0-.2 0-.3.1L351.3 738.4c-.1.1-.2.2-.2.4s.1.3.2.4L491.5 838c.1.1.2.1.3.1.1 0 .2 0 .2-.1.2-.1.3-.3.3-.5l-11-204.9c0-.2-.1-.4-.3-.4 0-.1-.1-.1-.2-.1z"/>
    </g>
    <g opacity=".364">
      <path fill="#4D4D4D" d="M282.5 845.2c-.1 0-.2 0-.2-.1v-.3l69.1-106.2c0-.1.1-.1.2-.1h.1L492 837.3c.1.1.1.2.1.3 0 .1-.1.2-.2.2s-209.4 7.4-209.4 7.4z"/>
      <path d="M351.6 738.8l140.2 98.8-209.3 7.4 69.1-106.2m0-.5s-.1 0 0 0c-.2 0-.3.1-.4.2l-69.1 106.2c-.1.2-.1.4 0 .5.1.2.3.3.4.3l209.4-7.4c.2 0 .4-.2.5-.4.1-.2 0-.4-.2-.6L352 738.3h-.4z"/>
    </g>
    <g opacity=".182">
      <path fill="#4D4D4D" d="M362.6 917.6c-.1 0-.1 0-.2-.1l-80.1-72.4c-.1-.1-.1-.2-.1-.3s.1-.2.2-.2l209.4-7.4c.1 0 .2.1.2.2s0 .2-.1.3l-129.2 79.8c0 .1 0 .1-.1.1z"/>
      <path d="M491.8 837.5l-129.2 79.8-80.1-72.3 209.3-7.5m0-.5l-209.4 7.4c-.2 0-.4.1-.5.3-.1.2 0 .4.1.5l80.1 72.4c.1.1.2.1.3.1.1 0 .2 0 .3-.1L492.1 838c.2-.1.3-.4.2-.6 0-.2-.2-.4-.5-.4z"/>
    </g>
    <g opacity=".091">
      <path fill="#4D4D4D" d="M279.5 990.9h-.1c-.1 0-.1-.1-.1-.2l3-145.7c0-.1.1-.2.2-.2h.1c.1 0 .1 0 .2.1l80.1 72.4c.1 0 .1.1.1.2s0 .1-.1.2l-83.1 73.2h-.3z"/>
      <path d="M282.5 845l80.1 72.4-83.1 73.2 3-145.6m0-.5h-.2c-.2.1-.3.3-.3.4l-3 145.7c0 .2.1.4.3.5h.2c.1 0 .2 0 .3-.1l83.1-73.2c.1-.1.2-.2.2-.4s-.1-.3-.2-.4l-80.1-72.4c-.1-.1-.2-.1-.3-.1z"/>
    </g>
    <g opacity=".727">
      <path fill="#4D4D4D" d="M671.1 759.6c-.2 0-.2-.1-.2-.2l-12-179.4c0-.1 0-.2.1-.2 0 0 .1-.1.2-.1l124.2 21.4c.1 0 .2.1.2.2v.2l-112.2 158c-.1.1-.2.1-.3.1z"/>
      <path d="M659.1 579.9l124.2 21.4-112.2 158-12-179.4m0-.5c-.1 0-.2 0-.3.1-.1.1-.2.3-.2.4l12 179.4c0 .2.2.4.4.4h.1c.2 0 .3-.1.4-.2l112.2-158c.1-.1.1-.3.1-.5-.1-.2-.2-.3-.4-.3l-124.3-21.3c.1 0 .1 0 0 0z"/>
    </g>
    <g opacity=".705">
      <path fill="#4D4D4D" d="M671.1 759.6c-.1 0-.2 0-.2-.1-.1-.1-.1-.2 0-.3l112.2-158c0-.1.1-.1.2-.1s.2 0 .2.1l78.1 120.2c0 .1.1.2 0 .2 0 .1-.1.1-.2.1l-190.3 37.9c.1 0 .1 0 0 0z"/>
      <path d="M783.3 601.3l78.1 120.2-190.3 37.9 112.2-158.1m0-.5c-.2 0-.3.1-.4.2L670.7 759c-.1.2-.1.4 0 .6.1.1.3.2.4.2h.1L861.6 722c.2 0 .3-.1.4-.3.1-.2 0-.3 0-.5L783.9 601c-.2-.1-.4-.2-.6-.2z"/>
    </g>
    <g opacity=".318">
      <path fill="#4D4D4D" d="M659.1 958.8h-.1l-167.3-121c-.1-.1-.1-.1-.1-.2s.1-.2.1-.2L671 759.1h.2c.1 0 .1.1.1.2l-12 199.2c0 .1-.1.2-.1.2 0 .1 0 .1-.1.1z"/>
      <path d="M671.1 759.4l-12 199.2-167.3-121 179.3-78.2m0-.5h-.2l-179.3 78.2c-.2.1-.3.2-.3.4s.1.4.2.5l167.3 121c.1.1.2.1.3.1h.2c.2-.1.3-.2.3-.4l12-199.2c0-.2-.1-.3-.2-.4-.1-.2-.2-.2-.3-.2z"/>
    </g>
    <g opacity=".79">
      <path fill="#4D4D4D" d="M1040.7 655.1l-257.4-53.5c-.1 0-.2-.1-.2-.2s0-.2.1-.3l65.3-56s.1-.1.2-.1h.1l192.1 109.5c.1.1.2.2.1.3 0 .2-.1.3-.3.3.1 0 0 0 0 0z"/>
      <path d="M848.7 545.3l192.1 109.5-257.4-53.5 65.3-56m0-.5c-.1 0-.2 0-.3.1L783 601c-.1.1-.2.3-.2.5s.2.3.4.4l257.4 53.5h.1c.2 0 .4-.1.5-.3.1-.2 0-.5-.2-.6L848.9 544.9c-.1 0-.1-.1-.2-.1z"/>
    </g>
    <g opacity=".818">
      <path fill="#4D4D4D" d="M1040.8 655.1h-.1L848.5 545.5c-.1-.1-.1-.2-.1-.3 0-.1.1-.2.2-.2l160.7-27.1c.1 0 .2.1.2.2l31.4 136.6c0 .1 0 .2-.1.3.1.1 0 .1 0 .1z"/>
      <path d="M1009.3 518.2l31.4 136.6-192-109.5 160.6-27.1m0-.5l-160.8 27.1c-.2 0-.4.2-.4.4s.1.4.2.5l192.1 109.5c.1 0 .2.1.2.1.1 0 .2 0 .3-.1.2-.1.2-.3.2-.5l-31.4-136.6c.1-.2-.1-.4-.4-.4z"/>
    </g>
    <g opacity=".159">
      <path fill="#4D4D4D" d="M540.9 968.7l-178.4-51c-.1 0-.2-.1-.2-.2s0-.2.1-.2l129.2-79.8h.2c.1 0 .1.1.2.1l49.1 130.9c0 .1 0 .2-.1.3.1-.2 0-.1-.1-.1z"/>
      <path d="M491.8 837.5l49.1 130.9-178.3-51 129.2-79.9m0-.5c-.1 0-.2 0-.3.1L362.4 917c-.2.1-.3.3-.2.5 0 .2.2.4.4.4l178.3 51h.1c.1 0 .3-.1.4-.2.1-.1.2-.3.1-.5l-49.1-130.9-.3-.3c-.2.1-.2 0-.3 0z"/>
    </g>
    <g opacity=".682">
      <path fill="#4D4D4D" d="M861.5 721.8c-.1 0-.2 0-.2-.1l-78.1-120.2c-.1-.1-.1-.2 0-.3 0-.1.1-.1.2-.1h.1l257.4 53.5c.1 0 .2.1.2.2s-.1.2-.2.3l-179.4 66.7c0-.1 0 0 0 0z"/>
      <path d="M783.3 601.3l257.4 53.5-179.3 66.7-78.1-120.2m0-.5c-.2 0-.3.1-.4.2-.1.2-.1.4 0 .6L861 721.8c.1.1.3.2.4.2h.2l179.3-66.7c.2-.1.3-.3.3-.5s-.2-.4-.4-.5l-257.4-53.5h-.1z"/>
    </g>
    <g opacity=".136">
      <path fill="#4D4D4D" d="M540.9 968.7c-.1 0-.2-.1-.2-.2l-49.1-130.9c0-.1 0-.2.1-.3 0 0 .1-.1.2-.1h.1l167.3 121c.1.1.1.2.1.3 0 .1-.1.2-.2.2-.1.1-118.3 10-118.3 10z"/>
      <path d="M491.8 837.5l167.3 121-118.2 9.9-49.1-130.9m0-.5c-.1 0-.2 0-.3.1-.2.1-.2.4-.2.6l49.1 130.9c.1.2.3.3.5.3l118.2-9.9c.2 0 .4-.2.4-.4.1-.2 0-.4-.2-.5L492 837.1s-.1-.1-.2-.1z"/>
    </g>
    <g opacity=".295">
      <path fill="#4D4D4D" d="M659.1 958.8h-.1c-.1 0-.1-.1-.1-.2l12-199.2c0-.1.1-.2.2-.2h.1c.1 0 .1 0 .2.1l95.2 114.4c0 .1.1.1.1.2s0 .1-.1.2l-107.2 84.8c-.2-.1-.2-.1-.3-.1z"/>
      <path d="M671.1 759.4l95.2 114.4-107.2 84.8 12-199.2m0-.5h-.2c-.2.1-.3.2-.3.4l-12 199.2c0 .2.1.4.3.5.1 0 .2.1.2.1.1 0 .2 0 .3-.1l107.2-84.8c.1-.1.2-.2.2-.3 0-.1 0-.3-.1-.4L671.5 759c-.1-.1-.2-.1-.4-.1z"/>
    </g>
    <g opacity=".477">
      <path fill="#4D4D4D" d="M766.3 874c-.1 0-.1 0-.2-.1L671 759.5c-.1-.1-.1-.2 0-.2 0-.1.1-.1.2-.2l190.3-37.9c.1 0 .2 0 .2.1.1.1.1.2 0 .3l-95.2 152.3c0 .1-.1.1-.2.1z"/>
      <path d="M861.5 721.5l-95.2 152.3-95.2-114.4 190.4-37.9m0-.5c-.1 0-.1 0 0 0L671 758.9c-.2 0-.3.2-.4.3-.1.2 0 .4.1.5l95.2 114.4c.1.1.2.2.4.2s.3-.1.4-.2l95.2-152.3c.1-.2.1-.4 0-.5-.1-.2-.3-.3-.4-.3z"/>
    </g>
    <g opacity=".455">
      <path fill="#4D4D4D" d="M922.5 906.9L766.3 874c-.1 0-.1-.1-.2-.1v-.2l95.2-152.3c0-.1.1-.1.2-.1s.2.1.2.2l61.1 185.2c0 .1 0 .2-.1.2h-.2c.1 0 0 0 0 0z"/>
      <path d="M861.5 721.5l61.1 185.2-156.3-32.9 95.2-152.3m0-.5c-.2 0-.3.1-.4.2l-95.2 152.3c-.1.1-.1.3 0 .5s.2.3.4.3l156.3 32.9h.1c.1 0 .3-.1.4-.2.1-.1.2-.3.1-.5l-61.1-185.2c-.2-.1-.4-.3-.6-.3z"/>
    </g>
    <g opacity=".523">
      <path fill="#4D4D4D" d="M1011.7 823.8h-.1L861.3 721.7c-.1-.1-.1-.1-.1-.2s.1-.2.2-.2l179.3-66.7h.1c.1 0 .1 0 .2.1s.1.1.1.2l-29 168.7c-.1.1-.2.2-.4.2.1 0 .1 0 0 0z"/>
      <path d="M1040.8 654.8l-29 168.7-150.3-102 179.3-66.7m0-.5h-.2L861.3 721c-.2.1-.3.2-.3.4s.1.4.2.5L1011.4 824c.1.1.2.1.3.1h.2c.2-.1.3-.2.3-.4l29-168.7c0-.2 0-.4-.2-.5 0-.1-.1-.2-.2-.2z"/>
    </g>
    <g opacity=".432">
      <path fill="#4D4D4D" d="M922.5 906.9c-.1 0-.1-.1-.2-.2l-61.1-185.2c0-.1 0-.2.1-.3 0 0 .1-.1.2-.1h.1l150.3 102.1c.1 0 .1.1.1.2s0 .2-.1.2l-89.2 83.1c0 .2-.1.2-.2.2.1 0 0 0 0 0z"/>
      <path d="M861.5 721.5l150.3 102.1-89.2 83.1-61.1-185.2m0-.5c-.1 0-.2 0-.3.1-.2.1-.2.4-.2.6l61.1 185.2c.1.2.2.3.4.3h.1c.1 0 .2 0 .3-.1l89.2-83.1c.1-.1.2-.3.2-.4 0-.2-.1-.3-.2-.4L861.7 721.1c0-.1-.1-.1-.2-.1z"/>
    </g>
    <path opacity=".068" fill="#4D4D4D" stroke="#000" stroke-width=".5" stroke-linecap="round" stroke-linejoin="round" d="M766.3 873.8l-107.2 84.8"/>
    <path opacity=".045" fill="#4D4D4D" stroke="#000" stroke-width=".5" stroke-linecap="round" stroke-linejoin="round" d="M922.6 906.7l-156.3-32.9"/>
    <g opacity=".204">
      <path fill="#4D4D4D" d="M1000.3 999.1c-.1 0-.1 0-.2-.1l-77.7-92.1c-.1-.1-.1-.3 0-.3l89.2-83.1s.1-.1.2-.1h.1c.1 0 .1.1.1.2l-11.4 175.3c-.1 0-.1.1-.3.2.1 0 0 0 0 0z"/>
      <path d="M1011.7 823.6l-11.4 175.3-77.7-92.1 89.1-83.2m0-.5c-.1 0-.2 0-.3.1l-89.2 83.1c-.2.2-.2.5 0 .7l77.7 92.1c.1.1.2.2.4.2h.2c.2-.1.3-.2.3-.4l11.4-175.3c0-.2-.1-.4-.3-.5h-.2z"/>
    </g>
    <g opacity=".82">
      <path fill="#4D4D4D" d="M442.7 560.8c-.1 0-.2-.1-.2-.2s.1-.2.2-.3L602 503.5h.1c.1 0 .2 0 .2.1l57.1 76.2c.1.1.1.2 0 .3 0 .1-.1.1-.2.1l-216.5-19.4z"/>
      <path d="M602 503.7l57.1 76.2-216.4-19.4L602 503.7m0-.5h-.2L442.5 560c-.2.1-.4.3-.3.5 0 .2.2.4.5.4l216.4 19.4c.2 0 .3-.1.4-.3.1-.2.1-.4 0-.5l-57.1-76.2c-.1 0-.2-.1-.4-.1z"/>
    </g>
    <g opacity=".79">
      <path fill="#4D4D4D" d="M659.1 580.2c-.1 0-.1 0-.2-.1l-57.1-76.2c-.1-.1-.1-.2 0-.2 0-.1.1-.1.2-.2l143.2-28.8c.1 0 .2 0 .2.1.1.1 0 .2 0 .3l-86.1 105c0 .1-.1.1-.2.1z"/>
      <path d="M745.3 474.9l-86.1 105-57.2-76.2 143.3-28.8m0-.5c-.1 0-.1 0 0 0L602 503.2c-.2 0-.3.2-.4.3-.1.2 0 .3.1.5l57.1 76.2c.1.1.2.2.4.2.1 0 .3-.1.4-.2l86.1-105c.1-.2.2-.4 0-.6-.1-.1-.3-.2-.4-.2z"/>
    </g>
    <g opacity=".8">
      <path fill="#4D4D4D" d="M659.1 580.2c-.1 0-.2 0-.2-.1-.1-.1 0-.2 0-.3l86.1-105c0-.1.1-.1.2-.1h.1l103.4 70.4c.1.1.1.2.1.3 0 .1-.1.2-.2.2l-189.5 34.6c.1 0 0 0 0 0z"/>
      <path d="M745.3 474.9l103.4 70.4-189.5 34.6 86.1-105m0-.5c-.1 0-.3.1-.4.2l-86.1 105c-.1.2-.2.4 0 .6.1.2.3.2.4.2h.1l189.5-34.6c.2 0 .4-.2.4-.4s0-.4-.2-.5l-103.4-70.4c-.1 0-.2-.1-.3-.1z"/>
    </g>
    <g opacity=".84">
      <path fill="#4D4D4D" d="M783.3 601.6l-124.2-21.4c-.1 0-.2-.1-.2-.2s.1-.2.2-.2l189.5-34.6c.1 0 .2.1.2.1 0 .1 0 .2-.1.3l-65.3 56h-.1z"/>
      <path d="M848.7 545.3l-65.3 56-124.2-21.4 189.5-34.6m0-.5c-.1 0-.1 0 0 0L659 579.4c-.2 0-.4.3-.4.5s.2.4.4.5l124.2 21.4h.1c.1 0 .2 0 .3-.1l65.3-56c.2-.1.2-.4.1-.6 0-.2-.1-.3-.3-.3z"/>
    </g>
    <g opacity=".78">
      <path fill="#4D4D4D" d="M848.7 545.6h-.1l-103.4-70.4c-.1-.1-.1-.2-.1-.3 0-.1.1-.2.2-.2l138.2 3.3c.1 0 .2 0 .2.1v.2l-34.8 67.1c0 .1-.1.2-.2.2z"/>
      <path d="M745.3 474.9l138.2 3.3-34.8 67.1-103.4-70.4m0-.5c-.2 0-.4.1-.5.3-.1.2 0 .4.2.6l103.4 70.4c.1.1.2.1.3.1h.1c.1 0 .3-.1.3-.3l34.8-67.1c.1-.2.1-.3 0-.5s-.2-.2-.4-.2l-138.2-3.3z"/>
    </g>
    <g opacity=".82">
      <path fill="#4D4D4D" d="M848.7 545.6c-.1 0-.2 0-.2-.1-.1-.1-.1-.2 0-.3l34.8-67.1c0-.1.1-.1.2-.1h.1l125.8 40c.1 0 .2.1.2.3 0 .1-.1.2-.2.2l-160.7 27.1z"/>
      <path d="M883.5 478.2l125.8 40-160.7 27.1 34.9-67.1m0-.5c-.2 0-.4.1-.4.3l-34.8 67.1c-.1.2-.1.4 0 .5.1.1.2.2.4.2h.1l160.7-27.1c.2 0 .4-.2.4-.5 0-.2-.1-.4-.3-.5l-125.8-40h-.3z"/>
    </g>
    <g opacity=".84">
      <path fill="#4D4D4D" d="M1009.3 518.5l-125.9-40c-.1 0-.2-.1-.2-.2s0-.2.1-.2l94.8-50.2h.2c.1 0 .1.1.1.2l31 90.2c0 .1 0 .2-.1.3.2-.2.1-.1 0-.1z"/>
      <path d="M978.3 428l31 90.2-125.8-40 94.8-50.2m0-.5c-.1 0-.2 0-.2.1l-94.8 50.2c-.2.1-.3.3-.3.5s.2.4.3.4l125.8 40h.2c.1 0 .3-.1.4-.2.1-.1.2-.3.1-.5l-31-90.2c0-.1-.2-.2-.3-.3h-.2z"/>
    </g>
    <g opacity=".84">
      <path fill="#4D4D4D" d="M1009.3 518.5c-.1 0-.1-.1-.2-.2l-31-90.2v-.2s.1-.1.2-.1l150.6-18.1c.1 0 .2.1.2.1 0 .1 0 .2-.1.3l-119.6 108.3c.1 0 0 .1-.1.1z"/>
      <path d="M1128.9 409.9l-119.6 108.3-31-90.2 150.6-18.1m0-.5l-150.7 18.1c-.2 0-.3.1-.4.2s-.1.3 0 .4l31 90.2c.1.2.2.3.3.3h.1c.1 0 .2 0 .3-.1l119.6-108.3c.2-.1.2-.4.1-.6.1-.1-.1-.2-.3-.2z"/>
    </g>
    <g opacity=".82">
      <path fill="#4D4D4D" d="M442.8 560.8h-.1l-86.1-59.6c-.1 0-.1-.1-.1-.2s0-.1.1-.2l86.1-105c0-.1.1-.1.2-.1h.1c.1 0 .2.1.2.2v164.6c0 .1-.1.2-.1.2l-.3.1z"/>
      <path d="M442.8 395.9v164.6l-86.1-59.6 86.1-105m0-.5c-.1 0-.3.1-.4.2l-86.1 105c-.1.1-.1.2-.1.4 0 .1.1.3.2.3l86.1 59.6c.1.1.2.1.3.1.1 0 .2 0 .2-.1.2-.1.3-.3.3-.4V395.9c0-.2-.1-.4-.3-.5h-.2z"/>
    </g>
    <g opacity=".8">
      <path fill="#4D4D4D" d="M356.6 501.2c-.1 0-.2-.1-.2-.2l-38.1-126.4c0-.1 0-.2.1-.2 0-.1.1-.1.2-.1l124.2 21.4c.1 0 .2.1.2.2v.2l-86.1 105c-.1 0-.2.1-.3.1z"/>
      <path d="M318.5 374.5l124.2 21.4-86.1 105-38.1-126.4m0-.5c-.1 0-.3.1-.4.2-.1.1-.2.3-.1.5l38.1 126.4c.1.2.2.3.4.3h.1c.1 0 .3-.1.4-.2l86.1-105c.1-.1.1-.3.1-.5-.1-.2-.2-.3-.4-.3L318.5 374c.1 0 .1 0 0 0z"/>
    </g>
    <g opacity=".82">
      <path fill="#4D4D4D" d="M356.6 501.2h-.1l-154.4-98.4c-.1-.1-.1-.2-.1-.3 0-.1.1-.2.2-.2l116.3-28h.1c.1 0 .2.1.2.2l38.1 126.4c0 .1 0 .2-.1.3h-.2z"/>
      <path d="M318.5 374.5l38.1 126.4-154.4-98.4 116.3-28m0-.5h-.1l-116.3 28c-.2 0-.3.2-.4.4s.1.4.2.5l154.4 98.4c.1.1.2.1.3.1.1 0 .2 0 .3-.1.2-.1.2-.3.2-.5L319 374.4c0-.2-.2-.4-.5-.4z"/>
    </g>
    <g opacity=".84">
      <path fill="#4D4D4D" d="M218.4 497.9c-.1 0-.2-.1-.2-.2L202 402.5c0-.1 0-.2.1-.3h.2l154.4 98.4c.1.1.1.2.1.3 0 .1-.1.2-.2.2l-138.2-3.2z"/>
      <path d="M202.2 402.5l154.4 98.4-138.2-3.3-16.2-95.1m0-.5c-.1 0-.2 0-.3.1-.2.1-.2.3-.2.5l16.1 95.1c0 .2.2.4.5.4l138.2 3.3c.2 0 .4-.1.5-.4.1-.2 0-.4-.2-.6L202.4 402h-.2z"/>
    </g>
    <g opacity=".84">
      <path fill="#4D4D4D" d="M-27 566.2c-.1 0-.1 0-.2-.1s-.1-.2-.1-.2l27-96c0-.1.1-.1.1-.2H0L114.4 520c.1 0 .2.1.1.2s-.1.2-.2.2L-27 566.2z"/>
      <path d="M0 470l114.4 50.3L-27 565.9 0 470m0-.5h-.2l-.3.3-27 96c0 .2 0 .4.1.5.1.1.2.1.3.1h.2l141.5-45.6c.2-.1.3-.2.3-.5 0-.2-.1-.4-.3-.5L.2 469.5H0z"/>
    </g>
    <g opacity=".84">
      <path fill="#4D4D4D" d="M114.4 520.6h-.1L-.1 470.2c-.1 0-.2-.1-.1-.2 0-.1.1-.2.2-.2l83-28.7h.1c.1 0 .2.1.2.2l31.4 79c0 .1 0 .2-.1.3h-.2z"/>
      <path d="M83 441.3l31.4 79L0 470l83-28.7m0-.5h-.2l-83 28.7c-.2.1-.3.2-.3.5s.1.4.3.5l114.4 50.3h.2c.1 0 .3 0 .3-.1.1-.1.2-.4.1-.5l-31.4-79c0-.2-.2-.4-.4-.4z"/>
    </g>
    <g opacity=".86">
      <path fill="#4D4D4D" d="M218.4 497.9c-.1 0-.1 0 0 0L82.9 441.6c-.1 0-.2-.1-.2-.2s.1-.2.2-.2l119.2-38.8h.2c.1 0 .1.1.1.2l16.1 95.1c0 .1 0 .2-.1.2.1 0 0 0 0 0z"/>
      <path d="M202.2 402.5l16.1 95.1L83 441.3l119.2-38.8m0-.5h-.2L82.8 440.9c-.2.1-.3.2-.3.5s.1.4.3.5l135.4 56.3h.2c.1 0 .2 0 .3-.1.1-.1.2-.3.2-.5l-16.1-95.1c0-.1-.1-.3-.2-.3-.2-.2-.3-.2-.4-.2z"/>
    </g>
    <g opacity=".88">
      <path fill="#4D4D4D" d="M114.4 520.6c-.1 0-.2-.1-.2-.2l-31.4-79c0-.1 0-.2.1-.3 0 0 .1-.1.2-.1h.1l135.4 56.3c.1 0 .2.1.2.3s-.1.2-.2.2l-104.2 22.8c.1 0 0 0 0 0z"/>
      <path d="M83 441.3l135.4 56.3-104 22.7-31.4-79m0-.5c-.1 0-.3 0-.4.1-.1.1-.2.4-.1.5l31.4 79c.1.2.3.3.5.3h.1l104-22.7c.2 0 .4-.2.4-.4s-.1-.4-.3-.5L83.2 440.9c-.1-.1-.1-.1-.2-.1z"/>
    </g>
  </g>
  <g opacity=".07">
    <path opacity=".75" d="M1514.1 667.5l-29.7-90.5-150.6 18.1 180.3 72.4z"/>
    <path opacity=".571" d="M1306.8 778.6l207.4-111.1-180.3-72.4-27.1 183.5z"/>
    <path opacity=".76" d="M1514.1 667.5l65.1-140.7-94.8 50.2 29.7 90.5z"/>
    <path opacity=".429" d="M1449 839.5l65.1-172-207.4 111.1 142.3 60.9z"/>
    <path opacity=".691" d="M1514.1 667.5l134.2 26.3-69.1-167.1-65.1 140.8z"/>
    <path opacity=".714" d="M1648.4 693.8l69.1-163.8-138.2-3.3 69.1 167.1z"/>
    <path opacity=".452" d="M1449 839.5l157.3-88.1-92.2-83.9-65.1 172z"/>
    <path opacity=".738" d="M1648.4 693.8l139.2-94.6-70.1-69.1-69.1 163.7z"/>
    <path opacity=".5" d="M1606.3 751.4l42.1-57.6-134.2-26.3 92.1 83.9z"/>
    <path opacity=".78" d="M1787.6 599.2l73.1-97.9-143.2 28.8 70.1 69.1z"/>
    <path opacity=".64" d="M1841.7 661.7l-54.1-62.6-139.2 94.6 193.3-32z"/>
    <path opacity=".191" d="M1648.4 935.8l-42.1-184.4-157.3 88.1 199.4 96.3z"/>
    <path opacity=".49" d="M1712.5 767.9l129.2-106.2-193.3 32.1 64.1 74.1z"/>
    <path opacity=".048" d="M1462.4 1000.2l60.7-24-74.1-136.7 13.4 160.7z"/>
    <path opacity=".78" d="M2020 609.1V444.5l-159.3 56.8L2020 609.1z"/>
    <path opacity=".84" d="M2020 444.5l-38.1-72.1-178.3 52.6 216.4 19.5z"/>
    <path opacity=".73" d="M1787.6 599.2l54.1 62.6 19-160.5-73.1 97.9z"/>
    <path opacity=".7" d="M1841.7 661.7L2020 609l-159.3-107.8-19 160.5z"/>
    <path opacity=".119" d="M1523.1 976.1l125.2-40.3-199.3-96.3 74.1 136.6z"/>
    <path opacity=".41" d="M1606.3 751.4l106.2 16.5-64.1-74.1-42.1 57.6z"/>
    <path opacity=".214" d="M1648.4 935.8l64.1-167.9-106.2-16.5 42.1 184.4z"/>
    <path opacity=".5" d="M2032 788.5l-12-179.4-178.3 52.7L2032 788.5z"/>
    <path opacity=".262" d="M1881.3 916.1L2032 788.5l-190.3-126.7 39.6 254.3z"/>
    <path opacity=".286" d="M1881.3 916.1l-39.6-254.4-129.2 106.2 168.8 148.2z"/>
    <path opacity=".238" d="M1648.4 935.8l232.9-19.7-168.8-148.2-64.1 167.9z"/>
    <path opacity=".524" d="M2032 788.5l112.2-158-124.2-21.4 12 179.4z"/>
    <path opacity=".548" d="M2032 788.5l190.3-37.9-78.1-120.2L2032 788.5z"/>
    <path opacity=".143" d="M2011 926.4l21-137.9-150.8 127.7 129.8 10.2z"/>
    <path opacity=".74" d="M2144.2 630.5l257.4 53.5-141.1-81.5-116.3 28z"/>
    <path opacity=".809" d="M2401.6 684l-21.9-120.3-119.2 38.8 141.1 81.5z"/>
    <path opacity=".64" d="M2222.3 750.6l179.3-66.7-257.4-53.5 78.1 120.2z"/>
    <path opacity=".167" d="M2011 926.4l116.2 41.6-95.2-179.5-21 137.9z"/>
    <path opacity=".26" d="M2127.2 968l95.2-217.4-190.4 37.9 95.2 179.5z"/>
    <path opacity=".78" d="M2401.6 684l61.1-149-83 28.7 21.9 120.3z"/>
    <path opacity=".7" d="M2401.6 684l139.2-14-78.1-135-61.1 149z"/>
    <path opacity=".23" d="M2127.2 968l156.3-32.2-61.1-185.2-95.2 217.4z"/>
    <path opacity=".381" d="M2372.6 852.7l29-168.7-179.3 66.7 150.3 102z"/>
    <path opacity=".22" d="M2283.4 935.8l89.2-83.1-150.3-102.1 61.1 185.2z"/>
    <path opacity=".405" d="M2372.6 852.7l86.1-59.3-57.1-109.4-29 168.7z"/>
    <path opacity=".476" d="M2458.7 793.4l82.1-123.5-139.2 14 57.1 109.5z"/>
    <path opacity=".071" d="M2283.4 935.8l174.3 64.3-85.2-147.5-89.1 83.2z"/>
    <path opacity=".095" d="M2457.8 1000.2l1-206.7-86.1 59.3 85.1 147.4z"/>
    <path opacity=".86" d="M2309.5 366.6l38.8 118 141.5-45.6-180.3-72.4z"/>
    <path opacity=".795" d="M2516.8 255.5l-207.4 111.1 180.3 72.4 27.1-183.5z"/>
    <path opacity=".85" d="M2309.5 366.6l-65.1 140.7 104-22.7-38.9-118z"/>
    <path opacity=".591" d="M2374.6 194.6l-65.1 172 207.4-111.1-142.3-60.9z"/>
    <path opacity=".83" d="M2309.5 366.6l-134.2-26.3 69.1 167.1 65.1-140.8z"/>
    <path opacity=".81" d="M2175.3 340.3l-69.1 163.8 138.2 3.3-69.1-167.1z"/>
    <path opacity=".341" d="M2591 168.3l-216.4 26.3 142.2 60.9 74.2-87.2z"/>
    <path opacity=".273" d="M2471.6 72.2l-97 122.5 216.4-26.3-119.4-96.2z"/>
    <path opacity=".568" d="M2374.6 194.6l-157.3 88.1 92.2 83.9 65.1-172z"/>
    <path opacity=".84" d="M2175.3 340.3L2020 444.5l86.1 59.6 69.2-163.8z"/>
    <path opacity=".64" d="M2217.3 282.7l-42.1 57.6 134.2 26.3-92.1-83.9z"/>
    <path opacity=".8" d="M1981.9 372.4l38.1 72.1 155.3-104.2-193.4 32.1z"/>
    <path opacity=".409" d="M2180.3 160l37.1 122.6 157.3-88.1-194.4-34.5z"/>
    <path opacity=".659" d="M2111.2 266.2L1982 372.4l193.3-32.1-64.1-74.1z"/>
    <path opacity=".25" d="M2471.6 72.2L2300.5 58l74.1 136.6 97-122.4z"/>
    <path opacity=".227" d="M2300.5 58l-120.2 102 194.3 34.6L2300.5 58z"/>
    <path opacity=".5" d="M2217.3 282.7l-106.2-16.5 64.1 74.1 42.1-57.6z"/>
    <path opacity=".386" d="M2180.3 160l-69.1 106.2 106.2 16.5-37.1-122.7z"/>
    <path opacity=".023" d="M2462.8 1.8L2300.5 58l171.1 14.2-8.8-70.4z"/>
    <path opacity=".114" d="M2300.5 58l-117.2-9.5-3 111.6L2300.5 58z"/>
    <path opacity=".75" d="M1791.6 245.6l12 179.4 178.3-52.7-190.3-126.7z"/>
    <path opacity=".636" d="M1970.9 167.4l-179.3 78.2 190.3 126.7-11-204.9z"/>
    <path opacity=".614" d="M1970.9 167.4l11 204.9 129.2-106.2-140.2-98.7z"/>
    <path opacity=".364" d="M2180.3 160l-209.4 7.4 140.2 98.8 69.2-106.2z"/>
    <path opacity=".182" d="M2100.1 87.6l-129.2 79.8 209.4-7.4-80.2-72.4z"/>
    <path opacity=".091" d="M2183.3 48.4l-83.1 39.2 80.1 72.4 3-111.6z"/>
    <path opacity=".727" d="M1791.6 245.6l-112.2 158 124.2 21.4-12-179.4z"/>
    <path opacity=".705" d="M1791.6 245.6l-190.3 37.9 78.1 120.2 112.2-158.1z"/>
    <path opacity=".318" d="M1803.6 69.2l-12 176.4 179.3-78.2-167.3-98.2z"/>
    <path opacity=".79" d="M1679.4 403.6L1422 350.2l192.1 109.5 65.3-56.1z"/>
    <path opacity=".818" d="M1422 350.2l31.4 136.6 160.7-27.1L1422 350.2z"/>
    <path opacity=".159" d="M1921.8 36.6l49.1 130.9 129.2-79.8-178.3-51.1z"/>
    <path opacity=".682" d="M1601.3 283.5L1422 350.2l257.4 53.5-78.1-120.2z"/>
    <path opacity=".136" d="M1921.8 36.6l-118.2 32.6 167.3 98.3-49.1-130.9z"/>
    <path opacity=".295" d="M1803.6 69.2l-124.2 29.1 112.2 147.3 12-176.4z"/>
    <path opacity=".477" d="M1679.4 98.3l-78.1 185.2 190.3-37.9-112.2-147.3z"/>
    <path opacity=".455" d="M1679.4 98.3h-139.2l61.1 185.2 78.1-185.2z"/>
    <path opacity=".523" d="M1451 181.4l-29 168.7 179.3-66.7-150.3-102z"/>
    <path opacity=".432" d="M1540.2 98.3l-89.2 83.1 150.3 102.1-61.1-185.2z"/>
    <path opacity=".068" d="M1679.4 98.3l124.2-29.1"/>
    <path opacity=".045" d="M1540.2 98.3h139.2"/>
    <path opacity=".204" d="M1540.2 98.3l-77.7-92.1-11.5 175.2 89.2-83.1z"/>
    <path opacity=".82" d="M2020 444.5l-159.3 56.8-57.1-76.2 216.4 19.4z"/>
    <path opacity=".79" d="M1860.7 501.2L1717.5 530l86.1-105 57.1 76.2z"/>
    <path opacity=".8" d="M1717.5 530.1l86.1-105-189.5 34.6 103.4 70.4z"/>
    <path opacity=".84" d="M1803.6 425l-124.2-21.4-65.3 56 189.5-34.6z"/>
    <path opacity=".78" d="M1579.2 526.8l138.2 3.3-103.4-70.4-34.8 67.1z"/>
    <path opacity=".82" d="M1579.2 526.8l34.8-67.1-160.7 27.1 125.9 40z"/>
    <path opacity=".84" d="M1579.2 526.8l-125.8-40 31 90.2 94.8-50.2zM1484.4 577l-31-90.2-119.6 108.3 150.6-18.1z"/>
    <path opacity=".82" d="M2106.1 504.1l-86.1-59.6v164.6l86.1-105z"/>
    <path opacity=".8" d="M2144.2 630.5l-38.1-126.4-86.1 105 124.2 21.4z"/>
    <path opacity=".82" d="M2260.5 602.5l-154.4-98.4 38.1 126.4 116.3-28z"/>
    <path opacity=".84" d="M2260.5 602.5l-16.1-95.1-138.2-3.3 154.3 98.4zM2462.8 535l27-96-141.5 45.6 114.5 50.4zM2379.7 563.7l83-28.7-114.4-50.3 31.4 79z"/>
    <path opacity=".86" d="M2260.5 602.5l119.2-38.8-135.4-56.3 16.2 95.1z"/>
    <path opacity=".88" d="M2379.7 563.7l-31.4-79-104 22.7 135.4 56.3z"/>
  </g>
  <g opacity=".05">
    <path d="M1484.4 577l29.7 90.5-180.3-72.4 150.6-18.1m0-.5l-150.7 18.1c-.2 0-.4.2-.4.4s.1.4.3.5l180.3 72.4h.2c.1 0 .2 0 .3-.1.1-.1.2-.3.1-.5l-29.7-90.5c0-.2-.2-.3-.4-.3z"/>
    <path d="M1333.8 595.1l180.3 72.4-207.4 111.1 27.1-183.5m0-.5c-.1 0-.2 0-.2.1-.1.1-.2.2-.2.4l-27 183.5c0 .2.1.4.2.5.1.1.2.1.3.1.1 0 .2 0 .2-.1L1514.5 668c.2-.1.3-.3.3-.5s-.1-.4-.3-.4L1334 594.6h-.2z"/>
    <path d="M1579.2 526.8l-65.1 140.7-29.7-90.5 94.8-50.2m0-.5c-.1 0-.2 0-.2.1l-94.8 50.2c-.2.1-.3.4-.2.6l29.7 90.5c.1.2.2.3.4.3s.4-.1.5-.3l65.1-140.7c.1-.2 0-.4-.1-.6-.1-.1-.2-.1-.4-.1z"/>
    <path d="M1514.1 667.5l-65.1 172-142.2-60.9 207.3-111.1m0-.5c-.1 0-.2 0-.2.1l-207.4 111.1c-.2.1-.3.3-.3.5s.1.4.3.4l142.2 60.9h.4l.3-.3 65.1-172c.1-.2 0-.4-.1-.6 0-.1-.1-.1-.3-.1z"/>
    <path d="M1579.2 526.8l69.1 167.1-134.2-26.3 65.1-140.8m0-.5c-.2 0-.4.1-.5.3l-65.1 140.7c-.1.1-.1.3 0 .4l.3.3 134.2 26.3h.1c.1 0 .3-.1.4-.2.1-.1.1-.3.1-.5l-69.1-167.1c0-.1-.1-.2-.4-.2z"/>
    <path d="M1579.2 526.8l138.2 3.3-69.1 163.8-69.1-167.1m0-.5c-.2 0-.3.1-.4.2-.1.1-.1.3 0 .5l69.1 167.1c.1.2.3.3.5.3s.4-.1.5-.3l69.1-163.8c.1-.2 0-.3 0-.5s-.2-.2-.4-.2l-138.4-3.3zM1514.1 667.5l92.2 83.9-157.3 88.1 65.1-172m0-.5h-.1c-.2 0-.3.2-.4.3l-65.1 172c-.1.2 0 .4.1.6.1.1.2.1.3.1.1 0 .2 0 .2-.1l157.3-88.1c.1-.1.2-.2.3-.4 0-.2 0-.3-.2-.4l-92.2-83.9c.1-.1 0-.1-.2-.1z"/>
    <path d="M1717.5 530.1l70.1 69.1-139.2 94.6 69.1-163.7m0-.5c-.1 0-.1 0 0 0-.3 0-.4.2-.5.3l-69.1 163.8c-.1.2 0 .4.1.6.1.1.2.1.3.1.1 0 .2 0 .3-.1l139.2-94.6c.1-.1.2-.2.2-.4 0-.1 0-.3-.1-.4l-70.1-69.1c-.1-.2-.2-.2-.3-.2z"/>
    <path d="M1514.1 667.5l134.2 26.3-42.1 57.6-92.1-83.9m0-.5c-.2 0-.4.1-.4.3-.1.2-.1.4.1.6l92.2 83.9c.1.1.2.1.3.1.1 0 .3-.1.4-.2l42.1-57.6c.1-.1.1-.3.1-.5s-.2-.3-.4-.3L1514.1 667c.1 0 .1 0 0 0zM1860.7 501.2l-73.1 97.9-70.1-69.1 143.2-28.8m0-.5s0 .1 0 0l-143.3 28.8c-.2 0-.3.2-.4.3-.1.2 0 .4.1.5l70.1 69.1c.1.1.2.1.4.1.1 0 .3-.1.4-.2l73.1-97.9c.1-.2.1-.4 0-.6 0 0-.2-.1-.4-.1z"/>
    <path d="M1787.6 599.2l54.1 62.6-193.3 32.1 139.2-94.7m0-.5c-.1 0-.2 0-.3.1l-139.2 94.6c-.2.1-.3.4-.2.6.1.2.3.3.5.3h.1l193.3-32.1c.2 0 .3-.2.4-.3.1-.2 0-.4-.1-.5l-54.1-62.6c-.1-.1-.3-.1-.4-.1zM1606.3 751.4l42.1 184.4-199.4-96.3 157.3-88.1m0-.5c-.1 0-.2 0-.2.1l-157.3 88.1c-.2.1-.3.3-.3.5s.1.4.3.4l199.3 96.3h.2c.1 0 .2 0 .3-.1.2-.1.2-.3.2-.5l-42.1-184.4c0-.2-.1-.3-.3-.3 0 0 0-.1-.1-.1z"/>
    <path d="M1841.7 661.7l-129.2 106.2-64.1-74.1 193.3-32.1m0-.5s-.1 0 0 0l-193.4 32.1c-.2 0-.3.2-.4.3-.1.2 0 .4.1.5l64.1 74.1c.1.1.2.2.4.2.1 0 .2 0 .3-.1L1842 662.1c.2-.1.2-.4.1-.6 0-.1-.2-.3-.4-.3zM1449 839.5l74.1 136.6-60.7 24-13.4-160.6m0-.5h-.1c-.2.1-.4.3-.4.5l13.4 160.6c0 .2.1.3.2.4.1 0 .2.1.3.1h.2l60.7-24 .3-.3v-.4l-74.1-136.6c-.1-.2-.3-.3-.5-.3zM2020 444.5v164.6l-159.3-107.8 159.3-56.8m0-.5h-.2l-159.3 56.8c-.2.1-.3.2-.3.4s.1.4.2.5l159.3 107.8c.1.1.2.1.3.1.1 0 .2 0 .2-.1.2-.1.3-.3.3-.4V444.5c0-.2-.1-.3-.2-.4-.1-.1-.2-.1-.3-.1z"/>
    <path d="M1981.9 372.4l38.1 72.1-216.4-19.5 178.3-52.6m0-.5h-.1l-178.3 52.7c-.2.1-.4.3-.4.5s.2.4.5.4L2020 445c.2 0 .3-.1.4-.2.1-.2.1-.3 0-.5l-38.1-72.1c0-.2-.2-.3-.4-.3zM1860.7 501.2l-19 160.5-54.1-62.6 73.1-97.9m0-.5c-.2 0-.3.1-.4.2l-73.1 97.9c-.1.2-.1.4 0 .6l54.1 62.6c.1.1.2.2.4.2h.1c.2-.1.3-.2.3-.4l19-160.5c0-.2-.1-.4-.3-.5 0 0 0-.1-.1-.1z"/>
    <path d="M1860.7 501.2L2020 609.1l-178.3 52.7 19-160.6m0-.5h-.2c-.2.1-.3.2-.3.4l-19 160.5c0 .2 0 .3.2.4.1.1.2.1.3.1h.1l178.3-52.7c.2-.1.3-.2.4-.4 0-.2-.1-.4-.2-.5L1861 500.8c-.1 0-.2-.1-.3-.1zM1449 839.5l199.3 96.3-125.2 40.3-74.1-136.6m0-.5c-.1 0-.3.1-.4.2-.2.2-.2.4-.1.6l74.1 136.6c.1.2.3.3.4.3h.2l125.2-40.3c.2-.1.3-.2.3-.4s-.1-.4-.3-.5l-199.3-96.3c.1-.2 0-.2-.1-.2zM1648.4 693.8l64.1 74.1-106.2-16.5 42.1-57.6m0-.5s-.1 0 0 0c-.2 0-.3.1-.4.2l-42.1 57.6c-.1.1-.1.3-.1.5s.2.3.4.3l106.2 16.5h.1c.2 0 .3-.1.4-.3.1-.2.1-.4-.1-.6l-64.1-74.1c-.1 0-.2-.1-.3-.1z"/>
    <path d="M1606.3 751.4l106.2 16.5-64.1 167.9-42.1-184.4m0-.5c-.1 0-.3.1-.4.2-.1.1-.2.3-.1.5l42.1 184.4c0 .2.2.4.5.4.2 0 .4-.1.5-.3l64.1-167.9c.1-.1 0-.3 0-.4-.1-.1-.2-.2-.4-.2l-106.3-16.7zM2020 609.1l12 179.4-190.3-126.7 178.3-52.7m0-.5h-.1l-178.3 52.7c-.2.1-.3.2-.4.4 0 .2.1.4.2.5l190.3 126.7c.1.1.2.1.3.1.1 0 .2 0 .3-.1.2-.1.3-.3.2-.5l-12-179.4c0-.2-.1-.3-.2-.4h-.3z"/>
    <path d="M1841.7 661.7L2032 788.5l-150.8 127.7-39.5-254.5m0-.5c-.1 0-.2 0-.3.1-.2.1-.3.3-.2.5l39.6 254.4c0 .2.2.3.3.4h.2c.1 0 .2 0 .3-.1l150.8-127.7c.1-.1.2-.3.2-.4 0-.2-.1-.3-.2-.4L1842 661.3c-.1 0-.2-.1-.3-.1z"/>
    <path d="M1841.7 661.7l39.6 254.4-168.8-148.2 129.2-106.2m0-.5c-.1 0-.2 0-.3.1l-129.2 106.2c-.1.1-.2.2-.2.4 0 .1.1.3.2.4L1881 916.5c.1.1.2.1.3.1.1 0 .2 0 .2-.1.2-.1.3-.3.3-.5l-39.6-254.4c0-.2-.1-.3-.3-.4h-.2z"/>
    <path d="M1712.5 767.9l168.8 148.2-232.9 19.7 64.1-167.9m0-.5h-.1c-.2 0-.3.2-.3.3L1648 935.6c-.1.2 0 .3.1.5.1.1.2.2.4.2l232.9-19.7c.2 0 .4-.2.4-.3s0-.4-.1-.5l-168.8-148.2c-.2-.2-.3-.2-.4-.2zM2020 609.1l124.2 21.4-112.2 158-12-179.4m0-.5c-.1 0-.2 0-.3.1-.1.1-.2.3-.2.4l12 179.4c0 .2.2.4.4.4h.1c.2 0 .3-.1.4-.2l112.2-158c.1-.1.1-.3.1-.5-.1-.2-.2-.3-.4-.3L2020 608.6c.1 0 0 0 0 0z"/>
    <path d="M2144.2 630.5l78.1 120.2-190.3 37.8 112.2-158m0-.5c-.2 0-.3.1-.4.2l-112.2 158c-.1.2-.1.4 0 .6.1.1.3.2.4.2h.1l190.3-37.9c.2 0 .3-.1.4-.3.1-.2 0-.3 0-.5l-78.1-120.2c-.2 0-.3-.1-.5-.1z"/>
    <path d="M2032 788.5l-21 137.9-129.7-10.3L2032 788.5m0-.5c-.1 0-.2 0-.3.1l-150.8 127.7c-.2.1-.2.3-.2.5.1.2.2.3.4.3l129.7 10.3c.2 0 .5-.2.5-.4l21-137.9c0-.2-.1-.4-.2-.5.1-.1 0-.1-.1-.1zM2260.5 602.5l141.1 81.5-257.4-53.5 116.3-28m0-.5h-.1l-116.3 28c-.2.1-.4.3-.4.5s.2.4.4.5l257.4 53.5h.1c.2 0 .4-.1.5-.3.1-.2 0-.5-.2-.6l-141.1-81.5c-.1-.1-.2-.1-.3-.1z"/>
    <path d="M2379.7 563.7l21.9 120.3-141.1-81.5 119.2-38.8m0-.5h-.2L2260.3 602c-.2.1-.3.2-.3.4s.1.4.2.5l141.1 81.5c.1 0 .2.1.2.1.1 0 .2 0 .3-.1.2-.1.2-.3.2-.5l-21.9-120.3c0-.1-.1-.3-.2-.3 0-.1-.1-.1-.2-.1z"/>
    <path d="M2144.2 630.5l257.4 53.5-179.3 66.7-78.1-120.2m0-.5c-.2 0-.3.1-.4.2-.1.2-.1.4 0 .6l78.1 120.2c.1.1.3.2.4.2h.2l179.3-66.7c.2-.1.3-.3.3-.5s-.2-.4-.4-.5L2144.3 630h-.1zM2032 788.5l95.2 179.5-116.2-41.6 21-137.9m0-.5c-.3 0-.5.2-.5.4l-21 137.9c0 .2.1.5.3.5l116.2 41.6h.2c.1 0 .3-.1.4-.2.1-.2.2-.4.1-.6l-95.2-179.5c-.1 0-.3-.1-.5-.1z"/>
    <path d="M2222.3 750.6L2127.2 968 2032 788.5l190.3-37.9m0-.5L2031.9 788c-.2 0-.3.1-.4.3-.1.1-.1.3 0 .4l95.2 179.5c.1.2.3.3.4.3.2 0 .4-.1.4-.3l95.2-217.4c.1-.2 0-.4-.1-.5 0-.1-.1-.2-.3-.2zM2462.8 535l-61.1 149-21.9-120.3 83-28.7m0-.5h-.2l-83 28.7c-.2.1-.4.3-.3.6l21.9 120.3c0 .2.2.4.4.4h.1c.2 0 .4-.1.5-.3l61.1-149c.1-.2 0-.4-.1-.5-.2-.2-.3-.2-.4-.2z"/>
    <path d="M2462.8 535l78.1 135-139.2 14 61.1-149m0-.5c-.1 0-.1 0 0 0-.2 0-.4.1-.5.3l-61.1 149c-.1.2 0 .3.1.5.1.1.2.2.4.2l139.2-14c.2 0 .3-.1.4-.3.1-.2.1-.3 0-.5l-78.1-135c-.1-.1-.3-.2-.4-.2zM2222.3 750.6l61.1 185.2-156.2 32.2 95.1-217.4m0-.5c-.2 0-.4.1-.5.3l-95.2 217.4c-.1.2 0 .4.1.5.1.1.2.2.4.2h.1l156.3-32.2c.1 0 .3-.1.3-.2.1-.1.1-.3 0-.4l-61.1-185.2c.1-.2-.1-.4-.4-.4.1 0 0 0 0 0z"/>
    <path d="M2401.6 684l-29 168.7-150.3-102.1 179.3-66.6m0-.5h-.2l-179.3 66.7c-.2.1-.3.2-.3.4s.1.4.2.5l150.3 102.1c.1.1.2.1.3.1h.2c.2-.1.3-.2.3-.4l29-168.7c0-.2 0-.4-.2-.5 0-.2-.1-.2-.3-.2z"/>
    <path d="M2222.3 750.6l150.3 102.1-89.2 83.1-61.1-185.2m0-.5c-.1 0-.2 0-.3.1-.2.1-.2.4-.2.6L2283 936c.1.2.2.3.4.3h.1c.1 0 .2 0 .3-.1l89.2-83.1c.1-.1.2-.3.2-.4 0-.2-.1-.3-.2-.4l-150.3-102.1c-.2 0-.3-.1-.4-.1z"/>
    <path d="M2401.6 684l57.1 109.5-86.1 59.3 29-168.8m0-.5c-.3 0-.5.2-.5.4L2372 852.6c0 .2.1.4.2.5.1.1.2.1.3.1.1 0 .2 0 .3-.1l86.1-59.3c.2-.1.3-.4.2-.6L2402 683.7c0-.1-.2-.2-.4-.2z"/>
    <path d="M2540.9 670l-82.1 123.5-57.2-109.5 139.3-14m0-.5l-139.3 14c-.2 0-.3.1-.4.3-.1.1-.1.3 0 .5l57.1 109.5c.1.2.2.3.4.3s.3-.1.4-.2l82.1-123.5c.1-.2.1-.4 0-.5 0-.3-.1-.4-.3-.4zM2372.6 852.7l85.2 147.5-174.3-64.3 89.1-83.2m0-.5c-.1 0-.2 0-.3.1l-89.2 83.1c-.1.1-.2.3-.1.5s.2.3.3.4l174.3 64.3h.2c.1 0 .3-.1.4-.2.1-.2.2-.4 0-.6L2373 852.4c0-.1-.2-.2-.4-.2z"/>
    <path d="M2458.7 793.4l-1 206.7-85.2-147.5 86.2-59.2m0-.5c-.1 0-.2 0-.3.1l-86.1 59.3c-.2.1-.3.4-.1.7l85.2 147.5c.1.2.3.2.4.2h.1c.2-.1.4-.3.4-.5l1-206.7c0-.2-.1-.4-.3-.4-.1-.2-.2-.2-.3-.2zM2309.5 366.6l180.3 72.4-141.5 45.6-38.8-118m0-.5c-.1 0-.2 0-.3.1-.1.1-.2.3-.1.5l38.8 118c.1.2.3.3.5.3h.2l141.5-45.6c.2-.1.3-.2.3-.5 0-.2-.1-.4-.3-.5L2309.8 366c-.2.1-.2.1-.3.1z"/>
    <path d="M2516.8 255.5l-27 183.5-180.3-72.4 207.3-111.1m0-.5c-.1 0-.2 0-.2.1l-207.4 111.1c-.2.1-.3.3-.3.5s.1.4.3.4l180.3 72.4h.2c.1 0 .2 0 .2-.1.1-.1.2-.2.2-.4l27-183.5c0-.2-.1-.4-.2-.5h-.1z"/>
    <path d="M2309.5 366.6l38.8 118-104 22.7 65.2-140.7m0-.5c-.2 0-.4.1-.5.3l-65.1 140.7c-.1.2-.1.4.1.5.1.1.2.2.4.2h.1l104-22.7c.1 0 .3-.1.3-.2.1-.1.1-.3 0-.4l-38.8-118c-.1-.2-.3-.4-.5-.4z"/>
    <path d="M2374.6 194.6l142.2 60.9-207.4 111.1 65.2-172m0-.5h-.2l-.3.3-65.1 172c-.1.2 0 .4.1.6.1.1.2.1.3.1.1 0 .2 0 .2-.1L2517 255.9c.2-.1.3-.3.3-.5s-.1-.4-.3-.4l-142.2-60.9h-.2z"/>
    <path d="M2175.3 340.3l134.2 26.3-65.1 140.7-69.1-167m0-.5c-.1 0-.3.1-.4.2-.1.1-.1.3-.1.5l69.1 167.1c.1.2.3.3.5.3s.4-.1.5-.3l65.1-140.7c.1-.1.1-.3 0-.4l-.3-.3-134.4-26.4z"/>
    <path d="M2175.3 340.3l69.1 167.1-138.2-3.3 69.1-163.8m0-.5c-.2 0-.4.1-.5.3l-69.1 163.8c-.1.2 0 .3 0 .5s.2.2.4.2l138.2 3.3c.2 0 .3-.1.4-.2.1-.1.1-.3 0-.5l-69.1-167.1c0-.2-.1-.3-.3-.3zM2591 168.3l-74.1 87.2-142.2-60.9 216.3-26.3m0-.5s-.1 0 0 0l-216.4 26.3c-.2 0-.4.2-.4.4s.1.4.3.5l142.2 60.9h.2c.1 0 .3-.1.4-.2l74.1-87.2c.1-.2.2-.4.1-.6-.2 0-.3-.1-.5-.1z"/>
    <path d="M2471.6 72.2l119.4 96.1-216.4 26.3 97-122.4m0-.5c-.2 0-.3.1-.4.2l-97 122.5c-.1.2-.1.4 0 .6.1.2.3.3.4.3h.1l216.4-26.3c.2 0 .4-.2.4-.4.1-.2 0-.4-.2-.5L2471.9 72c-.1-.3-.2-.3-.3-.3z"/>
    <path d="M2374.6 194.6l-65.1 172-92.2-83.9 157.3-88.1m0-.5c-.1 0-.2 0-.2.1l-157.3 88.1c-.1.1-.2.2-.3.4 0 .2 0 .3.2.4l92.2 83.9c.1.1.2.1.3.1h.1c.2 0 .3-.2.4-.3l65.1-172c.1-.2 0-.4-.1-.6-.2-.1-.3-.1-.4-.1zM2175.3 340.3l-69.1 163.8-86.1-59.6 155.2-104.2m0-.5c-.1 0-.2 0-.3.1L2019.7 444c-.1.1-.2.2-.2.4s.1.3.2.4l86.1 59.6c.1.1.2.1.3.1h.1c.1 0 .3-.1.3-.3l69.1-163.8c.1-.2 0-.4-.1-.6h-.2z"/>
    <path d="M2217.3 282.7l92.2 83.9-134.2-26.3 42-57.6m0-.5c-.2 0-.3.1-.4.2l-42.1 57.6c-.1.1-.1.3-.1.5s.2.3.4.3l134.2 26.3h.1c.2 0 .4-.1.4-.3.1-.2.1-.4-.1-.6l-92.2-83.9c.1-.1 0-.1-.2-.1z"/>
    <path d="M2175.3 340.3L2020 444.5l-38.1-72.1 193.4-32.1m0-.5c-.1 0-.1 0 0 0l-193.4 32.1c-.2 0-.3.1-.4.3s-.1.3 0 .5l38.1 72.1.3.3h.1c.1 0 .2 0 .3-.1l155.3-104.2c.2-.1.3-.4.2-.6-.2-.3-.3-.4-.5-.4zM2180.3 160l194.3 34.6-157.3 88.1-37-122.7m0-.5c-.1 0-.3.1-.4.2-.1.1-.2.3-.1.5l37.1 122.6c0 .1.2.3.3.3h.2c.1 0 .2 0 .2-.1l157.3-88.1c.2-.1.3-.3.2-.5 0-.2-.2-.4-.4-.4l-194.4-34.5z"/>
    <path d="M2111.2 266.2l64.1 74.1-193.3 32.1 129.2-106.2m0-.5c-.1 0-.2 0-.3.1L1981.6 372c-.2.1-.2.4-.1.6.1.2.3.3.5.3h.1l193.3-32.1c.2 0 .3-.2.4-.3.1-.2 0-.4-.1-.5l-64.1-74.1c-.2-.1-.3-.2-.4-.2zM2300.5 58l171.1 14.2-97 122.5L2300.5 58m0-.5c-.2 0-.3.1-.4.2-.1.2-.1.4 0 .5l74.1 136.6c.1.1.2.2.4.3.2 0 .3-.1.4-.2l97-122.5c.1-.1.1-.3.1-.5-.1-.2-.2-.3-.4-.3l-171.2-14.1z"/>
    <path d="M2300.5 58l74.1 136.6-194.3-34.6 120.2-102m0-.5c-.1 0-.2 0-.3.1L2180 159.7c-.1.1-.2.3-.2.5s.2.3.4.4l194.3 34.6h.1c.2 0 .3-.1.4-.2.1-.2.1-.4 0-.5l-74.1-136.6c-.1-.3-.2-.4-.4-.4zM2111.2 266.2l106.2 16.5-42.1 57.6-64.1-74.1m0-.5c-.2 0-.3.1-.4.3-.1.2-.1.4.1.6l64.1 74.1c.1.1.2.2.4.2s.3-.1.4-.2l42.1-57.6c.1-.1.1-.3.1-.5s-.2-.3-.4-.3l-106.4-16.6z"/>
    <path d="M2180.3 160l37.1 122.6-106.2-16.5 69.1-106.1m0-.5c-.2 0-.3.1-.4.2l-69.1 106.2c-.1.1-.1.3 0 .5s.2.3.4.3l106.2 16.5h.1c.1 0 .3-.1.4-.2.1-.1.2-.3.1-.5l-37.1-122.6c-.2-.2-.4-.3-.6-.4zM2462.8 1.8l8.9 70.3L2300.5 58l162.3-56.2m0-.5h-.2l-162.3 56.1c-.2.1-.4.3-.3.5s.2.4.5.4l171.1 14.2c.1 0 .3-.1.4-.2.1-.1.2-.3.1-.4l-8.9-70.3c0-.1-.1-.3-.2-.4-.1.2-.2.1-.2.1z"/>
    <path d="M2183.3 48.4l117.2 9.5L2180.3 160l3-111.6m0-.5c-.1 0-.2 0-.3.1-.1.1-.2.2-.2.4l-3 111.6c0 .2.1.4.3.5h.2c.1 0 .2 0 .3-.1l120.2-102.1c.2-.1.2-.3.2-.5-.1-.2-.2-.3-.4-.3l-117.3-9.6zM1791.6 245.6l190.3 126.7-178.3 52.7-12-179.4m0-.5c-.1 0-.2 0-.3.1-.2.1-.3.3-.2.5l12 179.4c0 .2.1.3.2.4.1.1.2.1.3.1h.1l178.3-52.7c.2-.1.3-.2.4-.4 0-.2-.1-.4-.2-.5l-190.3-126.7c-.1-.1-.2-.2-.3-.2z"/>
    <path d="M1970.9 167.4l11 204.9-190.3-126.7 179.3-78.2m0-.5h-.2l-179.3 78.2c-.2.1-.3.2-.3.4s.1.4.2.5l190.3 126.7c.1.1.2.1.3.1.1 0 .2 0 .2-.1.2-.1.3-.3.3-.5l-11-204.9c0-.2-.1-.3-.2-.4-.1.1-.2 0-.3 0z"/>
    <path d="M1970.9 167.4l140.2 98.8-129.2 106.2-11-205m0-.5c-.1 0-.2 0-.2.1-.2.1-.3.3-.3.5l11 204.9c0 .2.1.4.3.4h.2c.1 0 .2 0 .3-.1l129.2-106.2c.1-.1.2-.2.2-.4s-.1-.3-.2-.4L1971.2 167c-.1 0-.2-.1-.3-.1z"/>
    <path d="M2180.3 160l-69.1 106.2-140.2-98.8 209.3-7.4m0-.5l-209.4 7.4c-.2 0-.4.2-.5.4-.1.2 0 .4.2.6l140.2 98.8c.1.1.2.1.3.1h.1c.1 0 .2-.1.3-.2l69.1-106.2c.1-.2.1-.4 0-.5 0-.3-.2-.4-.3-.4z"/>
    <path d="M2100.1 87.6l80.1 72.4-209.4 7.4 129.3-79.8m0-.5c-.1 0-.2 0-.3.1L1970.6 167c-.2.1-.3.4-.2.6.1.2.3.4.5.4l209.4-7.4c.2 0 .4-.1.5-.3s0-.4-.1-.5l-80.1-72.4c-.2-.2-.3-.3-.5-.3z"/>
    <path d="M2183.3 48.4l-3 111.6-80.1-72.4 83.1-39.2m0-.5h-.2L2100 87.1c-.2.1-.3.2-.3.4s0 .3.2.4l80.1 72.4c.1.1.2.1.3.1h.2c.2-.1.3-.3.3-.4l3-111.6c0-.2-.1-.3-.2-.4-.1 0-.2-.1-.3-.1zM1791.6 245.6l12 179.4-124.2-21.4 112.2-158m0-.5c-.2 0-.3.1-.4.2l-112.2 158c-.1.1-.1.3-.1.5.1.2.2.3.4.3l124.2 21.4h.1c.1 0 .2 0 .3-.1.1-.1.2-.3.2-.4l-12-179.4c0-.2-.2-.4-.4-.4 0-.1 0-.1-.1-.1z"/>
    <path d="M1791.6 245.6l-112.2 158-78.1-120.2 190.3-37.8m0-.5s-.1 0 0 0L1601.2 283c-.2 0-.3.1-.4.3s0 .3 0 .5l78.1 120.2c.1.1.2.2.4.2s.3-.1.4-.2l112.2-158c.1-.2.1-.4 0-.6 0-.2-.1-.3-.3-.3z"/>
    <path d="M1803.6 69.2l167.3 98.3-179.3 78.2 12-176.5m0-.5c-.1 0-.2 0-.2.1-.2.1-.3.2-.3.4l-12 176.4c0 .2.1.3.2.4.1.1.2.1.3.1h.2l179.3-78.2c.2-.1.3-.2.3-.4s-.1-.4-.2-.5l-167.3-98.3h-.3zM1422 350.2l257.4 53.5-65.3 56L1422 350.2m0-.5c-.2 0-.4.1-.5.3-.1.2 0 .5.2.6l192.1 109.5c.1 0 .2.1.2.1.1 0 .2 0 .3-.1l65.3-56c.1-.1.2-.3.2-.5s-.2-.3-.4-.4L1422 349.7z"/>
    <path d="M1422 350.2l192.1 109.5-160.7 27.1-31.4-136.6m0-.5c-.1 0-.2 0-.3.1-.2.1-.2.3-.2.5l31.4 136.6c.1.2.3.4.5.4h.1l160.7-27.1c.2 0 .4-.2.4-.4s-.1-.4-.2-.5l-192.1-109.5c-.2-.1-.2-.1-.3-.1zM1921.8 36.6l178.3 51-129.2 79.8-49.1-130.8m0-.5c-.1 0-.3.1-.4.2-.1.1-.2.3-.1.5l49.1 130.9.3.3h.2c.1 0 .2 0 .3-.1L2100.4 88c.2-.1.3-.3.2-.5s-.2-.4-.4-.4l-178.3-51h-.1z"/>
    <path d="M1601.3 283.5l78.1 120.2-257.4-53.5 179.3-66.7m0-.5h-.2l-179.3 66.7c-.2.1-.3.3-.3.5s.2.4.4.5l257.4 53.5h.1c.2 0 .3-.1.4-.2.1-.2.1-.4 0-.6l-78.1-120.2c-.1-.1-.3-.2-.4-.2zM1921.8 36.6l49.1 130.9-167.3-98.3 118.2-32.6m0-.5h-.1l-118.2 32.6c-.2.1-.3.2-.4.4s.1.4.2.5l167.3 98.3c.1 0 .2.1.3.1.1 0 .2 0 .3-.1.2-.1.2-.4.1-.6l-49.1-130.9c0-.2-.2-.3-.4-.3z"/>
    <path d="M1803.6 69.2l-12 176.4-112.2-147.3 124.2-29.1m0-.5h-.1l-124.2 29.1c-.2 0-.3.2-.4.3-.1.2 0 .3.1.5l112.2 147.3c.1.1.2.2.4.2h.1c.2-.1.3-.2.4-.4l12-176.4c0-.2-.1-.3-.2-.4 0-.2-.2-.2-.3-.2z"/>
    <path d="M1679.4 98.3l112.2 147.3-190.3 37.9 78.1-185.2m0-.5c-.2 0-.4.1-.5.3l-78.1 185.2c-.1.2 0 .4.1.5.1.1.2.2.4.2h.1l190.3-37.9c.2 0 .3-.2.4-.3.1-.2 0-.3-.1-.5L1679.8 98c-.1-.1-.2-.2-.4-.2z"/>
    <path d="M1679.4 98.3l-78.1 185.2-61.1-185.2h139.2m0-.5h-139.2c-.2 0-.3.1-.4.2s-.1.3-.1.4l61.1 185.2c.1.2.2.3.5.3.2 0 .4-.1.5-.3l78.1-185.2c.1-.2 0-.3 0-.5s-.3-.1-.5-.1z"/>
    <path d="M1451 181.4l150.3 102.1-179.3 66.7 29-168.8m0-.5h-.2c-.2.1-.3.2-.3.4l-29 168.7c0 .2 0 .4.2.5.1.1.2.1.3.1h.2l179.3-66.7c.2-.1.3-.2.3-.4s-.1-.4-.2-.5l-150.3-102c-.1 0-.2-.1-.3-.1z"/>
    <path d="M1540.2 98.3l61.1 185.2L1451 181.4l89.2-83.1m0-.5c-.1 0-.2 0-.3.1l-89.2 83.1c-.1.1-.2.3-.2.4 0 .2.1.3.2.4L1601 283.9c.1.1.2.1.3.1.1 0 .2 0 .3-.1.2-.1.2-.4.2-.6l-61.1-185.2c-.1-.2-.2-.3-.4-.3h-.1z"/>
    <path fill="none" stroke="#000" stroke-width=".5" stroke-linecap="round" stroke-linejoin="round" d="M1679.4 98.3l124.2-29.1M1540.2 98.3h139.2"/>
    <path d="M1462.4 6.2l77.7 92.1-89.2 83.1 11.5-175.2m0-.5h-.2c-.2.1-.3.2-.3.4l-11.4 175.3c0 .2.1.4.3.5h.2c.1 0 .2 0 .3-.1l89.2-83.1c.2-.2.2-.5 0-.7l-77.7-92.1c-.1-.2-.2-.2-.4-.2zM1803.6 425l216.4 19.4-159.3 56.8-57.1-76.2m0-.5c-.2 0-.3.1-.4.3-.1.2-.1.4 0 .5l57.1 76.2c.1.1.2.2.4.2h.2l159.3-56.8c.2-.1.4-.3.3-.5s-.2-.4-.5-.4l-216.4-19.5c.1 0 0 0 0 0z"/>
    <path d="M1803.6 425l57.1 76.2-143.2 28.8 86.1-105m0-.5c-.1 0-.3.1-.4.2l-86.1 105c-.1.2-.2.4 0 .6.1.2.3.2.4.2h.1l143.2-28.8c.2 0 .3-.2.4-.3.1-.2 0-.3-.1-.5l-57.1-76.2c-.1-.1-.2-.2-.4-.2z"/>
    <path d="M1803.6 425l-86.1 105-103.4-70.4 189.5-34.6m0-.5L1614 459.2c-.2 0-.4.2-.4.4s0 .4.2.5l103.4 70.4c.1.1.2.1.3.1.1 0 .3-.1.4-.2l86.1-105c.1-.2.2-.4 0-.6 0-.2-.2-.3-.4-.3z"/>
    <path d="M1679.4 403.6l124.2 21.4-189.5 34.6 65.3-56m0-.5c-.1 0-.2 0-.3.1l-65.3 56c-.2.1-.2.4-.1.6.1.2.3.3.5.3h.1l189.5-34.6c.2 0 .4-.3.4-.5s-.2-.4-.4-.5l-124.4-21.4c.1 0 0 0 0 0z"/>
    <path d="M1614.1 459.7l103.4 70.4-138.2-3.3 34.8-67.1m0-.5h-.1c-.1 0-.3.1-.3.3l-34.8 67.1c-.1.2-.1.3 0 .5s.2.2.4.2l138.2 3.3c.2 0 .4-.1.5-.3.1-.2 0-.4-.2-.6l-103.4-70.4c-.1-.1-.2-.1-.3-.1z"/>
    <path d="M1614.1 459.7l-34.8 67.1-125.8-40 160.6-27.1m0-.5s-.1 0 0 0l-160.7 27.1c-.2 0-.4.2-.4.5 0 .2.1.4.3.5l125.8 40h.2c.2 0 .4-.1.4-.3l34.8-67.1c.1-.2.1-.4 0-.5-.1-.2-.3-.2-.4-.2z"/>
    <path d="M1453.4 486.8l125.8 40-94.8 50.2-31-90.2m0-.5c-.1 0-.3.1-.4.2-.1.1-.2.3-.1.5l31 90.2c0 .1.2.2.3.3h.2c.1 0 .2 0 .2-.1l94.8-50.2c.2-.1.3-.3.3-.5s-.2-.4-.3-.4l-125.8-40h-.2z"/>
    <path d="M1453.4 486.8l31 90.2-150.6 18.1 119.6-108.3m0-.5c-.1 0-.2 0-.3.1l-119.6 108.3c-.2.1-.2.4-.1.6.1.2.3.3.5.3h.1l150.6-18.1c.2 0 .3-.1.4-.2s.1-.3 0-.4l-31-90.2c-.1-.2-.2-.3-.3-.3-.2-.1-.2-.1-.3-.1zM2020 444.5l86.1 59.6-86.1 105V444.5m0-.5c-.1 0-.2 0-.2.1-.2.1-.3.3-.3.4v164.6c0 .2.1.4.3.5h.2c.1 0 .3-.1.4-.2l86.1-105c.1-.1.1-.2.1-.4s-.1-.3-.2-.3l-86.1-59.6c-.1-.1-.2-.1-.3-.1z"/>
    <path d="M2106.1 504.1l38.1 126.4-124.2-21.4 86.1-105m0-.5c-.1 0-.3.1-.4.2l-86.1 105c-.1.1-.1.3-.1.5.1.2.2.3.4.3l124.2 21.4h.1c.1 0 .3-.1.4-.2.1-.1.2-.3.1-.5l-38.1-126.4c0-.2-.2-.3-.5-.3.1 0 .1 0 0 0z"/>
    <path d="M2106.1 504.1l154.4 98.4-116.3 28-38.1-126.4m0-.5c-.1 0-.2 0-.3.1-.2.1-.2.3-.2.5l38.1 126.4c.1.2.3.4.5.4h.1l116.3-28c.2 0 .3-.2.4-.4 0-.2-.1-.4-.2-.5l-154.4-98.4c-.1-.1-.2-.1-.3-.1z"/>
    <path d="M2106.1 504.1l138.2 3.3 16.1 95.1-154.3-98.4m0-.5c-.2 0-.4.1-.5.4-.1.2 0 .4.2.6l154.4 98.4c.1.1.2.1.3.1.1 0 .2 0 .3-.1.2-.1.2-.3.2-.5l-16.1-95.1c0-.2-.2-.4-.5-.4l-138.3-3.4zM2489.8 439l-27 96-114.4-50.3 141.4-45.7m0-.5h-.2l-141.5 45.6c-.2.1-.3.2-.3.5 0 .2.1.4.3.5l114.4 50.3h.4l.3-.3 27-96c0-.2 0-.4-.1-.5-.1 0-.2-.1-.3-.1z"/>
    <path d="M2348.3 484.7l114.4 50.3-83 28.7-31.4-79m0-.5c-.1 0-.3 0-.3.1-.1.1-.2.4-.1.5l31.4 79c.1.2.3.3.5.3h.2l83-28.7c.2-.1.3-.2.3-.5 0-.2-.1-.4-.3-.5l-114.4-50.3c-.1.1-.2.1-.3.1z"/>
    <path d="M2244.4 507.3l135.4 56.3-119.2 38.8-16.2-95.1m0-.5c-.1 0-.2 0-.3.1-.1.1-.2.3-.2.5l16.1 95.1c0 .1.1.3.2.3s.2.1.3.1h.2l119.2-38.8c.2-.1.3-.2.3-.5 0-.2-.1-.4-.3-.5l-135.4-56.3c0 .1-.1 0-.1 0z"/>
    <path d="M2348.3 484.7l31.4 79-135.4-56.3 104-22.7m0-.5h-.1l-104 22.7c-.2 0-.4.2-.4.4s.1.4.3.5l135.4 56.3h.2c.1 0 .3 0 .4-.1.1-.1.2-.4.1-.5l-31.4-79c-.1-.2-.3-.3-.5-.3z"/>
  </g>
</svg>
