<svg xmlns="http://www.w3.org/2000/svg" viewBox="0 0 1000 1000" preserveAspectRatio="none">
  <pattern x="-1460" y="1000" width="72" height="72" patternUnits="userSpaceOnUse" id="b" viewBox="20 -72 72 72" overflow="visible" >
    <g fill="none">
      <path d="M20 0v-72h72V0z"/>
      <path stroke="#231F20" stroke-width="2.88" d="M19.75-3.6h72.5M19.75-18h72.5M19.75-32.4h72.5M19.75-46.8h72.5M19.75-61.2h72.5M0-61.2h14M19.75-10.8h72.5M19.75-25.2h72.5M19.75-39.6h72.5M19.75-54h72.5M19.75-68.4h72.5M0-68.4h14"/>
    </g>
  </pattern>
  <pattern x="-1460" y="1000" width="72" height="72" patternUnits="userSpaceOnUse" id="a" viewBox="20 -72 72 72" overflow="visible">
    <g fill="none">
      <path d="M20 0v-72h72V0z"/>
      <path stroke="#231F20" stroke-width="5.76" d="M19.75-3.6h72.5M19.75-18h72.5M19.75-32.4h72.5M19.75-46.8h72.5M19.75-61.2h72.5M0-61.2h14M19.75-10.8h72.5M19.75-25.2h72.5M19.75-39.6h72.5M19.75-54h72.5M19.75-68.4h72.5M0-68.4h14"/>
    </g>
  </pattern>
  <g opacity=".06">
    <path opacity=".75" d="M-511.383 337.488L-481.667 428l150.592-18.085-180.308-72.427z"/>
    <path opacity=".571" d="M-304.03 226.38l-207.353 111.108 180.308 72.427 27.046-183.535z"/>
    <path opacity=".76" d="M-511.383 337.488l-65.11 140.74L-481.667 428l-29.716-90.512z"/>
    <path opacity=".429" d="M-446.272 165.476l-65.11 172.012 207.354-111.108-142.244-60.904z"/>
    <path opacity=".691" d="M-511.383 337.488l-134.23-26.336 69.12 167.075 65.11-140.74z"/>
    <path opacity=".714" d="M-645.612 311.152l-69.118 163.782 138.237 3.293-69.12-167.075z"/>
    <path opacity=".452" d="M-446.272 165.476L-603.54 253.54l92.157 83.948 65.11-172.012z"/>
    <path opacity=".738" d="M-645.612 311.152L-784.85 405.8l70.12 69.134 69.118-163.782z"/>
    <path opacity=".5" d="M-603.54 253.54l-42.072 57.612 134.23 26.336-92.157-83.948z"/>
    <path opacity=".78" d="M-784.85 405.8l-73.125 97.938 143.244-28.804-70.12-69.134z"/>
    <path opacity=".64" d="M-838.94 343.25l54.092 62.55 139.236-94.647-193.33 32.097z"/>
    <path opacity=".191" d="M-676.665 48.446l73.126 205.094 157.268-88.064-230.393-117.03z"/>
    <path opacity=".49" d="M-709.72 237.08l-129.22 106.17 193.328-32.097-64.11-74.072z"/>
    <path opacity=".048" d="M-459.693 4.834l-60.705 24.02 74.126 136.623-13.42-160.643z"/>
    <path opacity=".78" d="M-1017.245 395.924v164.604l159.27-56.79-159.27-107.814z"/>
    <path opacity=".84" d="M-1017.246 560.528l38.064 72.085 178.305-52.672-216.37-19.412z"/>
    <path opacity=".73" d="M-784.85 405.8l-54.092-62.55-19.033 160.488 73.126-97.938z"/>
    <path opacity=".7" d="M-838.94 343.25l-178.305 52.675 159.27 107.814 19.034-160.49z"/>
    <path opacity=".119" d="M-520.398 28.854l-156.267 19.592 230.393 117.03-74.126-136.622z"/>
    <path opacity=".41" d="M-603.54 253.54l-106.18-16.46 64.107 74.073 42.074-57.613z"/>
    <path opacity=".214" d="M-676.665 48.446L-709.72 237.08l106.18 16.46-73.125-205.094z"/>
    <g opacity=".5">
      <path d="M-1029.266 216.505l12.02 179.42 178.305-52.675"/>
      <path fill="url(#a)" d="M-1029.266 216.505l12.02 179.42 178.305-52.675"/>
    </g>
    <path opacity=".262" d="M-845.448 62.325l-183.817 154.18L-838.94 343.25l-6.508-280.925z"/>
    <g opacity=".286">
      <path d="M-845.448 62.325l6.507 280.925 129.22-106.17"/>
      <path fill="url(#b)" d="M-845.448 62.325l6.507 280.925 129.22-106.17"/>
    </g>
    <path opacity=".238" d="M-676.665 48.446l-168.783 13.88L-709.72 237.08l33.055-188.634z"/>
    <path opacity=".524" d="M-1029.266 216.505l-112.192 158.02 124.213 21.4-12.02-179.42z"/>
    <path opacity=".548" d="M-1029.266 216.505l-190.325 37.858 78.132 120.162 112.192-158.02z"/>
    <path opacity=".143" d="M-1008.23 37.998l-21.035 178.507 183.817-154.18-162.782-24.327z"/>
    <path opacity=".74" d="M-1141.458 374.525l-257.44-53.496 141.148 81.47 116.292-27.975z"/>
    <path opacity=".809" d="M-1398.897 321.03L-1377 441.332l119.25-38.833-141.147-81.47z"/>
    <path opacity=".64" d="M-1219.59 254.363L-1398.9 321.03l257.44 53.495-78.133-120.162z"/>
    <path opacity=".167" d="M-1008.23 37.998l-116.198 64.105 95.163 114.4L-1008.23 38z"/>
    <path opacity=".26" d="M-1124.43 102.104l-95.16 152.26 190.324-37.86-95.163-114.4z"/>
    <path opacity=".78" d="M-1398.897 321.03L-1460 469.995l83-28.663-21.897-120.304z"/>
    <path opacity=".7" d="M-1398.897 321.03l-139.238 13.99L-1460 469.995l61.103-148.967z"/>
    <path opacity=".23" d="M-1124.43 102.104l-156.266-32.92 61.104 185.18 95.163-152.26z"/>
    <path opacity=".381" d="M-1369.848 152.31l-29.05 168.72 179.307-66.667-150.258-102.054z"/>
    <path opacity=".22" d="M-1280.695 69.182l-89.152 83.126 150.257 102.054-61.105-185.18z"/>
    <path opacity=".405" d="M-1369.848 152.31l-86.146 59.255 57.097 109.464 29.05-168.72z"/>
    <path opacity=".476" d="M-1455.994 211.565l-82.142 123.454 139.238-13.99-57.096-109.465z"/>
    <path opacity=".071" d="M-1280.695 69.182l-174.343-64.348 85.19 147.475 89.153-83.128z"/>
    <path opacity=".095" d="M-1455.038 4.834l-.956 206.73 86.146-59.255-85.19-147.476z"/>
    <path opacity=".86" d="M-1306.74 638.375l-38.84-118.04-141.47 45.614 180.31 72.425z"/>
    <path opacity=".795" d="M-1514.096 749.483l207.355-111.108-180.31-72.426-27.046 183.533z"/>
    <path opacity=".85" d="M-1306.74 638.375l65.11-140.737-103.95 22.696 38.84 118.04z"/>
    <path opacity=".591" d="M-1371.852 810.387l65.11-172.012-207.354 111.108 142.244 60.904z"/>
    <path opacity=".83" d="M-1306.74 638.375l134.23 26.336-69.118-167.072-65.112 140.737z"/>
    <path opacity=".81" d="M-1172.512 664.71l69.12-163.78-138.237-3.292 69.118 167.073z"/>
    <path opacity=".341" d="M-1588.222 836.725l216.37-26.338-142.244-60.903-74.126 87.24z"/>
    <path opacity=".273" d="M-1468.855 932.837l97.004-122.45-216.37 26.338 119.365 96.112z"/>
    <path opacity=".568" d="M-1371.852 810.387l157.27-88.063-92.158-83.948-65.112 172.01z"/>
    <path opacity=".84" d="M-1172.512 664.71l155.266-104.182-86.146-59.6-69.12 163.783z"/>
    <path opacity=".64" d="M-1214.582 722.323l42.07-57.612-134.23-26.335 92.16 83.948z"/>
    <path opacity=".8" d="M-979.182 632.613l-38.064-72.085-155.266 104.183 193.33-32.097z"/>
    <path opacity=".409" d="M-1177.52 844.954l-37.062-122.63-157.27 88.062 194.332 34.568z"/>
    <path opacity=".659" d="M-1108.402 738.785l129.22-106.172-193.33 32.098 64.11 74.075z"/>
    <path opacity=".25" d="M-1468.855 932.837l171.13 14.173-74.126-136.623-97.005 122.45z"/>
    <path opacity=".227" d="M-1297.725 947.01l120.205-102.056-194.332-34.567 74.127 136.623z"/>
    <path opacity=".5" d="M-1214.582 722.323l106.18 16.462-64.11-74.074-42.07 57.613z"/>
    <path opacity=".386" d="M-1177.52 844.954l69.117-106.17-106.18-16.46 37.063 122.63z"/>
    <path opacity=".023" d="M-1460.002 1003.153l162.277-56.144-171.13-14.174 8.853 70.317z"/>
    <path opacity=".114" d="M-1297.725 947.01l117.2 43.62 3.005-145.676-120.205 102.056z"/>
    <path opacity=".75" d="M-788.857 759.36l-12.02-179.42-178.305 52.673 190.325 126.746z"/>
    <path opacity=".636" d="M-968.163 837.547l179.306-78.188-190.324-126.747 11.017 204.934z"/>
    <path opacity=".614" d="M-968.163 837.547l-11.02-204.934-129.22 106.172 140.24 98.762z"/>
    <path opacity=".364" d="M-1177.52 844.954l209.356-7.407-140.24-98.762-69.116 106.17z"/>
    <path opacity=".182" d="M-1097.383 917.38l129.22-79.833-209.356 7.407 80.137 72.425z"/>
    <path opacity=".091" d="M-1180.523 990.63l83.14-73.25-80.136-72.426-3.003 145.675z"/>
    <path opacity=".727" d="M-788.857 759.36l112.192-158.02-124.212-21.4 12.02 179.42z"/>
    <path opacity=".705" d="M-788.857 759.36l190.325-37.86-78.133-120.16-112.192 158.02z"/>
    <path opacity=".318" d="M-800.877 958.53l12.02-199.17-179.306 78.187 167.286 120.983z"/>
    <path opacity=".79" d="M-676.665 601.34l257.438 53.496-192.106-109.503-65.332 56.007z"/>
    <path opacity=".818" d="M-419.227 654.836l-31.44-136.622-160.666 27.12 192.106 109.502z"/>
    <path opacity=".159" d="M-919.078 968.406l-49.085-130.86-129.22 79.833 178.305 51.026z"/>
    <path opacity=".682" d="M-598.532 721.5l179.306-66.664-257.438-53.496 78.132 120.16z"/>
    <path opacity=".136" d="M-919.078 968.406l118.2-9.876-167.285-120.983 49.085 130.86z"/>
    <path opacity=".295" d="M-800.877 958.53l107.183-84.77-95.163-114.4-12.02 199.17z"/>
    <path opacity=".477" d="M-693.694 873.76l95.162-152.26-190.325 37.86 95.163 114.4z"/>
    <path opacity=".455" d="M-693.694 873.76l156.267 32.92-61.104-185.18-95.164 152.26z"/>
    <path opacity=".523" d="M-448.275 823.554l29.05-168.718-179.307 66.665 150.257 102.054z"/>
    <path opacity=".432" d="M-537.428 906.68l89.152-83.126L-598.533 721.5l61.105 185.18z"/>
    <path opacity=".068" d="M-693.694 873.76l-107.183 84.77"/>
    <path opacity=".045" d="M-537.428 906.68l-156.267-32.92"/>
    <path opacity=".204" d="M-537.428 906.68l77.734 92.143 11.418-175.27-89.152 83.128z"/>
    <path opacity=".82" d="M-1017.246 560.528l159.27-56.79 57.1 76.203-216.37-19.412z"/>
    <path opacity=".79" d="M-857.975 503.738l143.244-28.804-86.147 105.007-57.098-76.202z"/>
    <path opacity=".8" d="M-714.73 474.934l-86.146 105.007 189.544-34.607-103.398-70.4z"/>
    <path opacity=".84" d="M-800.877 579.94l124.212 21.4 65.332-56.008-189.544 34.61z"/>
    <path opacity=".78" d="M-576.493 478.227l-138.237-3.293 103.397 70.4 34.84-67.107z"/>
    <path opacity=".82" d="M-576.493 478.227l-34.84 67.106 160.666-27.12-125.826-39.986z"/>
    <path opacity=".84" d="M-576.493 478.227l125.826 39.987-31-90.214-94.826 50.227zM-481.667 428l31 90.214 119.592-108.3L-481.667 428z"/>
    <path opacity=".82" d="M-1103.393 500.93l86.146 59.6V395.924l-86.146 105.005z"/>
    <path opacity=".8" d="M-1141.458 374.525l38.065 126.405 86.147-105.005-124.212-21.4z"/>
    <path opacity=".82" d="M-1257.75 402.5l154.357 98.43-38.065-126.405-116.292 27.975z"/>
    <path opacity=".84" d="M-1257.75 402.5l16.12 95.138 138.237 3.292-154.357-98.43zM-1460.002 469.996l-27.047 95.953 141.47-45.616L-1460 469.996z"/>
    <path opacity=".84" d="M-1377 441.333l-83.002 28.663 114.423 50.338-31.42-79z"/>
    <path opacity=".86" d="M-1257.75 402.5L-1377 441.333l135.37 56.304-16.12-95.137z"/>
    <path opacity=".88" d="M-1377 441.333l31.42 79 103.95-22.696-135.37-56.304z"/>
  </g>
  <g opacity=".05">
    <path d="M-511.383 337.488l180.308 72.427L-481.667 428l-29.716-90.512m0-.5c-.125 0-.248.047-.342.135-.142.133-.194.336-.133.52l29.716 90.513c.067.208.26.344.475.344.02 0 .04 0 .06-.003l150.592-18.085c.227-.027.406-.205.437-.43.03-.228-.098-.445-.31-.53l-180.308-72.427c-.06-.025-.124-.037-.187-.037z"/>
    <path d="M-304.03 226.38l-27.045 183.535-180.308-72.427L-304.03 226.38m0-.5c-.08 0-.16.02-.235.06L-511.62 337.046c-.17.092-.272.274-.262.468s.133.364.312.437l180.308 72.427c.06.023.123.035.187.035.086 0 .172-.022.25-.066.132-.077.223-.21.245-.362l27.045-183.535c.028-.187-.052-.373-.207-.482-.086-.06-.186-.09-.287-.09z"/>
    <path d="M-511.383 337.488L-481.667 428l-94.826 50.227 65.11-140.74m0-.5c-.194 0-.372.113-.454.29l-65.11 140.74c-.09.195-.046.425.11.573.095.09.22.137.344.137.08 0 .16-.02.234-.058l94.827-50.228c.215-.114.316-.367.24-.598l-29.716-90.512c-.062-.195-.24-.332-.444-.343-.01-.002-.02-.002-.03-.002z"/>
    <path d="M-446.272 165.476l142.243 60.904-207.353 111.108 65.11-172.012m0-.5c-.065 0-.132.013-.194.04-.126.053-.224.155-.272.283l-65.11 172.012c-.072.195-.018.415.14.553.093.082.21.124.33.124.08 0 .16-.02.235-.06l207.354-111.108c.168-.09.27-.27.263-.463-.01-.193-.127-.363-.303-.44l-142.243-60.903c-.066-.027-.132-.04-.2-.04z"/>
    <path d="M-645.612 311.152l134.23 26.336-65.11 140.74-69.12-167.076m0-.5c-.148 0-.29.066-.387.183-.116.143-.145.338-.074.508l69.12 167.074c.075.184.252.305.45.31h.01c.195 0 .373-.114.455-.29l65.11-140.74c.065-.14.063-.3-.008-.438-.07-.138-.198-.234-.35-.264l-134.228-26.336c-.032-.005-.064-.008-.096-.008z"/>
    <path d="M-645.612 311.152l69.12 167.075-138.238-3.293 69.118-163.782m0-.5c-.2 0-.383.12-.46.306l-69.12 163.782c-.063.152-.048.327.042.466s.242.225.408.23l138.237 3.292h.012c.165 0 .32-.08.412-.217.095-.138.113-.316.05-.473l-69.12-167.075c-.077-.186-.26-.308-.46-.31h-.002zM-446.272 165.476l-65.11 172.012-92.156-83.948 157.266-88.064m0-.5c-.084 0-.168.02-.244.064l-157.267 88.063c-.14.08-.234.22-.253.38-.018.16.042.317.16.426l92.156 83.947c.094.085.214.13.337.13.04 0 .078-.004.116-.014.16-.04.293-.154.352-.31l65.11-172.012c.074-.196.018-.418-.142-.555-.092-.078-.208-.12-.325-.12z"/>
    <path d="M-645.612 311.152l-69.118 163.782-70.118-69.134 139.236-94.648m0-.5c-.098 0-.196.03-.28.086l-139.237 94.648c-.123.084-.202.22-.216.368-.014.15.04.296.147.4l70.12 69.135c.093.092.22.143.35.143.032 0 .065-.003.098-.01.162-.032.3-.143.363-.296l69.12-163.782c.085-.204.026-.44-.145-.58-.092-.075-.205-.113-.317-.113z"/>
    <path d="M-603.54 253.54l92.157 83.948-134.23-26.336 42.074-57.612m0-.5c-.016 0-.032 0-.05.002-.14.014-.27.088-.353.203l-42.072 57.612c-.102.138-.125.318-.062.477s.202.276.37.31l134.228 26.335c.033.005.066.008.098.008.187 0 .36-.104.446-.275.102-.2.057-.443-.11-.594l-92.155-83.95c-.095-.084-.215-.13-.34-.13zM-784.85 405.8l70.12 69.134-143.245 28.804 73.126-97.938m0-.5h-.037c-.144.012-.276.084-.362.2l-73.125 97.938c-.124.166-.133.39-.022.566.093.146.254.232.423.232.032 0 .065-.003.1-.01l143.243-28.804c.18-.037.326-.17.38-.347.053-.177.003-.37-.13-.5l-70.117-69.133c-.095-.09-.22-.142-.352-.142z"/>
    <path d="M-645.612 311.152L-784.85 405.8l-54.092-62.55 193.33-32.098m0-.5c-.027 0-.055.002-.082.007l-193.33 32.096c-.178.03-.326.153-.388.323-.06.17-.025.36.093.496l54.094 62.55c.098.114.237.174.378.174.098 0 .195-.028.28-.086l139.237-94.648c.193-.132.27-.38.182-.6-.077-.192-.262-.314-.464-.314zM-676.665 48.446l230.393 117.03-157.267 88.064-73.125-205.094m0-.5c-.12 0-.237.042-.33.125-.154.136-.21.352-.14.544l73.125 205.094c.05.14.157.25.295.3.057.02.116.032.176.032.086 0 .17-.02.245-.063l157.267-88.064c.16-.09.26-.262.256-.446s-.11-.352-.273-.436L-676.438 48c-.072-.036-.15-.054-.227-.054z"/>
    <path d="M-709.72 237.08l64.107 74.073-193.33 32.097 129.222-106.17m0-.5c-.113 0-.226.038-.318.115l-129.22 106.17c-.176.143-.232.386-.14.592.083.18.263.293.456.293.027 0 .055-.002.082-.007l193.33-32.097c.178-.03.326-.153.388-.323s.025-.36-.093-.497l-64.108-74.072c-.098-.115-.238-.173-.378-.173zM-459.693 4.834l13.42 160.642-74.125-136.623 60.705-24.02m0-.5c-.062 0-.125.013-.184.036l-60.705 24.02c-.134.052-.237.16-.286.293-.05.135-.038.284.03.41l74.126 136.622c.09.165.26.262.44.262.047 0 .095-.007.143-.02.228-.068.375-.286.355-.522l-13.42-160.643c-.013-.158-.1-.3-.234-.383-.08-.05-.172-.076-.263-.076zM-1017.245 395.924l159.27 107.814-159.27 56.79V395.924m0-.5c-.08 0-.16.02-.234.058-.163.087-.265.257-.265.442v164.604c0 .162.078.315.21.408.086.06.188.092.29.092.056 0 .112-.01.167-.03l159.27-56.79c.18-.062.306-.22.33-.407.022-.186-.06-.37-.217-.476l-159.27-107.814c-.084-.057-.182-.086-.28-.086z"/>
    <path d="M-1017.246 560.528l216.37 19.413-178.306 52.673-38.064-72.085m0-.5c-.167 0-.323.083-.416.223-.102.154-.112.35-.026.512l38.064 72.085c.088.167.26.267.442.267.047 0 .095-.007.142-.02l178.305-52.673c.23-.067.38-.29.356-.528-.023-.238-.213-.427-.452-.448l-216.37-19.413-.044-.002zM-838.94 343.25l54.092 62.55-73.126 97.94 19.033-160.49m0-.5c-.05 0-.1.007-.147.022-.19.058-.327.223-.35.42L-858.47 503.68c-.027.225.1.44.31.523.062.023.124.035.187.035.154 0 .304-.07.4-.2l73.126-97.94c.14-.187.132-.448-.022-.625l-54.092-62.55c-.098-.112-.237-.173-.38-.173z"/>
    <path d="M-838.94 343.25l-19.034 160.49-159.27-107.815 178.303-52.675m0-.5c-.048 0-.096.007-.143.02l-178.304 52.676c-.186.055-.323.21-.353.403s.054.38.214.49l159.27 107.814c.085.057.183.086.28.086.07 0 .143-.015.21-.045.157-.073.267-.223.287-.396l19.034-160.49c.02-.166-.045-.332-.174-.44-.09-.08-.205-.12-.32-.12zM-520.398 28.854l74.126 136.623-230.393-117.03 156.267-19.593m0-.5c-.02 0-.04 0-.062.004L-676.728 47.95c-.218.027-.393.194-.43.41-.038.216.07.432.266.532l230.393 117.03c.073.037.15.054.228.054.132 0 .262-.052.358-.15.152-.158.186-.396.08-.588l-74.125-136.623c-.087-.162-.257-.26-.438-.26zM-709.72 237.08l106.18 16.46-42.072 57.612-64.11-74.07m0-.5c-.18 0-.348.096-.437.257-.1.183-.077.41.06.568l64.11 74.072c.094.11.232.173.377.173h.02c.153-.006.294-.082.384-.205l42.075-57.612c.103-.14.124-.325.058-.486-.067-.16-.213-.276-.386-.303l-106.182-16.46c-.025-.004-.05-.006-.076-.006z"/>
    <path d="M-676.665 48.446l73.126 205.094-106.18-16.46 33.055-188.634m0-.5c-.014 0-.028 0-.042.002-.227.02-.41.188-.45.412l-33.056 188.635c-.023.132.008.27.086.378.078.11.197.182.33.203l106.182 16.46c.025.003.05.005.076.005.148 0 .29-.064.387-.18.112-.136.145-.32.085-.487L-676.194 48.28c-.072-.202-.26-.334-.47-.334zM-1029.266 216.505l190.324 126.745-178.304 52.675-12.02-179.42m0-.5c-.086 0-.173.022-.25.067-.165.095-.26.276-.25.466l12.022 179.42c.01.15.09.29.213.376.083.06.184.09.285.09.047 0 .095-.007.142-.02l178.304-52.676c.188-.055.324-.213.354-.405s-.056-.383-.217-.49l-190.324-126.746c-.085-.054-.182-.082-.28-.082z"/>
    <path d="M-845.448 62.325l6.507 280.924-190.325-126.746 183.817-154.18m0-.5c-.115 0-.23.04-.32.118l-183.818 154.18c-.12.1-.187.253-.178.41.008.158.09.302.222.39l190.324 126.744c.084.056.18.084.277.084.082 0 .165-.02.24-.062.163-.09.263-.263.26-.45l-6.508-280.924c-.005-.192-.12-.365-.294-.444-.067-.03-.136-.045-.206-.045z"/>
    <path d="M-845.448 62.325L-709.72 237.08l-129.22 106.17-6.508-280.925m0-.5c-.056 0-.112.01-.168.03-.203.07-.337.266-.332.482l6.507 280.924c.004.192.117.364.29.444.067.03.14.045.21.045.112 0 .226-.04.316-.115l129.22-106.17c.21-.17.244-.478.078-.692L-845.054 62.02c-.096-.126-.243-.195-.394-.195z"/>
    <path d="M-676.665 48.446L-709.72 237.08-845.45 62.326l168.783-13.88m0-.5c-.014 0-.027 0-.04.002l-168.784 13.88c-.182.015-.342.13-.416.297-.073.168-.05.363.063.508l135.728 174.755c.096.124.242.193.395.193.04 0 .08-.005.12-.015.192-.048.338-.204.372-.4l33.056-188.634c.027-.152-.02-.308-.123-.422-.096-.104-.23-.162-.37-.162zM-1029.266 216.505l12.02 179.42-124.212-21.4 112.192-158.02m0-.5c-.16 0-.312.076-.408.21l-112.192 158.02c-.1.14-.12.32-.055.48.065.16.207.272.376.302l124.213 21.4c.027.004.056.006.084.006.123 0 .242-.045.335-.128.113-.103.173-.252.163-.405l-12.02-179.42c-.015-.21-.16-.39-.364-.447-.045-.012-.09-.018-.136-.018z"/>
    <path d="M-1029.266 216.505l-112.192 158.02-78.133-120.162 190.324-37.858m0-.5c-.032 0-.065.003-.098.01l-190.325 37.858c-.162.032-.298.143-.362.296s-.05.327.042.466l78.133 120.162c.09.14.243.224.41.228h.01c.16 0 .313-.078.407-.21l112.192-158.02c.12-.167.124-.39.012-.562-.093-.145-.252-.23-.42-.23z"/>
    <path d="M-1008.23 37.998l162.782 24.327-183.817 154.18 21.035-178.507m0-.5c-.11 0-.216.036-.304.103-.107.084-.177.206-.193.34l-21.035 178.507c-.024.204.08.4.26.5.073.04.155.06.236.06.115 0 .23-.04.32-.118l183.818-154.18c.15-.126.213-.33.16-.52-.054-.188-.213-.33-.407-.358l-162.783-24.327c-.023-.005-.048-.007-.072-.007zM-1398.897 321.03l257.44 53.495-116.293 27.975-141.147-81.47m0-.5c-.205 0-.393.124-.468.32-.087.23.005.49.217.612l141.148 81.47c.077.045.163.068.25.068.04 0 .078-.004.117-.014l116.292-27.975c.227-.054.385-.26.382-.493-.004-.234-.17-.434-.398-.482l-257.44-53.496c-.034-.008-.068-.01-.102-.01z"/>
    <path d="M-1398.897 321.03l141.147 81.47-119.25 38.833-21.897-120.304m0-.5c-.1 0-.202.03-.288.09-.16.112-.24.307-.204.498l21.898 120.305c.025.142.112.266.235.34.08.047.167.07.256.07.05 0 .103-.007.154-.023l119.25-38.833c.188-.062.322-.227.342-.423.02-.197-.076-.387-.247-.485l-141.148-81.472c-.077-.047-.164-.07-.25-.07z"/>
    <path d="M-1219.59 254.363l78.132 120.162-257.44-53.496 179.307-66.667m0-.5c-.06 0-.118.01-.175.03l-179.307 66.667c-.21.078-.34.284-.324.506.017.222.18.407.397.452l257.44 53.496c.034.007.068.01.102.01.163 0 .318-.08.413-.218.114-.167.117-.386.006-.555l-78.132-120.16c-.094-.145-.254-.227-.42-.227zM-1008.23 37.998l-21.035 178.507-95.163-114.4 116.198-64.107m0-.5c-.083 0-.166.02-.242.062l-116.198 64.105c-.13.072-.222.2-.25.345-.028.146.012.298.107.413l95.163 114.4c.096.117.238.18.384.18.047 0 .095-.006.142-.02.192-.057.33-.223.354-.42l21.035-178.508c.022-.186-.062-.37-.218-.474-.083-.054-.18-.082-.277-.082z"/>
    <path d="M-1124.43 102.104l95.164 114.4-190.325 37.86 95.16-152.26m0-.5h-.033c-.16.012-.305.1-.39.235l-95.162 152.258c-.106.17-.1.385.012.55.095.136.25.215.412.215.03 0 .064-.003.097-.01l190.325-37.858c.173-.034.315-.157.374-.323.06-.167.026-.35-.087-.487l-95.164-114.4c-.096-.116-.237-.18-.385-.18zM-1398.897 321.03L-1377 441.332l-83.002 28.663 61.105-148.967m0-.5c-.202 0-.386.12-.463.31l-61.104 148.966c-.075.182-.036.39.1.533.095.1.227.156.362.156.055 0 .11-.01.163-.027l83.003-28.664c.233-.08.373-.32.33-.562l-21.898-120.305c-.04-.22-.22-.386-.44-.41h-.053z"/>
    <path d="M-1398.897 321.03L-1460 469.995l-78.135-134.977 139.238-13.99m0-.5h-.05l-139.238 13.99c-.17.018-.318.12-.396.27-.078.152-.073.332.012.48l78.134 134.976c.09.155.255.25.433.25h.033c.19-.014.356-.134.43-.31l61.103-148.967c.067-.164.043-.35-.062-.49-.096-.127-.245-.2-.4-.2zM-1280.695 69.182l156.267 32.92-95.162 152.26-61.105-185.18m0-.5c-.14 0-.277.06-.373.167-.12.132-.158.32-.102.49l61.104 185.18c.06.184.222.316.415.34l.06.003c.17 0 .33-.088.423-.235l95.162-152.26c.087-.138.1-.31.036-.46s-.196-.26-.356-.293l-156.267-32.92c-.033-.01-.068-.013-.102-.013z"/>
    <path d="M-1369.848 152.31l150.257 102.053-179.308 66.666 29.05-168.72m0-.5c-.066 0-.133.012-.195.04-.157.065-.27.207-.297.374l-29.05 168.72c-.03.176.036.355.173.47.09.076.205.115.32.115.058 0 .117-.01.173-.032l179.307-66.666c.175-.065.3-.223.322-.41s-.06-.368-.216-.473l-150.258-102.055c-.083-.057-.18-.086-.28-.086z"/>
    <path d="M-1280.695 69.182l61.104 185.18-150.258-102.053 89.153-83.128m0-.5c-.125 0-.247.047-.34.134l-89.153 83.126c-.11.104-.17.252-.158.404.012.15.092.29.218.375l150.257 102.055c.084.058.182.086.28.086.106 0 .212-.033.3-.1.172-.13.242-.352.174-.556l-61.104-185.18c-.053-.163-.186-.286-.35-.33-.042-.006-.084-.012-.125-.012z"/>
    <path d="M-1369.848 152.31l-29.05 168.72-57.097-109.465 86.147-59.256m0-.5c-.1 0-.198.028-.283.087l-86.147 59.256c-.208.144-.277.42-.16.644l57.097 109.463c.087.167.26.27.443.27.025 0 .05-.003.077-.007.212-.033.38-.198.416-.41l29.05-168.72c.034-.197-.054-.396-.223-.505-.083-.053-.177-.08-.27-.08z"/>
    <path d="M-1455.994 211.565l57.097 109.464-139.238 13.99 82.14-123.455m0-.5c-.166 0-.322.083-.416.223l-82.143 123.454c-.107.16-.112.37-.012.535.09.15.254.242.428.242.017 0 .033-.002.05-.003l139.238-13.99c.166-.017.313-.114.39-.26.08-.146.08-.32.004-.47l-57.097-109.463c-.082-.157-.24-.258-.417-.268h-.024zM-1455.038 4.834l174.343 64.348-89.152 83.126-85.19-147.474m0-.5c-.146 0-.287.063-.383.178-.136.16-.156.39-.05.572l85.19 147.475c.075.13.207.22.358.244.024.003.05.005.074.005.125 0 .248-.048.34-.135l89.153-83.126c.127-.12.184-.295.15-.465-.035-.17-.155-.31-.318-.37l-174.343-64.35c-.055-.02-.114-.03-.172-.03z"/>
    <path d="M-1455.038 4.834l85.19 147.475-86.146 59.255.956-206.73m0-.5c-.042 0-.085.004-.128.016-.218.06-.37.256-.372.482l-.956 206.73c0 .187.102.358.266.445.074.04.154.058.234.058.1 0 .198-.03.283-.088l86.145-59.256c.215-.147.28-.436.15-.66l-85.19-147.476c-.09-.157-.258-.25-.433-.25zM-1345.58 520.334l38.84 118.04-180.31-72.425 141.47-45.616m0-.5c-.05 0-.102.008-.152.024l-141.47 45.615c-.2.064-.34.248-.346.458-.007.212.118.404.313.482l180.31 72.426c.06.024.123.036.186.036.126 0 .25-.047.343-.136.142-.133.194-.336.133-.52l-38.84-118.042c-.07-.208-.265-.342-.475-.342z"/>
    <path d="M-1487.05 565.95l180.31 72.425-207.355 111.108 27.046-183.534m0-.5c-.085 0-.17.02-.248.065-.133.076-.223.21-.246.36l-27.047 183.534c-.028.187.052.373.206.48.086.062.187.092.288.092.08 0 .162-.02.236-.06l207.355-111.108c.17-.092.273-.274.263-.468-.01-.194-.132-.364-.312-.437l-180.31-72.427c-.058-.022-.122-.034-.185-.034z"/>
    <path d="M-1241.63 497.638l-65.11 140.737-38.84-118.04 103.95-22.697m0-.5c-.035 0-.07.004-.105.012l-103.95 22.696c-.14.03-.257.117-.328.24s-.085.27-.04.404l38.838 118.04c.064.196.24.332.446.344h.03c.194 0 .372-.11.454-.29l65.11-140.736c.08-.172.056-.375-.062-.523-.097-.12-.24-.187-.39-.187z"/>
    <path d="M-1306.74 638.375l-65.11 172.012-142.245-60.903 207.355-111.11m0-.5c-.08 0-.162.02-.236.06l-207.355 111.11c-.17.09-.272.27-.264.46.008.193.126.363.303.44l142.243 60.902c.063.026.13.04.197.04.066 0 .133-.014.196-.04.125-.054.224-.155.272-.283l65.11-172.012c.075-.193.02-.414-.137-.552-.094-.08-.212-.123-.33-.123z"/>
    <path d="M-1241.63 497.638l69.118 167.073-134.23-26.335 65.113-140.737m0-.5c-.194 0-.37.113-.453.29l-65.11 140.737c-.065.14-.063.3.007.438s.198.233.35.263l134.228 26.336c.032.007.064.01.096.01.148 0 .29-.066.387-.184.117-.143.146-.337.075-.508l-69.117-167.073c-.076-.183-.253-.304-.452-.31h-.01z"/>
    <path d="M-1241.63 497.638l138.237 3.292-69.12 163.78-69.116-167.072m0-.5c-.164 0-.318.08-.41.217-.097.14-.116.318-.05.474l69.116 167.073c.077.187.258.308.46.31h.002c.2 0 .382-.12.46-.307l69.12-163.78c.063-.153.048-.328-.042-.467-.09-.14-.243-.226-.408-.23l-138.236-3.292h-.01zM-1514.096 749.483l142.244 60.903-216.37 26.338 74.126-87.24m0-.5c-.144 0-.284.06-.38.175l-74.127 87.24c-.133.157-.157.38-.06.562.088.163.258.263.44.263.02 0 .04 0 .06-.004l216.37-26.337c.225-.027.403-.2.436-.426.032-.224-.09-.44-.298-.53l-142.244-60.903c-.062-.028-.13-.04-.196-.04z"/>
    <path d="M-1371.852 810.387l-97.004 122.45-119.366-96.112 216.37-26.338m0-.5c-.02 0-.04 0-.06.004l-216.37 26.34c-.2.023-.366.164-.42.357-.056.193.01.4.166.527l119.366 96.112c.09.07.2.11.313.11.02 0 .037 0 .056-.003.13-.015.252-.082.335-.187l97.004-122.45c.125-.16.142-.378.043-.555-.087-.157-.255-.253-.435-.253z"/>
    <path d="M-1306.74 638.375l92.158 83.948-157.27 88.063 65.112-172.01m0-.5c-.04 0-.078.004-.116.013-.16.038-.293.153-.352.31l-65.11 172.01c-.075.197-.02.42.14.557.094.08.21.12.327.12.083 0 .167-.02.243-.062l157.27-88.063c.14-.08.234-.22.252-.38.02-.16-.04-.318-.16-.427l-92.158-83.947c-.094-.087-.214-.133-.337-.133zM-1103.393 500.93l86.146 59.6-155.266 104.182 69.12-163.782m0-.5c-.047 0-.094.006-.14.02-.145.042-.263.147-.32.286l-69.12 163.78c-.086.204-.028.44.142.58.09.077.204.115.317.115.097 0 .194-.027.28-.084l155.265-104.183c.137-.092.22-.246.22-.41.002-.167-.08-.322-.214-.416l-86.146-59.6c-.084-.057-.184-.087-.285-.087z"/>
    <path d="M-1306.74 638.375l134.23 26.336-42.07 57.613-92.16-83.948m0-.5c-.186 0-.36.104-.447.275-.1.2-.056.443.11.594l92.158 83.95c.094.083.214.13.338.13.017 0 .034-.002.05-.004.14-.014.27-.088.354-.202l42.07-57.612c.1-.138.124-.318.062-.478-.062-.16-.202-.275-.37-.308l-134.23-26.336c-.03-.006-.062-.01-.094-.01z"/>
    <path d="M-1017.246 560.528l38.064 72.085-193.33 32.098 155.266-104.182m0-.5c-.098 0-.195.03-.28.085l-155.265 104.183c-.196.13-.274.38-.187.6.077.192.263.315.464.315.027 0 .055 0 .083-.006l193.33-32.098c.158-.026.294-.127.366-.27.07-.145.07-.314-.006-.456l-38.064-72.085c-.066-.125-.183-.217-.32-.25-.04-.012-.08-.017-.122-.017zM-1214.582 722.323l37.062 122.63-194.332-34.566 157.27-88.064m0-.5c-.084 0-.17.02-.244.063l-157.27 88.063c-.185.103-.284.31-.25.52.036.208.2.37.407.408l194.333 34.567c.03.005.058.008.087.008.142 0 .278-.06.374-.168.116-.13.155-.31.105-.477l-37.063-122.63c-.044-.147-.15-.264-.292-.32-.06-.023-.124-.035-.187-.035z"/>
    <path d="M-979.182 632.613l-129.22 106.172-64.11-74.074 193.33-32.097m0-.5c-.027 0-.054.002-.082.007l-193.33 32.098c-.178.03-.327.153-.388.323s-.026.36.092.498l64.11 74.074c.098.114.237.173.377.173.112 0 .225-.037.317-.113L-978.864 633c.175-.145.23-.388.138-.594-.083-.18-.262-.293-.456-.293zM-1371.852 810.387l74.127 136.623-171.13-14.173 97.003-122.45m0-.5c-.152 0-.297.07-.392.19l-97.004 122.45c-.114.144-.14.34-.067.51.074.168.234.283.417.298l171.13 14.173.042.002c.168 0 .326-.085.42-.227.1-.154.107-.35.02-.512l-74.127-136.622c-.08-.147-.23-.245-.396-.26h-.042z"/>
    <path d="M-1371.852 810.387l194.332 34.567-120.205 102.056-74.127-136.623m0-.5c-.16 0-.31.076-.406.207-.112.156-.125.362-.034.53l74.127 136.624c.072.133.2.226.348.253.03.007.06.01.092.01.118 0 .232-.04.324-.12l120.204-102.055c.147-.125.21-.324.16-.512-.052-.187-.206-.327-.397-.36l-194.332-34.568c-.028-.005-.058-.008-.087-.008zM-1172.512 664.71l64.11 74.075-106.18-16.462 42.07-57.612m0-.5h-.02c-.153.008-.294.083-.384.206l-42.07 57.612c-.103.14-.125.325-.058.486s.213.276.385.303l106.18 16.462c.027.003.052.005.078.005.18 0 .35-.097.438-.258.102-.184.078-.41-.06-.57l-64.11-74.073c-.095-.11-.233-.173-.378-.173z"/>
    <path d="M-1214.582 722.323l106.18 16.462-69.117 106.17-37.062-122.632m0-.5c-.144 0-.282.062-.377.172-.112.13-.15.31-.1.473l37.062 122.63c.056.188.215.324.408.352.024.003.047.005.07.005.168 0 .327-.084.42-.228l69.117-106.17c.093-.14.107-.32.038-.476-.07-.153-.212-.263-.38-.29l-106.18-16.46c-.026-.005-.052-.007-.077-.007zM-1468.855 932.837l171.13 14.173-162.276 56.144-8.855-70.317m0-.5c-.136 0-.266.056-.36.154-.105.11-.155.26-.136.41l8.853 70.315c.02.15.104.282.232.362.08.05.172.075.264.075.054 0 .11-.01.163-.027l162.277-56.144c.223-.076.362-.3.333-.534s-.22-.416-.455-.436l-171.13-14.173h-.043z"/>
    <path d="M-1177.52 844.954l-3.004 145.675-117.2-43.62 120.204-102.056m0-.5c-.116 0-.23.04-.324.12l-120.205 102.055c-.134.113-.198.292-.168.467.03.175.152.32.318.382l117.2 43.618c.058.02.117.03.175.03.1 0 .197-.028.28-.086.135-.09.216-.24.22-.402l3.004-145.675c.003-.197-.11-.378-.286-.462-.067-.033-.14-.05-.214-.05zM-800.877 579.94l12.02 179.42-190.324-126.747 178.303-52.672m0-.5c-.048 0-.095.008-.142.022l-178.304 52.672c-.186.055-.324.213-.353.404-.03.192.056.384.217.49l190.324 126.747c.084.056.18.084.277.084.087 0 .174-.023.252-.068.164-.096.26-.276.248-.466l-12.02-179.418c-.01-.15-.09-.29-.213-.377-.083-.058-.183-.09-.284-.09z"/>
    <path d="M-979.182 632.613l190.324 126.746-179.306 78.187-11.018-204.934m0-.5c-.085 0-.17.02-.248.065-.165.094-.262.272-.252.462l11.02 204.933c.008.164.097.313.236.4.08.048.17.073.263.073.068 0 .136-.014.2-.042l179.306-78.188c.167-.073.282-.23.298-.414s-.067-.358-.22-.46l-190.324-126.746c-.084-.054-.18-.083-.278-.083z"/>
    <path d="M-979.182 632.613l11.02 204.934-140.24-98.762 129.22-106.172m0-.5c-.114 0-.226.04-.317.113l-129.22 106.172c-.12.1-.188.25-.182.405s.084.3.21.39l140.24 98.763c.086.06.187.09.288.09.083 0 .167-.02.242-.06.167-.094.268-.274.257-.466l-11.02-204.933c-.01-.188-.124-.355-.297-.432-.063-.028-.13-.042-.2-.042z"/>
    <path d="M-1108.402 738.785l140.24 98.762-209.357 7.407 69.118-106.17m0-.5c-.03 0-.063.004-.094.01-.133.026-.25.104-.325.22l-69.118 106.168c-.102.156-.108.356-.016.52.09.156.255.253.435.253h.02l209.355-7.407c.215-.008.4-.15.462-.357.06-.205-.016-.427-.19-.55l-140.24-98.763c-.086-.06-.187-.092-.29-.092z"/>
    <path d="M-968.163 837.547l-129.22 79.832-80.137-72.426 209.357-7.407m0-.5h-.018l-209.357 7.407c-.204.008-.382.138-.452.33-.07.19-.016.404.135.54l80.137 72.426c.095.085.215.13.335.13.09 0 .182-.025.263-.075l129.22-79.832c.193-.12.282-.354.216-.57-.065-.213-.26-.356-.48-.356z"/>
    <path d="M-1177.52 844.954l80.137 72.425-83.14 73.25 3.003-145.676m0-.5c-.067 0-.134.014-.198.04-.18.078-.298.254-.302.45l-3.004 145.674c-.004.2.11.38.29.464.067.03.14.047.21.047.12 0 .237-.044.33-.126l83.142-73.25c.107-.094.168-.23.17-.372s-.06-.278-.166-.374l-80.137-72.425c-.093-.085-.213-.13-.335-.13zM-800.877 579.94l124.212 21.4-112.192 158.02-12.02-179.42m0-.5c-.123 0-.242.046-.335.13-.113.103-.174.252-.164.404l12.02 179.418c.015.21.16.39.363.448.045.013.09.02.136.02.16 0 .312-.077.408-.212l112.192-158.02c.1-.14.12-.32.055-.48-.065-.158-.208-.272-.377-.302l-124.212-21.398c-.028-.005-.057-.007-.085-.007z"/>
    <path d="M-676.665 601.34l78.133 120.16-190.325 37.86 112.192-158.02m0-.5c-.162 0-.313.078-.407.21l-112.193 158.02c-.118.168-.123.39-.012.562.094.145.253.23.42.23.032 0 .064-.004.098-.01l190.326-37.86c.163-.03.3-.143.363-.295.063-.153.048-.328-.043-.467l-78.133-120.16c-.09-.14-.243-.225-.41-.23h-.01z"/>
    <path d="M-788.857 759.36l-12.02 199.17-167.286-120.983 179.306-78.188m0-.5c-.067 0-.136.013-.2.04l-179.305 78.19c-.165.07-.278.225-.297.403-.02.18.06.354.205.46l167.286 120.982c.088.062.19.095.294.095.073 0 .146-.016.214-.048.165-.078.274-.24.285-.422l12.02-199.17c.01-.175-.07-.342-.213-.44-.086-.06-.187-.09-.287-.09zM-611.333 545.333l192.106 109.503-257.438-53.496 65.332-56.007m0-.5c-.116 0-.232.04-.325.12l-65.332 56.007c-.145.124-.207.32-.16.505s.197.326.384.364l257.438 53.495c.034.008.068.01.102.01.204 0 .393-.125.468-.322.087-.23-.007-.49-.22-.61l-192.106-109.504c-.078-.046-.164-.067-.25-.067z"/>
    <path d="M-450.667 518.214l31.44 136.622-192.106-109.503 160.666-27.12m0-.5c-.027 0-.055.003-.083.008l-160.666 27.12c-.21.035-.372.197-.41.406-.036.208.062.417.246.52l192.105 109.504c.077.044.163.065.248.065.105 0 .21-.033.3-.1.158-.117.23-.32.187-.513L-450.18 518.1c-.052-.23-.258-.386-.486-.386zM-968.163 837.547l49.085 130.86-178.305-51.028 129.22-79.833m0-.5c-.092 0-.183.025-.263.074l-129.22 79.833c-.168.104-.26.298-.232.494.027.196.167.357.357.412l178.304 51.026c.046.014.092.02.138.02.138 0 .27-.057.367-.16.127-.14.166-.34.1-.516l-49.084-130.86c-.053-.14-.165-.248-.307-.296-.054-.018-.11-.027-.163-.027z"/>
    <path d="M-676.665 601.34l257.438 53.496-179.306 66.665-78.132-120.16m0-.5c-.163 0-.318.08-.413.218-.113.167-.116.386-.006.555l78.133 120.16c.093.147.253.23.418.23.06 0 .117-.01.174-.032l179.306-66.664c.21-.078.342-.284.324-.507-.017-.223-.178-.407-.396-.452l-257.438-53.496c-.036-.008-.07-.012-.103-.012zM-968.163 837.547l167.286 120.983-118.2 9.876-49.086-130.86m0-.5c-.107 0-.214.035-.303.104-.175.134-.242.366-.165.573l49.084 130.86c.073.195.26.323.468.323.014 0 .027 0 .042-.002l118.2-9.876c.21-.018.385-.162.44-.364.057-.2-.02-.416-.188-.54L-967.87 837.143c-.088-.064-.19-.095-.293-.095z"/>
    <path d="M-788.857 759.36l95.163 114.4-107.183 84.77 12.02-199.17m0-.5c-.052 0-.104.007-.156.023-.194.064-.33.24-.343.445l-12.02 199.17c-.012.198.093.384.268.475.073.038.152.057.23.057.11 0 .22-.036.312-.107l107.183-84.77c.105-.085.173-.208.187-.342.015-.133-.026-.267-.112-.37l-95.163-114.4c-.1-.116-.242-.18-.387-.18z"/>
    <path d="M-598.532 721.5l-95.162 152.26-95.163-114.4 190.325-37.86m0-.5c-.032 0-.065.004-.098.01l-190.325 37.86c-.173.033-.314.156-.374.322-.058.166-.024.352.088.486l95.163 114.4c.097.115.238.18.386.18h.034c.16-.01.305-.098.39-.234l95.162-152.26c.105-.168.1-.384-.013-.548-.095-.136-.25-.215-.412-.215z"/>
    <path d="M-598.532 721.5l61.104 185.18-156.267-32.92 95.163-152.26m0-.5c-.17 0-.332.09-.424.236l-95.162 152.26c-.087.137-.1.31-.036.46.063.15.197.26.356.293l156.267 32.92c.034.007.068.01.103.01.14 0 .276-.06.373-.166.12-.133.158-.32.102-.49l-61.104-185.18c-.06-.184-.223-.316-.415-.34l-.062-.003z"/>
    <path d="M-419.227 654.836l-29.05 168.718L-598.532 721.5l179.306-66.664m0-.5c-.06 0-.117.01-.174.03l-179.307 66.666c-.176.065-.3.223-.322.41-.02.185.062.367.216.473l150.257 102.053c.084.057.183.086.28.086.067 0 .134-.013.196-.04.155-.066.268-.208.297-.375l29.05-168.72c.03-.176-.037-.354-.175-.47-.09-.074-.203-.114-.32-.114z"/>
    <path d="M-598.532 721.5l150.257 102.054-89.152 83.127-61.105-185.18m0-.5c-.106 0-.212.035-.3.102-.172.13-.242.353-.175.556l61.104 185.18c.053.162.186.286.35.328.042.01.084.016.125.016.125 0 .247-.047.34-.135l89.153-83.127c.11-.104.17-.252.157-.403-.012-.152-.09-.29-.217-.376L-598.252 721.09c-.084-.06-.183-.087-.28-.087z"/>
    <path fill="none" stroke="#000" stroke-width=".5" stroke-linecap="round" stroke-linejoin="round" d="M-693.694 873.76l-107.183 84.77M-537.428 906.68l-156.267-32.92"/>
    <path d="M-448.275 823.554l-11.418 175.27-77.734-92.143 89.152-83.126m0-.5c-.124 0-.246.046-.34.135l-89.153 83.126c-.195.182-.213.484-.04.688l77.733 92.142c.097.115.237.178.382.178.053 0 .104-.008.156-.025.193-.064.33-.24.343-.443l11.418-175.27c.014-.203-.1-.395-.285-.483-.07-.035-.143-.05-.215-.05zM-857.975 503.738l57.098 76.203-216.37-19.412 159.272-56.79m0-.5c-.057 0-.113.01-.168.03l-159.27 56.79c-.222.078-.36.3-.33.533.03.233.218.414.452.436l216.368 19.413h.045c.18 0 .348-.097.437-.256.097-.172.082-.385-.036-.543l-57.098-76.202c-.097-.128-.246-.2-.4-.2z"/>
    <path d="M-714.73 474.934l-86.146 105.007-57.098-76.202 143.244-28.804m0-.5c-.032 0-.065.003-.1.01l-143.243 28.804c-.168.034-.308.15-.368.312-.063.16-.037.34.065.48l57.098 76.202c.093.123.236.196.39.2h.01c.15 0 .292-.067.388-.183l86.147-105.01c.134-.162.15-.392.042-.573-.094-.153-.258-.243-.43-.243z"/>
    <path d="M-714.73 474.934l103.397 70.4-189.544 34.607 86.147-105.006m0-.5c-.145 0-.288.063-.387.183l-86.146 105.007c-.133.162-.15.39-.044.57.09.155.256.247.43.247.03 0 .06-.002.09-.007l189.545-34.608c.2-.037.357-.19.4-.39s-.04-.4-.21-.516l-103.396-70.4c-.087-.058-.185-.086-.282-.086z"/>
    <path d="M-611.333 545.333l-65.332 56.007-124.212-21.398 189.544-34.61m0-.5c-.03 0-.06.004-.09.01l-189.544 34.607c-.238.043-.41.25-.41.494 0 .242.176.448.415.49l124.212 21.398c.028.005.057.007.085.007.118 0 .234-.043.325-.12l65.332-56.008c.172-.147.224-.39.126-.595-.084-.176-.26-.284-.45-.284z"/>
    <path d="M-714.73 474.934l138.237 3.293-34.84 67.106-103.397-70.4m0-.5c-.217 0-.41.14-.477.348-.067.212.012.442.195.567l103.397 70.4c.084.057.182.086.28.086.042 0 .083-.005.123-.016.14-.034.256-.127.32-.254l34.84-67.106c.08-.153.076-.336-.012-.485s-.246-.24-.42-.246l-138.236-3.293h-.01z"/>
    <path d="M-576.493 478.227l125.826 39.987-160.666 27.12 34.84-67.107m0-.5c-.183 0-.355.1-.443.27l-34.84 67.106c-.088.168-.072.372.04.524.094.13.245.206.403.206.027 0 .056-.002.083-.007l160.666-27.12c.228-.038.4-.227.416-.457.016-.23-.128-.442-.348-.513l-125.826-39.987c-.05-.016-.1-.023-.15-.023z"/>
    <path d="M-481.667 428l31 90.214-125.826-39.987L-481.667 428m0-.5c-.08 0-.16.02-.234.058l-94.827 50.227c-.178.094-.28.286-.264.487.018.2.153.37.346.432l125.826 39.987c.05.017.1.024.15.024.134 0 .263-.053.358-.15.132-.136.177-.333.115-.512l-31-90.214c-.047-.138-.153-.25-.29-.302-.057-.024-.12-.036-.182-.036z"/>
    <path d="M-331.075 409.915l-119.592 108.3-31-90.215 150.592-18.085m0-.5c-.02 0-.04 0-.06.003l-150.592 18.085c-.15.018-.284.103-.364.23s-.1.286-.05.43l31 90.212c.055.16.186.28.348.322.042.01.083.016.125.016.122 0 .242-.045.336-.13l119.59-108.298c.162-.146.21-.38.12-.578-.082-.18-.26-.292-.455-.292zM-1017.245 395.924v164.604l-86.147-59.6 86.147-105.004m0-.5c-.147 0-.29.065-.387.183l-86.147 105.005c-.087.108-.127.248-.107.386.02.14.096.263.21.342l86.146 59.6c.084.058.184.088.284.088.08 0 .16-.02.232-.058.165-.086.268-.257.268-.442V395.924c0-.21-.132-.4-.33-.47-.056-.02-.112-.03-.17-.03z"/>
    <path d="M-1141.458 374.525l124.213 21.4-86.147 105.004-38.066-126.405m0-.5c-.142 0-.28.06-.375.168-.115.13-.154.31-.104.476l38.065 126.404c.053.177.2.31.38.346.033.007.065.01.098.01.148 0 .29-.065.387-.183l86.147-105.006c.113-.136.144-.324.082-.49-.062-.167-.208-.288-.384-.318l-124.213-21.4c-.026-.005-.055-.007-.083-.007z"/>
    <path d="M-1141.458 374.525l38.065 126.405-154.357-98.43 116.292-27.975m0-.5c-.04 0-.078.004-.118.014l-116.292 27.974c-.195.047-.343.206-.376.404s.055.396.224.504l154.357 98.43c.083.052.176.078.27.078.105 0 .212-.034.3-.102.168-.126.238-.342.178-.542l-38.065-126.405c-.064-.214-.262-.355-.478-.355z"/>
    <path d="M-1257.75 402.5l154.357 98.43-138.236-3.292-16.12-95.138m0-.5c-.096 0-.192.028-.276.083-.165.11-.25.305-.217.5l16.12 95.138c.04.237.243.412.482.418l138.235 3.292h.012c.22 0 .414-.144.48-.354.064-.214-.022-.446-.21-.567l-154.357-98.43c-.083-.054-.177-.08-.27-.08zM-1460.002 469.996l114.423 50.338-141.47 45.615 27.048-95.954m0-.5c-.073 0-.146.016-.213.048-.13.062-.23.177-.268.316l-27.047 95.953c-.05.178.002.368.135.496.094.09.22.14.347.14.05 0 .103-.01.153-.025l141.47-45.615c.198-.063.335-.242.346-.45.01-.207-.107-.4-.297-.483L-1459.8 469.54c-.065-.03-.134-.044-.202-.044z"/>
    <path d="M-1377 441.333l31.42 79L-1460 469.995l83.002-28.662m0-.5c-.054 0-.11.01-.163.027l-83.002 28.663c-.195.067-.328.247-.336.452s.11.396.297.478l114.423 50.338c.064.03.133.043.2.043.128 0 .253-.05.348-.14.146-.142.192-.356.118-.545l-31.42-79c-.08-.194-.267-.315-.466-.315z"/>
    <path d="M-1257.75 402.5l16.12 95.138-135.37-56.305 119.25-38.833m0-.5c-.052 0-.104.008-.155.024l-119.25 38.833c-.2.065-.336.247-.345.456s.114.4.308.48l135.37 56.306c.063.024.128.037.193.037.112 0 .222-.037.313-.11.142-.112.212-.294.182-.474l-16.12-95.138c-.025-.144-.11-.27-.235-.344-.08-.046-.17-.07-.26-.07z"/>
    <path d="M-1377 441.333l135.37 56.304-103.95 22.696-31.42-79m0-.5c-.13 0-.255.05-.35.144-.145.14-.19.354-.115.542l31.42 79c.078.192.265.314.466.314.036 0 .072-.004.107-.012l103.95-22.696c.213-.046.372-.226.392-.443.02-.218-.105-.423-.307-.506l-135.37-56.304c-.063-.027-.128-.04-.193-.04z"/>
  </g>
  <g opacity=".07">
    <path opacity=".75" d="M54.132 667.5l-29.716-90.513-150.592 18.085L54.132 667.5z"/>
    <path opacity=".571" d="M-153.222 778.606L54.132 667.5l-180.308-72.428-27.046 183.534z"/>
    <path opacity=".76" d="M54.132 667.5l65.11-140.74-94.826 50.228 29.716 90.51z"/>
    <path opacity=".429" d="M-10.98 839.51L54.13 667.5l-207.353 111.106L-10.98 839.51z"/>
    <path opacity=".691" d="M54.132 667.5l134.23 26.335-69.12-167.075-65.11 140.74z"/>
    <path opacity=".714" d="M188.36 693.835l69.12-163.782-138.238-3.293 69.12 167.075z"/>
    <path opacity=".452" d="M-10.98 839.51L146.29 751.45 54.132 667.5l-65.11 172.01z"/>
    <path opacity=".738" d="M188.36 693.835l139.237-94.647-70.118-69.135-69.12 163.782z"/>
    <path opacity=".5" d="M146.288 751.447l42.073-57.612L54.133 667.5l92.156 83.947z"/>
    <path opacity=".78" d="M327.598 599.188l73.126-97.938-143.244 28.804 70.118 69.134z"/>
    <path opacity=".64" d="M381.69 661.738l-54.093-62.55-139.236 94.646 193.33-32.096z"/>
    <path opacity=".191" d="M188.36 935.806l-42.072-184.358L-10.98 839.51l199.34 96.296z"/>
    <path opacity=".49" d="M252.47 767.906l129.22-106.168-193.33 32.097 64.11 74.07z"/>
    <path opacity=".048" d="M2.442 1000.153l60.705-24.02L-10.98 839.51l13.422 160.643z"/>
    <path opacity=".78" d="M559.994 609.062V444.458l-159.27 56.79 159.27 107.814z"/>
    <path opacity=".84" d="M559.995 444.46l-38.064-72.086-178.304 52.672 216.37 19.413z"/>
    <path opacity=".73" d="M327.598 599.188l54.093 62.55 19.034-160.488-73.126 97.938z"/>
    <path opacity=".7" d="M381.69 661.738l178.304-52.676-159.27-107.813-19.034 160.488z"/>
    <path opacity=".119" d="M63.147 976.134l125.212-40.328-199.34-96.295 74.127 136.624z"/>
    <path opacity=".41" d="M146.288 751.447l106.182 16.46-64.108-74.072-42.074 57.612z"/>
    <path opacity=".214" d="M188.36 935.806l64.11-167.9-106.183-16.458 42.072 184.358z"/>
    <path opacity=".5" d="M572.015 788.482l-12.02-179.42-178.305 52.676 190.325 126.744z"/>
    <path opacity=".262" d="M421.26 916.145l150.755-127.662L381.69 661.738l39.57 254.407z"/>
    <path opacity=".286" d="M421.26 916.145l-39.57-254.407-129.22 106.168 168.79 148.24z"/>
    <path opacity=".238" d="M188.36 935.806l232.9-19.66-168.79-148.24-64.11 167.9z"/>
    <path opacity=".524" d="M572.015 788.482l112.192-158.02-124.213-21.4 12.02 179.42z"/>
    <path opacity=".548" d="M572.015 788.482l190.325-37.857-78.133-120.162-112.192 158.02z"/>
    <path opacity=".143" d="M550.978 926.416l21.037-137.934L421.26 916.145l129.718 10.27z"/>
    <path opacity=".74" d="M684.207 630.463l257.44 53.496-141.148-81.473-116.293 27.976z"/>
    <path opacity=".809" d="M941.646 683.96L919.75 563.653 800.5 602.487l141.146 81.472z"/>
    <path opacity=".64" d="M762.34 750.625l179.307-66.666-257.44-53.497 78.133 120.162z"/>
    <path opacity=".167" d="M550.978 926.416l116.198 41.58-95.16-179.514-21.038 137.934z"/>
    <path opacity=".26" d="M667.176 967.995l95.164-217.37-190.325 37.857 95.16 179.513z"/>
    <path opacity=".78" d="M941.646 683.96l61.104-148.97-83.002 28.664 21.898 120.305z"/>
    <path opacity=".7" d="M941.646 683.96l139.238-13.99-78.134-134.98-61.104 148.97z"/>
    <path opacity=".23" d="M667.176 967.995l156.27-32.19-61.106-185.18-95.164 217.37z"/>
    <path opacity=".381" d="M912.597 852.68l29.05-168.72-179.307 66.665L912.597 852.68z"/>
    <path opacity=".22" d="M823.444 935.806l89.152-83.127L762.34 750.624l61.104 185.18z"/>
    <path opacity=".405" d="M912.597 852.68l86.146-59.257-57.097-109.464-29.05 168.72z"/>
    <path opacity=".476" d="M998.743 793.423l82.142-123.454-139.238 13.99 57.096 109.463z"/>
    <path opacity=".071" d="M823.444 935.806l174.343 64.348-85.19-147.475-89.153 83.126z"/>
    <path opacity=".095" d="M997.787 1000.153l.956-206.73-86.146 59.256 85.19 147.473z"/>
    <path opacity=".86" d="M849.49 366.612l38.838 118.04 141.47-45.614-180.31-72.426z"/>
    <path opacity=".795" d="M1056.845 255.504L849.49 366.612l180.308 72.426 27.047-183.534z"/>
    <path opacity=".85" d="M849.49 366.612L784.377 507.35l103.95-22.696-38.84-118.042z"/>
    <path opacity=".591" d="M914.6 194.6l-65.11 172.013 207.355-111.108L914.6 194.6z"/>
    <path opacity=".83" d="M849.49 366.612l-134.23-26.336 69.117 167.073L849.49 366.61z"/>
    <path opacity=".81" d="M715.26 340.276l-69.118 163.78 138.236 3.293-69.117-167.074z"/>
    <path opacity=".341" d="M1130.97 168.263L914.6 194.6l142.245 60.904 74.126-87.24z"/>
    <path opacity=".273" d="M1011.604 72.15L914.6 194.6l216.37-26.338-119.366-96.112z"/>
    <path opacity=".568" d="M914.6 194.6l-157.27 88.064 92.16 83.948 65.11-172.01z"/>
    <path opacity=".84" d="M715.26 340.276L559.996 444.46l86.146 59.598 69.12-163.782z"/>
    <path opacity=".64" d="M757.33 282.664l-42.07 57.612 134.23 26.336-92.16-83.948z"/>
    <path opacity=".8" d="M521.93 372.374l38.065 72.085L715.26 340.275l-193.33 32.098z"/>
    <path opacity=".409" d="M720.27 160.033l37.06 122.63 157.27-88.062-194.33-34.567z"/>
    <path opacity=".659" d="M651.15 266.202L521.93 372.374l193.33-32.098-64.11-74.074z"/>
    <path opacity=".25" d="M1011.604 72.15l-171.13-14.172L914.6 194.6l97.004-122.45z"/>
    <path opacity=".227" d="M840.474 57.978L720.27 160.033 914.6 194.6 840.475 57.978z"/>
    <path opacity=".5" d="M757.33 282.664l-106.18-16.462 64.11 74.074 42.07-57.612z"/>
    <path opacity=".386" d="M720.27 160.033l-69.118 106.17 106.18 16.46-37.063-122.63z"/>
    <path opacity=".023" d="M1002.75 1.834L840.475 57.978l171.13 14.173-8.853-70.316z"/>
    <path opacity=".114" d="M840.474 57.978l-117.202-9.532-3.003 111.587L840.473 57.978z"/>
    <path opacity=".75" d="M331.606 245.628l12.02 179.418 178.305-52.672-190.324-126.746z"/>
    <path opacity=".636" d="M510.912 167.44l-179.306 78.188L521.93 372.374 510.912 167.44z"/>
    <path opacity=".614" d="M510.912 167.44l11.02 204.934 129.22-106.172-140.24-98.762z"/>
    <path opacity=".364" d="M720.27 160.033l-209.357 7.407 140.24 98.762 69.116-106.17z"/>
    <path opacity=".182" d="M640.132 87.608l-129.22 79.832 209.356-7.407-80.136-72.425z"/>
    <path opacity=".091" d="M723.27 48.446L640.13 87.61l80.138 72.424 3.003-111.588z"/>
    <path opacity=".727" d="M331.606 245.628l-112.192 158.02 124.212 21.398-12.02-179.418z"/>
    <path opacity=".705" d="M331.606 245.628L141.28 283.486l78.134 120.16L331.606 245.63z"/>
    <path opacity=".318" d="M343.624 69.182l-12.018 176.446 179.306-78.188-167.288-98.258z"/>
    <path opacity=".79" d="M219.414 403.647L-38.024 350.15l192.106 109.504 65.332-56.007z"/>
    <path opacity=".818" d="M-38.024 350.15l31.44 136.623 160.666-27.12-192.106-109.502z"/>
    <path opacity=".159" d="M461.827 36.58l49.085 130.86 129.22-79.832L461.827 36.58z"/>
    <path opacity=".682" d="M141.28 283.486L-38.024 350.15l257.438 53.497-78.132-120.16z"/>
    <path opacity=".136" d="M461.827 36.58L343.624 69.183l167.288 98.258-49.085-130.86z"/>
    <path opacity=".295" d="M343.624 69.182L219.412 98.307l112.194 147.32 12.018-176.445z"/>
    <path opacity=".477" d="M219.412 98.307l-78.13 185.18 190.324-37.858L219.412 98.306z"/>
    <path opacity=".455" d="M219.412 98.307H80.177l61.104 185.18 78.132-185.18z"/>
    <path opacity=".523" d="M-8.976 181.434l-29.05 168.718 179.307-66.665L-8.975 181.434z"/>
    <path opacity=".432" d="M80.177 98.307l-89.152 83.127 150.257 102.053-61.105-185.18z"/>
    <path opacity=".068" d="M219.412 98.307l124.212-29.125"/>
    <path opacity=".045" d="M80.177 98.307h139.235"/>
    <path opacity=".204" d="M80.177 98.307L2.442 6.165l-11.418 175.27 89.153-83.128z"/>
    <path opacity=".82" d="M559.995 444.46l-159.27 56.79-57.1-76.204 216.37 19.413z"/>
    <path opacity=".79" d="M400.724 501.25L257.48 530.052l86.146-105.007 57.098 76.203z"/>
    <path opacity=".8" d="M257.48 530.053l86.145-105.007-189.544 34.608 103.4 70.4z"/>
    <path opacity=".84" d="M343.626 425.046l-124.212-21.398-65.332 56.007 189.544-34.61z"/>
    <path opacity=".78" d="M119.242 526.76l138.237 3.293-103.398-70.398-34.84 67.105z"/>
    <path opacity=".82" d="M119.242 526.76l34.84-67.105-160.666 27.118 125.826 39.987z"/>
    <path opacity=".84" d="M119.242 526.76L-6.584 486.773l31 90.214 94.826-50.227z"/>
    <path opacity=".84" d="M24.416 576.987l-31-90.214-119.592 108.3 150.592-18.086z"/>
    <path opacity=".82" d="M646.142 504.058l-86.146-59.6v164.605l86.146-105.005z"/>
    <path opacity=".8" d="M684.207 630.463l-38.065-126.405-86.147 105.005 124.212 21.4z"/>
    <path opacity=".82" d="M800.5 602.487l-154.358-98.43 38.065 126.405L800.5 602.487z"/>
    <path opacity=".84" d="M800.5 602.487l-16.122-95.138-138.236-3.293 154.357 98.43zM1002.75 534.99l27.048-95.952-141.47 45.615 114.423 50.338zM919.75 563.654l83-28.663-114.422-50.337 31.42 79z"/>
    <path opacity=".86" d="M800.5 602.487l119.25-38.833-135.372-56.304 16.12 95.137z"/>
    <path opacity=".88" d="M919.75 563.654l-31.422-79-103.95 22.695 135.37 56.304z"/>
  </g>
  <g opacity=".05">
    <path d="M24.416 576.987L54.132 667.5l-180.308-72.428 150.592-18.085m0-.5c-.02 0-.04 0-.06.004l-150.592 18.086c-.227.027-.406.204-.437.43-.03.228.098.445.31.53l180.308 72.427c.06.024.124.036.187.036.125 0 .247-.048.342-.136.142-.134.194-.337.134-.52L24.89 576.83c-.067-.206-.26-.343-.474-.343z"/>
    <path d="M-126.176 595.072L54.132 667.5l-207.354 111.106 27.046-183.534m0-.5c-.086 0-.172.022-.25.066-.132.076-.223.21-.244.36l-27.047 183.534c-.027.188.053.374.208.482.086.06.188.09.288.09.08 0 .162-.02.236-.06L54.368 667.94c.17-.093.273-.275.263-.47-.01-.193-.132-.363-.31-.436l-180.31-72.427c-.06-.023-.122-.035-.186-.035z"/>
    <path d="M119.242 526.76L54.132 667.5l-29.716-90.513 94.826-50.227m0-.5c-.08 0-.16.02-.234.06l-94.826 50.227c-.215.113-.316.366-.24.598l29.715 90.512c.064.195.24.33.446.343h.03c.193 0 .37-.11.453-.29l65.11-140.738c.09-.194.046-.426-.11-.573-.095-.093-.22-.14-.344-.14z"/>
    <path d="M54.132 667.5l-65.11 172.01-142.243-60.903L54.13 667.5m0-.5c-.08 0-.162.02-.236.06l-207.354 111.106c-.17.09-.27.27-.263.462.007.192.125.362.302.438l142.242 60.904c.063.026.13.04.197.04s.134-.014.196-.04c.126-.053.224-.155.272-.283L54.6 667.677c.073-.195.02-.416-.138-.554-.094-.082-.21-.124-.33-.124z"/>
    <path d="M119.242 526.76l69.12 167.075L54.13 667.5l65.11-140.74m0-.5c-.194 0-.372.113-.454.29l-65.11 140.74c-.064.14-.06.3.01.437s.197.233.348.263l134.23 26.336c.03.007.063.01.096.01.148 0 .29-.066.387-.184.116-.143.145-.337.074-.508l-69.12-167.075c-.075-.185-.252-.306-.45-.31h-.012z"/>
    <path d="M119.242 526.76l138.237 3.293-69.12 163.782-69.118-167.075m0-.5c-.164 0-.32.08-.412.217-.096.14-.114.318-.05.475l69.12 167.075c.076.187.258.308.46.31.202 0 .384-.12.462-.307l69.118-163.782c.064-.152.05-.327-.04-.466s-.243-.225-.41-.23l-138.236-3.292h-.012zM54.132 667.5l92.156 83.947L-10.98 839.51 54.133 667.5m0-.5c-.04 0-.078.004-.116.013-.16.04-.293.154-.352.31l-65.11 172.012c-.074.196-.018.418.142.556.093.08.21.122.326.122.084 0 .168-.02.244-.063l157.267-88.064c.14-.08.234-.22.253-.38.018-.16-.042-.318-.16-.426L54.47 667.13c-.095-.085-.215-.13-.338-.13z"/>
    <path d="M257.48 530.053l70.117 69.135-139.236 94.647 69.12-163.782m0-.5c-.033 0-.066.003-.1.01-.162.032-.298.144-.362.296L187.9 693.64c-.086.205-.027.44.145.582.09.075.204.113.316.113.1 0 .197-.028.282-.087L327.878 599.6c.123-.083.203-.218.217-.367.014-.148-.04-.296-.146-.4l-70.12-69.136c-.094-.093-.22-.144-.35-.144z"/>
    <path d="M54.132 667.5l134.23 26.335-42.074 57.612L54.132 667.5m0-.5c-.187 0-.36.103-.446.274-.102.2-.057.443.11.595l92.155 83.947c.094.084.214.13.338.13.017 0 .033 0 .05-.003.142-.014.27-.088.354-.202l42.074-57.612c.1-.138.124-.318.062-.478s-.202-.275-.37-.308L54.23 667.01c-.032-.008-.064-.01-.096-.01zM400.724 501.25l-73.126 97.937-70.118-69.135 143.244-28.803m0-.5c-.032 0-.065.002-.1.01l-143.243 28.803c-.18.036-.327.17-.38.348-.053.178-.003.37.13.5l70.116 69.135c.095.092.22.144.352.144.013 0 .025 0 .038-.002.144-.012.276-.084.362-.2l73.126-97.938c.124-.166.133-.39.022-.566-.092-.15-.253-.235-.422-.235z"/>
    <path d="M327.598 599.188l54.093 62.55-193.328 32.098 139.236-94.648m0-.5c-.098 0-.195.028-.28.087L188.08 693.422c-.194.132-.27.38-.183.6.076.19.262.313.464.313.028 0 .056-.002.083-.007l193.33-32.097c.178-.028.326-.152.387-.322.062-.17.026-.36-.092-.497l-54.093-62.55c-.097-.113-.237-.172-.377-.172zM146.288 751.447l42.07 184.358-199.337-96.295 157.268-88.063m0-.5c-.085 0-.17.02-.244.063l-157.267 88.063c-.163.092-.262.266-.256.45.007.188.115.355.283.437l199.338 96.295c.07.033.145.05.22.05.11 0 .22-.037.31-.11.15-.118.22-.313.177-.5l-42.07-184.36c-.036-.152-.142-.28-.285-.345-.066-.028-.135-.043-.204-.043z"/>
    <path d="M381.69 661.738L252.47 767.906l-64.108-74.07 193.328-32.098m0-.5c-.027 0-.055.002-.082.007l-193.33 32.097c-.178.03-.326.153-.388.323-.06.17-.025.36.093.497l64.108 74.07c.1.115.24.174.38.174.11 0 .224-.037.316-.113l129.22-106.168c.176-.145.232-.388.14-.594-.083-.18-.262-.292-.456-.292zM-10.98 839.51l74.127 136.624-60.705 24.02-13.42-160.643m0-.5c-.05 0-.097.008-.144.022-.228.068-.375.285-.355.52l13.42 160.644c.014.157.1.3.235.383.08.05.172.074.264.074.062 0 .125-.012.184-.035L63.33 976.6c.135-.054.238-.16.287-.295s.038-.283-.03-.41L-10.54 839.274c-.088-.166-.26-.262-.44-.262zM559.995 444.46v164.603L400.724 501.25l159.27-56.79m0-.5c-.057 0-.113.01-.168.028l-159.27 56.79c-.18.063-.306.22-.33.408-.022.188.06.372.217.478l159.27 107.813c.085.057.184.086.28.086.08 0 .162-.02.235-.06.162-.086.265-.256.265-.44V444.46c0-.164-.078-.316-.21-.41-.088-.06-.188-.09-.29-.09z"/>
    <path d="M521.93 372.374l38.065 72.085-216.37-19.414 178.306-52.672m0-.5c-.046 0-.094.007-.14.02l-178.306 52.673c-.23.068-.38.29-.355.53.022.238.212.426.45.448l216.37 19.413.045.002c.166 0 .323-.083.416-.223.103-.152.112-.348.027-.51l-38.064-72.085c-.09-.17-.26-.268-.442-.268zM400.724 501.25L381.69 661.737l-54.093-62.55 73.127-97.94m0-.5c-.154 0-.304.072-.4.202l-73.126 97.94c-.14.187-.13.447.022.625l54.093 62.55c.097.112.235.174.378.174.05 0 .1-.008.147-.022.19-.06.327-.223.35-.42l19.033-160.49c.027-.224-.1-.438-.31-.522-.06-.025-.124-.037-.186-.037z"/>
    <path d="M400.724 501.25l159.27 107.812-178.304 52.676 19.034-160.49m0-.5c-.07 0-.142.016-.208.046-.158.072-.268.222-.29.396l-19.033 160.49c-.02.167.046.332.175.44.09.077.206.118.322.118.048 0 .095-.007.142-.02l178.304-52.677c.186-.054.323-.21.353-.402.028-.19-.055-.382-.215-.49l-159.27-107.813c-.085-.057-.183-.086-.28-.086zM-10.98 839.51l199.34 96.296-125.213 40.328L-10.98 839.51m0-.5c-.133 0-.265.055-.36.156-.15.156-.182.393-.078.583L62.708 976.37c.09.165.26.262.44.262.05 0 .102-.008.152-.024l125.212-40.328c.194-.062.33-.237.346-.44.014-.204-.098-.397-.28-.485l-199.34-96.295c-.068-.035-.142-.05-.217-.05zM188.36 693.835l64.11 74.07-106.183-16.458 42.074-57.612m0-.5h-.02c-.152.007-.294.082-.384.205l-42.072 57.612c-.104.14-.125.325-.06.486s.214.276.387.303l106.184 16.46c.025.004.05.006.076.006.18 0 .35-.097.438-.258.102-.184.078-.41-.06-.57l-64.108-74.07c-.095-.11-.234-.173-.38-.173z"/>
    <path d="M146.288 751.447l106.182 16.46-64.11 167.898-42.072-184.358m0-.5c-.138 0-.27.057-.366.16-.112.12-.158.29-.12.45l42.07 184.36c.05.214.232.37.452.387h.035c.205 0 .392-.126.466-.32l64.11-167.9c.054-.14.04-.298-.034-.43-.076-.13-.207-.22-.356-.242l-106.182-16.46c-.025-.003-.05-.005-.076-.005zM559.994 609.062l12.02 179.42L381.69 661.738l178.304-52.676m0-.5c-.048 0-.096.007-.142.02L381.548 661.26c-.187.054-.324.212-.353.403-.03.192.056.384.217.49L571.736 788.9c.084.056.18.084.277.084.087 0 .173-.022.25-.067.165-.096.262-.276.25-.466L560.49 609.03c-.01-.152-.088-.29-.212-.378-.083-.06-.182-.09-.284-.09z"/>
    <path d="M381.69 661.738l190.324 126.744L421.26 916.145l-39.57-254.407m0-.5c-.094 0-.188.026-.27.08-.167.105-.255.3-.225.497l39.57 254.406c.026.18.15.33.318.393.057.02.116.03.175.03.116 0 .23-.04.323-.117l150.756-127.662c.12-.102.185-.254.176-.41-.01-.157-.09-.3-.222-.388L381.968 661.322c-.084-.055-.18-.084-.278-.084z"/>
    <path d="M381.69 661.738l39.57 254.406-168.79-148.238 129.22-106.168m0-.5c-.114 0-.227.04-.317.113l-129.22 106.17c-.114.094-.18.23-.184.38-.003.145.06.286.17.383L420.93 916.52c.093.083.21.125.33.125.08 0 .164-.02.24-.062.184-.102.285-.308.253-.516l-39.57-254.406c-.026-.176-.147-.325-.314-.39-.06-.02-.12-.032-.18-.032z"/>
    <path d="M252.47 767.906l168.79 148.238-232.9 19.66 64.11-167.898m0-.5c-.04 0-.08.005-.12.015-.16.04-.29.155-.347.308l-64.11 167.9c-.062.16-.036.34.067.478.095.126.243.2.4.2l.04-.003 232.9-19.66c.2-.018.37-.152.434-.343s.006-.4-.145-.532L252.8 767.53c-.093-.08-.21-.124-.33-.124zM559.994 609.062l124.213 21.4-112.192 158.02-12.02-179.42m0-.5c-.124 0-.243.045-.336.13-.114.102-.175.25-.165.403l12.02 179.42c.016.21.16.39.364.448.044.013.09.02.135.02.16 0 .312-.077.407-.212l112.193-158.02c.1-.14.12-.32.054-.478-.066-.16-.21-.273-.378-.303l-124.213-21.4c-.03-.006-.058-.008-.086-.008z"/>
    <path d="M684.207 630.463l78.133 120.162-190.325 37.857 112.192-158.02m0-.5c-.162 0-.313.08-.408.212l-112.192 158.02c-.12.167-.124.39-.013.56.094.146.253.23.42.23.032 0 .065-.003.098-.01l190.325-37.857c.162-.032.3-.144.363-.296.065-.152.05-.327-.04-.466L684.625 630.19c-.09-.14-.243-.224-.41-.228h-.01z"/>
    <path d="M572.015 788.482l-21.037 137.934-129.718-10.27L572.015 788.48m0-.5c-.116 0-.23.04-.323.118L420.937 915.763c-.154.13-.215.343-.152.535.062.193.234.33.437.345l129.718 10.27c.013.002.026.003.04.003.244 0 .456-.18.493-.425l21.037-137.933c.03-.206-.068-.41-.25-.512-.077-.042-.16-.063-.245-.063zM800.5 602.487l141.146 81.472-257.44-53.497L800.5 602.487m0-.5c-.04 0-.08.005-.118.014L684.09 629.978c-.228.055-.387.26-.383.494s.17.436.398.482l257.44 53.496c.033.008.067.01.1.01.205 0 .394-.124.468-.32.088-.23-.004-.49-.217-.61L800.75 602.054c-.078-.045-.164-.068-.25-.068z"/>
    <path d="M919.75 563.654l21.896 120.305L800.5 602.486l119.25-38.833m0-.5c-.053 0-.105.008-.156.024l-119.25 38.833c-.188.063-.32.23-.342.425s.076.386.247.484l141.146 81.47c.078.046.164.068.25.068.102 0 .202-.03.288-.09.16-.113.24-.308.204-.5L920.24 563.563c-.025-.142-.11-.266-.235-.34-.078-.045-.167-.07-.256-.07z"/>
    <path d="M684.207 630.463l257.44 53.496-179.307 66.665-78.133-120.162m0-.5c-.163 0-.318.08-.413.218-.113.168-.116.387-.006.556l78.133 120.162c.096.146.255.228.42.228.06 0 .117-.01.174-.03l179.307-66.667c.21-.08.343-.285.325-.508-.017-.222-.178-.406-.396-.45l-257.44-53.497c-.035-.008-.07-.012-.103-.012zM572.015 788.482l95.16 179.513-116.197-41.58 21.037-137.933m0-.5c-.027 0-.056.002-.084.007-.21.035-.377.204-.41.417L550.485 926.34c-.036.237.1.467.325.547l116.198 41.58c.055.02.11.028.168.028.143 0 .28-.06.378-.173.136-.156.16-.38.063-.562l-95.16-179.513c-.088-.164-.26-.265-.442-.265z"/>
    <path d="M762.34 750.625l-95.164 217.37-95.16-179.513 190.324-37.857m0-.5c-.032 0-.064.003-.098.01l-190.325 37.857c-.155.03-.286.133-.354.275-.067.143-.063.31.01.45l95.162 179.512c.086.163.257.265.44.265h.02c.192-.008.362-.124.44-.3l95.163-217.37c.075-.17.048-.368-.068-.514-.096-.118-.24-.185-.39-.185zM1002.75 534.99l-61.103 148.97-21.897-120.306 83-28.663m0-.5c-.054 0-.11.01-.162.028l-83.002 28.663c-.233.082-.373.32-.33.563l21.898 120.305c.04.218.22.384.44.407.017.002.034.003.052.003.2 0 .385-.12.463-.31l61.103-148.97c.074-.18.035-.39-.1-.532-.094-.1-.226-.155-.362-.155z"/>
    <path d="M1002.75 534.99l78.135 134.98-139.238 13.99 61.104-148.97m0-.5c-.01 0-.02 0-.033.002-.19.013-.355.133-.43.31L941.185 683.77c-.066.162-.043.348.062.488.095.127.243.2.4.2.017 0 .033 0 .05-.002l139.238-13.99c.17-.017.317-.118.396-.27.077-.15.072-.33-.013-.478l-78.134-134.98c-.09-.152-.254-.247-.432-.247zM762.34 750.625l61.104 185.18-156.27 32.19 95.166-217.37m0-.5c-.198 0-.378.117-.458.3l-95.164 217.37c-.075.17-.048.37.07.515.095.12.238.186.388.186.033 0 .067-.003.1-.01l156.27-32.19c.14-.028.26-.115.332-.24.07-.122.087-.27.042-.405l-61.104-185.18c-.064-.197-.244-.333-.45-.343-.01-.002-.018-.002-.026-.002z"/>
    <path d="M941.646 683.96l-29.05 168.72L762.34 750.624l179.306-66.666m0-.5c-.06 0-.117.01-.174.03l-179.307 66.666c-.176.065-.3.223-.322.41-.022.185.06.367.215.473l150.257 102.053c.085.057.183.086.28.086.067 0 .134-.014.196-.04.158-.067.27-.21.3-.376l29.048-168.72c.03-.177-.035-.355-.173-.47-.09-.075-.203-.115-.32-.115z"/>
    <path d="M762.34 750.625L912.597 852.68l-89.152 83.126-61.105-185.18m0-.5c-.106 0-.212.033-.3.1-.173.13-.242.353-.175.556l61.104 185.18c.053.163.185.287.35.33.04.01.082.015.124.015.125 0 .247-.047.34-.135l89.153-83.127c.11-.104.17-.252.158-.403-.012-.152-.092-.29-.218-.376L762.62 750.21c-.084-.057-.182-.085-.28-.085z"/>
    <path d="M941.646 683.96l57.097 109.463-86.146 59.256 29.05-168.72m0-.5c-.026 0-.052 0-.078.005-.213.033-.38.198-.416.41l-29.05 168.72c-.034.197.054.396.223.505.082.053.176.08.27.08.1 0 .198-.03.283-.09l86.146-59.255c.208-.144.276-.42.16-.644L942.09 683.73c-.087-.167-.26-.27-.444-.27z"/>
    <path d="M1080.885 669.97l-82.142 123.453-57.097-109.464 139.24-13.99m0-.5c-.018 0-.034 0-.05.002l-139.24 13.99c-.164.017-.31.113-.39.26-.078.146-.08.32-.003.47L998.3 793.653c.082.156.24.26.417.268h.026c.167 0 .323-.082.416-.222l82.14-123.454c.108-.16.113-.37.014-.535-.09-.15-.255-.24-.43-.24zM912.597 852.68l85.19 147.474-174.343-64.348 89.153-83.127m0-.5c-.126 0-.248.047-.34.134l-89.153 83.127c-.127.12-.184.295-.15.465s.155.31.318.37l174.343 64.348c.056.02.114.03.173.03.145 0 .285-.06.383-.177.136-.16.156-.39.05-.572L913.03 852.43c-.075-.133-.207-.223-.357-.245-.027-.004-.052-.006-.076-.006z"/>
    <path d="M998.743 793.423l-.956 206.73-85.19-147.475 86.146-59.255m0-.5c-.1 0-.198.03-.283.088l-86.146 59.257c-.215.148-.28.437-.15.662l85.19 147.474c.092.157.258.25.434.25.043 0 .086-.006.13-.017.217-.06.37-.255.37-.48l.956-206.73c0-.187-.102-.358-.267-.445-.074-.04-.154-.06-.234-.06zM849.49 366.612l180.308 72.426-141.47 45.615-38.84-118.04m0-.5c-.124 0-.246.046-.34.134-.143.133-.195.336-.134.52l38.84 118.042c.067.21.264.343.474.343.05 0 .103-.008.153-.024l141.47-45.616c.2-.065.34-.248.348-.458.007-.21-.118-.403-.313-.48l-180.31-72.427c-.06-.026-.123-.038-.186-.038z"/>
    <path d="M1056.845 255.504l-27.047 183.534-180.31-72.426 207.357-111.108m0-.5c-.08 0-.162.02-.236.06L849.252 366.172c-.17.09-.273.274-.263.468s.133.364.312.437l180.31 72.426c.06.024.122.036.186.036.087 0 .173-.023.25-.067.132-.076.223-.21.245-.36l27.047-183.535c.027-.187-.053-.373-.207-.482-.086-.06-.188-.092-.288-.092z"/>
    <path d="M849.49 366.612l38.838 118.04-103.95 22.697 65.11-140.738m0-.5c-.193 0-.37.112-.453.29l-65.11 140.738c-.08.172-.056.375.063.522.096.12.24.188.39.188.035 0 .07-.004.106-.012l103.95-22.696c.14-.03.258-.117.327-.24.07-.123.087-.27.042-.404l-38.84-118.04c-.062-.196-.24-.332-.445-.344-.01-.002-.018-.002-.028-.002z"/>
    <path d="M914.6 194.6l142.245 60.904L849.49 366.612l65.11-172.01m0-.5c-.065 0-.132.012-.195.04-.125.052-.223.154-.27.282l-65.112 172.012c-.074.195-.02.415.138.553.095.08.213.123.33.123.082 0 .163-.02.237-.06l207.355-111.107c.17-.09.27-.27.263-.463-.008-.192-.125-.362-.303-.438l-142.244-60.903c-.064-.028-.13-.04-.197-.04z"/>
    <path d="M715.26 340.276l134.23 26.336-65.112 140.738-69.117-167.074m0-.5c-.147 0-.29.066-.386.183-.117.142-.146.337-.075.507l69.116 167.073c.076.184.253.305.45.31h.012c.194 0 .372-.114.454-.29l65.11-140.738c.065-.14.062-.3-.008-.438s-.198-.233-.35-.263l-134.228-26.335c-.03-.006-.063-.01-.095-.01z"/>
    <path d="M715.26 340.276L784.38 507.35l-138.236-3.293 69.12-163.78m0-.5c-.202 0-.384.12-.462.305l-69.12 163.78c-.062.153-.048.328.042.467s.243.224.408.228l138.236 3.292h.012c.165 0 .32-.08.412-.217.096-.14.114-.318.05-.475l-69.117-167.073c-.077-.186-.26-.308-.46-.31h-.002zM1130.97 168.263l-74.125 87.24L914.6 194.602l216.37-26.337m0-.5c-.02 0-.04 0-.06.004l-216.37 26.338c-.225.027-.402.202-.435.425-.03.224.09.44.3.53l142.243 60.903c.062.027.13.04.196.04.144 0 .284-.06.38-.175l74.127-87.24c.135-.158.158-.38.06-.562-.087-.164-.257-.263-.44-.263z"/>
    <path d="M1011.604 72.15l119.366 96.112L914.6 194.6l97.004-122.45m0-.5c-.02 0-.037 0-.056.003-.133.015-.254.082-.336.187l-97.004 122.45c-.126.16-.144.378-.045.555.09.16.257.255.437.255.02 0 .04 0 .06-.004l216.37-26.338c.2-.024.366-.166.42-.36.057-.192-.01-.4-.166-.526L1011.918 71.76c-.09-.07-.2-.11-.314-.11z"/>
    <path d="M914.6 194.6l-65.11 172.013-92.158-83.948 157.27-88.064m0-.5c-.085 0-.17.022-.245.064l-157.27 88.063c-.14.08-.234.22-.253.38-.018.16.04.317.16.426l92.158 83.948c.094.086.214.13.337.13.038 0 .077-.003.115-.013.16-.04.293-.154.352-.31l65.11-172.012c.075-.196.02-.418-.14-.556-.093-.078-.21-.12-.326-.12zM715.26 340.276l-69.118 163.78-86.146-59.598L715.26 340.276m0-.5c-.096 0-.193.028-.277.085L559.717 444.045c-.138.092-.22.246-.222.412s.08.32.216.415l86.147 59.6c.084.06.184.09.284.09.048 0 .095-.008.14-.02.146-.043.264-.148.322-.287l69.12-163.78c.085-.205.026-.44-.144-.58-.092-.078-.204-.117-.317-.117z"/>
    <path d="M757.33 282.664l92.16 83.948-134.23-26.336 42.07-57.612m0-.5c-.016 0-.032 0-.05.002-.14.014-.27.088-.353.203l-42.07 57.61c-.102.14-.125.32-.062.478s.202.276.37.31l134.228 26.335c.033.006.064.01.097.01.187 0 .36-.105.446-.276.102-.2.057-.443-.11-.594l-92.157-83.948c-.095-.085-.215-.13-.34-.13z"/>
    <path d="M715.26 340.276L559.996 444.46l-38.064-72.086 193.33-32.098m0-.5c-.025 0-.054.002-.08.007L521.85 371.88c-.16.027-.296.128-.367.272s-.07.313.006.456l38.063 72.085c.066.125.183.217.32.25.04.01.08.016.122.016.1 0 .195-.03.278-.086L715.54 340.69c.194-.13.272-.38.186-.6-.078-.19-.263-.314-.465-.314zM720.27 160.033L914.6 194.6l-157.27 88.063-37.06-122.63m0-.5c-.143 0-.28.06-.375.168-.115.13-.154.312-.104.478l37.063 122.63c.044.146.15.264.292.32.06.024.123.036.187.036.085 0 .17-.02.244-.064l157.27-88.063c.185-.103.284-.31.25-.52-.036-.207-.198-.37-.406-.408L720.358 159.54c-.03-.006-.06-.01-.09-.01z"/>
    <path d="M651.15 266.202l64.11 74.074-193.33 32.098 129.22-106.172m0-.5c-.11 0-.224.037-.316.114l-129.22 106.172c-.176.144-.232.387-.14.593.083.182.263.294.456.294.027 0 .055-.002.082-.007l193.33-32.098c.18-.03.327-.154.388-.324.062-.17.027-.36-.092-.497l-64.11-74.075c-.097-.114-.237-.173-.377-.173zM840.474 57.978l171.13 14.173-97.003 122.45L840.475 57.98m0-.5c-.168 0-.326.084-.42.227-.1.154-.107.35-.02.512L914.16 194.84c.08.148.23.245.397.26l.043.002c.15 0 .297-.07.392-.19l97.004-122.45c.115-.144.14-.34.067-.508-.073-.17-.233-.284-.418-.3L840.515 57.48c-.014-.002-.028-.002-.04-.002z"/>
    <path d="M840.474 57.978L914.6 194.6l-194.33-34.566L840.473 57.978m0-.5c-.118 0-.232.042-.323.12L719.946 159.65c-.148.125-.21.325-.16.512.05.187.205.328.396.362l194.333 34.567c.03.005.06.008.088.008.16 0 .312-.075.406-.207.112-.156.126-.362.034-.53L840.913 57.738c-.07-.134-.2-.227-.348-.254-.03-.006-.06-.008-.09-.008zM651.15 266.202l106.18 16.462-42.07 57.612-64.11-74.074m0-.5c-.18 0-.348.097-.437.258-.102.184-.078.41.06.57l64.11 74.073c.094.11.232.173.377.173h.02c.153-.006.294-.082.384-.205l42.07-57.61c.104-.142.125-.326.06-.487s-.214-.276-.386-.303l-106.18-16.462c-.026-.004-.05-.006-.077-.006z"/>
    <path d="M720.27 160.033l37.06 122.63-106.18-16.46 69.12-106.17m0-.5c-.168 0-.327.084-.42.227l-69.117 106.17c-.093.142-.106.32-.037.476.068.155.212.264.38.29l106.18 16.462c.025.004.05.006.076.006.144 0 .28-.062.378-.172.112-.13.15-.308.1-.473l-37.06-122.632c-.057-.187-.217-.323-.41-.35-.025-.003-.048-.005-.07-.005zM1002.75 1.834l8.855 70.316-171.13-14.172L1002.75 1.834m0-.5c-.054 0-.11.01-.162.027L840.31 57.506c-.223.077-.36.3-.332.535s.22.416.455.436l171.13 14.173h.042c.136 0 .267-.054.36-.153.105-.108.154-.26.136-.408l-8.853-70.317c-.02-.15-.104-.283-.232-.362-.08-.05-.17-.076-.264-.076z"/>
    <path d="M723.27 48.446l117.203 9.532L720.27 160.033l3-111.587m0-.5c-.122 0-.24.045-.333.128-.102.092-.162.22-.166.36L719.77 160.02c-.005.197.106.38.284.465.068.033.143.05.216.05.116 0 .23-.042.323-.12L840.798 58.36c.154-.132.215-.343.152-.536-.063-.192-.234-.33-.437-.345l-117.2-9.533h-.042zM331.606 245.628L521.93 372.374l-178.305 52.672-12.02-179.418m0-.5c-.086 0-.172.022-.25.067-.164.095-.26.276-.248.466l12.02 179.42c.01.15.09.29.213.376.085.06.186.09.286.09.048 0 .095-.007.142-.02l178.305-52.673c.187-.055.324-.213.353-.405.03-.192-.056-.383-.217-.49L331.883 245.21c-.084-.056-.18-.084-.278-.084z"/>
    <path d="M510.912 167.44l11.02 204.934-190.326-126.746 179.306-78.188m0-.5c-.068 0-.136.014-.2.042L331.406 245.17c-.167.073-.28.232-.298.415s.068.36.22.46L521.654 372.79c.084.056.18.084.277.084.085 0 .17-.022.248-.066.164-.094.262-.272.25-.46L511.41 167.412c-.01-.164-.097-.312-.236-.398-.08-.05-.17-.075-.262-.075z"/>
    <path d="M510.912 167.44l140.24 98.762-129.22 106.172-11.02-204.934m0-.5c-.083 0-.166.02-.242.062-.168.093-.268.273-.257.464l11.02 204.934c.01.188.124.355.297.43.064.03.133.043.2.043.115 0 .228-.04.318-.114l129.22-106.173c.122-.1.19-.25.184-.405-.006-.156-.085-.3-.212-.39l-140.24-98.76c-.086-.06-.186-.092-.288-.092z"/>
    <path d="M720.27 160.033l-69.118 106.17-140.24-98.763 209.357-7.407m0-.5h-.02l-209.355 7.407c-.215.007-.4.15-.462.357-.06.206.017.428.19.55l140.24 98.763c.085.06.186.09.288.09.032 0 .064-.002.096-.008.133-.026.25-.104.324-.218l69.117-106.17c.102-.156.108-.355.017-.518-.09-.156-.256-.253-.435-.253z"/>
    <path d="M640.132 87.608l80.137 72.425-209.357 7.407 129.22-79.832m0-.5c-.092 0-.183.024-.264.075l-129.22 79.832c-.194.12-.282.354-.217.57.064.21.26.355.48.355h.017l209.356-7.407c.204-.007.382-.137.452-.328s.017-.406-.135-.542l-80.137-72.425c-.093-.086-.213-.13-.334-.13z"/>
    <path d="M723.27 48.446l-3.002 111.587-80.137-72.425 83.14-39.162m0-.5c-.07 0-.145.016-.212.048l-83.14 39.163c-.15.07-.257.213-.282.38-.023.164.036.33.16.443l80.137 72.425c.094.084.213.13.335.13.066 0 .134-.014.196-.042.18-.077.3-.25.304-.446L723.77 48.46c.005-.174-.08-.337-.226-.432-.08-.055-.177-.082-.273-.082zM331.606 245.628l12.02 179.418-124.212-21.398 112.192-158.02m0-.5c-.16 0-.312.076-.407.21l-112.194 158.02c-.1.14-.12.32-.054.48.065.16.208.272.377.302l124.21 21.398c.03.005.058.007.086.007.123 0 .242-.045.335-.128.114-.103.175-.252.165-.405l-12.02-179.418c-.015-.21-.16-.39-.363-.448-.045-.012-.09-.018-.136-.018z"/>
    <path d="M331.606 245.628l-112.192 158.02-78.133-120.16 190.326-37.86m0-.5c-.032 0-.065.003-.098.01l-190.325 37.858c-.162.032-.3.143-.363.296s-.05.328.042.467l78.133 120.16c.09.14.243.224.41.228h.01c.16 0 .312-.078.407-.21l112.19-158.02c.12-.167.125-.39.014-.562-.093-.144-.253-.228-.42-.228z"/>
    <path d="M343.624 69.182l167.288 98.258-179.306 78.188 12.018-176.446m0-.5c-.08 0-.16.02-.233.058-.152.08-.253.235-.265.408l-12.018 176.446c-.012.174.068.342.21.443.087.06.188.09.29.09.066 0 .135-.013.2-.04l179.305-78.19c.172-.074.288-.24.3-.428.01-.19-.085-.367-.247-.462L343.877 68.75c-.078-.045-.165-.068-.253-.068zM-38.024 350.15l257.438 53.497-65.332 56.007L-38.024 350.15m0-.5c-.204 0-.393.126-.468.324-.087.23.007.49.22.61L153.835 460.09c.078.044.163.065.248.065.117 0 .232-.04.325-.12l65.332-56.008c.144-.124.205-.32.158-.504-.048-.184-.196-.325-.383-.364L-37.923 349.66c-.034-.005-.068-.01-.1-.01z"/>
    <path d="M-38.024 350.15l192.106 109.504-160.666 27.12-31.44-136.623m0-.5c-.105 0-.21.034-.298.1-.16.12-.234.32-.19.514l31.44 136.622c.054.23.26.388.488.388.027 0 .055-.002.083-.007l160.665-27.12c.21-.034.372-.197.41-.405.036-.208-.062-.417-.245-.522L-37.777 349.717c-.077-.044-.162-.066-.247-.066zM461.827 36.58L640.132 87.61l-129.22 79.832-49.085-130.86m0-.5c-.138 0-.27.058-.367.162-.128.14-.167.338-.1.515l49.084 130.86c.052.14.165.248.306.296.053.018.107.027.162.027.092 0 .183-.025.263-.075l129.22-79.832c.168-.104.26-.297.232-.494s-.167-.36-.357-.413L461.965 36.1c-.046-.013-.092-.02-.138-.02z"/>
    <path d="M141.28 283.486l78.134 120.16-257.438-53.495 179.305-66.664m0-.5c-.058 0-.116.01-.173.03L-38.2 349.683c-.208.078-.34.284-.324.506.018.222.18.407.397.452l257.438 53.497c.034.007.07.01.103.01.163 0 .318-.08.413-.218.113-.168.116-.387.006-.556L141.7 283.214c-.094-.146-.254-.228-.42-.228zM461.827 36.58l49.085 130.86-167.288-98.258 118.203-32.6m0-.5c-.044 0-.09.005-.133.017L343.49 68.7c-.193.053-.336.217-.362.417s.07.395.243.497l167.29 98.258c.077.046.165.07.252.07.115 0 .23-.04.322-.118.162-.137.22-.36.146-.56l-49.085-130.86c-.074-.198-.264-.323-.468-.323z"/>
    <path d="M343.624 69.182l-12.018 176.446-112.194-147.32L343.624 69.18m0-.5c-.038 0-.076.004-.114.013L219.298 97.82c-.165.04-.3.158-.356.318-.057.16-.03.337.073.472L331.21 245.93c.095.127.243.198.396.198.048 0 .097-.007.144-.02.2-.06.34-.238.355-.446l12.018-176.446c.01-.16-.055-.312-.176-.415-.09-.076-.206-.118-.323-.118z"/>
    <path d="M219.412 98.307l112.194 147.32-190.325 37.86 78.132-185.18m0-.5c-.02 0-.042 0-.062.004-.178.023-.33.138-.398.303l-78.13 185.18c-.072.17-.045.367.072.51.097.118.24.184.388.184.032 0 .065-.003.098-.01l190.325-37.858c.17-.035.31-.153.37-.314.06-.16.034-.342-.07-.48L219.81 98.005c-.095-.125-.243-.197-.398-.197z"/>
    <path d="M219.412 98.307l-78.13 185.18-61.105-185.18h139.235m0-.5H80.177c-.16 0-.312.077-.405.207s-.12.297-.07.45l61.105 185.18c.065.198.246.334.454.343h.022c.2 0 .383-.12.46-.306L219.875 98.5c.064-.153.05-.33-.044-.47s-.25-.223-.418-.223z"/>
    <path d="M-8.976 181.434L141.28 283.487l-179.305 66.665 29.05-168.718m0-.5c-.067 0-.134.013-.196.04-.157.066-.27.208-.3.375l-29.048 168.717c-.03.176.036.355.174.47.09.076.205.115.32.115.058 0 .116-.01.173-.03l179.305-66.666c.176-.065.3-.223.322-.41.022-.185-.06-.368-.215-.473L-8.694 181.02c-.085-.057-.183-.086-.282-.086z"/>
    <path d="M80.177 98.307l61.104 185.18L-8.975 181.434l89.153-83.127m0-.5c-.125 0-.247.047-.34.134L-9.317 181.07c-.11.104-.17.252-.158.404.012.15.092.29.218.375L141 283.9c.085.058.184.086.28.086.107 0 .213-.034.302-.1.17-.13.24-.353.174-.557L80.65 98.15c-.053-.162-.185-.285-.35-.328-.04-.01-.082-.015-.123-.015z"/>
    <path fill="none" stroke="#000" stroke-width=".5" stroke-linecap="round" stroke-linejoin="round" d="M219.412 98.307l124.212-29.125M80.177 98.307h139.235"/>
    <path d="M2.442 6.165l77.734 92.142-89.152 83.127L2.442 6.164m0-.5c-.052 0-.104.01-.156.026-.194.064-.33.24-.343.442l-11.418 175.27c-.014.203.1.395.285.483.068.033.14.048.214.048.124 0 .246-.046.34-.134L80.518 98.67c.195-.182.213-.484.04-.688L2.825 5.844c-.096-.116-.237-.18-.382-.18zM343.626 425.046l216.37 19.413-159.272 56.79-57.098-76.204m0-.5c-.18 0-.348.097-.437.256-.098.172-.083.385.035.543l57.098 76.203c.097.13.246.2.4.2.056 0 .113-.01.168-.03l159.272-56.79c.222-.078.357-.3.328-.533s-.218-.414-.45-.435l-216.37-19.413h-.044z"/>
    <path d="M343.626 425.046l57.098 76.203-143.244 28.803 86.146-105.007m0-.5c-.15 0-.292.067-.387.183l-86.147 105.006c-.134.164-.15.394-.042.575.093.153.257.243.43.243.032 0 .065-.003.1-.01l143.243-28.804c.168-.035.308-.152.368-.313.063-.16.037-.34-.065-.48l-57.098-76.202c-.093-.123-.235-.197-.39-.2h-.01z"/>
    <path d="M343.626 425.046L257.48 530.053l-103.397-70.398 189.543-34.61m0-.5c-.03 0-.06.003-.09.01L153.992 459.16c-.2.036-.357.19-.4.388s.04.403.21.517l103.396 70.398c.086.06.184.087.28.087.146 0 .29-.062.388-.183l86.146-105.008c.133-.163.15-.39.044-.57-.09-.154-.255-.246-.43-.246z"/>
    <path d="M219.414 403.647l124.212 21.398-189.544 34.608 65.332-56.006m0-.5c-.118 0-.234.042-.325.12l-65.333 56.008c-.172.147-.224.39-.126.594.085.176.262.284.452.284.03 0 .06-.002.09-.008l189.544-34.608c.238-.043.41-.252.41-.494 0-.243-.176-.45-.415-.49L219.5 403.156c-.03-.006-.058-.01-.086-.01z"/>
    <path d="M154.082 459.654l103.397 70.398-138.238-3.293 34.84-67.106m0-.5c-.04 0-.082.005-.122.015-.14.034-.256.126-.32.253l-34.84 67.105c-.08.153-.076.337.012.485s.246.24.42.245l138.236 3.293h.012c.217 0 .41-.14.476-.346.068-.212-.01-.442-.194-.566L154.365 459.24c-.086-.056-.183-.086-.283-.086z"/>
    <path d="M154.082 459.654l-34.84 67.105-125.826-39.987 160.666-27.12m0-.5c-.027 0-.056.003-.083.008L-6.668 486.28c-.228.04-.4.228-.416.458-.016.23.128.442.348.512l125.826 39.986c.05.016.102.023.152.023.183 0 .355-.102.443-.27l34.84-67.106c.088-.168.072-.372-.04-.525-.094-.13-.245-.206-.403-.206z"/>
    <path d="M-6.584 486.773l125.826 39.986-94.826 50.227-31-90.214m0-.5c-.133 0-.262.053-.357.15-.133.135-.178.333-.116.512l31 90.213c.047.14.153.25.29.303.058.024.12.036.183.036.08 0 .16-.02.234-.06l94.827-50.227c.178-.095.28-.286.264-.487-.017-.2-.153-.37-.346-.432L-6.433 486.298c-.05-.016-.1-.024-.15-.024z"/>
    <path d="M-6.584 486.773l31 90.214-150.592 18.085 119.592-108.3m0-.5c-.123 0-.242.046-.336.13L-126.512 594.7c-.16.146-.21.38-.12.578.083.18.262.293.456.293.02 0 .04 0 .06-.003l150.592-18.085c.15-.018.284-.103.364-.23s.098-.285.05-.428l-31-90.214c-.056-.16-.187-.28-.35-.322-.04-.01-.082-.015-.124-.015zM559.995 444.46l86.146 59.598-86.146 105.005V444.46m0-.5c-.078 0-.158.018-.23.056-.165.086-.27.257-.27.443v164.603c0 .21.133.4.332.47.055.02.11.03.168.03.146 0 .29-.064.387-.183l86.148-105.005c.09-.108.128-.248.108-.387s-.096-.263-.21-.342l-86.147-59.6c-.086-.057-.185-.087-.285-.087z"/>
    <path d="M646.142 504.058l38.065 126.405-124.213-21.4 86.148-105.005m0-.5c-.147 0-.29.065-.387.183l-86.147 105.006c-.113.138-.144.325-.082.492.062.167.21.288.384.318l124.213 21.4c.028.005.057.007.085.007.142 0 .278-.06.375-.17.114-.13.154-.31.104-.475L646.62 503.913c-.053-.177-.2-.31-.38-.346-.033-.006-.066-.01-.098-.01z"/>
    <path d="M646.142 504.058l154.357 98.43-116.293 27.976-38.065-126.406m0-.5c-.106 0-.213.034-.302.102-.167.126-.237.343-.177.543l38.065 126.405c.064.215.263.355.48.355.037 0 .077-.005.116-.014l116.292-27.977c.194-.047.343-.206.376-.403.033-.198-.055-.396-.225-.505l-154.357-98.43c-.082-.05-.176-.077-.268-.077z"/>
    <path d="M646.142 504.058l138.236 3.292 16.12 95.138-154.356-98.43m0-.5c-.22 0-.414.144-.48.354-.064.215.022.446.21.567l154.358 98.43c.082.05.176.077.27.077.096 0 .19-.027.275-.083.165-.11.25-.306.217-.5l-16.12-95.14c-.04-.234-.243-.41-.482-.415l-138.236-3.293h-.012zM1029.798 439.038l-27.047 95.953-114.422-50.337 141.47-45.615m0-.5c-.052 0-.103.008-.153.024l-141.47 45.615c-.198.064-.335.243-.346.45-.012.208.106.4.297.484l114.423 50.34c.063.027.133.04.2.04.074 0 .147-.015.215-.047.13-.062.23-.177.268-.316l27.047-95.953c.05-.177-.002-.368-.135-.496-.095-.09-.22-.14-.347-.14z"/>
    <path d="M888.328 484.653l114.423 50.338-83 28.664-31.422-79m0-.5c-.127 0-.252.047-.348.14-.146.14-.19.355-.117.543l31.42 79c.08.196.267.316.466.316.053 0 .108-.01.162-.027l83.002-28.663c.194-.067.328-.247.336-.452.01-.205-.11-.395-.298-.478L888.53 484.195c-.065-.028-.134-.042-.202-.042z"/>
    <path d="M784.378 507.35l135.37 56.305-119.25 38.833-16.12-95.138m0-.5c-.11 0-.222.037-.312.108-.143.114-.212.296-.182.476l16.12 95.138c.025.143.11.27.235.344.078.048.167.072.258.072.052 0 .104-.008.155-.024l119.25-38.833c.198-.064.336-.246.344-.455.01-.21-.113-.4-.307-.48l-135.37-56.307c-.062-.026-.127-.038-.192-.038z"/>
    <path d="M888.328 484.653l31.42 79-135.37-56.303 103.95-22.697m0-.5c-.035 0-.07.004-.106.012l-103.95 22.696c-.214.047-.372.227-.392.444s.104.423.306.507l135.37 56.306c.063.025.13.038.193.038.128 0 .254-.05.35-.144.144-.142.188-.354.114-.54l-31.42-79.002c-.078-.193-.265-.315-.466-.315z"/>
  </g>
</svg>
